G04 Layer_Color=8388736*
%FSLAX23Y23*%
%MOIN*%
G70*
G01*
G75*
%ADD46R,0.091X0.071*%
%ADD47R,0.059X0.067*%
%ADD48R,0.083X0.102*%
%ADD49R,0.083X0.054*%
%ADD50R,0.062X0.026*%
%ADD51R,0.091X0.066*%
%ADD52O,0.106X0.036*%
%ADD53R,0.067X0.059*%
%ADD54R,0.095X0.032*%
%ADD55R,0.095X0.032*%
%ADD56R,0.091X0.130*%
%ADD57R,0.091X0.041*%
%ADD58R,0.142X0.083*%
%ADD59R,0.102X0.091*%
%ADD60C,0.063*%
%ADD61C,0.047*%
%ADD62R,0.047X0.047*%
%ADD63R,0.067X0.067*%
%ADD64C,0.067*%
%ADD65C,0.070*%
%ADD66R,0.070X0.070*%
%ADD67O,0.070X0.063*%
%ADD68R,0.067X0.067*%
D46*
X854Y1130D02*
D03*
X1216D02*
D03*
D47*
X1042Y1655D02*
D03*
X968D02*
D03*
Y1330D02*
D03*
X1042D02*
D03*
Y1555D02*
D03*
X968D02*
D03*
Y1420D02*
D03*
X1042D02*
D03*
X1507Y245D02*
D03*
X1432D02*
D03*
Y105D02*
D03*
X1507D02*
D03*
X522Y765D02*
D03*
X448D02*
D03*
X325Y1400D02*
D03*
X400D02*
D03*
X499Y475D02*
D03*
X574D02*
D03*
X498Y395D02*
D03*
X572D02*
D03*
Y315D02*
D03*
X498D02*
D03*
X498Y235D02*
D03*
X572D02*
D03*
X498Y155D02*
D03*
X572D02*
D03*
X498Y580D02*
D03*
X572D02*
D03*
X1333Y1240D02*
D03*
X1407D02*
D03*
X400Y1290D02*
D03*
X325D02*
D03*
X1404Y685D02*
D03*
X1329D02*
D03*
X1333Y1090D02*
D03*
X1407D02*
D03*
D48*
X208Y530D02*
D03*
Y300D02*
D03*
D49*
Y382D02*
D03*
Y448D02*
D03*
D50*
X312Y415D02*
D03*
Y389D02*
D03*
Y364D02*
D03*
Y466D02*
D03*
Y441D02*
D03*
D51*
X298Y318D02*
D03*
Y512D02*
D03*
D52*
X504Y1170D02*
D03*
Y1120D02*
D03*
Y1070D02*
D03*
Y1020D02*
D03*
Y970D02*
D03*
Y920D02*
D03*
Y870D02*
D03*
X696Y1170D02*
D03*
Y1120D02*
D03*
Y1070D02*
D03*
Y1020D02*
D03*
Y970D02*
D03*
Y920D02*
D03*
Y870D02*
D03*
X504Y1650D02*
D03*
Y1600D02*
D03*
Y1550D02*
D03*
Y1500D02*
D03*
Y1450D02*
D03*
Y1400D02*
D03*
Y1350D02*
D03*
X696Y1650D02*
D03*
Y1600D02*
D03*
Y1550D02*
D03*
Y1500D02*
D03*
Y1450D02*
D03*
Y1400D02*
D03*
Y1350D02*
D03*
D53*
X1327Y522D02*
D03*
Y448D02*
D03*
X1212D02*
D03*
Y522D02*
D03*
X1192Y128D02*
D03*
Y202D02*
D03*
X1417Y522D02*
D03*
Y448D02*
D03*
D54*
X1084Y136D02*
D03*
Y186D02*
D03*
Y236D02*
D03*
Y286D02*
D03*
Y336D02*
D03*
Y386D02*
D03*
Y436D02*
D03*
Y486D02*
D03*
Y536D02*
D03*
Y586D02*
D03*
X706D02*
D03*
D55*
Y136D02*
D03*
Y186D02*
D03*
Y236D02*
D03*
Y286D02*
D03*
Y336D02*
D03*
Y386D02*
D03*
Y436D02*
D03*
Y486D02*
D03*
Y536D02*
D03*
D56*
X1254Y885D02*
D03*
D57*
X1479Y976D02*
D03*
Y885D02*
D03*
Y794D02*
D03*
D58*
X1020Y783D02*
D03*
Y937D02*
D03*
D59*
X1307Y270D02*
D03*
Y100D02*
D03*
D60*
X270Y150D02*
D03*
X1655D02*
D03*
D61*
X1537Y1645D02*
D03*
X1587D02*
D03*
X1537Y1595D02*
D03*
X1587D02*
D03*
X1537Y1545D02*
D03*
X1587D02*
D03*
X1537Y1395D02*
D03*
X1587D02*
D03*
X1537Y1345D02*
D03*
Y1295D02*
D03*
X1587D02*
D03*
X1537Y1245D02*
D03*
X1587D02*
D03*
X1537Y1195D02*
D03*
D62*
X1587D02*
D03*
D63*
X1622Y620D02*
D03*
X355Y820D02*
D03*
X1622Y785D02*
D03*
D64*
Y520D02*
D03*
Y420D02*
D03*
X355Y1120D02*
D03*
Y1020D02*
D03*
Y920D02*
D03*
X1522Y620D02*
D03*
X1622Y885D02*
D03*
Y985D02*
D03*
D65*
X1172Y1365D02*
D03*
Y1465D02*
D03*
X1272Y1565D02*
D03*
D66*
X1172D02*
D03*
D67*
X1272Y1365D02*
D03*
Y1465D02*
D03*
D68*
X1622Y620D02*
D03*
M02*
