G04 Layer_Color=8388736*
%FSLAX23Y23*%
%MOIN*%
G70*
G01*
G75*
%ADD46R,0.067X0.059*%
%ADD47R,0.071X0.079*%
%ADD48R,0.059X0.067*%
%ADD49R,0.095X0.032*%
%ADD50R,0.095X0.032*%
%ADD51R,0.106X0.087*%
%ADD52R,0.118X0.028*%
%ADD53O,0.106X0.036*%
%ADD54R,0.142X0.083*%
%ADD55R,0.091X0.130*%
%ADD56R,0.091X0.041*%
%ADD57R,0.102X0.091*%
%ADD58C,0.039*%
%ADD59C,0.063*%
%ADD60R,0.067X0.067*%
%ADD61C,0.067*%
%ADD62C,0.070*%
%ADD63R,0.070X0.070*%
%ADD64O,0.070X0.063*%
%ADD65C,0.047*%
%ADD66R,0.047X0.047*%
%ADD67R,0.067X0.067*%
D46*
X1505Y592D02*
D03*
Y518D02*
D03*
X1595Y592D02*
D03*
Y518D02*
D03*
X1370Y203D02*
D03*
Y277D02*
D03*
X1400Y657D02*
D03*
Y583D02*
D03*
X1685Y592D02*
D03*
Y518D02*
D03*
D47*
X1480Y1150D02*
D03*
X1590D02*
D03*
X685Y675D02*
D03*
X575D02*
D03*
Y185D02*
D03*
X685D02*
D03*
D48*
X1577Y755D02*
D03*
X1503D02*
D03*
X633Y290D02*
D03*
X707D02*
D03*
Y560D02*
D03*
X633D02*
D03*
X293Y1550D02*
D03*
X367D02*
D03*
X487Y910D02*
D03*
X413D02*
D03*
X1610Y170D02*
D03*
X1685D02*
D03*
Y310D02*
D03*
X1610D02*
D03*
X367Y1440D02*
D03*
X293D02*
D03*
X1113Y1200D02*
D03*
X1187D02*
D03*
X707Y380D02*
D03*
X633D02*
D03*
Y470D02*
D03*
X707D02*
D03*
X1113Y1500D02*
D03*
X1187D02*
D03*
Y1635D02*
D03*
X1113D02*
D03*
Y1400D02*
D03*
X1187D02*
D03*
Y1735D02*
D03*
X1113D02*
D03*
Y1300D02*
D03*
X1187D02*
D03*
D49*
X1262Y216D02*
D03*
Y266D02*
D03*
Y316D02*
D03*
Y366D02*
D03*
Y416D02*
D03*
Y466D02*
D03*
Y516D02*
D03*
Y566D02*
D03*
Y616D02*
D03*
Y666D02*
D03*
X884D02*
D03*
D50*
Y216D02*
D03*
Y266D02*
D03*
Y316D02*
D03*
Y366D02*
D03*
Y416D02*
D03*
Y466D02*
D03*
Y516D02*
D03*
Y566D02*
D03*
Y616D02*
D03*
D51*
X328Y296D02*
D03*
X112D02*
D03*
Y684D02*
D03*
X328D02*
D03*
D52*
X342Y553D02*
D03*
Y459D02*
D03*
Y427D02*
D03*
Y521D02*
D03*
Y490D02*
D03*
D53*
X494Y1800D02*
D03*
Y1750D02*
D03*
Y1700D02*
D03*
Y1650D02*
D03*
Y1600D02*
D03*
Y1550D02*
D03*
Y1500D02*
D03*
X686Y1800D02*
D03*
Y1750D02*
D03*
Y1700D02*
D03*
Y1650D02*
D03*
Y1600D02*
D03*
Y1550D02*
D03*
Y1500D02*
D03*
X494Y1320D02*
D03*
Y1270D02*
D03*
Y1220D02*
D03*
Y1170D02*
D03*
Y1120D02*
D03*
Y1070D02*
D03*
Y1020D02*
D03*
X686Y1320D02*
D03*
Y1270D02*
D03*
Y1220D02*
D03*
Y1170D02*
D03*
Y1120D02*
D03*
Y1070D02*
D03*
Y1020D02*
D03*
D54*
X1150Y923D02*
D03*
Y1077D02*
D03*
D55*
X1418Y950D02*
D03*
D56*
X1642Y1041D02*
D03*
Y950D02*
D03*
Y859D02*
D03*
D57*
X1485Y325D02*
D03*
Y155D02*
D03*
D58*
X230Y577D02*
D03*
Y403D02*
D03*
D59*
X300Y1860D02*
D03*
X1540D02*
D03*
D60*
X1800Y700D02*
D03*
X1800Y850D02*
D03*
X250Y970D02*
D03*
D61*
X1800Y600D02*
D03*
Y500D02*
D03*
X1800Y950D02*
D03*
Y1050D02*
D03*
X250Y1270D02*
D03*
Y1170D02*
D03*
Y1070D02*
D03*
X1700Y700D02*
D03*
D62*
X1315Y1400D02*
D03*
Y1500D02*
D03*
X1415Y1600D02*
D03*
D63*
X1315D02*
D03*
D64*
X1415Y1400D02*
D03*
Y1500D02*
D03*
D65*
X1680Y1725D02*
D03*
X1730D02*
D03*
X1680Y1675D02*
D03*
X1730D02*
D03*
X1680Y1625D02*
D03*
X1730D02*
D03*
X1680Y1475D02*
D03*
X1730D02*
D03*
X1680Y1425D02*
D03*
Y1375D02*
D03*
X1730D02*
D03*
X1680Y1325D02*
D03*
X1730D02*
D03*
X1680Y1275D02*
D03*
D66*
X1730D02*
D03*
D67*
X1800Y700D02*
D03*
M02*
