M48
;Layer_Color=9474304
;FILE_FORMAT=2:4
INCH
;TYPE=PLATED
T1F00S00C0.0130
T2F00S00C0.0197
T3F00S00C0.0236
T4F00S00C0.0354
%
T01
X011900Y006200
T02
X006317Y001850
Y004450
X006150Y005267
X006467Y006250
X007067
X008150Y006050
Y004800
X008167Y003700
X009600Y003650
Y004800
Y006050
X007800Y007650
X007100
X008200Y009200
X008500Y010000
Y010550
X009050Y010900
X005750Y010700
X006050Y011600
X011568Y009650
X011567Y008850
X011568Y008050
X012400Y007700
X013467Y008050
Y008850
Y009650
X012467Y010300
X015317Y007250
X014093Y001750
X009550Y001950
X004250Y002750
X004700Y012900
X004050Y014850
X004000Y016300
X005800Y016500
X008100Y016600
X007900Y015000
X008350
X009100
X008750Y014650
X008050Y014500
X008100Y013450
X008750Y012650
X009100Y013000
X008900Y012000
X010350
X012000Y011900
X013117
X014567Y015100
X011650Y017000
X005350Y012900
T03
X015367Y011950
X015867
Y012450
X015367
Y012950
X015867
X015367Y013450
Y013950
X015867
Y015450
X015367
Y015950
X015867
Y016450
X015367
T04
X016550Y001500
X016217Y004200
Y005200
Y006200
X015217
X016217Y007849
Y008849
Y009849
X003550Y010200
Y009200
Y008200
Y011200
X002700Y001500
X011717Y013200
X012717
Y014200
Y015200
X011717
Y014200
M30
