G04 Layer_Physical_Order=2*
G04 Layer_Color=16711680*
%FSLAX23Y23*%
%MOIN*%
G70*
G01*
G75*
%ADD22C,0.020*%
%ADD23C,0.010*%
%ADD26C,0.059*%
%ADD27R,0.059X0.059*%
%ADD28C,0.055*%
%ADD29R,0.039X0.039*%
%ADD30C,0.039*%
%ADD31C,0.062*%
%ADD32O,0.062X0.055*%
%ADD33R,0.062X0.062*%
%ADD34R,0.059X0.059*%
%ADD35C,0.031*%
%ADD36C,0.027*%
%ADD37R,0.130X0.275*%
G36*
X1948Y20D02*
X30D01*
Y1948D01*
X1948D01*
Y20D01*
D02*
G37*
%LPC*%
G36*
X1790Y690D02*
X1760D01*
Y660D01*
X1790D01*
Y690D01*
D02*
G37*
G36*
X1840D02*
X1810D01*
Y660D01*
X1840D01*
Y690D01*
D02*
G37*
G36*
X240Y615D02*
Y587D01*
X268D01*
X268Y587D01*
X264Y597D01*
X258Y605D01*
X250Y611D01*
X240Y615D01*
X240Y615D01*
D02*
G37*
G36*
X1700Y740D02*
X1690Y739D01*
X1680Y735D01*
X1672Y728D01*
X1665Y720D01*
X1661Y710D01*
X1660Y700D01*
X1661Y690D01*
X1665Y680D01*
X1672Y672D01*
X1680Y665D01*
X1690Y661D01*
X1700Y660D01*
X1710Y661D01*
X1720Y665D01*
X1728Y672D01*
X1735Y680D01*
X1739Y690D01*
X1740Y700D01*
X1739Y710D01*
X1735Y720D01*
X1728Y728D01*
X1720Y735D01*
X1710Y739D01*
X1700Y740D01*
D02*
G37*
G36*
X1790Y740D02*
X1760D01*
Y710D01*
X1790D01*
Y740D01*
D02*
G37*
G36*
X240Y960D02*
X210D01*
Y930D01*
X240D01*
Y960D01*
D02*
G37*
G36*
X290D02*
X260D01*
Y930D01*
X290D01*
Y960D01*
D02*
G37*
G36*
X1840Y740D02*
X1810D01*
Y710D01*
X1840D01*
Y740D01*
D02*
G37*
G36*
Y890D02*
X1760D01*
Y810D01*
X1840D01*
Y890D01*
D02*
G37*
G36*
X220Y442D02*
X220Y442D01*
X210Y438D01*
X202Y432D01*
X195Y423D01*
X191Y414D01*
X191Y413D01*
X220D01*
Y442D01*
D02*
G37*
G36*
X240D02*
Y413D01*
X268D01*
X268Y414D01*
X264Y423D01*
X258Y432D01*
X250Y438D01*
X240Y442D01*
X240Y442D01*
D02*
G37*
G36*
X220Y393D02*
X191D01*
X191Y393D01*
X195Y383D01*
X202Y375D01*
X210Y369D01*
X220Y365D01*
X220Y365D01*
Y393D01*
D02*
G37*
G36*
X268D02*
X240D01*
Y365D01*
X240Y365D01*
X250Y369D01*
X258Y375D01*
X264Y383D01*
X268Y393D01*
X268Y393D01*
D02*
G37*
G36*
X1800Y540D02*
X1790Y539D01*
X1780Y535D01*
X1772Y528D01*
X1765Y520D01*
X1761Y510D01*
X1760Y500D01*
X1761Y490D01*
X1765Y480D01*
X1772Y472D01*
X1780Y465D01*
X1790Y461D01*
X1800Y460D01*
X1810Y461D01*
X1820Y465D01*
X1828Y472D01*
X1835Y480D01*
X1839Y490D01*
X1840Y500D01*
X1839Y510D01*
X1835Y520D01*
X1828Y528D01*
X1820Y535D01*
X1810Y539D01*
X1800Y540D01*
D02*
G37*
G36*
X1175Y886D02*
X1166Y884D01*
X1158Y879D01*
X1153Y871D01*
X1151Y862D01*
X1153Y853D01*
X1155Y850D01*
Y573D01*
X577D01*
X576Y574D01*
X570Y579D01*
X563Y582D01*
X555Y583D01*
X547Y582D01*
X540Y579D01*
X534Y574D01*
X529Y568D01*
X526Y561D01*
X525Y553D01*
X526Y545D01*
X529Y538D01*
X534Y532D01*
X540Y527D01*
X547Y524D01*
X555Y523D01*
X563Y524D01*
X570Y527D01*
X576Y532D01*
X577Y533D01*
X1410D01*
X1418Y534D01*
X1424Y539D01*
X1465Y580D01*
X1766D01*
X1772Y572D01*
X1780Y565D01*
X1790Y561D01*
X1800Y560D01*
X1810Y561D01*
X1820Y565D01*
X1828Y572D01*
X1835Y580D01*
X1839Y590D01*
X1840Y600D01*
X1839Y610D01*
X1835Y620D01*
X1828Y628D01*
X1820Y635D01*
X1810Y639D01*
X1800Y640D01*
X1790Y639D01*
X1780Y635D01*
X1772Y628D01*
X1766Y620D01*
X1457D01*
X1449Y619D01*
X1443Y614D01*
X1402Y573D01*
X1195D01*
Y850D01*
X1197Y853D01*
X1199Y862D01*
X1197Y871D01*
X1192Y879D01*
X1184Y884D01*
X1175Y886D01*
D02*
G37*
G36*
X220Y615D02*
X220Y615D01*
X210Y611D01*
X202Y605D01*
X195Y597D01*
X191Y587D01*
X191Y587D01*
X220D01*
Y615D01*
D02*
G37*
G36*
Y567D02*
X191D01*
X191Y566D01*
X195Y557D01*
X202Y548D01*
X210Y542D01*
X220Y538D01*
X220Y538D01*
Y567D01*
D02*
G37*
G36*
X268D02*
X240D01*
Y538D01*
X240Y538D01*
X250Y542D01*
X258Y548D01*
X264Y557D01*
X268Y566D01*
X268Y567D01*
D02*
G37*
G36*
X240Y1010D02*
X210D01*
Y980D01*
X240D01*
Y1010D01*
D02*
G37*
G36*
X337Y1850D02*
X310D01*
Y1823D01*
X319Y1827D01*
X327Y1833D01*
X333Y1841D01*
X337Y1850D01*
D02*
G37*
G36*
X1530D02*
X1503D01*
X1507Y1841D01*
X1513Y1833D01*
X1521Y1827D01*
X1530Y1823D01*
Y1850D01*
D02*
G37*
G36*
X1740Y1753D02*
Y1735D01*
X1758D01*
X1756Y1740D01*
X1751Y1746D01*
X1745Y1751D01*
X1740Y1753D01*
D02*
G37*
G36*
X290Y1850D02*
X263D01*
X267Y1841D01*
X273Y1833D01*
X281Y1827D01*
X290Y1823D01*
Y1850D01*
D02*
G37*
G36*
X1577D02*
X1550D01*
Y1823D01*
X1559Y1827D01*
X1567Y1833D01*
X1573Y1841D01*
X1577Y1850D01*
D02*
G37*
G36*
X1530Y1897D02*
X1521Y1893D01*
X1513Y1887D01*
X1507Y1879D01*
X1503Y1870D01*
X1530D01*
Y1897D01*
D02*
G37*
G36*
X1550D02*
Y1870D01*
X1577D01*
X1573Y1879D01*
X1567Y1887D01*
X1559Y1893D01*
X1550Y1897D01*
D02*
G37*
G36*
X290D02*
X281Y1893D01*
X273Y1887D01*
X267Y1879D01*
X263Y1870D01*
X290D01*
Y1897D01*
D02*
G37*
G36*
X310D02*
Y1870D01*
X337D01*
X333Y1879D01*
X327Y1887D01*
X319Y1893D01*
X310Y1897D01*
D02*
G37*
G36*
X1425Y1640D02*
Y1610D01*
X1455D01*
X1455Y1611D01*
X1451Y1621D01*
X1444Y1629D01*
X1436Y1636D01*
X1426Y1640D01*
X1425Y1640D01*
D02*
G37*
G36*
X250Y1110D02*
X240Y1109D01*
X230Y1105D01*
X222Y1098D01*
X215Y1090D01*
X211Y1080D01*
X210Y1070D01*
X211Y1060D01*
X215Y1050D01*
X222Y1042D01*
X230Y1035D01*
X240Y1031D01*
X250Y1030D01*
X260Y1031D01*
X270Y1035D01*
X278Y1042D01*
X285Y1050D01*
X289Y1060D01*
X290Y1070D01*
X289Y1080D01*
X285Y1090D01*
X278Y1098D01*
X270Y1105D01*
X260Y1109D01*
X250Y1110D01*
D02*
G37*
G36*
Y1210D02*
X240Y1209D01*
X230Y1205D01*
X222Y1198D01*
X215Y1190D01*
X211Y1180D01*
X210Y1170D01*
X211Y1160D01*
X215Y1150D01*
X222Y1142D01*
X230Y1135D01*
X240Y1131D01*
X250Y1130D01*
X260Y1131D01*
X270Y1135D01*
X278Y1142D01*
X285Y1150D01*
X289Y1160D01*
X290Y1170D01*
X289Y1180D01*
X285Y1190D01*
X278Y1198D01*
X270Y1205D01*
X260Y1209D01*
X250Y1210D01*
D02*
G37*
G36*
X290Y1010D02*
X260D01*
Y980D01*
X290D01*
Y1010D01*
D02*
G37*
G36*
X1356Y1641D02*
X1274D01*
Y1581D01*
X1254Y1561D01*
X1251Y1556D01*
X1250Y1550D01*
Y1380D01*
X1251Y1374D01*
X1254Y1369D01*
X1279Y1344D01*
X1284Y1341D01*
X1290Y1340D01*
X1346D01*
X1352Y1341D01*
X1357Y1344D01*
X1376Y1363D01*
X1378Y1366D01*
X1386Y1369D01*
X1390Y1369D01*
X1393Y1367D01*
X1402Y1363D01*
X1412Y1362D01*
X1418D01*
X1423Y1363D01*
X1586Y1201D01*
X1592Y1196D01*
X1600Y1195D01*
X1710D01*
Y970D01*
X1711Y962D01*
X1716Y956D01*
X1736Y936D01*
X1742Y931D01*
X1750Y930D01*
X1766D01*
X1772Y922D01*
X1780Y915D01*
X1790Y911D01*
X1800Y910D01*
X1810Y911D01*
X1820Y915D01*
X1828Y922D01*
X1835Y930D01*
X1839Y940D01*
X1840Y950D01*
X1839Y960D01*
X1835Y970D01*
X1828Y978D01*
X1820Y985D01*
X1810Y989D01*
X1800Y990D01*
X1790Y989D01*
X1780Y985D01*
X1772Y978D01*
X1768Y973D01*
X1758Y972D01*
X1750Y979D01*
Y1047D01*
X1760Y1048D01*
X1761Y1040D01*
X1765Y1030D01*
X1772Y1022D01*
X1780Y1015D01*
X1790Y1011D01*
X1800Y1010D01*
X1810Y1011D01*
X1820Y1015D01*
X1828Y1022D01*
X1835Y1030D01*
X1839Y1040D01*
X1840Y1050D01*
X1839Y1060D01*
X1835Y1070D01*
X1828Y1078D01*
X1820Y1085D01*
X1810Y1089D01*
X1800Y1090D01*
X1790Y1089D01*
X1780Y1085D01*
X1772Y1078D01*
X1765Y1070D01*
X1761Y1060D01*
X1760Y1052D01*
X1750Y1053D01*
Y1215D01*
Y1245D01*
X1760D01*
Y1305D01*
X1760Y1305D01*
X1760D01*
X1758Y1315D01*
X1759Y1317D01*
X1760Y1325D01*
X1759Y1333D01*
X1756Y1340D01*
X1751Y1346D01*
Y1354D01*
X1756Y1360D01*
X1758Y1365D01*
X1730D01*
Y1385D01*
X1758D01*
X1756Y1390D01*
X1751Y1396D01*
X1747Y1400D01*
X1747Y1406D01*
X1749Y1410D01*
X1750D01*
X1756Y1411D01*
X1761Y1414D01*
X1781Y1434D01*
X1784Y1439D01*
X1785Y1445D01*
Y1485D01*
X1784Y1491D01*
X1781Y1496D01*
X1741Y1536D01*
X1736Y1539D01*
X1730Y1540D01*
X1531D01*
X1513Y1559D01*
X1508Y1562D01*
X1502Y1563D01*
X1451D01*
X1449Y1565D01*
X1446Y1573D01*
X1451Y1579D01*
X1455Y1589D01*
X1455Y1590D01*
X1375D01*
X1375Y1589D01*
X1379Y1579D01*
X1384Y1573D01*
X1381Y1565D01*
X1379Y1563D01*
X1363D01*
X1356Y1572D01*
Y1641D01*
D02*
G37*
G36*
X250Y1310D02*
X240Y1309D01*
X230Y1305D01*
X222Y1298D01*
X215Y1290D01*
X211Y1280D01*
X210Y1270D01*
X211Y1260D01*
X215Y1250D01*
X222Y1242D01*
X230Y1235D01*
X240Y1231D01*
X250Y1230D01*
X260Y1231D01*
X270Y1235D01*
X278Y1242D01*
X285Y1250D01*
X289Y1260D01*
X290Y1270D01*
X289Y1280D01*
X285Y1290D01*
X278Y1298D01*
X270Y1305D01*
X260Y1309D01*
X250Y1310D01*
D02*
G37*
G36*
X570Y1830D02*
X562Y1829D01*
X555Y1826D01*
X549Y1821D01*
X544Y1815D01*
X541Y1808D01*
X540Y1800D01*
X541Y1792D01*
X544Y1785D01*
X549Y1779D01*
X555Y1774D01*
X562Y1771D01*
X570Y1770D01*
X577Y1771D01*
X704Y1644D01*
X709Y1641D01*
X715Y1640D01*
X934D01*
X939Y1630D01*
X936Y1623D01*
X935Y1615D01*
X935Y1614D01*
X926Y1610D01*
X921Y1616D01*
X915Y1621D01*
X908Y1624D01*
X900Y1625D01*
X892Y1624D01*
X885Y1621D01*
X879Y1616D01*
X874Y1610D01*
X871Y1603D01*
X870Y1595D01*
X871Y1587D01*
X874Y1580D01*
X879Y1574D01*
X885Y1569D01*
Y1471D01*
X865Y1452D01*
X861Y1453D01*
X856Y1455D01*
X856Y1465D01*
X861Y1469D01*
X866Y1475D01*
X869Y1482D01*
X870Y1490D01*
X869Y1498D01*
X866Y1505D01*
X861Y1511D01*
X855Y1516D01*
X848Y1519D01*
X840Y1520D01*
X832Y1519D01*
X828Y1517D01*
X822Y1526D01*
X837Y1540D01*
X843Y1541D01*
X850Y1544D01*
X856Y1549D01*
X861Y1555D01*
X864Y1562D01*
X865Y1570D01*
X864Y1578D01*
X861Y1585D01*
X856Y1591D01*
X850Y1596D01*
X843Y1599D01*
X835Y1600D01*
X827Y1599D01*
X820Y1596D01*
X814Y1591D01*
X809Y1585D01*
X806Y1578D01*
X805Y1570D01*
X806Y1562D01*
X809Y1556D01*
X795Y1541D01*
X785Y1545D01*
Y1569D01*
X791Y1574D01*
X796Y1580D01*
X799Y1587D01*
X800Y1595D01*
X799Y1603D01*
X796Y1610D01*
X791Y1616D01*
X785Y1621D01*
X778Y1624D01*
X770Y1625D01*
X762Y1624D01*
X755Y1621D01*
X749Y1616D01*
X744Y1610D01*
X741Y1603D01*
X740Y1595D01*
X741Y1587D01*
X744Y1580D01*
X749Y1574D01*
X755Y1569D01*
Y906D01*
X749Y901D01*
X744Y895D01*
X741Y888D01*
X740Y880D01*
X741Y872D01*
X744Y865D01*
X749Y859D01*
X755Y854D01*
X762Y851D01*
X770Y850D01*
X778Y851D01*
X785Y854D01*
X791Y859D01*
X796Y865D01*
X798Y870D01*
X804Y873D01*
X809Y873D01*
X810Y872D01*
Y746D01*
X804Y741D01*
X799Y735D01*
X796Y728D01*
X795Y720D01*
X796Y712D01*
X799Y705D01*
X804Y699D01*
X810Y694D01*
X817Y691D01*
X825Y690D01*
X833Y691D01*
X840Y694D01*
X846Y699D01*
X854D01*
X860Y694D01*
X867Y691D01*
X875Y690D01*
X883Y691D01*
X890Y694D01*
X896Y699D01*
X901Y705D01*
X904Y712D01*
X905Y720D01*
X904Y728D01*
X901Y735D01*
X896Y741D01*
X890Y746D01*
Y960D01*
X889Y966D01*
X886Y971D01*
X855Y1001D01*
Y1044D01*
X861Y1049D01*
X866Y1055D01*
X869Y1062D01*
X870Y1070D01*
X869Y1078D01*
X866Y1085D01*
X861Y1091D01*
X855Y1096D01*
X848Y1099D01*
X840Y1100D01*
X832Y1099D01*
X825Y1096D01*
X820Y1092D01*
X815Y1094D01*
X810Y1096D01*
Y1119D01*
X815Y1121D01*
X820Y1123D01*
X825Y1119D01*
X832Y1116D01*
X840Y1115D01*
X848Y1116D01*
X855Y1119D01*
X861Y1124D01*
X864Y1128D01*
X868Y1129D01*
X872D01*
X876Y1128D01*
X879Y1124D01*
X885Y1119D01*
X892Y1116D01*
X900Y1115D01*
X908Y1116D01*
X915Y1119D01*
X921Y1124D01*
X926Y1130D01*
X929Y1137D01*
X930Y1145D01*
X929Y1153D01*
X926Y1160D01*
X921Y1166D01*
X915Y1171D01*
Y1265D01*
X914Y1271D01*
X911Y1276D01*
X890Y1296D01*
Y1397D01*
X891Y1398D01*
X896Y1398D01*
X902Y1395D01*
X904Y1390D01*
X909Y1384D01*
X915Y1379D01*
X922Y1376D01*
X930Y1375D01*
X937Y1376D01*
X938Y1375D01*
X939Y1374D01*
X942Y1367D01*
X939Y1363D01*
X936Y1356D01*
X935Y1348D01*
X936Y1340D01*
X939Y1333D01*
X944Y1327D01*
X950Y1322D01*
X957Y1319D01*
X965Y1318D01*
X973Y1319D01*
X980Y1322D01*
X985Y1326D01*
X990Y1324D01*
X995Y1322D01*
Y1171D01*
X989Y1166D01*
X984Y1160D01*
X981Y1153D01*
X980Y1145D01*
X981Y1137D01*
X984Y1130D01*
X989Y1124D01*
X995Y1119D01*
X1002Y1116D01*
X1010Y1115D01*
X1018Y1116D01*
X1025Y1119D01*
X1031Y1124D01*
X1036Y1130D01*
X1039Y1137D01*
X1040Y1145D01*
X1039Y1153D01*
X1036Y1160D01*
X1031Y1166D01*
X1025Y1171D01*
Y1630D01*
X1024Y1636D01*
X1021Y1641D01*
X996Y1666D01*
X991Y1669D01*
X985Y1670D01*
X721D01*
X599Y1793D01*
X600Y1800D01*
X599Y1808D01*
X596Y1815D01*
X591Y1821D01*
X585Y1826D01*
X578Y1829D01*
X570Y1830D01*
D02*
G37*
G36*
X1405Y1640D02*
X1404Y1640D01*
X1394Y1636D01*
X1386Y1629D01*
X1379Y1621D01*
X1375Y1611D01*
X1375Y1610D01*
X1405D01*
Y1640D01*
D02*
G37*
G36*
X1680Y1755D02*
X1672Y1754D01*
X1665Y1751D01*
X1659Y1746D01*
X1654Y1740D01*
X1651Y1733D01*
X1650Y1725D01*
X1651Y1717D01*
X1654Y1710D01*
X1659Y1704D01*
Y1696D01*
X1654Y1690D01*
X1651Y1683D01*
X1650Y1675D01*
X1651Y1667D01*
X1654Y1660D01*
X1659Y1654D01*
Y1646D01*
X1654Y1640D01*
X1651Y1633D01*
X1650Y1625D01*
X1651Y1617D01*
X1654Y1610D01*
X1659Y1604D01*
X1665Y1599D01*
X1672Y1596D01*
X1680Y1595D01*
X1688Y1596D01*
X1695Y1599D01*
X1701Y1604D01*
X1709D01*
X1715Y1599D01*
X1720Y1597D01*
Y1625D01*
X1730D01*
Y1635D01*
X1758D01*
X1756Y1640D01*
X1751Y1646D01*
Y1654D01*
X1756Y1660D01*
X1758Y1665D01*
X1730D01*
Y1685D01*
X1758D01*
X1756Y1690D01*
X1751Y1696D01*
Y1704D01*
X1756Y1710D01*
X1758Y1715D01*
X1730D01*
Y1725D01*
X1720D01*
Y1753D01*
X1715Y1751D01*
X1709Y1746D01*
X1701D01*
X1695Y1751D01*
X1688Y1754D01*
X1680Y1755D01*
D02*
G37*
G36*
X1758Y1615D02*
X1740D01*
Y1597D01*
X1745Y1599D01*
X1751Y1604D01*
X1756Y1610D01*
X1758Y1615D01*
D02*
G37*
%LPD*%
D22*
X555Y553D02*
X1410D01*
X1175Y558D02*
Y862D01*
X1457Y600D02*
X1800D01*
X1410Y553D02*
X1457Y600D01*
X1600Y1215D02*
X1730D01*
X1415Y1400D02*
X1600Y1215D01*
X1750Y950D02*
X1800D01*
X1730Y970D02*
X1750Y950D01*
X1730Y970D02*
Y1215D01*
Y1275D01*
Y1725D02*
X1804D01*
X1730D02*
Y1799D01*
Y1675D02*
X1804D01*
X1730Y1625D02*
X1804D01*
X1730Y1325D02*
X1804D01*
X1730Y1375D02*
X1804D01*
D23*
X875Y720D02*
Y960D01*
X840Y995D02*
X875Y960D01*
X795Y970D02*
X825Y940D01*
Y735D02*
Y940D01*
X770Y880D02*
Y1595D01*
X1525Y1525D02*
X1730D01*
X1502Y1548D02*
X1525Y1525D01*
X1363Y1548D02*
X1502D01*
X1530Y1475D02*
X1680D01*
X1505Y1500D02*
X1530Y1475D01*
X1415Y1500D02*
X1505D01*
X1575Y1375D02*
X1680D01*
X1491Y1459D02*
X1575Y1375D01*
X1374Y1459D02*
X1491D01*
X1730Y1525D02*
X1770Y1485D01*
X1315Y1400D02*
X1374Y1459D01*
X1444Y1441D02*
X1610Y1275D01*
X1391Y1441D02*
X1444D01*
X1365Y1415D02*
X1391Y1441D01*
X1680Y1425D02*
X1750D01*
X1610Y1275D02*
X1680D01*
X840Y1145D02*
Y1490D01*
X1010Y1140D02*
Y1145D01*
X1750Y1425D02*
X1770Y1445D01*
Y1485D01*
X1315Y1500D02*
X1363Y1548D01*
X1265Y1380D02*
Y1550D01*
X1315Y1600D01*
X1265Y1380D02*
X1290Y1355D01*
X1346D01*
X1365Y1374D01*
Y1415D01*
X795Y970D02*
Y1520D01*
X835Y1560D01*
X840Y995D02*
Y1070D01*
X835Y1560D02*
Y1570D01*
X965Y1348D02*
Y1550D01*
Y1599D02*
Y1615D01*
X930Y1564D02*
X965Y1599D01*
X930Y1405D02*
Y1564D01*
X930Y1405D02*
X930Y1405D01*
X900Y1465D02*
Y1595D01*
X875Y1440D02*
X900Y1465D01*
X875Y1290D02*
Y1440D01*
Y1290D02*
X900Y1265D01*
Y1145D02*
Y1265D01*
X985Y1655D02*
X1010Y1630D01*
Y1145D02*
Y1630D01*
X570Y1800D02*
X715Y1655D01*
X985D01*
D26*
X1700Y700D02*
D03*
X250Y1070D02*
D03*
Y1170D02*
D03*
Y1270D02*
D03*
X1800Y1050D02*
D03*
Y950D02*
D03*
X1800Y500D02*
D03*
Y600D02*
D03*
D27*
Y700D02*
D03*
D28*
X1540Y1860D02*
D03*
X300D02*
D03*
D29*
X1730Y1275D02*
D03*
D30*
X1680D02*
D03*
X1730Y1325D02*
D03*
X1680D02*
D03*
X1730Y1375D02*
D03*
X1680D02*
D03*
Y1425D02*
D03*
X1730Y1475D02*
D03*
X1680D02*
D03*
X1730Y1625D02*
D03*
X1680D02*
D03*
X1730Y1675D02*
D03*
X1680D02*
D03*
X1730Y1725D02*
D03*
X1680D02*
D03*
X767Y595D02*
D03*
X875Y720D02*
D03*
X980Y495D02*
D03*
X770Y880D02*
D03*
X795Y275D02*
D03*
X1588Y240D02*
D03*
X1600Y1590D02*
D03*
X1345Y1265D02*
D03*
X950Y1290D02*
D03*
X840Y1145D02*
D03*
X1010D02*
D03*
X555Y553D02*
D03*
X770Y1595D02*
D03*
X840Y1490D02*
D03*
X1823Y240D02*
D03*
X420Y1220D02*
D03*
X441Y1440D02*
D03*
X1070Y1830D02*
D03*
X825Y720D02*
D03*
X1320Y1030D02*
D03*
Y870D02*
D03*
X1510Y1030D02*
D03*
Y870D02*
D03*
X600Y1315D02*
D03*
X330Y945D02*
D03*
X840Y1070D02*
D03*
X900Y1145D02*
D03*
Y1595D02*
D03*
X965Y1348D02*
D03*
X835Y1570D02*
D03*
X965Y1550D02*
D03*
Y1615D02*
D03*
X930Y1405D02*
D03*
X1055Y1350D02*
D03*
X350Y1640D02*
D03*
X685Y825D02*
D03*
X1140Y295D02*
D03*
X457Y385D02*
D03*
X775Y1800D02*
D03*
X361Y1780D02*
D03*
X1320Y950D02*
D03*
X1510D02*
D03*
X570Y1800D02*
D03*
X785Y510D02*
D03*
X980Y600D02*
D03*
D31*
X1415Y1600D02*
D03*
X1315Y1500D02*
D03*
Y1400D02*
D03*
D32*
X1415Y1500D02*
D03*
Y1400D02*
D03*
D33*
X1315Y1600D02*
D03*
D34*
X250Y970D02*
D03*
X1800Y850D02*
D03*
X1800Y700D02*
D03*
D35*
X230Y403D02*
D03*
Y577D02*
D03*
D36*
X1175Y862D02*
D03*
D37*
X235Y487D02*
D03*
M02*
