G04 Layer_Color=8421504*
%FSLAX23Y23*%
%MOIN*%
G70*
G01*
G75*
%ADD10R,0.051X0.059*%
%ADD11R,0.094X0.083*%
%ADD12R,0.098X0.079*%
%ADD13R,0.110X0.020*%
%ADD14R,0.134X0.075*%
%ADD15R,0.083X0.122*%
%ADD16R,0.083X0.033*%
%ADD17R,0.087X0.024*%
%ADD18R,0.087X0.024*%
%ADD19R,0.059X0.051*%
%ADD20O,0.098X0.028*%
D10*
X1334Y1100D02*
D03*
X1409D02*
D03*
X498Y590D02*
D03*
X572D02*
D03*
X498Y130D02*
D03*
X572D02*
D03*
X1404Y685D02*
D03*
X1329D02*
D03*
X247Y1290D02*
D03*
X172D02*
D03*
X969Y1120D02*
D03*
X1044D02*
D03*
X499Y220D02*
D03*
X574D02*
D03*
Y305D02*
D03*
X499D02*
D03*
Y390D02*
D03*
X574D02*
D03*
X499Y475D02*
D03*
X574D02*
D03*
X969Y1420D02*
D03*
X1044D02*
D03*
Y1555D02*
D03*
X969D02*
D03*
Y1320D02*
D03*
X1044D02*
D03*
Y1655D02*
D03*
X969D02*
D03*
X172Y1400D02*
D03*
X247D02*
D03*
X369Y765D02*
D03*
X294D02*
D03*
X969Y1220D02*
D03*
X1044D02*
D03*
X1432Y90D02*
D03*
X1507D02*
D03*
Y230D02*
D03*
X1432D02*
D03*
D11*
X1307Y255D02*
D03*
Y85D02*
D03*
D12*
X308Y216D02*
D03*
X91D02*
D03*
Y604D02*
D03*
X308D02*
D03*
D13*
X321Y473D02*
D03*
Y379D02*
D03*
Y347D02*
D03*
Y441D02*
D03*
Y410D02*
D03*
D14*
X1007Y863D02*
D03*
Y1017D02*
D03*
D15*
X1254Y885D02*
D03*
D16*
X1479Y976D02*
D03*
Y885D02*
D03*
Y794D02*
D03*
D17*
X1084Y136D02*
D03*
Y186D02*
D03*
Y236D02*
D03*
Y286D02*
D03*
Y336D02*
D03*
Y386D02*
D03*
Y436D02*
D03*
Y486D02*
D03*
Y536D02*
D03*
Y586D02*
D03*
X706D02*
D03*
D18*
Y136D02*
D03*
Y186D02*
D03*
Y236D02*
D03*
Y286D02*
D03*
Y336D02*
D03*
Y386D02*
D03*
Y436D02*
D03*
Y486D02*
D03*
Y536D02*
D03*
D19*
X1417Y522D02*
D03*
Y448D02*
D03*
X1192Y128D02*
D03*
Y202D02*
D03*
X1212Y448D02*
D03*
Y522D02*
D03*
X1327Y522D02*
D03*
Y448D02*
D03*
X1507Y522D02*
D03*
Y448D02*
D03*
D20*
X350Y1650D02*
D03*
Y1600D02*
D03*
Y1550D02*
D03*
Y1500D02*
D03*
Y1450D02*
D03*
Y1400D02*
D03*
Y1350D02*
D03*
X543Y1650D02*
D03*
Y1600D02*
D03*
Y1550D02*
D03*
Y1500D02*
D03*
Y1450D02*
D03*
Y1400D02*
D03*
Y1350D02*
D03*
X350Y1170D02*
D03*
Y1120D02*
D03*
Y1070D02*
D03*
Y1020D02*
D03*
Y970D02*
D03*
Y920D02*
D03*
Y870D02*
D03*
X543Y1170D02*
D03*
Y1120D02*
D03*
Y1070D02*
D03*
Y1020D02*
D03*
Y970D02*
D03*
Y920D02*
D03*
Y870D02*
D03*
M02*
