G04 Layer_Color=65535*
%FSLAX23Y23*%
%MOIN*%
G70*
G01*
G75*
%ADD22C,0.010*%
%ADD36C,0.010*%
%ADD37C,0.008*%
%ADD38C,0.008*%
%ADD39C,0.004*%
%ADD40C,0.012*%
%ADD41R,0.090X0.085*%
G36*
X163Y1689D02*
X164Y1689D01*
Y1688D01*
Y1688D01*
X168Y1668D01*
Y1668D01*
X168Y1668D01*
X168Y1667D01*
X168D01*
X182Y1662D01*
X183D01*
X200Y1673D01*
X201D01*
X201Y1673D01*
X215Y1659D01*
Y1659D01*
Y1658D01*
Y1658D01*
Y1658D01*
X204Y1641D01*
Y1641D01*
Y1641D01*
Y1641D01*
Y1640D01*
Y1640D01*
X210Y1626D01*
X210Y1626D01*
X211Y1625D01*
X211D01*
X230Y1622D01*
X230D01*
X231Y1622D01*
Y1621D01*
Y1621D01*
Y1601D01*
X230Y1601D01*
X230Y1600D01*
X230D01*
X211Y1596D01*
X211D01*
X211Y1596D01*
Y1596D01*
Y1596D01*
X204Y1581D01*
Y1580D01*
Y1580D01*
Y1580D01*
Y1580D01*
X215Y1564D01*
Y1564D01*
Y1563D01*
Y1563D01*
X201Y1549D01*
X200Y1549D01*
X200D01*
X200Y1549D01*
X185Y1559D01*
X183D01*
X177Y1555D01*
X175Y1556D01*
X175Y1556D01*
X162Y1590D01*
X162Y1591D01*
X162Y1591D01*
X164Y1592D01*
X164Y1592D01*
X164D01*
X165Y1593D01*
X165Y1593D01*
X168Y1595D01*
X170Y1598D01*
X172Y1601D01*
X173Y1604D01*
X174Y1606D01*
X174Y1609D01*
X175Y1610D01*
Y1611D01*
X174Y1614D01*
X173Y1617D01*
X173Y1619D01*
X171Y1622D01*
X170Y1624D01*
X169Y1625D01*
X168Y1626D01*
X168Y1626D01*
X166Y1628D01*
X163Y1630D01*
X160Y1631D01*
X158Y1632D01*
X156Y1633D01*
X154Y1633D01*
X153D01*
X150Y1633D01*
X147Y1632D01*
X144Y1631D01*
X142Y1629D01*
X140Y1628D01*
X139Y1627D01*
X138Y1626D01*
X138Y1626D01*
X135Y1624D01*
X134Y1621D01*
X133Y1618D01*
X132Y1616D01*
X132Y1614D01*
X131Y1612D01*
Y1611D01*
Y1611D01*
X132Y1606D01*
X133Y1603D01*
X134Y1600D01*
X136Y1597D01*
X138Y1595D01*
X140Y1594D01*
X141Y1593D01*
X141Y1593D01*
X142Y1592D01*
X142Y1592D01*
X142Y1592D01*
X144Y1591D01*
X144Y1590D01*
Y1590D01*
Y1590D01*
X130Y1556D01*
X130Y1556D01*
X130Y1555D01*
X129D01*
X123Y1559D01*
X121D01*
X106Y1549D01*
X106Y1549D01*
X105D01*
X105Y1549D01*
X91Y1563D01*
Y1563D01*
Y1563D01*
Y1564D01*
X102Y1580D01*
Y1580D01*
Y1580D01*
Y1581D01*
Y1581D01*
X95Y1596D01*
X95Y1596D01*
X95Y1596D01*
X94D01*
X76Y1600D01*
X75Y1601D01*
X75Y1601D01*
Y1601D01*
Y1621D01*
Y1622D01*
X75Y1622D01*
X76D01*
X95Y1625D01*
X95Y1626D01*
X96Y1626D01*
Y1626D01*
X102Y1640D01*
Y1640D01*
Y1641D01*
Y1641D01*
Y1641D01*
X91Y1658D01*
Y1658D01*
Y1658D01*
Y1659D01*
Y1659D01*
X105Y1673D01*
X105Y1673D01*
X106D01*
X123Y1662D01*
X124D01*
X137Y1667D01*
X138Y1668D01*
X138Y1668D01*
Y1668D01*
Y1668D01*
X142Y1688D01*
Y1689D01*
X142Y1689D01*
X163D01*
X163Y1689D01*
D02*
G37*
G36*
X1611Y1092D02*
X1546D01*
X1581Y1148D01*
X1611Y1092D01*
D02*
G37*
G36*
X1172Y1589D02*
X1142Y1645D01*
X1207D01*
X1172Y1589D01*
D02*
G37*
D22*
X1370Y52D02*
Y288D01*
X1244Y52D02*
Y288D01*
D36*
X548Y835D02*
G03*
X548Y835I-5J0D01*
G01*
Y1315D02*
G03*
X548Y1315I-5J0D01*
G01*
X1093Y103D02*
G03*
X1093Y103I-5J0D01*
G01*
X1487Y751D02*
G03*
X1487Y751I-5J0D01*
G01*
D37*
X920Y99D02*
G03*
X870Y99I-25J0D01*
G01*
X478Y847D02*
Y1193D01*
X415Y847D02*
Y1193D01*
Y847D02*
X478D01*
X415Y1193D02*
X478D01*
Y1327D02*
Y1673D01*
X415Y1327D02*
Y1673D01*
Y1327D02*
X478D01*
X415Y1673D02*
X478D01*
X619Y64D02*
Y166D01*
X414Y64D02*
Y166D01*
X544Y64D02*
X619D01*
X414D02*
X489D01*
X544Y166D02*
X619D01*
X414D02*
X489D01*
X544Y554D02*
X619D01*
X414D02*
X489D01*
X544Y656D02*
X619D01*
X414D02*
X489D01*
X619Y554D02*
Y656D01*
X414Y554D02*
Y656D01*
X741Y99D02*
X870D01*
X920D02*
X1049D01*
X741Y624D02*
X1049D01*
X1474Y1049D02*
Y1151D01*
X1269Y1049D02*
Y1151D01*
X1399Y1049D02*
X1474D01*
X1269D02*
X1344D01*
X1399Y1151D02*
X1474D01*
X1269D02*
X1344D01*
X1426Y753D02*
Y1017D01*
X1308Y753D02*
Y1017D01*
Y753D02*
X1426D01*
X1308Y1017D02*
X1426D01*
X1089Y983D02*
Y1070D01*
X924Y983D02*
Y1070D01*
X1089D01*
X924Y810D02*
X1089D01*
Y897D01*
X924Y810D02*
Y897D01*
D38*
X243Y95D02*
G03*
X243Y95I-41J0D01*
G01*
X1418Y1675D02*
G03*
X1418Y1675I-41J0D01*
G01*
X1588Y243D02*
X1582Y250D01*
X1568D01*
X1562Y243D01*
Y217D01*
X1568Y210D01*
X1582D01*
X1588Y217D01*
X1602Y250D02*
X1628D01*
Y243D01*
X1602Y217D01*
Y210D01*
X1588Y103D02*
X1582Y110D01*
X1568D01*
X1562Y103D01*
Y77D01*
X1568Y70D01*
X1582D01*
X1588Y77D01*
X1628Y70D02*
X1602D01*
X1628Y97D01*
Y103D01*
X1622Y110D01*
X1608D01*
X1602Y103D01*
X1527Y305D02*
X1487D01*
Y325D01*
X1493Y332D01*
X1507D01*
X1513Y325D01*
Y305D01*
Y318D02*
X1527Y332D01*
Y345D02*
Y358D01*
Y352D01*
X1487D01*
X1493Y345D01*
Y378D02*
X1487Y385D01*
Y398D01*
X1493Y405D01*
X1520D01*
X1527Y398D01*
Y385D01*
X1520Y378D01*
X1493D01*
X855Y1200D02*
Y1240D01*
X875D01*
X882Y1233D01*
Y1220D01*
X875Y1213D01*
X855D01*
X868D02*
X882Y1200D01*
X895Y1207D02*
X902Y1200D01*
X915D01*
X922Y1207D01*
Y1233D01*
X915Y1240D01*
X902D01*
X895Y1233D01*
Y1227D01*
X902Y1220D01*
X922D01*
X313Y708D02*
X307Y715D01*
X293D01*
X287Y708D01*
Y682D01*
X293Y675D01*
X307D01*
X313Y682D01*
X327Y675D02*
X340D01*
X333D01*
Y715D01*
X327Y708D01*
X360D02*
X367Y715D01*
X380D01*
X387Y708D01*
Y682D01*
X380Y675D01*
X367D01*
X360Y682D01*
Y708D01*
X1527Y1690D02*
Y1730D01*
X1547D01*
X1553Y1723D01*
Y1710D01*
X1547Y1703D01*
X1527D01*
X1567Y1723D02*
X1573Y1730D01*
X1587D01*
X1593Y1723D01*
Y1717D01*
X1587Y1710D01*
X1580D01*
X1587D01*
X1593Y1703D01*
Y1697D01*
X1587Y1690D01*
X1573D01*
X1567Y1697D01*
X412Y825D02*
Y792D01*
X418Y785D01*
X432D01*
X438Y792D01*
Y825D01*
X472Y785D02*
Y825D01*
X452Y805D01*
X478D01*
X83Y1413D02*
X76Y1420D01*
X63D01*
X56Y1413D01*
Y1387D01*
X63Y1380D01*
X76D01*
X83Y1387D01*
X96Y1380D02*
X110D01*
X103D01*
Y1420D01*
X96Y1413D01*
X417Y1730D02*
Y1697D01*
X423Y1690D01*
X437D01*
X443Y1697D01*
Y1730D01*
X457Y1723D02*
X463Y1730D01*
X477D01*
X483Y1723D01*
Y1717D01*
X477Y1710D01*
X470D01*
X477D01*
X483Y1703D01*
Y1697D01*
X477Y1690D01*
X463D01*
X457Y1697D01*
X852Y1635D02*
Y1675D01*
X872D01*
X878Y1668D01*
Y1655D01*
X872Y1648D01*
X852D01*
X865D02*
X878Y1635D01*
X892Y1668D02*
X898Y1675D01*
X912D01*
X918Y1668D01*
Y1662D01*
X912Y1655D01*
X905D01*
X912D01*
X918Y1648D01*
Y1642D01*
X912Y1635D01*
X898D01*
X892Y1642D01*
X855Y1300D02*
Y1340D01*
X875D01*
X882Y1333D01*
Y1320D01*
X875Y1313D01*
X855D01*
X868D02*
X882Y1300D01*
X922Y1340D02*
X895D01*
Y1320D01*
X908Y1327D01*
X915D01*
X922Y1320D01*
Y1307D01*
X915Y1300D01*
X902D01*
X895Y1307D01*
X855Y1535D02*
Y1575D01*
X875D01*
X882Y1568D01*
Y1555D01*
X875Y1548D01*
X855D01*
X868D02*
X882Y1535D01*
X915D02*
Y1575D01*
X895Y1555D01*
X922D01*
X855Y1400D02*
Y1440D01*
X875D01*
X882Y1433D01*
Y1420D01*
X875Y1413D01*
X855D01*
X868D02*
X882Y1400D01*
X922Y1440D02*
X908Y1433D01*
X895Y1420D01*
Y1407D01*
X902Y1400D01*
X915D01*
X922Y1407D01*
Y1413D01*
X915Y1420D01*
X895D01*
X418Y488D02*
X412Y495D01*
X398D01*
X392Y488D01*
Y462D01*
X398Y455D01*
X412D01*
X418Y462D01*
X452Y455D02*
Y495D01*
X432Y475D01*
X458D01*
X1197Y570D02*
Y610D01*
X1217D01*
X1223Y603D01*
Y590D01*
X1217Y583D01*
X1197D01*
X1210D02*
X1223Y570D01*
X1237D02*
X1250D01*
X1243D01*
Y610D01*
X1237Y603D01*
X392Y370D02*
Y410D01*
X412D01*
X418Y403D01*
Y390D01*
X412Y383D01*
X392D01*
X405D02*
X418Y370D01*
X432Y403D02*
X438Y410D01*
X452D01*
X458Y403D01*
Y397D01*
X452Y390D01*
X458Y383D01*
Y377D01*
X452Y370D01*
X438D01*
X432Y377D01*
Y383D01*
X438Y390D01*
X432Y397D01*
Y403D01*
X438Y390D02*
X452D01*
X372Y285D02*
Y325D01*
X392D01*
X398Y318D01*
Y305D01*
X392Y298D01*
X372D01*
X385D02*
X398Y285D01*
X412D02*
X425D01*
X418D01*
Y325D01*
X412Y318D01*
X445Y285D02*
X458D01*
X452D01*
Y325D01*
X445Y318D01*
X413Y233D02*
X407Y240D01*
X393D01*
X387Y233D01*
Y207D01*
X393Y200D01*
X407D01*
X413Y207D01*
X427Y233D02*
X433Y240D01*
X447D01*
X453Y233D01*
Y227D01*
X447Y220D01*
X440D01*
X447D01*
X453Y213D01*
Y207D01*
X447Y200D01*
X433D01*
X427Y207D01*
X1162Y251D02*
Y291D01*
X1182D01*
X1188Y285D01*
Y271D01*
X1182Y265D01*
X1162D01*
X1175D02*
X1188Y251D01*
X1228D02*
X1202D01*
X1228Y278D01*
Y285D01*
X1222Y291D01*
X1208D01*
X1202Y285D01*
X348Y123D02*
X342Y130D01*
X328D01*
X322Y123D01*
Y97D01*
X328Y90D01*
X342D01*
X348Y97D01*
X388Y130D02*
X362D01*
Y110D01*
X375Y117D01*
X382D01*
X388Y110D01*
Y97D01*
X382Y90D01*
X368D01*
X362Y97D01*
X478Y713D02*
X472Y720D01*
X458D01*
X452Y713D01*
Y687D01*
X458Y680D01*
X472D01*
X478Y687D01*
X518Y720D02*
X505Y713D01*
X492Y700D01*
Y687D01*
X498Y680D01*
X512D01*
X518Y687D01*
Y693D01*
X512Y700D01*
X492D01*
X1452Y330D02*
X1412D01*
Y350D01*
X1418Y357D01*
X1432D01*
X1438Y350D01*
Y330D01*
Y343D02*
X1452Y357D01*
X1412Y370D02*
Y397D01*
X1418D01*
X1445Y370D01*
X1452D01*
X1593Y350D02*
X1580D01*
X1587D01*
Y317D01*
X1580Y310D01*
X1573D01*
X1567Y317D01*
X1607Y310D02*
Y350D01*
X1627D01*
X1633Y343D01*
Y330D01*
X1627Y323D01*
X1607D01*
X1647Y343D02*
X1653Y350D01*
X1667D01*
X1673Y343D01*
Y337D01*
X1667Y330D01*
X1660D01*
X1667D01*
X1673Y323D01*
Y317D01*
X1667Y310D01*
X1653D01*
X1647Y317D01*
X872Y695D02*
Y662D01*
X878Y655D01*
X892D01*
X898Y662D01*
Y695D01*
X912Y655D02*
X925D01*
X918D01*
Y695D01*
X912Y688D01*
X820Y1105D02*
Y1145D01*
X840D01*
X847Y1138D01*
Y1125D01*
X840Y1118D01*
X820D01*
X833D02*
X847Y1105D01*
X860D02*
X873D01*
X867D01*
Y1145D01*
X860Y1138D01*
X920Y1105D02*
X893D01*
X920Y1132D01*
Y1138D01*
X913Y1145D01*
X900D01*
X893Y1138D01*
X27Y1270D02*
Y1310D01*
X47D01*
X53Y1303D01*
Y1290D01*
X47Y1283D01*
X27D01*
X40D02*
X53Y1270D01*
X67D02*
X80D01*
X73D01*
Y1310D01*
X67Y1303D01*
X100D02*
X107Y1310D01*
X120D01*
X127Y1303D01*
Y1297D01*
X120Y1290D01*
X113D01*
X120D01*
X127Y1283D01*
Y1277D01*
X120Y1270D01*
X107D01*
X100Y1277D01*
X1238Y698D02*
X1232Y705D01*
X1218D01*
X1212Y698D01*
Y672D01*
X1218Y665D01*
X1232D01*
X1238Y672D01*
X1252Y698D02*
X1258Y705D01*
X1272D01*
X1278Y698D01*
Y692D01*
X1272Y685D01*
X1278Y678D01*
Y672D01*
X1272Y665D01*
X1258D01*
X1252Y672D01*
Y678D01*
X1258Y685D01*
X1252Y692D01*
Y698D01*
X1258Y685D02*
X1272D01*
X1198Y1113D02*
X1192Y1120D01*
X1178D01*
X1172Y1113D01*
Y1087D01*
X1178Y1080D01*
X1192D01*
X1198Y1087D01*
X1212D02*
X1218Y1080D01*
X1232D01*
X1238Y1087D01*
Y1113D01*
X1232Y1120D01*
X1218D01*
X1212Y1113D01*
Y1107D01*
X1218Y1100D01*
X1238D01*
X1217Y1010D02*
Y977D01*
X1223Y970D01*
X1237D01*
X1243Y977D01*
Y1010D01*
X1283Y970D02*
X1257D01*
X1283Y997D01*
Y1003D01*
X1277Y1010D01*
X1263D01*
X1257Y1003D01*
X878Y960D02*
X852D01*
Y940D01*
X865D01*
X852D01*
Y920D01*
X892D02*
X905D01*
X898D01*
Y960D01*
X892Y953D01*
X1393Y640D02*
X1380D01*
X1387D01*
Y607D01*
X1380Y600D01*
X1373D01*
X1367Y607D01*
X1407Y600D02*
Y640D01*
X1427D01*
X1433Y633D01*
Y620D01*
X1427Y613D01*
X1407D01*
X1447Y600D02*
X1460D01*
X1453D01*
Y640D01*
X1447Y633D01*
X188Y655D02*
X175D01*
X182D01*
Y622D01*
X175Y615D01*
X168D01*
X162Y622D01*
X202Y615D02*
X215D01*
X208D01*
Y655D01*
X202Y648D01*
X1266Y1610D02*
Y1650D01*
X1286D01*
X1292Y1643D01*
Y1630D01*
X1286Y1623D01*
X1266D01*
X1306Y1610D02*
X1319D01*
X1312D01*
Y1650D01*
X1306Y1643D01*
X162Y710D02*
Y750D01*
X182D01*
X188Y743D01*
Y730D01*
X182Y723D01*
X162D01*
X222Y710D02*
Y750D01*
X202Y730D01*
X228D01*
X110Y1537D02*
X100D01*
X95Y1532D01*
Y1512D01*
X100Y1507D01*
X110D01*
X115Y1512D01*
Y1532D01*
X110Y1537D01*
X145Y1532D02*
X140Y1537D01*
X130D01*
X125Y1532D01*
Y1527D01*
X130Y1522D01*
X140D01*
X145Y1517D01*
Y1512D01*
X140Y1507D01*
X130D01*
X125Y1512D01*
X155Y1537D02*
Y1507D01*
Y1522D01*
X175D01*
Y1537D01*
Y1507D01*
X185Y1537D02*
Y1507D01*
X195Y1517D01*
X205Y1507D01*
Y1537D01*
X1589Y721D02*
X1576D01*
X1582D01*
Y687D01*
X1576Y681D01*
X1569D01*
X1562Y687D01*
X1602Y681D02*
Y721D01*
X1622D01*
X1629Y714D01*
Y701D01*
X1622Y694D01*
X1602D01*
X1669Y681D02*
X1642D01*
X1669Y707D01*
Y714D01*
X1662Y721D01*
X1649D01*
X1642Y714D01*
X1262Y190D02*
Y184D01*
X1273Y172D01*
X1285Y184D01*
Y190D01*
X1273Y172D02*
Y155D01*
X1297D02*
X1308D01*
X1302D01*
Y190D01*
X1297Y184D01*
X1332Y178D02*
X1343D01*
X1349Y172D01*
Y155D01*
X1332D01*
X1326Y161D01*
X1332Y167D01*
X1349D01*
X1692Y778D02*
Y745D01*
X1717D01*
X1708Y762D01*
Y770D01*
X1717Y778D01*
X1733D01*
X1742Y770D01*
Y753D01*
X1733Y745D01*
X1692Y795D02*
X1725D01*
X1742Y812D01*
X1725Y828D01*
X1692D01*
X1700Y940D02*
X1692Y948D01*
Y965D01*
X1700Y973D01*
X1708D01*
X1717Y965D01*
Y957D01*
Y965D01*
X1725Y973D01*
X1733D01*
X1742Y965D01*
Y948D01*
X1733Y940D01*
X1692Y990D02*
X1725D01*
X1742Y1007D01*
X1725Y1023D01*
X1692D01*
X1675Y1398D02*
X1667Y1390D01*
Y1373D01*
X1675Y1365D01*
X1683D01*
X1692Y1373D01*
Y1390D01*
X1700Y1398D01*
X1708D01*
X1717Y1390D01*
Y1373D01*
X1708Y1365D01*
X1667Y1415D02*
X1717D01*
X1700Y1432D01*
X1717Y1448D01*
X1667D01*
Y1465D02*
X1717D01*
Y1490D01*
X1708Y1498D01*
X1675D01*
X1667Y1490D01*
Y1465D01*
X27Y945D02*
Y918D01*
X40Y905D01*
X53Y918D01*
Y945D01*
X93D02*
Y905D01*
X73D01*
X67Y912D01*
Y925D01*
X73Y932D01*
X93D01*
X133Y945D02*
Y905D01*
X113D01*
X107Y912D01*
Y925D01*
X113Y932D01*
X133D01*
X53Y838D02*
X47Y845D01*
X33D01*
X27Y838D01*
Y812D01*
X33Y805D01*
X47D01*
X53Y812D01*
Y825D01*
X40D01*
X67Y805D02*
Y832D01*
X87D01*
X93Y825D01*
Y805D01*
X133Y845D02*
Y805D01*
X113D01*
X107Y812D01*
Y825D01*
X113Y832D01*
X133D01*
X27Y1145D02*
X53D01*
X40D01*
Y1105D01*
X67Y1132D02*
X93Y1105D01*
X80Y1118D01*
X93Y1132D01*
X67Y1105D01*
X107Y1145D02*
Y1105D01*
X127D01*
X133Y1112D01*
Y1138D01*
X127Y1145D01*
X107D01*
X27Y1005D02*
Y1045D01*
X47D01*
X53Y1038D01*
Y1025D01*
X47Y1018D01*
X27D01*
X40D02*
X53Y1005D01*
X67Y1032D02*
X93Y1005D01*
X80Y1018D01*
X93Y1032D01*
X67Y1005D01*
X107Y1045D02*
Y1005D01*
X127D01*
X133Y1012D01*
Y1038D01*
X127Y1045D01*
X107D01*
X1702Y540D02*
Y507D01*
X1718Y490D01*
X1735Y507D01*
Y540D01*
Y637D02*
X1727Y645D01*
X1710D01*
X1702Y637D01*
Y603D01*
X1710Y595D01*
X1727D01*
X1735Y603D01*
Y620D01*
X1718D01*
X1247Y380D02*
Y338D01*
X1255Y330D01*
X1272D01*
X1280Y338D01*
Y380D01*
X1330Y372D02*
X1322Y380D01*
X1305D01*
X1297Y372D01*
Y363D01*
X1305Y355D01*
X1322D01*
X1330Y347D01*
Y338D01*
X1322Y330D01*
X1305D01*
X1297Y338D01*
X1347Y380D02*
Y330D01*
X1372D01*
X1380Y338D01*
Y347D01*
X1372Y355D01*
X1347D01*
X1372D01*
X1380Y363D01*
Y372D01*
X1372Y380D01*
X1347D01*
X1377Y1370D02*
X1427D01*
Y1395D01*
X1418Y1403D01*
X1410D01*
X1402Y1395D01*
Y1370D01*
Y1395D01*
X1393Y1403D01*
X1385D01*
X1377Y1395D01*
Y1370D01*
Y1420D02*
X1427D01*
Y1445D01*
X1418Y1453D01*
X1385D01*
X1377Y1445D01*
Y1420D01*
X1427Y1470D02*
X1377D01*
X1393Y1487D01*
X1377Y1503D01*
X1427D01*
X1702Y445D02*
Y395D01*
X1727D01*
X1735Y403D01*
Y412D01*
X1727Y420D01*
X1702D01*
X1727D01*
X1735Y428D01*
Y437D01*
X1727Y445D01*
X1702D01*
D39*
X1469Y200D02*
Y260D01*
Y60D02*
Y120D01*
X1477Y485D02*
X1536D01*
X1007Y1190D02*
Y1250D01*
X332Y735D02*
Y795D01*
X1495Y1167D02*
Y1672D01*
X1629D01*
Y1167D02*
Y1672D01*
X1495Y1167D02*
X1629D01*
X209Y1370D02*
Y1430D01*
X1007Y1625D02*
Y1685D01*
Y1290D02*
Y1350D01*
Y1525D02*
Y1585D01*
Y1390D02*
Y1450D01*
X537Y445D02*
Y505D01*
X1297Y411D02*
X1356D01*
X1297Y485D02*
X1356D01*
X1182D02*
X1241D01*
X537Y360D02*
Y420D01*
Y275D02*
Y335D01*
Y190D02*
Y250D01*
X1162Y165D02*
X1221D01*
X1387Y485D02*
X1446D01*
X1672Y370D02*
Y670D01*
X1572D02*
X1672D01*
X1572Y370D02*
Y670D01*
Y370D02*
X1672D01*
X1007Y1090D02*
Y1150D01*
X209Y1260D02*
Y1320D01*
X1367Y655D02*
Y715D01*
X1472Y570D02*
X1672D01*
Y670D01*
X1472D02*
X1672D01*
X1472Y570D02*
Y670D01*
X-3Y253D02*
Y567D01*
X154D02*
X233D01*
X154Y253D02*
X233D01*
X359Y497D02*
Y552D01*
Y268D02*
Y323D01*
X252Y770D02*
Y1170D01*
X152D02*
X252D01*
X152Y770D02*
Y1170D01*
Y770D02*
X252D01*
X1572Y735D02*
Y1035D01*
Y735D02*
X1672D01*
Y1035D01*
X1572D02*
X1672D01*
D40*
X1322Y1270D02*
Y1570D01*
X1122D02*
X1322D01*
X1122Y1270D02*
Y1570D01*
Y1270D02*
X1322D01*
D41*
X1172Y1633D02*
D03*
X1587Y1107D02*
D03*
M02*
