M48
;Layer_Color=9474304
;FILE_FORMAT=2:4
INCH
;TYPE=PLATED
T1F00S00C0.0130
T2F00S00C0.0197
T3F00S00C0.0236
T4F00S00C0.0354
%
T01
X011900Y006200
T02
X006317Y001850
Y004450
X006150Y005267
X006467Y006250
X007067
X007100Y007650
X007800
X008100Y009200
X008500Y008800
X008950Y009100
X009300Y009450
X009700Y010050
X010300
Y010950
X009700
X009200Y011450
X007750Y011550
Y010550
X005750Y010700
X006050Y011600
X011300Y011400
X011568Y009650
X011567Y008850
X011568Y008050
X012400Y007700
X013467Y008050
Y008850
Y009650
X012467Y010300
X013200Y011700
X015317Y007250
X014093Y001750
X009550Y001950
X009600Y003650
Y004800
Y005650
X008150
Y004800
X008167Y003700
X004250Y002750
X004700Y012900
X004050Y014850
X004000Y016300
X005800Y016500
X008100Y016600
X008250Y015250
X008350Y014650
X007800Y014500
X007750Y015000
X009150
X008900Y013750
X008050Y013800
X008350Y012850
X009150Y013000
X011700Y012200
X012250
X013300Y013200
X014567Y015100
X011650Y017450
X005350Y012900
T03
X015367Y011950
Y012450
Y012950
Y013450
Y013950
X015867
Y012950
Y012450
Y011950
Y015450
Y015950
Y016450
X015367
Y015950
Y015450
T04
X016550Y001500
X016217Y004200
Y005200
Y006200
X015217
X016217Y007849
Y008849
Y009849
X003550Y010200
Y011200
Y009200
Y008200
X002700Y001500
X011717Y013650
Y014650
Y015650
X012717
Y014650
Y013650
M30
