G04 Layer_Color=32896*
%FSLAX23Y23*%
%MOIN*%
G70*
G01*
G75*
%ADD38C,0.008*%
%ADD69R,0.640X0.238*%
D38*
X200Y405D02*
X240D01*
X260Y385D01*
X240Y365D01*
X200D01*
X210Y345D02*
X200Y335D01*
Y315D01*
X210Y305D01*
X220D01*
X230Y315D01*
Y325D01*
Y315D01*
X240Y305D01*
X250D01*
X260Y315D01*
Y335D01*
X250Y345D01*
X260Y285D02*
X250D01*
Y275D01*
X260D01*
Y285D01*
X200Y195D02*
X210Y215D01*
X230Y235D01*
X250D01*
X260Y225D01*
Y205D01*
X250Y195D01*
X240D01*
X230Y205D01*
Y235D01*
X200Y1685D02*
X250D01*
X260Y1675D01*
Y1655D01*
X250Y1645D01*
X200D01*
X210Y1585D02*
X200Y1595D01*
Y1615D01*
X210Y1625D01*
X220D01*
X230Y1615D01*
Y1595D01*
X240Y1585D01*
X250D01*
X260Y1595D01*
Y1615D01*
X250Y1625D01*
X200Y1565D02*
X260D01*
Y1535D01*
X250Y1525D01*
X240D01*
X230Y1535D01*
Y1565D01*
Y1535D01*
X220Y1525D01*
X210D01*
X200Y1535D01*
Y1565D01*
Y1505D02*
X260D01*
Y1475D01*
X250Y1465D01*
X210D01*
X200Y1475D01*
Y1505D01*
X260Y1445D02*
X200D01*
X220Y1425D01*
X200Y1405D01*
X260D01*
X270Y1385D02*
Y1345D01*
X210Y1285D02*
X200Y1295D01*
Y1315D01*
X210Y1325D01*
X220D01*
X230Y1315D01*
Y1295D01*
X240Y1285D01*
X250D01*
X260Y1295D01*
Y1315D01*
X250Y1325D01*
X200Y1265D02*
X260D01*
X240Y1245D01*
X260Y1225D01*
X200D01*
Y1205D02*
X260D01*
Y1175D01*
X250Y1165D01*
X210D01*
X200Y1175D01*
Y1205D01*
X270Y1145D02*
Y1105D01*
X210Y1045D02*
X200Y1055D01*
Y1075D01*
X210Y1085D01*
X220D01*
X230Y1075D01*
Y1055D01*
X240Y1045D01*
X250D01*
X260Y1055D01*
Y1075D01*
X250Y1085D01*
X200Y985D02*
Y1025D01*
X260D01*
Y985D01*
X230Y1025D02*
Y1005D01*
X260Y965D02*
X200D01*
Y935D01*
X210Y925D01*
X230D01*
X240Y935D01*
Y965D01*
Y945D02*
X260Y925D01*
X270Y905D02*
Y865D01*
X200Y805D02*
Y825D01*
Y815D01*
X250D01*
X260Y825D01*
Y835D01*
X250Y845D01*
X210Y745D02*
X200Y755D01*
Y775D01*
X210Y785D01*
X220D01*
X230Y775D01*
Y755D01*
X240Y745D01*
X250D01*
X260Y755D01*
Y775D01*
X250Y785D01*
X260Y725D02*
Y705D01*
Y715D01*
X200D01*
X210Y725D01*
X200Y635D02*
X210Y655D01*
X230Y675D01*
X250D01*
X260Y665D01*
Y645D01*
X250Y635D01*
X240D01*
X230Y645D01*
Y675D01*
X210Y575D02*
X200Y585D01*
Y605D01*
X210Y615D01*
X250D01*
X260Y605D01*
Y585D01*
X250Y575D01*
X200Y555D02*
X260D01*
X240Y535D01*
X260Y515D01*
X200D01*
Y455D02*
Y475D01*
Y465D01*
X250D01*
X260Y475D01*
Y485D01*
X250Y495D01*
X1123Y1535D02*
Y1505D01*
X1108D01*
X1103Y1510D01*
Y1515D01*
X1108Y1520D01*
X1123D01*
X1108D01*
X1103Y1525D01*
Y1530D01*
X1108Y1535D01*
X1123D01*
X1093D02*
Y1505D01*
Y1515D01*
X1073Y1535D01*
X1088Y1520D01*
X1073Y1505D01*
X1043Y1530D02*
X1048Y1535D01*
X1058D01*
X1063Y1530D01*
Y1510D01*
X1058Y1505D01*
X1048D01*
X1043Y1510D01*
Y1520D01*
X1053D01*
X1033Y1535D02*
Y1505D01*
X1018D01*
X1013Y1510D01*
Y1530D01*
X1018Y1535D01*
X1033D01*
X1123Y1408D02*
Y1438D01*
X1108D01*
X1103Y1433D01*
Y1423D01*
X1108Y1418D01*
X1123D01*
X1113D02*
X1103Y1408D01*
X1093Y1428D02*
X1073Y1408D01*
X1083Y1418D01*
X1073Y1428D01*
X1093Y1408D01*
X1123Y1337D02*
X1103D01*
X1113D01*
Y1307D01*
X1093Y1327D02*
X1073Y1307D01*
X1083Y1317D01*
X1073Y1327D01*
X1093Y1307D01*
X1377Y1532D02*
X1382Y1537D01*
X1392D01*
X1397Y1532D01*
Y1512D01*
X1392Y1507D01*
X1382D01*
X1377Y1512D01*
Y1522D01*
X1387D01*
X1367Y1507D02*
Y1527D01*
X1352D01*
X1347Y1522D01*
Y1507D01*
X1317Y1537D02*
Y1507D01*
X1332D01*
X1337Y1512D01*
Y1522D01*
X1332Y1527D01*
X1317D01*
X1383Y1406D02*
Y1436D01*
X1368D01*
X1363Y1431D01*
Y1421D01*
X1368Y1416D01*
X1383D01*
X1373D02*
X1363Y1406D01*
X1353D02*
X1338D01*
X1333Y1411D01*
X1338Y1416D01*
X1348D01*
X1353Y1421D01*
X1348Y1426D01*
X1333D01*
X1318Y1431D02*
Y1426D01*
X1323D01*
X1313D01*
X1318D01*
Y1411D01*
X1313Y1406D01*
X1400Y1333D02*
Y1313D01*
X1390Y1303D01*
X1380Y1313D01*
Y1333D01*
X1350D02*
Y1303D01*
X1365D01*
X1370Y1308D01*
Y1318D01*
X1365Y1323D01*
X1350D01*
X1320Y1333D02*
Y1303D01*
X1335D01*
X1340Y1308D01*
Y1318D01*
X1335Y1323D01*
X1320D01*
X1707Y1210D02*
Y1190D01*
X1697Y1180D01*
X1687Y1190D01*
Y1210D01*
X1657D02*
Y1180D01*
X1672D01*
X1677Y1185D01*
Y1195D01*
X1672Y1200D01*
X1657D01*
X1627Y1210D02*
Y1180D01*
X1642D01*
X1647Y1185D01*
Y1195D01*
X1642Y1200D01*
X1627D01*
X1481Y1207D02*
X1486Y1212D01*
X1496D01*
X1501Y1207D01*
Y1202D01*
X1496Y1197D01*
X1486D01*
X1481Y1192D01*
Y1187D01*
X1486Y1182D01*
X1496D01*
X1501Y1187D01*
X1471Y1212D02*
Y1182D01*
X1461Y1192D01*
X1451Y1182D01*
Y1212D01*
X1441D02*
Y1182D01*
X1426D01*
X1421Y1187D01*
Y1207D01*
X1426Y1212D01*
X1441D01*
X1481Y1255D02*
X1486Y1260D01*
X1496D01*
X1501Y1255D01*
Y1250D01*
X1496Y1245D01*
X1486D01*
X1481Y1240D01*
Y1235D01*
X1486Y1230D01*
X1496D01*
X1501Y1235D01*
X1471Y1260D02*
Y1230D01*
X1461Y1240D01*
X1451Y1230D01*
Y1260D01*
X1421Y1255D02*
X1426Y1260D01*
X1436D01*
X1441Y1255D01*
Y1235D01*
X1436Y1230D01*
X1426D01*
X1421Y1235D01*
X1411Y1260D02*
Y1230D01*
X1391D01*
X1381Y1260D02*
Y1230D01*
Y1240D01*
X1361Y1260D01*
X1376Y1245D01*
X1361Y1230D01*
X1498Y1310D02*
X1478D01*
X1488D01*
Y1280D01*
X1468Y1300D02*
X1448Y1280D01*
X1458Y1290D01*
X1448Y1300D01*
X1468Y1280D01*
X1496Y1329D02*
Y1359D01*
X1481D01*
X1476Y1354D01*
Y1344D01*
X1481Y1339D01*
X1496D01*
X1486D02*
X1476Y1329D01*
X1466Y1349D02*
X1446Y1329D01*
X1456Y1339D01*
X1446Y1349D01*
X1466Y1329D01*
X1497Y1378D02*
Y1408D01*
X1482D01*
X1477Y1403D01*
Y1393D01*
X1482Y1388D01*
X1497D01*
X1487D02*
X1477Y1378D01*
X1467D02*
X1452D01*
X1447Y1383D01*
X1452Y1388D01*
X1462D01*
X1467Y1393D01*
X1462Y1398D01*
X1447D01*
X1432Y1403D02*
Y1398D01*
X1437D01*
X1427D01*
X1432D01*
Y1383D01*
X1427Y1378D01*
X1623Y1622D02*
X1618Y1627D01*
Y1637D01*
X1623Y1642D01*
X1643D01*
X1648Y1637D01*
Y1627D01*
X1643Y1622D01*
X1633D01*
Y1632D01*
X1648Y1612D02*
X1628D01*
Y1597D01*
X1633Y1592D01*
X1648D01*
X1618Y1562D02*
X1648D01*
Y1577D01*
X1643Y1582D01*
X1633D01*
X1628Y1577D01*
Y1562D01*
X1624Y1292D02*
X1619Y1297D01*
Y1307D01*
X1624Y1312D01*
X1644D01*
X1649Y1307D01*
Y1297D01*
X1644Y1292D01*
X1634D01*
Y1302D01*
X1649Y1282D02*
X1629D01*
Y1267D01*
X1634Y1262D01*
X1649D01*
X1619Y1232D02*
X1649D01*
Y1247D01*
X1644Y1252D01*
X1634D01*
X1629Y1247D01*
Y1232D01*
X528Y1000D02*
Y1040D01*
X508D01*
X501Y1033D01*
Y1020D01*
X508Y1013D01*
X528D01*
X515D02*
X501Y1000D01*
X488Y1026D02*
X461Y1000D01*
X475Y1013D01*
X461Y1026D01*
X488Y1000D01*
X448Y1040D02*
Y1000D01*
X428D01*
X421Y1006D01*
Y1033D01*
X428Y1040D01*
X448D01*
X528Y1140D02*
X501D01*
X515D01*
Y1100D01*
X488Y1126D02*
X461Y1100D01*
X475Y1113D01*
X461Y1126D01*
X488Y1100D01*
X448Y1140D02*
Y1100D01*
X428D01*
X421Y1106D01*
Y1133D01*
X428Y1140D01*
X448D01*
X501Y833D02*
X508Y840D01*
X521D01*
X528Y833D01*
Y806D01*
X521Y800D01*
X508D01*
X501Y806D01*
Y820D01*
X515D01*
X488Y800D02*
Y826D01*
X468D01*
X461Y820D01*
Y800D01*
X421Y840D02*
Y800D01*
X441D01*
X448Y806D01*
Y820D01*
X441Y826D01*
X421D01*
X528Y940D02*
Y913D01*
X515Y900D01*
X501Y913D01*
Y940D01*
X461D02*
Y900D01*
X481D01*
X488Y906D01*
Y920D01*
X481Y926D01*
X461D01*
X421Y940D02*
Y900D01*
X441D01*
X448Y906D01*
Y920D01*
X441Y926D01*
X421D01*
D69*
X1030Y194D02*
D03*
M02*
