G04 Layer_Physical_Order=1*
G04 Layer_Color=255*
%FSLAX23Y23*%
%MOIN*%
G70*
G01*
G75*
%ADD10R,0.051X0.059*%
%ADD11R,0.059X0.051*%
%ADD12O,0.098X0.028*%
%ADD13R,0.063X0.071*%
%ADD14R,0.087X0.024*%
%ADD15R,0.087X0.024*%
%ADD16R,0.083X0.033*%
%ADD17R,0.083X0.122*%
%ADD18R,0.134X0.075*%
%ADD19R,0.110X0.020*%
%ADD20R,0.098X0.079*%
%ADD21R,0.094X0.083*%
%ADD22C,0.010*%
%ADD23C,0.020*%
%ADD24R,0.039X0.039*%
%ADD25C,0.039*%
%ADD26C,0.059*%
%ADD27R,0.059X0.059*%
%ADD28R,0.059X0.059*%
%ADD29C,0.055*%
%ADD30C,0.031*%
%ADD31C,0.062*%
%ADD32O,0.062X0.055*%
%ADD33R,0.062X0.062*%
%ADD34C,0.027*%
G36*
X934Y1316D02*
Y1280D01*
X949D01*
Y1260D01*
X934D01*
Y1185D01*
X772D01*
X766Y1184D01*
X761Y1181D01*
X665Y1085D01*
X601D01*
X596Y1099D01*
Y1103D01*
X601Y1111D01*
X603Y1120D01*
X601Y1129D01*
X596Y1137D01*
Y1153D01*
X600Y1160D01*
X486D01*
X491Y1153D01*
X489Y1137D01*
X488Y1135D01*
X487Y1134D01*
X483Y1131D01*
X466Y1114D01*
X449Y1112D01*
X445Y1113D01*
X427Y1131D01*
X423Y1134D01*
X417Y1135D01*
X408D01*
X403Y1149D01*
Y1153D01*
X408Y1161D01*
X410Y1170D01*
X410Y1171D01*
X463Y1225D01*
X677D01*
X683Y1226D01*
X687Y1229D01*
X718Y1260D01*
X766D01*
X768Y1256D01*
X777Y1251D01*
X787Y1249D01*
X797Y1251D01*
X805Y1256D01*
X811Y1265D01*
X813Y1275D01*
X811Y1283D01*
X820Y1297D01*
X822Y1299D01*
X832Y1301D01*
X840Y1306D01*
X846Y1315D01*
X848Y1325D01*
X847Y1332D01*
X853Y1344D01*
X857Y1350D01*
X900D01*
X934Y1316D01*
D02*
G37*
G36*
X444Y1292D02*
X440Y1282D01*
X436Y1275D01*
X431Y1274D01*
X426Y1271D01*
X375Y1220D01*
X206D01*
X194Y1233D01*
X201Y1250D01*
X207D01*
X225Y1250D01*
X237D01*
Y1290D01*
X247D01*
Y1300D01*
X282D01*
Y1312D01*
X282Y1330D01*
X300Y1330D01*
X302D01*
X305Y1328D01*
X315Y1326D01*
X386D01*
X395Y1328D01*
X398Y1330D01*
X407D01*
X444Y1292D01*
D02*
G37*
G36*
X1751Y20D02*
X1373D01*
X1364Y34D01*
X1364Y38D01*
Y60D01*
X1396D01*
Y50D01*
X1453D01*
X1467Y50D01*
X1485Y50D01*
X1497D01*
Y90D01*
Y130D01*
X1485D01*
X1471Y130D01*
X1453Y130D01*
X1396D01*
Y91D01*
X1364D01*
Y137D01*
X1249D01*
Y137D01*
X1232Y137D01*
X1231Y138D01*
X1231Y163D01*
X1231Y181D01*
Y204D01*
X1249D01*
Y203D01*
X1364D01*
Y229D01*
X1396D01*
Y190D01*
X1453D01*
X1467Y190D01*
X1485Y190D01*
X1497D01*
Y230D01*
Y270D01*
X1485D01*
X1471Y270D01*
X1453Y270D01*
X1396D01*
Y260D01*
X1364D01*
Y306D01*
X1249D01*
Y234D01*
X1231D01*
Y238D01*
X1155D01*
X1152Y238D01*
X1137Y245D01*
X1137Y255D01*
X1137Y257D01*
X1141Y265D01*
X1145Y273D01*
X1149Y276D01*
X1162Y289D01*
X1166Y294D01*
X1167Y300D01*
Y316D01*
X1178Y327D01*
X1284D01*
X1290Y328D01*
X1295Y332D01*
X1313Y350D01*
X1652D01*
X1658Y351D01*
X1662Y354D01*
X1682Y374D01*
X1686Y379D01*
X1687Y385D01*
Y455D01*
X1686Y461D01*
X1682Y466D01*
X1665Y483D01*
X1659Y494D01*
X1658Y505D01*
X1660Y510D01*
X1662Y520D01*
X1660Y530D01*
X1656Y540D01*
X1650Y548D01*
X1642Y555D01*
X1632Y559D01*
X1622Y560D01*
X1611Y559D01*
X1606Y556D01*
X1591Y566D01*
X1595Y580D01*
X1612D01*
Y620D01*
Y660D01*
X1583D01*
X1582Y661D01*
X1562Y681D01*
X1558Y684D01*
X1552Y685D01*
X1507D01*
X1501Y684D01*
X1496Y681D01*
X1455Y640D01*
X1440Y650D01*
Y688D01*
X1493Y742D01*
X1498Y748D01*
X1499Y756D01*
Y768D01*
X1530D01*
X1530Y768D01*
X1547Y766D01*
X1552Y765D01*
X1582D01*
Y745D01*
X1661D01*
Y824D01*
X1582D01*
Y805D01*
X1560D01*
X1557Y809D01*
X1550Y813D01*
X1542Y815D01*
X1530D01*
Y821D01*
X1499D01*
Y858D01*
X1530D01*
Y912D01*
X1428D01*
Y858D01*
X1458D01*
Y821D01*
X1428D01*
Y768D01*
X1437D01*
X1444Y750D01*
X1419Y725D01*
X1368D01*
Y725D01*
X1365D01*
Y725D01*
X1339D01*
Y685D01*
X1329D01*
Y675D01*
X1294D01*
Y650D01*
X1235D01*
X1122Y763D01*
Y942D01*
X1120Y950D01*
X1116Y956D01*
X1116Y956D01*
X1084Y989D01*
Y1064D01*
X1083D01*
X1080Y1080D01*
X1080D01*
Y1134D01*
X1175Y1230D01*
X1504D01*
X1508Y1225D01*
X1513Y1213D01*
X1511Y1210D01*
X1508Y1203D01*
X1507Y1195D01*
X1508Y1187D01*
X1511Y1180D01*
X1515Y1174D01*
X1522Y1169D01*
X1529Y1166D01*
X1537Y1165D01*
X1539Y1165D01*
X1557Y1165D01*
X1557Y1165D01*
X1557Y1165D01*
X1616D01*
Y1225D01*
X1616Y1225D01*
X1616Y1242D01*
X1617Y1245D01*
X1616Y1253D01*
X1613Y1260D01*
X1608Y1266D01*
Y1274D01*
X1613Y1280D01*
X1615Y1285D01*
X1587D01*
Y1295D01*
X1577D01*
Y1326D01*
X1566Y1337D01*
X1567Y1345D01*
X1566Y1353D01*
X1579Y1366D01*
X1587Y1365D01*
X1594Y1366D01*
X1602Y1369D01*
X1608Y1374D01*
X1613Y1380D01*
X1616Y1387D01*
X1617Y1395D01*
X1616Y1403D01*
X1613Y1410D01*
X1608Y1416D01*
X1602Y1421D01*
X1594Y1424D01*
X1587Y1425D01*
X1579Y1424D01*
X1572Y1421D01*
X1565Y1416D01*
X1558D01*
X1552Y1421D01*
X1544Y1424D01*
X1537Y1425D01*
X1529Y1424D01*
X1522Y1421D01*
X1515Y1416D01*
X1511Y1410D01*
X1508Y1403D01*
X1507Y1395D01*
X1508Y1387D01*
X1511Y1380D01*
X1515Y1374D01*
Y1366D01*
X1511Y1360D01*
X1508Y1353D01*
X1507Y1345D01*
X1508Y1337D01*
X1511Y1330D01*
X1515Y1324D01*
Y1316D01*
X1511Y1310D01*
X1508Y1303D01*
X1507Y1295D01*
X1508Y1287D01*
X1511Y1280D01*
X1513Y1277D01*
X1508Y1265D01*
X1504Y1260D01*
X1279D01*
X1278Y1261D01*
X1270Y1278D01*
X1274Y1282D01*
X1275D01*
X1285Y1283D01*
X1294Y1287D01*
X1302Y1293D01*
X1308Y1301D01*
X1309Y1305D01*
X1317D01*
X1323Y1306D01*
X1327Y1309D01*
X1367Y1349D01*
X1371Y1354D01*
X1372Y1360D01*
Y1590D01*
X1371Y1596D01*
X1367Y1601D01*
X1302Y1666D01*
X1298Y1669D01*
X1292Y1670D01*
X1080D01*
Y1695D01*
X1008D01*
X1008Y1695D01*
X1005D01*
Y1695D01*
X991Y1695D01*
X934D01*
Y1615D01*
X962D01*
X964Y1612D01*
X955Y1595D01*
X934D01*
Y1565D01*
X878D01*
X832Y1611D01*
X828Y1614D01*
X822Y1615D01*
X606D01*
X596Y1631D01*
Y1633D01*
X600Y1640D01*
X486D01*
X491Y1633D01*
Y1631D01*
X480Y1615D01*
X453D01*
X448Y1625D01*
X446Y1633D01*
X451Y1640D01*
X453Y1650D01*
X451Y1660D01*
X445Y1669D01*
X437Y1674D01*
X427Y1676D01*
X417Y1674D01*
X403Y1667D01*
X395Y1672D01*
X386Y1674D01*
X315D01*
X305Y1672D01*
X298Y1667D01*
X292Y1659D01*
X291Y1650D01*
X292Y1641D01*
X298Y1633D01*
Y1617D01*
X292Y1609D01*
X291Y1600D01*
X292Y1591D01*
X298Y1583D01*
Y1567D01*
X292Y1559D01*
X291Y1550D01*
X292Y1541D01*
X298Y1533D01*
Y1517D01*
X292Y1509D01*
X291Y1500D01*
X292Y1491D01*
X298Y1483D01*
Y1467D01*
X292Y1459D01*
X291Y1454D01*
X288Y1448D01*
X275Y1440D01*
X211D01*
Y1440D01*
X207D01*
Y1440D01*
X182D01*
Y1400D01*
X172D01*
Y1390D01*
X136D01*
Y1369D01*
X134Y1369D01*
X127Y1364D01*
X92Y1329D01*
X88Y1323D01*
X86Y1315D01*
Y952D01*
X88Y945D01*
X92Y938D01*
X122Y908D01*
X129Y903D01*
X137Y902D01*
X166D01*
X167Y900D01*
X173Y892D01*
X182Y885D01*
X191Y881D01*
X202Y880D01*
X212Y881D01*
X222Y885D01*
X230Y892D01*
X240Y892D01*
X277Y856D01*
X284Y851D01*
X292Y850D01*
X302D01*
X305Y848D01*
X315Y846D01*
X351D01*
Y817D01*
X339Y805D01*
X316Y805D01*
X304D01*
Y765D01*
Y725D01*
X316D01*
X330Y725D01*
X348Y725D01*
X405D01*
Y805D01*
X392D01*
Y837D01*
X410Y837D01*
X411Y831D01*
X414Y826D01*
X466Y774D01*
X471Y771D01*
X477Y770D01*
X586D01*
X600Y755D01*
X602Y745D01*
X608Y736D01*
X617Y731D01*
X627Y729D01*
X637Y731D01*
X645Y736D01*
X647Y740D01*
X730D01*
X866Y604D01*
Y321D01*
X797Y252D01*
X771D01*
X759Y265D01*
X759Y276D01*
X759Y308D01*
X759Y326D01*
X759Y358D01*
X759Y376D01*
X759Y408D01*
X759Y426D01*
Y426D01*
X706D01*
Y446D01*
X759D01*
Y458D01*
X759Y476D01*
Y497D01*
X759Y508D01*
X759D01*
Y515D01*
X759Y515D01*
Y547D01*
X759Y558D01*
X759D01*
X759Y565D01*
X759Y565D01*
Y608D01*
X746D01*
X733Y625D01*
X731Y635D01*
X725Y644D01*
X717Y649D01*
X707Y651D01*
X697Y649D01*
X688Y644D01*
X686Y641D01*
X686Y641D01*
X667D01*
X667Y641D01*
X665Y644D01*
X657Y649D01*
X647Y651D01*
X637Y649D01*
X631Y645D01*
X613Y650D01*
X611Y650D01*
X582D01*
Y605D01*
X572D01*
Y595D01*
X530D01*
Y568D01*
X530Y560D01*
X517Y552D01*
X503Y560D01*
Y650D01*
X420D01*
Y560D01*
X452D01*
X459Y542D01*
X457Y540D01*
X455Y530D01*
X457Y520D01*
X461Y514D01*
Y493D01*
X299D01*
X296Y493D01*
X256D01*
Y453D01*
Y422D01*
Y390D01*
Y359D01*
Y357D01*
X387D01*
Y368D01*
X404Y376D01*
X464Y316D01*
Y277D01*
X464Y260D01*
X464Y248D01*
Y230D01*
X499D01*
Y220D01*
X509D01*
Y180D01*
X521D01*
X535Y180D01*
X544D01*
X546Y178D01*
X539Y160D01*
X530D01*
Y70D01*
X613D01*
Y160D01*
X587D01*
Y180D01*
X610D01*
Y221D01*
X635Y247D01*
X653Y239D01*
Y215D01*
X653D01*
Y208D01*
X653D01*
Y165D01*
X653D01*
Y158D01*
X653D01*
Y115D01*
X759D01*
Y121D01*
X785D01*
X791Y122D01*
X796Y126D01*
X942Y273D01*
X946Y278D01*
X947Y283D01*
Y313D01*
X965Y320D01*
X1009Y276D01*
X1014Y272D01*
X1019Y271D01*
X1025Y265D01*
X1031Y257D01*
X1031Y247D01*
Y246D01*
X1084D01*
Y226D01*
X1031D01*
Y215D01*
X1031Y197D01*
X1031Y165D01*
X1031Y147D01*
Y115D01*
X1137D01*
X1152Y108D01*
Y92D01*
X1231D01*
Y92D01*
X1246Y85D01*
X1249Y82D01*
Y38D01*
X1249Y34D01*
X1240Y20D01*
X20D01*
Y154D01*
X32Y167D01*
X38Y167D01*
X81D01*
Y216D01*
Y265D01*
X38D01*
X32Y265D01*
X20Y278D01*
Y542D01*
X32Y555D01*
X38Y555D01*
X81D01*
Y604D01*
Y653D01*
X38D01*
X32Y653D01*
X20Y666D01*
Y1751D01*
X1751D01*
Y20D01*
D02*
G37*
G36*
X1341Y1584D02*
Y1480D01*
X1324Y1473D01*
X1317Y1479D01*
X1315Y1480D01*
X1310Y1490D01*
X1308Y1498D01*
X1308Y1499D01*
X1308Y1500D01*
X1312Y1509D01*
X1312Y1510D01*
X1232D01*
X1232Y1509D01*
X1232Y1509D01*
X1219Y1494D01*
X1213Y1496D01*
Y1561D01*
X1152D01*
X1147Y1566D01*
X1143Y1569D01*
X1137Y1570D01*
X1080D01*
Y1595D01*
X1051D01*
X1049Y1598D01*
X1059Y1615D01*
X1080D01*
Y1640D01*
X1285D01*
X1341Y1584D01*
D02*
G37*
%LPC*%
G36*
X199Y349D02*
X195Y348D01*
X190Y343D01*
X185Y337D01*
X183Y333D01*
X199D01*
Y349D01*
D02*
G37*
G36*
X387Y337D02*
X331D01*
Y327D01*
X387D01*
Y337D01*
D02*
G37*
G36*
X199Y313D02*
X183D01*
X185Y309D01*
X190Y304D01*
X195Y299D01*
X199Y298D01*
Y313D01*
D02*
G37*
G36*
X1517Y270D02*
Y240D01*
X1542D01*
Y270D01*
X1517D01*
D02*
G37*
G36*
X311Y337D02*
X256D01*
Y327D01*
X311D01*
Y337D01*
D02*
G37*
G36*
X235Y313D02*
X219D01*
Y298D01*
X223Y299D01*
X229Y304D01*
X234Y309D01*
X235Y313D01*
D02*
G37*
G36*
X219Y349D02*
Y333D01*
X235D01*
X234Y337D01*
X229Y343D01*
X223Y348D01*
X219Y349D01*
D02*
G37*
G36*
X367Y594D02*
X318D01*
Y555D01*
X367D01*
Y594D01*
D02*
G37*
G36*
X298D02*
X249D01*
Y555D01*
X298D01*
Y594D01*
D02*
G37*
G36*
X1661Y610D02*
X1632D01*
Y580D01*
X1661D01*
Y610D01*
D02*
G37*
G36*
X298Y653D02*
X249D01*
Y614D01*
X298D01*
Y653D01*
D02*
G37*
G36*
X101D02*
Y614D01*
X150D01*
Y653D01*
X101D01*
D02*
G37*
G36*
X235Y487D02*
X219D01*
Y471D01*
X223Y472D01*
X229Y477D01*
X234Y483D01*
X235Y487D01*
D02*
G37*
G36*
X199D02*
X183D01*
X185Y483D01*
X190Y477D01*
X195Y472D01*
X199Y471D01*
Y487D01*
D02*
G37*
G36*
Y522D02*
X195Y521D01*
X190Y516D01*
X185Y511D01*
X183Y507D01*
X199D01*
Y522D01*
D02*
G37*
G36*
X150Y594D02*
X101D01*
Y555D01*
X150D01*
Y594D01*
D02*
G37*
G36*
X219Y522D02*
Y507D01*
X235D01*
X234Y511D01*
X229Y516D01*
X223Y521D01*
X219Y522D01*
D02*
G37*
G36*
X367Y265D02*
X318D01*
Y226D01*
X367D01*
Y265D01*
D02*
G37*
G36*
X1517Y130D02*
Y100D01*
X1542D01*
Y130D01*
X1517D01*
D02*
G37*
G36*
X503Y105D02*
X472D01*
Y70D01*
X503D01*
Y105D01*
D02*
G37*
G36*
X212Y132D02*
Y105D01*
X238D01*
X234Y114D01*
X228Y122D01*
X221Y128D01*
X212Y132D01*
D02*
G37*
G36*
X192D02*
X183Y128D01*
X175Y122D01*
X169Y114D01*
X165Y105D01*
X192D01*
Y132D01*
D02*
G37*
G36*
Y85D02*
X165D01*
X169Y76D01*
X175Y68D01*
X183Y62D01*
X192Y58D01*
Y85D01*
D02*
G37*
G36*
X1542Y80D02*
X1517D01*
Y50D01*
X1542D01*
Y80D01*
D02*
G37*
G36*
X452Y105D02*
X420D01*
Y70D01*
X452D01*
Y105D01*
D02*
G37*
G36*
X238Y85D02*
X212D01*
Y58D01*
X221Y62D01*
X228Y68D01*
X234Y76D01*
X238Y85D01*
D02*
G37*
G36*
X452Y160D02*
X420D01*
Y125D01*
X452D01*
Y160D01*
D02*
G37*
G36*
X1542Y220D02*
X1517D01*
Y190D01*
X1542D01*
Y220D01*
D02*
G37*
G36*
X489Y210D02*
X464D01*
Y180D01*
X489D01*
Y210D01*
D02*
G37*
G36*
X298Y265D02*
X249D01*
Y226D01*
X298D01*
Y265D01*
D02*
G37*
G36*
X101D02*
Y226D01*
X150D01*
Y265D01*
X101D01*
D02*
G37*
G36*
X150Y206D02*
X101D01*
Y167D01*
X150D01*
Y206D01*
D02*
G37*
G36*
X503Y160D02*
X472D01*
Y125D01*
X503D01*
Y160D01*
D02*
G37*
G36*
X367Y206D02*
X318D01*
Y167D01*
X367D01*
Y206D01*
D02*
G37*
G36*
X298D02*
X249D01*
Y167D01*
X298D01*
Y206D01*
D02*
G37*
G36*
X162Y1440D02*
X136D01*
Y1410D01*
X162D01*
Y1440D01*
D02*
G37*
G36*
X1597Y1323D02*
Y1305D01*
X1615D01*
X1613Y1310D01*
X1608Y1316D01*
X1602Y1321D01*
X1597Y1323D01*
D02*
G37*
G36*
X1615Y1535D02*
X1597D01*
Y1517D01*
X1602Y1519D01*
X1608Y1524D01*
X1613Y1530D01*
X1615Y1535D01*
D02*
G37*
G36*
X1537Y1675D02*
X1529Y1674D01*
X1522Y1671D01*
X1515Y1666D01*
X1511Y1660D01*
X1508Y1653D01*
X1507Y1645D01*
X1508Y1637D01*
X1511Y1630D01*
X1515Y1624D01*
Y1616D01*
X1511Y1610D01*
X1508Y1603D01*
X1507Y1595D01*
X1508Y1587D01*
X1511Y1580D01*
X1515Y1574D01*
Y1566D01*
X1511Y1560D01*
X1508Y1553D01*
X1507Y1545D01*
X1508Y1537D01*
X1511Y1530D01*
X1515Y1524D01*
X1522Y1519D01*
X1529Y1516D01*
X1537Y1515D01*
X1544Y1516D01*
X1552Y1519D01*
X1558Y1524D01*
X1565D01*
X1572Y1519D01*
X1577Y1517D01*
Y1545D01*
X1587D01*
Y1555D01*
X1615D01*
X1613Y1560D01*
X1608Y1566D01*
Y1574D01*
X1613Y1580D01*
X1615Y1585D01*
X1587D01*
Y1605D01*
X1615D01*
X1613Y1610D01*
X1608Y1616D01*
Y1624D01*
X1613Y1630D01*
X1615Y1635D01*
X1587D01*
Y1645D01*
X1577D01*
Y1673D01*
X1572Y1671D01*
X1565Y1666D01*
X1558D01*
X1552Y1671D01*
X1544Y1674D01*
X1537Y1675D01*
D02*
G37*
G36*
X533Y1194D02*
X508D01*
X498Y1192D01*
X491Y1187D01*
X486Y1180D01*
X533D01*
Y1194D01*
D02*
G37*
G36*
X1358Y1145D02*
X1327D01*
Y1110D01*
X1358D01*
Y1145D01*
D02*
G37*
G36*
X282Y1280D02*
X257D01*
Y1250D01*
X282D01*
Y1280D01*
D02*
G37*
G36*
X579Y1194D02*
X553D01*
Y1180D01*
X600D01*
X596Y1187D01*
X588Y1192D01*
X579Y1194D01*
D02*
G37*
G36*
X1262Y1560D02*
X1261Y1560D01*
X1251Y1556D01*
X1242Y1549D01*
X1236Y1541D01*
X1232Y1531D01*
X1232Y1530D01*
X1262D01*
Y1560D01*
D02*
G37*
G36*
X579Y1674D02*
X553D01*
Y1660D01*
X600D01*
X596Y1667D01*
X588Y1672D01*
X579Y1674D01*
D02*
G37*
G36*
X533D02*
X508D01*
X498Y1672D01*
X491Y1667D01*
X486Y1660D01*
X533D01*
Y1674D01*
D02*
G37*
G36*
X1387Y1712D02*
Y1685D01*
X1413D01*
X1409Y1694D01*
X1403Y1702D01*
X1396Y1708D01*
X1387Y1712D01*
D02*
G37*
G36*
X1367D02*
X1358Y1708D01*
X1350Y1702D01*
X1344Y1694D01*
X1340Y1685D01*
X1367D01*
Y1712D01*
D02*
G37*
G36*
Y1665D02*
X1340D01*
X1344Y1656D01*
X1350Y1648D01*
X1358Y1642D01*
X1367Y1638D01*
Y1665D01*
D02*
G37*
G36*
X1282Y1560D02*
Y1530D01*
X1312D01*
X1312Y1531D01*
X1307Y1541D01*
X1301Y1549D01*
X1292Y1556D01*
X1282Y1560D01*
X1282Y1560D01*
D02*
G37*
G36*
X1597Y1673D02*
Y1655D01*
X1615D01*
X1613Y1660D01*
X1608Y1666D01*
X1602Y1671D01*
X1597Y1673D01*
D02*
G37*
G36*
X1413Y1665D02*
X1387D01*
Y1638D01*
X1396Y1642D01*
X1403Y1648D01*
X1409Y1656D01*
X1413Y1665D01*
D02*
G37*
G36*
X1307Y1145D02*
X1275D01*
Y1110D01*
X1307D01*
Y1145D01*
D02*
G37*
G36*
X241Y810D02*
X212D01*
Y780D01*
X241D01*
X241Y780D01*
X259Y780D01*
Y775D01*
X284D01*
Y805D01*
X259D01*
X259Y805D01*
X241Y805D01*
Y810D01*
D02*
G37*
G36*
X284Y755D02*
X259D01*
Y725D01*
X284D01*
Y755D01*
D02*
G37*
G36*
X1244Y875D02*
X1203D01*
Y814D01*
X1244D01*
Y875D01*
D02*
G37*
G36*
X192Y810D02*
X162D01*
Y780D01*
X192D01*
Y810D01*
D02*
G37*
G36*
X562Y650D02*
X530D01*
Y615D01*
X562D01*
Y650D01*
D02*
G37*
G36*
X367Y653D02*
X318D01*
Y614D01*
X367D01*
Y653D01*
D02*
G37*
G36*
X1319Y725D02*
X1294D01*
Y695D01*
X1319D01*
Y725D01*
D02*
G37*
G36*
X1661Y660D02*
X1632D01*
Y630D01*
X1661D01*
Y660D01*
D02*
G37*
G36*
X1306Y875D02*
X1264D01*
Y814D01*
X1306D01*
Y875D01*
D02*
G37*
G36*
X1468Y1145D02*
X1385D01*
Y1055D01*
X1443D01*
X1458Y1039D01*
Y1002D01*
X1428D01*
Y949D01*
X1530D01*
Y955D01*
X1552D01*
X1560Y957D01*
X1567Y961D01*
X1570Y965D01*
X1588Y964D01*
X1593Y957D01*
X1602Y950D01*
X1611Y946D01*
X1622Y945D01*
X1632Y946D01*
X1642Y950D01*
X1650Y957D01*
X1656Y965D01*
X1660Y975D01*
X1662Y985D01*
X1660Y995D01*
X1656Y1005D01*
X1650Y1013D01*
X1642Y1019D01*
X1632Y1023D01*
X1622Y1025D01*
X1611Y1023D01*
X1602Y1019D01*
X1593Y1013D01*
X1589Y1007D01*
X1562D01*
X1554Y1005D01*
X1547Y1001D01*
X1530Y1002D01*
Y1002D01*
X1499D01*
Y1048D01*
X1498Y1056D01*
X1493Y1062D01*
X1468Y1087D01*
Y1145D01*
D02*
G37*
G36*
X1306Y956D02*
X1264D01*
Y895D01*
X1306D01*
Y956D01*
D02*
G37*
G36*
X1358Y1090D02*
X1327D01*
Y1055D01*
X1358D01*
Y1090D01*
D02*
G37*
G36*
X1307D02*
X1275D01*
Y1055D01*
X1307D01*
Y1090D01*
D02*
G37*
G36*
X241Y860D02*
X212D01*
Y830D01*
X241D01*
Y860D01*
D02*
G37*
G36*
X192D02*
X162D01*
Y830D01*
X192D01*
Y860D01*
D02*
G37*
G36*
X1244Y956D02*
X1203D01*
Y895D01*
X1244D01*
Y956D01*
D02*
G37*
G36*
X1622Y925D02*
X1611Y923D01*
X1602Y919D01*
X1593Y913D01*
X1587Y905D01*
X1583Y895D01*
X1582Y885D01*
X1583Y875D01*
X1587Y865D01*
X1593Y857D01*
X1602Y850D01*
X1611Y846D01*
X1622Y845D01*
X1632Y846D01*
X1642Y850D01*
X1650Y857D01*
X1656Y865D01*
X1660Y875D01*
X1662Y885D01*
X1660Y895D01*
X1656Y905D01*
X1650Y913D01*
X1642Y919D01*
X1632Y923D01*
X1622Y925D01*
D02*
G37*
%LPD*%
D10*
X1432Y230D02*
D03*
X1507D02*
D03*
Y90D02*
D03*
X1432D02*
D03*
X1044Y1220D02*
D03*
X969D02*
D03*
X294Y765D02*
D03*
X369D02*
D03*
X247Y1400D02*
D03*
X172D02*
D03*
X969Y1655D02*
D03*
X1044D02*
D03*
Y1320D02*
D03*
X969D02*
D03*
Y1555D02*
D03*
X1044D02*
D03*
Y1420D02*
D03*
X969D02*
D03*
X499Y475D02*
D03*
X574D02*
D03*
Y390D02*
D03*
X499D02*
D03*
Y305D02*
D03*
X574D02*
D03*
Y220D02*
D03*
X499D02*
D03*
X1044Y1120D02*
D03*
X969D02*
D03*
X172Y1290D02*
D03*
X247D02*
D03*
X1329Y685D02*
D03*
X1404D02*
D03*
D11*
X1507Y448D02*
D03*
Y522D02*
D03*
X1327Y448D02*
D03*
Y522D02*
D03*
X1212Y522D02*
D03*
Y448D02*
D03*
X1192Y202D02*
D03*
Y128D02*
D03*
X1417Y448D02*
D03*
Y522D02*
D03*
D12*
X543Y870D02*
D03*
Y920D02*
D03*
Y970D02*
D03*
Y1020D02*
D03*
Y1070D02*
D03*
Y1120D02*
D03*
Y1170D02*
D03*
X350Y870D02*
D03*
Y920D02*
D03*
Y970D02*
D03*
Y1020D02*
D03*
Y1070D02*
D03*
Y1120D02*
D03*
Y1170D02*
D03*
X543Y1350D02*
D03*
Y1400D02*
D03*
Y1450D02*
D03*
Y1500D02*
D03*
Y1550D02*
D03*
Y1600D02*
D03*
Y1650D02*
D03*
X350Y1350D02*
D03*
Y1400D02*
D03*
Y1450D02*
D03*
Y1500D02*
D03*
Y1550D02*
D03*
Y1600D02*
D03*
Y1650D02*
D03*
D13*
X572Y115D02*
D03*
X462D02*
D03*
X572Y605D02*
D03*
X462D02*
D03*
X1427Y1100D02*
D03*
X1317D02*
D03*
D14*
X706Y586D02*
D03*
X1084D02*
D03*
Y536D02*
D03*
Y486D02*
D03*
Y436D02*
D03*
Y386D02*
D03*
Y336D02*
D03*
Y286D02*
D03*
Y236D02*
D03*
Y186D02*
D03*
Y136D02*
D03*
D15*
X706Y536D02*
D03*
Y486D02*
D03*
Y436D02*
D03*
Y386D02*
D03*
Y336D02*
D03*
Y286D02*
D03*
Y236D02*
D03*
Y186D02*
D03*
Y136D02*
D03*
D16*
X1479Y794D02*
D03*
Y885D02*
D03*
Y976D02*
D03*
D17*
X1254Y885D02*
D03*
D18*
X1007Y1017D02*
D03*
Y863D02*
D03*
D19*
X321Y410D02*
D03*
Y441D02*
D03*
Y347D02*
D03*
Y379D02*
D03*
Y473D02*
D03*
D20*
X308Y604D02*
D03*
X91D02*
D03*
Y216D02*
D03*
X308D02*
D03*
D21*
X1307Y85D02*
D03*
Y255D02*
D03*
D22*
X25Y120D02*
Y680D01*
X172Y1233D02*
X202Y1203D01*
Y1122D02*
Y1203D01*
X200Y1205D02*
X382D01*
X172Y1233D02*
Y1290D01*
X382Y1205D02*
X437Y1260D01*
X262Y1080D02*
Y1140D01*
X202Y1020D02*
X262Y1080D01*
X490Y1315D02*
X632D01*
X405Y1400D02*
X490Y1315D01*
X352Y1400D02*
X405D01*
X407Y1020D02*
X425Y1002D01*
Y837D02*
Y1002D01*
Y837D02*
X477Y785D01*
X832Y870D02*
Y990D01*
X757Y1065D02*
X832Y990D01*
X543Y1500D02*
X692D01*
X772Y1170D02*
X1022D01*
X672Y1070D02*
X772Y1170D01*
X543Y1070D02*
X672D01*
X762Y1120D02*
X969D01*
X612Y970D02*
X762Y1120D01*
X802Y865D02*
Y905D01*
X707Y1000D02*
X802Y905D01*
X543Y920D02*
X707D01*
X647Y560D02*
Y625D01*
X707Y587D02*
Y625D01*
X677Y1240D02*
X712Y1275D01*
X457Y1240D02*
X677D01*
X387Y1170D02*
X457Y1240D01*
X667Y1260D02*
X732Y1325D01*
X437Y1260D02*
X667D01*
X712Y1275D02*
X787D01*
X732Y1325D02*
X822D01*
X632Y1315D02*
X707Y1390D01*
X677Y1420D02*
X969D01*
X607Y1350D02*
X677Y1420D01*
X541Y1350D02*
X607D01*
X852Y880D02*
X937Y795D01*
X852Y880D02*
Y1065D01*
X917Y1500D02*
X1101D01*
X907Y1510D02*
X917Y1500D01*
X822Y1510D02*
X907D01*
X787Y1475D02*
X1072D01*
X1127Y1420D01*
X722Y1550D02*
X757Y1515D01*
X882Y315D02*
Y610D01*
X803Y236D02*
X882Y315D01*
X706Y236D02*
X803D01*
X907Y300D02*
Y620D01*
X793Y186D02*
X907Y300D01*
X706Y186D02*
X793D01*
X932Y283D02*
Y630D01*
X785Y136D02*
X932Y283D01*
X706Y136D02*
X785D01*
X737Y755D02*
X882Y610D01*
X742Y785D02*
X907Y620D01*
X752Y810D02*
X932Y630D01*
X762Y835D02*
X962Y635D01*
Y345D02*
Y635D01*
Y345D02*
X1020Y286D01*
X762Y870D02*
X987Y645D01*
Y370D02*
Y645D01*
Y370D02*
X1020Y336D01*
X802Y865D02*
X1012Y655D01*
Y450D02*
Y655D01*
Y450D02*
X1025Y436D01*
X627Y755D02*
X737D01*
X477Y785D02*
X742D01*
X487Y810D02*
X752D01*
X452Y845D02*
X487Y810D01*
X452Y845D02*
Y1085D01*
X497Y835D02*
X762D01*
X477Y855D02*
X497Y835D01*
X477Y855D02*
Y1103D01*
X1147Y536D02*
Y610D01*
X962Y795D02*
X1147Y610D01*
X937Y795D02*
X962D01*
X543Y870D02*
X762D01*
X1052Y590D02*
Y650D01*
X832Y870D02*
X1052Y650D01*
X1047Y585D02*
X1052Y590D01*
X1147Y536D02*
X1198D01*
X1084D02*
X1147D01*
X170Y970D02*
X350D01*
X147Y993D02*
X170Y970D01*
X292Y1170D02*
X350D01*
X262Y1140D02*
X292Y1170D01*
X350Y1070D02*
X422D01*
X417Y1120D02*
X452Y1085D01*
X487Y300D02*
Y315D01*
X392Y410D02*
X487Y315D01*
X299Y410D02*
X392D01*
X1152Y322D02*
X1172Y343D01*
X1152Y300D02*
Y322D01*
X1138Y286D02*
X1152Y300D01*
X1172Y343D02*
X1284D01*
X1020Y286D02*
X1138D01*
X1135Y436D02*
X1172Y400D01*
X1025Y436D02*
X1084D01*
Y436D02*
X1135D01*
X1172Y400D02*
X1257D01*
X1260Y365D02*
X1292Y396D01*
X1157Y365D02*
X1260D01*
X1332Y396D02*
X1558D01*
X1567Y405D01*
X1554Y448D02*
X1579Y473D01*
X1507Y448D02*
X1554D01*
X1477Y575D02*
X1522Y620D01*
X1302Y575D02*
X1477D01*
X1437Y600D02*
X1507Y670D01*
X1287Y600D02*
X1437D01*
X1212Y25D02*
X1392D01*
X1293Y110D02*
X1312Y91D01*
X1204Y110D02*
X1293D01*
X1192Y123D02*
X1204Y110D01*
X543Y970D02*
X612D01*
X541D02*
X543D01*
X541Y870D02*
X543D01*
X541Y1020D02*
Y1070D01*
X543Y1450D02*
X627D01*
X541Y1550D02*
X543D01*
X722D01*
X822Y1600D02*
X872Y1550D01*
X543Y1600D02*
X822D01*
X541Y1500D02*
X543D01*
X1022Y1170D02*
X1058Y1206D01*
X1262Y1420D02*
X1272D01*
X1212Y1370D02*
X1262Y1420D01*
X1138Y1370D02*
X1212D01*
X1101Y1500D02*
X1133Y1468D01*
X1507Y670D02*
X1552D01*
X574Y210D02*
X577D01*
X653Y286D01*
X706D01*
X653Y336D02*
X673D01*
X617Y300D02*
X653Y336D01*
X574Y300D02*
X617D01*
X572Y105D02*
Y208D01*
X574Y390D02*
X722D01*
X447D02*
X499D01*
X395Y441D02*
X447Y390D01*
X299Y441D02*
X395D01*
X352Y920D02*
Y970D01*
X350D02*
X352D01*
X647Y560D02*
X670Y536D01*
X706D01*
X711Y591D02*
X717Y585D01*
X1044Y1120D02*
X1169Y1245D01*
X1332Y396D02*
Y459D01*
X1654Y473D02*
X1672Y455D01*
X1579Y473D02*
X1654D01*
X1507Y448D02*
X1544D01*
X1652Y365D02*
X1672Y385D01*
X1327Y526D02*
X1405Y448D01*
X147Y1067D02*
X202Y1122D01*
Y1120D02*
Y1122D01*
X147Y993D02*
Y1067D01*
X1088Y1420D02*
X1138Y1370D01*
X1044Y1420D02*
X1088D01*
X541Y1350D02*
Y1400D01*
X352Y1500D02*
X432D01*
X462Y1470D01*
Y1425D02*
Y1470D01*
Y1425D02*
X487Y1400D01*
X541D01*
X1169Y1245D02*
X1537D01*
X1084Y136D02*
X1163D01*
X352Y1400D02*
Y1450D01*
X1044Y1320D02*
Y1420D01*
X494Y1170D02*
X541D01*
X352Y1600D02*
X541D01*
X352Y1550D02*
Y1600D01*
Y1020D02*
X407D01*
X493Y1120D02*
X541D01*
X477Y1103D02*
X493Y1120D01*
X352D02*
X417D01*
X1084Y486D02*
Y536D01*
X1567Y405D02*
X1617D01*
X1552Y670D02*
X1572Y650D01*
Y520D02*
Y650D01*
X1327Y526D02*
X1338D01*
X1405Y448D02*
X1417D01*
X1204Y219D02*
X1307D01*
X1084Y186D02*
X1188D01*
X1314Y245D02*
X1412D01*
X1314Y75D02*
X1412D01*
X1272Y1320D02*
X1317D01*
X350Y1170D02*
X387D01*
X1127Y1420D02*
X1172D01*
X1044Y1555D02*
X1137D01*
X1172Y1520D01*
X872Y1550D02*
X951D01*
Y1573D01*
X977D01*
X982Y1568D01*
X1044Y1655D02*
X1292D01*
X969D02*
X986Y1639D01*
X1317Y1320D02*
X1357Y1360D01*
Y1590D01*
X1292Y1655D02*
X1357Y1590D01*
X1172Y1320D02*
X1202D01*
X1252Y1370D01*
X1312D01*
X1327Y1385D01*
Y1448D01*
X1307Y1468D02*
X1327Y1448D01*
X1133Y1468D02*
X1307D01*
X352Y1650D02*
X427D01*
X1020Y336D02*
X1084D01*
X1672Y385D02*
Y455D01*
X986Y1626D02*
Y1639D01*
Y1626D02*
X1044Y1568D01*
Y1555D02*
Y1568D01*
X1307Y365D02*
X1652D01*
X1292Y396D02*
X1332D01*
X1212Y448D02*
X1239D01*
X1284Y343D02*
X1307Y365D01*
X1084Y386D02*
X1135D01*
X1157Y365D01*
X1257Y400D02*
X1282Y425D01*
Y555D01*
X1302Y575D01*
X1239Y448D02*
X1262Y470D01*
Y575D01*
X1287Y600D01*
D23*
X480Y1285D02*
X652D01*
X415Y1350D02*
X480Y1285D01*
X350Y1350D02*
X415D01*
X737Y1370D02*
X909D01*
X652Y1285D02*
X737Y1370D01*
X142Y1350D02*
X350D01*
X107Y1315D02*
X142Y1350D01*
X107Y952D02*
Y1315D01*
X372Y768D02*
Y870D01*
X350D02*
X372D01*
X1177Y575D02*
Y630D01*
X1047Y760D02*
X1177Y630D01*
X1047Y760D02*
Y843D01*
X1227Y630D02*
X1382D01*
X1102Y755D02*
X1227Y630D01*
X1102Y755D02*
Y942D01*
X1032Y1012D02*
X1102Y942D01*
X1032Y858D02*
X1047Y843D01*
X107Y952D02*
X137Y922D01*
X292Y870D02*
X350D01*
X137Y922D02*
X202D01*
Y920D02*
X242D01*
X292Y870D01*
X612Y530D02*
X655Y486D01*
X482Y530D02*
X612D01*
X482Y493D02*
Y585D01*
X321Y473D02*
X499D01*
X299D02*
X321D01*
X499D02*
Y475D01*
X1382Y630D02*
X1404Y652D01*
X1166Y265D02*
X1226D01*
X1137Y236D02*
X1166Y265D01*
X1479Y756D02*
Y794D01*
X1418Y695D02*
X1479Y756D01*
X1404Y695D02*
X1418D01*
X1479Y976D02*
Y1048D01*
X1442Y1085D02*
X1479Y1048D01*
X1427Y1085D02*
X1442D01*
X1404Y652D02*
Y695D01*
X1552Y785D02*
X1606D01*
X1542Y794D02*
X1552Y785D01*
X1479Y794D02*
X1542D01*
X1562Y986D02*
X1622D01*
X1479Y976D02*
X1552D01*
X1562Y985D01*
X1479Y794D02*
Y885D01*
X640Y436D02*
X706D01*
X632Y445D02*
X640Y436D01*
X602Y475D02*
X632Y445D01*
X574Y475D02*
X602D01*
X655Y486D02*
X706D01*
X1429Y520D02*
X1572D01*
X969Y1320D02*
X969D01*
Y1220D02*
Y1320D01*
X1222Y1270D02*
X1272Y1320D01*
X969Y1270D02*
X1222D01*
X237Y1352D02*
Y1400D01*
X706Y436D02*
X802D01*
X969Y1320D02*
X969Y1320D01*
Y1315D02*
Y1320D01*
X964Y1320D02*
X969D01*
X302Y347D02*
X397D01*
X1572Y520D02*
X1622D01*
X909Y1370D02*
X964Y1315D01*
X1084Y236D02*
X1137D01*
D24*
X1587Y1195D02*
D03*
D25*
X1537D02*
D03*
X1587Y1245D02*
D03*
X1537D02*
D03*
X1587Y1295D02*
D03*
X1537D02*
D03*
Y1345D02*
D03*
X1587Y1395D02*
D03*
X1537D02*
D03*
X1587Y1545D02*
D03*
X1537D02*
D03*
X1587Y1595D02*
D03*
X1537D02*
D03*
X1587Y1645D02*
D03*
X1537D02*
D03*
D26*
X1622Y420D02*
D03*
Y520D02*
D03*
X1522Y620D02*
D03*
X202Y920D02*
D03*
Y1020D02*
D03*
Y1120D02*
D03*
X1622Y985D02*
D03*
Y885D02*
D03*
D27*
Y620D02*
D03*
X202Y820D02*
D03*
X1622Y785D02*
D03*
D28*
Y620D02*
D03*
D29*
X202Y95D02*
D03*
X1377Y1675D02*
D03*
D30*
X209Y323D02*
D03*
Y497D02*
D03*
X692Y1500D02*
D03*
X707Y1000D02*
D03*
Y920D02*
D03*
X647Y625D02*
D03*
X707D02*
D03*
Y1390D02*
D03*
X852Y1065D02*
D03*
X822Y1510D02*
D03*
Y1325D02*
D03*
X787Y1275D02*
D03*
Y1475D02*
D03*
X757Y1515D02*
D03*
X382Y1290D02*
D03*
X627Y755D02*
D03*
X1240Y770D02*
D03*
X1247Y1030D02*
D03*
X1312Y1190D02*
D03*
X1532Y725D02*
D03*
X482Y530D02*
D03*
X627Y1450D02*
D03*
X632Y445D02*
D03*
X817Y370D02*
D03*
X632Y185D02*
D03*
X1409Y160D02*
D03*
X1457Y1510D02*
D03*
X1200Y1190D02*
D03*
X787Y1215D02*
D03*
X1644Y160D02*
D03*
X422Y1070D02*
D03*
X317Y1290D02*
D03*
X997Y1720D02*
D03*
X1157Y965D02*
D03*
Y805D02*
D03*
X1347Y965D02*
D03*
Y805D02*
D03*
X447Y1155D02*
D03*
X757Y1065D02*
D03*
X892Y1270D02*
D03*
X252Y1485D02*
D03*
X542Y705D02*
D03*
X917Y185D02*
D03*
X417Y260D02*
D03*
X632Y1650D02*
D03*
X247Y1630D02*
D03*
X1157Y885D02*
D03*
X1347D02*
D03*
X427Y1650D02*
D03*
X817Y525D02*
D03*
D31*
X1272Y1520D02*
D03*
X1172Y1420D02*
D03*
Y1320D02*
D03*
D32*
X1272Y1420D02*
D03*
Y1320D02*
D03*
D33*
X1172Y1520D02*
D03*
D34*
X1177Y575D02*
D03*
M02*
