G04 Layer_Color=8421504*
%FSLAX23Y23*%
%MOIN*%
G70*
G01*
G75*
%ADD10R,0.094X0.083*%
%ADD11R,0.134X0.075*%
%ADD12R,0.083X0.033*%
%ADD13R,0.083X0.122*%
%ADD14R,0.051X0.059*%
%ADD15R,0.087X0.024*%
%ADD16R,0.087X0.024*%
%ADD17R,0.059X0.051*%
%ADD18O,0.098X0.028*%
%ADD19R,0.083X0.058*%
%ADD20R,0.054X0.018*%
%ADD21R,0.075X0.046*%
%ADD22R,0.075X0.094*%
D10*
X1307Y100D02*
D03*
Y270D02*
D03*
D11*
X1005Y1037D02*
D03*
Y883D02*
D03*
D12*
X1479Y794D02*
D03*
Y885D02*
D03*
Y976D02*
D03*
D13*
X1254Y885D02*
D03*
D14*
X1409Y1100D02*
D03*
X1334D02*
D03*
X1329Y685D02*
D03*
X1404D02*
D03*
X325Y1290D02*
D03*
X400D02*
D03*
X1042Y1135D02*
D03*
X968D02*
D03*
X572Y580D02*
D03*
X498D02*
D03*
X572Y155D02*
D03*
X498D02*
D03*
X572Y235D02*
D03*
X498D02*
D03*
X498Y315D02*
D03*
X572D02*
D03*
Y395D02*
D03*
X498D02*
D03*
X574Y475D02*
D03*
X499D02*
D03*
X400Y1400D02*
D03*
X325D02*
D03*
X448Y765D02*
D03*
X522D02*
D03*
X1507Y105D02*
D03*
X1432D02*
D03*
Y245D02*
D03*
X1507D02*
D03*
X1042Y1420D02*
D03*
X968D02*
D03*
Y1555D02*
D03*
X1042D02*
D03*
Y1340D02*
D03*
X968D02*
D03*
Y1655D02*
D03*
X1042D02*
D03*
D15*
X706Y586D02*
D03*
X1084D02*
D03*
Y536D02*
D03*
Y486D02*
D03*
Y436D02*
D03*
Y386D02*
D03*
Y336D02*
D03*
Y286D02*
D03*
Y236D02*
D03*
Y186D02*
D03*
Y136D02*
D03*
D16*
X706Y536D02*
D03*
Y486D02*
D03*
Y436D02*
D03*
Y386D02*
D03*
Y336D02*
D03*
Y286D02*
D03*
Y236D02*
D03*
Y186D02*
D03*
Y136D02*
D03*
D17*
X1417Y448D02*
D03*
Y522D02*
D03*
X1192Y202D02*
D03*
Y128D02*
D03*
X1212Y522D02*
D03*
Y448D02*
D03*
X1327D02*
D03*
Y522D02*
D03*
D18*
X696Y1350D02*
D03*
Y1400D02*
D03*
Y1450D02*
D03*
Y1500D02*
D03*
Y1550D02*
D03*
Y1600D02*
D03*
Y1650D02*
D03*
X504Y1350D02*
D03*
Y1400D02*
D03*
Y1450D02*
D03*
Y1500D02*
D03*
Y1550D02*
D03*
Y1600D02*
D03*
Y1650D02*
D03*
X696Y870D02*
D03*
Y920D02*
D03*
Y970D02*
D03*
Y1020D02*
D03*
Y1070D02*
D03*
Y1120D02*
D03*
Y1170D02*
D03*
X504Y870D02*
D03*
Y920D02*
D03*
Y970D02*
D03*
Y1020D02*
D03*
Y1070D02*
D03*
Y1120D02*
D03*
Y1170D02*
D03*
D19*
X298Y512D02*
D03*
Y318D02*
D03*
D20*
X312Y441D02*
D03*
Y466D02*
D03*
Y364D02*
D03*
Y389D02*
D03*
Y415D02*
D03*
D21*
X208Y448D02*
D03*
Y382D02*
D03*
D22*
Y300D02*
D03*
Y530D02*
D03*
M02*
