G04 Layer_Physical_Order=1*
G04 Layer_Color=255*
%FSLAX23Y23*%
%MOIN*%
G70*
G01*
G75*
%ADD10R,0.134X0.075*%
%ADD11R,0.051X0.059*%
%ADD12R,0.085X0.071*%
%ADD13R,0.069X0.043*%
%ADD14R,0.069X0.043*%
%ADD15R,0.069X0.138*%
%ADD16R,0.059X0.051*%
%ADD17O,0.087X0.024*%
%ADD18R,0.087X0.024*%
%ADD19R,0.087X0.024*%
%ADD20R,0.079X0.087*%
%ADD21R,0.047X0.047*%
%ADD22R,0.098X0.079*%
%ADD23R,0.110X0.020*%
%ADD24R,0.102X0.031*%
%ADD25R,0.094X0.083*%
%ADD26C,0.020*%
%ADD27C,0.010*%
%ADD28C,0.035*%
%ADD29R,0.104X0.276*%
%ADD30C,0.062*%
%ADD31O,0.062X0.055*%
%ADD32R,0.062X0.062*%
%ADD33R,0.039X0.039*%
%ADD34C,0.039*%
%ADD35C,0.059*%
%ADD36R,0.059X0.059*%
%ADD37R,0.059X0.059*%
%ADD38C,0.027*%
G36*
X1948Y20D02*
X20D01*
Y1948D01*
X1948D01*
Y20D01*
D02*
G37*
%LPC*%
G36*
X171Y674D02*
X122D01*
Y635D01*
X171D01*
Y674D01*
D02*
G37*
G36*
X102D02*
X53D01*
Y635D01*
X102D01*
Y674D01*
D02*
G37*
G36*
X388D02*
X338D01*
Y635D01*
X388D01*
Y674D01*
D02*
G37*
G36*
X318D02*
X269D01*
Y635D01*
X318D01*
Y674D01*
D02*
G37*
G36*
X220Y567D02*
X191D01*
X191Y566D01*
X195Y557D01*
X202Y548D01*
X210Y542D01*
X220Y538D01*
X220Y538D01*
Y567D01*
D02*
G37*
G36*
Y442D02*
X220Y442D01*
X210Y438D01*
X202Y432D01*
X195Y423D01*
X191Y414D01*
X191Y413D01*
X220D01*
Y442D01*
D02*
G37*
G36*
X561Y665D02*
X522D01*
Y622D01*
X561D01*
Y665D01*
D02*
G37*
G36*
X220Y615D02*
X220Y615D01*
X210Y611D01*
X202Y605D01*
X195Y597D01*
X191Y587D01*
X191Y587D01*
X220D01*
Y615D01*
D02*
G37*
G36*
X318Y733D02*
X269D01*
Y694D01*
X318D01*
Y733D01*
D02*
G37*
G36*
X171D02*
X122D01*
Y694D01*
X171D01*
Y733D01*
D02*
G37*
G36*
X1840Y740D02*
X1810D01*
Y710D01*
X1840D01*
Y740D01*
D02*
G37*
G36*
X388Y733D02*
X338D01*
Y694D01*
X388D01*
Y733D01*
D02*
G37*
G36*
X561Y728D02*
X522D01*
Y685D01*
X561D01*
Y728D01*
D02*
G37*
G36*
X1840Y690D02*
X1810D01*
Y660D01*
X1840D01*
Y660D01*
X1840D01*
Y690D01*
D02*
G37*
G36*
X102Y733D02*
X53D01*
Y694D01*
X102D01*
Y733D01*
D02*
G37*
G36*
X620Y728D02*
X581D01*
Y685D01*
X620D01*
Y728D01*
D02*
G37*
G36*
X171Y286D02*
X122D01*
Y247D01*
X171D01*
Y286D01*
D02*
G37*
G36*
X102D02*
X53D01*
Y247D01*
X102D01*
Y286D01*
D02*
G37*
G36*
X388D02*
X338D01*
Y247D01*
X388D01*
Y286D01*
D02*
G37*
G36*
X318D02*
X269D01*
Y247D01*
X318D01*
Y286D01*
D02*
G37*
G36*
X591Y175D02*
X552D01*
Y132D01*
X591D01*
Y175D01*
D02*
G37*
G36*
X1718Y160D02*
X1692D01*
Y130D01*
X1718D01*
Y160D01*
D02*
G37*
G36*
X1692Y210D02*
Y180D01*
X1718D01*
Y210D01*
X1692D01*
D02*
G37*
G36*
X650Y175D02*
X611D01*
Y132D01*
X650D01*
Y175D01*
D02*
G37*
G36*
X1692Y350D02*
Y320D01*
X1718D01*
Y350D01*
X1692D01*
D02*
G37*
G36*
X388Y345D02*
X338D01*
Y306D01*
X388D01*
Y345D01*
D02*
G37*
G36*
X407Y417D02*
X352D01*
Y407D01*
X407D01*
Y417D01*
D02*
G37*
G36*
X220Y393D02*
X191D01*
X191Y393D01*
X195Y383D01*
X202Y375D01*
X210Y369D01*
X220Y365D01*
X220Y365D01*
Y393D01*
D02*
G37*
G36*
X102Y345D02*
X53D01*
Y306D01*
X102D01*
Y345D01*
D02*
G37*
G36*
X1718Y300D02*
X1692D01*
Y270D01*
X1718D01*
Y300D01*
D02*
G37*
G36*
X318Y345D02*
X269D01*
Y306D01*
X318D01*
Y345D01*
D02*
G37*
G36*
X171D02*
X122D01*
Y306D01*
X171D01*
Y345D01*
D02*
G37*
G36*
X1493Y795D02*
X1467D01*
Y765D01*
X1493D01*
Y795D01*
D02*
G37*
G36*
X1518Y1195D02*
X1476D01*
Y1160D01*
X1518D01*
Y1195D01*
D02*
G37*
G36*
X1740Y1403D02*
Y1385D01*
X1758D01*
X1756Y1390D01*
X1751Y1396D01*
X1745Y1401D01*
X1740Y1403D01*
D02*
G37*
G36*
X283Y1590D02*
X257D01*
Y1560D01*
X283D01*
Y1590D01*
D02*
G37*
G36*
X1456Y1140D02*
X1414D01*
Y1105D01*
X1456D01*
Y1140D01*
D02*
G37*
G36*
X1518D02*
X1476D01*
Y1105D01*
X1518D01*
Y1140D01*
D02*
G37*
G36*
X1456Y1195D02*
X1414D01*
Y1160D01*
X1456D01*
Y1195D01*
D02*
G37*
G36*
X674Y1822D02*
X653D01*
X644Y1821D01*
X637Y1816D01*
X633Y1810D01*
X674D01*
Y1822D01*
D02*
G37*
G36*
X716D02*
X694D01*
Y1810D01*
X736D01*
X732Y1816D01*
X724Y1821D01*
X716Y1822D01*
D02*
G37*
G36*
X570Y1830D02*
X562Y1829D01*
X555Y1826D01*
X549Y1821D01*
X549Y1821D01*
X543Y1816D01*
X536Y1821D01*
X527Y1822D01*
X464D01*
X456Y1821D01*
X448Y1816D01*
X443Y1809D01*
X442Y1800D01*
X443Y1791D01*
X447Y1786D01*
X448Y1784D01*
Y1766D01*
X447Y1764D01*
X443Y1759D01*
X442Y1750D01*
X443Y1741D01*
X448Y1735D01*
X448Y1734D01*
Y1716D01*
X448Y1715D01*
X443Y1709D01*
X442Y1700D01*
X443Y1691D01*
X448Y1685D01*
X448Y1684D01*
Y1666D01*
X448Y1665D01*
X443Y1659D01*
X442Y1650D01*
X443Y1641D01*
X448Y1635D01*
X448Y1634D01*
Y1616D01*
X448Y1615D01*
X443Y1609D01*
X442Y1600D01*
X443Y1591D01*
X448Y1585D01*
X448Y1584D01*
Y1566D01*
X448Y1565D01*
X443Y1559D01*
X442Y1550D01*
X443Y1541D01*
X446Y1538D01*
X441Y1525D01*
X438Y1520D01*
X403D01*
Y1590D01*
X332D01*
Y1590D01*
X328D01*
Y1590D01*
X303D01*
Y1550D01*
X293D01*
Y1540D01*
X257D01*
Y1520D01*
X250D01*
X242Y1519D01*
X236Y1514D01*
X221Y1499D01*
X216Y1493D01*
X215Y1485D01*
Y1393D01*
X151Y1329D01*
X146Y1323D01*
X145Y1315D01*
Y1107D01*
X146Y1100D01*
X151Y1093D01*
X186Y1058D01*
X192Y1053D01*
X200Y1052D01*
X215D01*
X215Y1050D01*
X222Y1042D01*
X230Y1035D01*
X240Y1031D01*
X250Y1030D01*
X260Y1031D01*
X270Y1035D01*
X278Y1042D01*
X285Y1050D01*
X285Y1052D01*
X359D01*
X406Y1006D01*
X412Y1001D01*
X420Y1000D01*
X455D01*
X456Y999D01*
X464Y998D01*
X475D01*
Y962D01*
X463Y950D01*
X452D01*
X434Y950D01*
X423D01*
Y910D01*
Y870D01*
X434D01*
X448Y870D01*
X466Y870D01*
X523D01*
Y950D01*
X516D01*
Y985D01*
X530Y992D01*
X545Y981D01*
Y965D01*
X546Y959D01*
X549Y954D01*
X594Y909D01*
X599Y906D01*
X605Y905D01*
X730D01*
X731Y904D01*
X741Y888D01*
X741Y887D01*
X740Y880D01*
X741Y872D01*
X744Y865D01*
X749Y859D01*
X755Y854D01*
X762Y851D01*
X770Y850D01*
X777Y851D01*
X863Y765D01*
X860Y749D01*
X855Y747D01*
X842Y744D01*
X840Y746D01*
X833Y749D01*
X825Y750D01*
X817Y749D01*
X810Y746D01*
X804Y741D01*
X799Y735D01*
X796Y728D01*
X795Y720D01*
X796Y712D01*
X799Y705D01*
X804Y699D01*
X810Y694D01*
Y666D01*
X792Y661D01*
X788Y664D01*
X780Y665D01*
X738D01*
Y728D01*
X640D01*
Y658D01*
X638Y657D01*
X624Y665D01*
X581D01*
Y622D01*
X585D01*
X598Y604D01*
X597Y600D01*
X597D01*
Y573D01*
X577D01*
X576Y574D01*
X570Y579D01*
X563Y582D01*
X555Y583D01*
X547Y582D01*
X540Y579D01*
X534Y574D01*
X533Y573D01*
X342D01*
X339Y573D01*
X287D01*
X276Y575D01*
X269Y587D01*
X268Y587D01*
X264Y597D01*
X258Y605D01*
X250Y611D01*
X240Y615D01*
X240Y615D01*
Y577D01*
Y538D01*
X240Y538D01*
X250Y542D01*
X258Y548D01*
X259Y550D01*
X277Y544D01*
Y502D01*
Y470D01*
Y436D01*
X259Y430D01*
X258Y432D01*
X250Y438D01*
X240Y442D01*
X240Y442D01*
Y403D01*
Y365D01*
X240Y365D01*
X250Y369D01*
X258Y375D01*
X264Y383D01*
X268Y393D01*
X269Y393D01*
X276Y405D01*
X287Y407D01*
X332D01*
Y427D01*
X342D01*
Y437D01*
X407D01*
Y439D01*
Y475D01*
X479D01*
X574Y379D01*
X579Y376D01*
X585Y375D01*
X597Y363D01*
X597Y330D01*
X597Y323D01*
Y300D01*
X633D01*
Y280D01*
X597D01*
Y256D01*
X597Y250D01*
X584Y238D01*
X552D01*
Y195D01*
X650D01*
Y224D01*
X660Y230D01*
X670Y224D01*
Y132D01*
X768D01*
Y238D01*
X756D01*
X743Y250D01*
Y285D01*
X745D01*
X751Y286D01*
X756Y289D01*
X809Y342D01*
X829Y341D01*
X831Y338D01*
X831Y327D01*
Y295D01*
X831D01*
Y288D01*
X831D01*
Y245D01*
X831D01*
Y238D01*
X831D01*
Y195D01*
X938D01*
Y201D01*
X961D01*
X967Y202D01*
X972Y206D01*
X1111Y344D01*
X1114Y349D01*
X1115Y355D01*
Y375D01*
X1132Y382D01*
X1158Y356D01*
X1163Y352D01*
X1169Y351D01*
X1197D01*
X1209Y338D01*
X1209Y327D01*
Y326D01*
X1262D01*
Y306D01*
X1209D01*
Y295D01*
X1209Y277D01*
X1209Y245D01*
X1209Y227D01*
Y195D01*
X1316D01*
X1330Y188D01*
Y167D01*
X1384D01*
X1391Y160D01*
X1396Y157D01*
X1402Y156D01*
X1429D01*
Y155D01*
X1433D01*
Y104D01*
X1547D01*
Y140D01*
X1572D01*
Y130D01*
X1629D01*
X1643Y130D01*
X1661Y130D01*
X1672D01*
Y170D01*
Y210D01*
X1661D01*
X1647Y210D01*
X1629Y210D01*
X1572D01*
Y187D01*
X1554Y180D01*
X1551Y183D01*
X1551Y207D01*
X1551Y224D01*
Y230D01*
X1490D01*
Y250D01*
X1551D01*
Y256D01*
X1551Y266D01*
X1551Y283D01*
Y309D01*
X1572D01*
Y270D01*
X1629D01*
X1643Y270D01*
X1661Y270D01*
X1672D01*
Y310D01*
Y350D01*
X1661D01*
X1647Y350D01*
X1629Y350D01*
X1572D01*
Y340D01*
X1547D01*
Y376D01*
X1433D01*
Y325D01*
X1429D01*
Y309D01*
X1410D01*
Y313D01*
X1333D01*
X1330Y313D01*
X1316Y320D01*
X1316Y338D01*
X1320Y344D01*
X1327Y351D01*
X1332Y352D01*
X1337Y356D01*
X1346Y364D01*
X1349Y369D01*
X1350Y375D01*
Y404D01*
X1376Y430D01*
X1830D01*
X1836Y431D01*
X1841Y434D01*
X1861Y454D01*
X1864Y459D01*
X1865Y465D01*
Y535D01*
X1864Y541D01*
X1861Y546D01*
X1843Y563D01*
X1838Y574D01*
X1837Y585D01*
X1839Y590D01*
X1840Y600D01*
X1839Y610D01*
X1835Y620D01*
X1828Y628D01*
X1820Y635D01*
X1810Y639D01*
X1800Y640D01*
X1790Y639D01*
X1785Y636D01*
X1770Y646D01*
X1773Y660D01*
X1790D01*
Y700D01*
Y740D01*
X1762D01*
X1761Y741D01*
X1741Y761D01*
X1736Y764D01*
X1730Y765D01*
X1680D01*
X1679Y765D01*
X1670Y781D01*
X1684Y796D01*
X1689Y802D01*
X1690Y810D01*
Y828D01*
X1714D01*
Y830D01*
X1759D01*
Y809D01*
X1841D01*
Y891D01*
X1759D01*
Y870D01*
X1714D01*
Y891D01*
X1690D01*
Y918D01*
X1714D01*
Y982D01*
X1625D01*
Y918D01*
X1650D01*
Y891D01*
X1625D01*
Y828D01*
X1634D01*
X1641Y810D01*
X1629Y798D01*
X1613Y795D01*
Y795D01*
X1613Y795D01*
X1542D01*
Y795D01*
X1538D01*
Y795D01*
X1513D01*
Y755D01*
X1503D01*
Y745D01*
X1467D01*
Y725D01*
X1352D01*
X1260Y817D01*
Y1027D01*
X1259Y1035D01*
X1254Y1041D01*
X1227Y1069D01*
Y1124D01*
X1073D01*
Y1029D01*
X1209D01*
X1220Y1018D01*
Y971D01*
X1073D01*
Y891D01*
X1073Y884D01*
X1055Y876D01*
X1025Y906D01*
Y1119D01*
X1031Y1124D01*
X1036Y1130D01*
X1039Y1137D01*
X1040Y1145D01*
X1039Y1153D01*
X1036Y1160D01*
X1031Y1166D01*
X1030Y1167D01*
X1036Y1185D01*
X1077D01*
Y1160D01*
X1148D01*
Y1160D01*
X1152D01*
Y1160D01*
X1223D01*
Y1214D01*
X1319Y1310D01*
X1648D01*
X1651Y1305D01*
X1656Y1293D01*
X1654Y1290D01*
X1651Y1283D01*
X1650Y1275D01*
X1651Y1267D01*
X1654Y1260D01*
X1659Y1254D01*
X1665Y1249D01*
X1672Y1246D01*
X1680Y1245D01*
X1683Y1245D01*
X1700Y1245D01*
X1700Y1245D01*
X1700Y1245D01*
X1760D01*
Y1305D01*
X1760Y1305D01*
X1760Y1322D01*
X1760Y1325D01*
X1759Y1333D01*
X1756Y1340D01*
X1751Y1346D01*
Y1354D01*
X1756Y1360D01*
X1758Y1365D01*
X1730D01*
Y1375D01*
X1720D01*
Y1406D01*
X1709Y1417D01*
X1710Y1425D01*
X1709Y1433D01*
X1722Y1446D01*
X1730Y1445D01*
X1738Y1446D01*
X1745Y1449D01*
X1751Y1454D01*
X1756Y1460D01*
X1759Y1467D01*
X1760Y1475D01*
X1759Y1483D01*
X1756Y1490D01*
X1751Y1496D01*
X1745Y1501D01*
X1738Y1504D01*
X1730Y1505D01*
X1722Y1504D01*
X1715Y1501D01*
X1709Y1496D01*
X1701D01*
X1695Y1501D01*
X1688Y1504D01*
X1680Y1505D01*
X1672Y1504D01*
X1665Y1501D01*
X1659Y1496D01*
X1654Y1490D01*
X1651Y1483D01*
X1650Y1475D01*
X1651Y1467D01*
X1654Y1460D01*
X1659Y1454D01*
Y1446D01*
X1654Y1440D01*
X1651Y1433D01*
X1650Y1425D01*
X1651Y1417D01*
X1654Y1410D01*
X1659Y1404D01*
Y1396D01*
X1654Y1390D01*
X1651Y1383D01*
X1650Y1375D01*
X1651Y1367D01*
X1654Y1360D01*
X1656Y1357D01*
X1651Y1345D01*
X1648Y1340D01*
X1422D01*
X1421Y1341D01*
X1414Y1358D01*
X1417Y1362D01*
X1418D01*
X1428Y1363D01*
X1437Y1367D01*
X1445Y1373D01*
X1451Y1381D01*
X1453Y1385D01*
X1460D01*
X1466Y1386D01*
X1471Y1389D01*
X1511Y1429D01*
X1514Y1434D01*
X1515Y1440D01*
Y1670D01*
X1514Y1676D01*
X1511Y1681D01*
X1446Y1746D01*
X1441Y1749D01*
X1435Y1750D01*
X1223D01*
Y1775D01*
X1152D01*
X1152Y1775D01*
X1148D01*
Y1775D01*
X1134Y1775D01*
X1077D01*
Y1695D01*
X1097D01*
X1100Y1692D01*
X1090Y1675D01*
X1077D01*
Y1645D01*
X1021D01*
X906Y1761D01*
X901Y1764D01*
X895Y1765D01*
X735D01*
X732Y1771D01*
Y1784D01*
X733Y1786D01*
X736Y1790D01*
X633D01*
X636Y1786D01*
X637Y1784D01*
Y1782D01*
X622Y1765D01*
X602D01*
X599Y1769D01*
X594Y1783D01*
X596Y1785D01*
X599Y1792D01*
X600Y1800D01*
X599Y1808D01*
X596Y1815D01*
X591Y1821D01*
X585Y1826D01*
X578Y1829D01*
X570Y1830D01*
D02*
G37*
G36*
X1680Y1755D02*
X1672Y1754D01*
X1665Y1751D01*
X1659Y1746D01*
X1654Y1740D01*
X1651Y1733D01*
X1650Y1725D01*
X1651Y1717D01*
X1654Y1710D01*
X1659Y1704D01*
Y1696D01*
X1654Y1690D01*
X1651Y1683D01*
X1650Y1675D01*
X1651Y1667D01*
X1654Y1660D01*
X1659Y1654D01*
Y1646D01*
X1654Y1640D01*
X1651Y1633D01*
X1650Y1625D01*
X1651Y1617D01*
X1654Y1610D01*
X1659Y1604D01*
X1665Y1599D01*
X1672Y1596D01*
X1680Y1595D01*
X1688Y1596D01*
X1695Y1599D01*
X1701Y1604D01*
X1709D01*
X1715Y1599D01*
X1720Y1597D01*
Y1625D01*
X1730D01*
Y1635D01*
X1758D01*
X1756Y1640D01*
X1751Y1646D01*
Y1654D01*
X1756Y1660D01*
X1758Y1665D01*
X1730D01*
Y1685D01*
X1758D01*
X1756Y1690D01*
X1751Y1696D01*
Y1704D01*
X1756Y1710D01*
X1758Y1715D01*
X1730D01*
Y1725D01*
X1720D01*
Y1753D01*
X1715Y1751D01*
X1709Y1746D01*
X1701D01*
X1695Y1751D01*
X1688Y1754D01*
X1680Y1755D01*
D02*
G37*
G36*
X1758Y1615D02*
X1740D01*
Y1597D01*
X1745Y1599D01*
X1751Y1604D01*
X1756Y1610D01*
X1758Y1615D01*
D02*
G37*
G36*
X1740Y1753D02*
Y1735D01*
X1758D01*
X1756Y1740D01*
X1751Y1746D01*
X1745Y1751D01*
X1740Y1753D01*
D02*
G37*
G36*
X1400Y1029D02*
X1366D01*
Y960D01*
X1400D01*
Y1029D01*
D02*
G37*
G36*
X1455Y940D02*
X1420D01*
Y871D01*
X1455D01*
Y940D01*
D02*
G37*
G36*
X1400D02*
X1366D01*
Y871D01*
X1400D01*
Y940D01*
D02*
G37*
G36*
X1800Y991D02*
X1789Y990D01*
X1779Y986D01*
X1771Y979D01*
X1764Y971D01*
X1760Y961D01*
X1759Y950D01*
X1760Y939D01*
X1764Y929D01*
X1771Y921D01*
X1779Y914D01*
X1789Y910D01*
X1800Y909D01*
X1811Y910D01*
X1821Y914D01*
X1829Y921D01*
X1836Y929D01*
X1840Y939D01*
X1841Y950D01*
X1840Y961D01*
X1836Y971D01*
X1829Y979D01*
X1821Y986D01*
X1811Y990D01*
X1800Y991D01*
D02*
G37*
G36*
X403Y950D02*
X377D01*
Y920D01*
X403D01*
Y950D01*
D02*
G37*
G36*
X240Y960D02*
X210D01*
Y930D01*
X240D01*
Y960D01*
D02*
G37*
G36*
X290D02*
X260D01*
Y930D01*
X290D01*
Y960D01*
D02*
G37*
G36*
Y1010D02*
X260D01*
Y980D01*
X290D01*
Y1010D01*
D02*
G37*
G36*
X403Y900D02*
X377D01*
Y870D01*
X403D01*
Y900D01*
D02*
G37*
G36*
X240Y1010D02*
X210D01*
Y980D01*
X240D01*
Y1010D01*
D02*
G37*
G36*
X1656Y1195D02*
X1552D01*
Y1105D01*
X1617D01*
X1630Y1092D01*
Y1072D01*
X1625D01*
Y1009D01*
X1714D01*
Y1030D01*
X1764D01*
X1764Y1029D01*
X1771Y1021D01*
X1779Y1014D01*
X1789Y1010D01*
X1800Y1009D01*
X1811Y1010D01*
X1821Y1014D01*
X1829Y1021D01*
X1836Y1029D01*
X1840Y1039D01*
X1841Y1050D01*
X1840Y1061D01*
X1836Y1071D01*
X1829Y1079D01*
X1821Y1086D01*
X1811Y1090D01*
X1800Y1091D01*
X1789Y1090D01*
X1779Y1086D01*
X1771Y1079D01*
X1764Y1071D01*
X1764Y1070D01*
X1714D01*
Y1072D01*
X1670D01*
Y1100D01*
X1669Y1108D01*
X1664Y1114D01*
X1656Y1123D01*
Y1195D01*
D02*
G37*
G36*
X1455Y1029D02*
X1420D01*
Y960D01*
X1455D01*
Y1029D01*
D02*
G37*
%LPD*%
G36*
X1485Y1664D02*
Y1560D01*
X1467Y1553D01*
X1461Y1559D01*
X1459Y1560D01*
X1454Y1570D01*
X1451Y1578D01*
X1451Y1579D01*
X1451Y1580D01*
X1455Y1589D01*
X1455Y1590D01*
X1375D01*
X1375Y1589D01*
X1375Y1589D01*
X1363Y1574D01*
X1356Y1576D01*
Y1641D01*
X1296D01*
X1291Y1646D01*
X1286Y1649D01*
X1280Y1650D01*
X1223D01*
Y1675D01*
X1202D01*
X1200Y1678D01*
X1210Y1695D01*
X1223D01*
Y1720D01*
X1429D01*
X1485Y1664D01*
D02*
G37*
G36*
X1025Y604D02*
Y416D01*
X955Y347D01*
X938Y355D01*
X938Y388D01*
X938Y406D01*
X938Y438D01*
X938Y456D01*
X938Y488D01*
X938Y506D01*
Y506D01*
X831D01*
Y495D01*
X817Y485D01*
X756D01*
X743Y498D01*
Y510D01*
X743Y527D01*
Y550D01*
X707D01*
Y560D01*
X697D01*
Y600D01*
X695Y600D01*
X685Y617D01*
X688Y622D01*
X738D01*
Y625D01*
X772D01*
X790Y607D01*
Y600D01*
X791Y592D01*
X796Y586D01*
X827Y554D01*
X830Y541D01*
X831Y535D01*
X831Y527D01*
Y526D01*
X938D01*
Y538D01*
X938Y556D01*
Y577D01*
X938Y588D01*
X938D01*
Y595D01*
X938Y595D01*
Y627D01*
X938Y638D01*
X938D01*
X938Y645D01*
X938Y645D01*
Y666D01*
X955Y673D01*
X1025Y604D01*
D02*
G37*
G36*
X1077Y1396D02*
Y1360D01*
X1092D01*
Y1340D01*
X1077D01*
Y1268D01*
X842D01*
X837Y1267D01*
X832Y1263D01*
X754Y1185D01*
X735D01*
X732Y1191D01*
Y1204D01*
X732Y1205D01*
X737Y1211D01*
X738Y1220D01*
X737Y1229D01*
X732Y1235D01*
X732Y1236D01*
Y1254D01*
X732Y1255D01*
X737Y1261D01*
X738Y1270D01*
X737Y1279D01*
X733Y1284D01*
X732Y1286D01*
Y1304D01*
X733Y1306D01*
X736Y1310D01*
X633D01*
X636Y1306D01*
X637Y1304D01*
Y1291D01*
X634Y1285D01*
X631Y1284D01*
X626Y1281D01*
X609Y1264D01*
X592Y1262D01*
X589Y1263D01*
X571Y1281D01*
X566Y1284D01*
X560Y1285D01*
X546D01*
X543Y1291D01*
Y1304D01*
X543Y1305D01*
X548Y1311D01*
X549Y1317D01*
X596Y1365D01*
X815D01*
X842Y1337D01*
X847Y1334D01*
X853Y1333D01*
X939D01*
X944Y1327D01*
X950Y1322D01*
X957Y1319D01*
X965Y1318D01*
X973Y1319D01*
X980Y1322D01*
X986Y1327D01*
X991Y1333D01*
X994Y1340D01*
X995Y1348D01*
X994Y1356D01*
X991Y1363D01*
X986Y1369D01*
X980Y1374D01*
X973Y1377D01*
X969Y1377D01*
X964Y1382D01*
X962Y1385D01*
X958Y1395D01*
X959Y1397D01*
X960Y1405D01*
X959Y1412D01*
X959Y1413D01*
X969Y1429D01*
X970Y1430D01*
X1044D01*
X1077Y1396D01*
D02*
G37*
G36*
X588Y1438D02*
X581Y1420D01*
X575D01*
X569Y1419D01*
X564Y1416D01*
X522Y1374D01*
X333D01*
X327Y1383D01*
X335Y1400D01*
X346D01*
X357D01*
Y1440D01*
X367D01*
Y1450D01*
X403D01*
Y1462D01*
X403Y1480D01*
X421Y1480D01*
X455D01*
X456Y1479D01*
X464Y1478D01*
X527D01*
X536Y1479D01*
X536Y1480D01*
X547D01*
X588Y1438D01*
D02*
G37*
G36*
X448Y1299D02*
Y1286D01*
X448Y1285D01*
X443Y1279D01*
X442Y1270D01*
X443Y1261D01*
X447Y1256D01*
X448Y1254D01*
Y1236D01*
X447Y1234D01*
X444Y1230D01*
X496D01*
Y1210D01*
X444D01*
X447Y1206D01*
X448Y1204D01*
Y1186D01*
X447Y1184D01*
X443Y1179D01*
X442Y1170D01*
X443Y1161D01*
X448Y1155D01*
X448Y1154D01*
Y1152D01*
X433Y1135D01*
X296D01*
X290Y1143D01*
X286Y1153D01*
X289Y1160D01*
X290Y1170D01*
X289Y1180D01*
X286Y1187D01*
X404Y1305D01*
X445D01*
X448Y1299D01*
D02*
G37*
%LPC*%
G36*
X1425Y1640D02*
Y1610D01*
X1455D01*
X1455Y1611D01*
X1451Y1621D01*
X1444Y1629D01*
X1436Y1636D01*
X1426Y1640D01*
X1425Y1640D01*
D02*
G37*
G36*
X674Y1342D02*
X653D01*
X644Y1341D01*
X637Y1336D01*
X633Y1330D01*
X674D01*
Y1342D01*
D02*
G37*
G36*
X717Y600D02*
Y570D01*
X743D01*
Y600D01*
X717D01*
D02*
G37*
G36*
X716Y1342D02*
X694D01*
Y1330D01*
X736D01*
X732Y1336D01*
X724Y1341D01*
X716Y1342D01*
D02*
G37*
G36*
X1405Y1640D02*
X1404Y1640D01*
X1394Y1636D01*
X1386Y1629D01*
X1379Y1621D01*
X1375Y1611D01*
X1375Y1610D01*
X1405D01*
Y1640D01*
D02*
G37*
G36*
X403Y1430D02*
X377D01*
Y1400D01*
X403D01*
Y1430D01*
D02*
G37*
%LPD*%
D10*
X1150Y923D02*
D03*
Y1077D02*
D03*
D11*
X413Y910D02*
D03*
X487D02*
D03*
X367Y1440D02*
D03*
X293D02*
D03*
X1187Y1300D02*
D03*
X1113D02*
D03*
Y1200D02*
D03*
X1187D02*
D03*
X1577Y755D02*
D03*
X1503D02*
D03*
X367Y1550D02*
D03*
X293D02*
D03*
X1187Y1735D02*
D03*
X1113D02*
D03*
X1113Y1400D02*
D03*
X1187D02*
D03*
Y1635D02*
D03*
X1113D02*
D03*
X1187Y1500D02*
D03*
X1113D02*
D03*
X707Y290D02*
D03*
X633D02*
D03*
Y380D02*
D03*
X707D02*
D03*
X633Y470D02*
D03*
X707D02*
D03*
X633Y560D02*
D03*
X707D02*
D03*
X1682Y170D02*
D03*
X1608D02*
D03*
X1682Y310D02*
D03*
X1608D02*
D03*
D12*
X1604Y1150D02*
D03*
X1466D02*
D03*
D13*
X1670Y1041D02*
D03*
Y950D02*
D03*
D14*
X1670Y859D02*
D03*
D15*
X1410Y950D02*
D03*
D16*
X1685Y592D02*
D03*
Y518D02*
D03*
X1595Y592D02*
D03*
Y518D02*
D03*
X1370Y277D02*
D03*
Y203D02*
D03*
X1400Y583D02*
D03*
Y657D02*
D03*
D17*
X684Y1500D02*
D03*
Y1550D02*
D03*
Y1600D02*
D03*
Y1650D02*
D03*
Y1700D02*
D03*
Y1750D02*
D03*
Y1800D02*
D03*
X496Y1500D02*
D03*
Y1550D02*
D03*
Y1600D02*
D03*
Y1650D02*
D03*
Y1700D02*
D03*
Y1750D02*
D03*
Y1800D02*
D03*
Y1320D02*
D03*
Y1270D02*
D03*
Y1220D02*
D03*
Y1170D02*
D03*
Y1120D02*
D03*
Y1070D02*
D03*
Y1020D02*
D03*
X684Y1320D02*
D03*
Y1270D02*
D03*
Y1220D02*
D03*
Y1170D02*
D03*
Y1120D02*
D03*
Y1070D02*
D03*
Y1020D02*
D03*
D18*
X884Y416D02*
D03*
Y366D02*
D03*
Y616D02*
D03*
Y566D02*
D03*
Y516D02*
D03*
Y466D02*
D03*
Y316D02*
D03*
Y216D02*
D03*
Y266D02*
D03*
D19*
Y666D02*
D03*
X1262D02*
D03*
Y616D02*
D03*
Y566D02*
D03*
Y516D02*
D03*
Y466D02*
D03*
Y416D02*
D03*
Y366D02*
D03*
Y316D02*
D03*
Y266D02*
D03*
Y216D02*
D03*
D20*
X571Y675D02*
D03*
X689D02*
D03*
X719Y185D02*
D03*
X601D02*
D03*
D21*
X1505Y514D02*
D03*
Y596D02*
D03*
D22*
X328Y296D02*
D03*
X112D02*
D03*
Y684D02*
D03*
X328D02*
D03*
D23*
X342Y553D02*
D03*
Y459D02*
D03*
Y427D02*
D03*
Y521D02*
D03*
Y490D02*
D03*
D24*
X1490Y181D02*
D03*
Y240D02*
D03*
Y299D02*
D03*
D25*
Y155D02*
D03*
Y325D02*
D03*
D26*
X1175Y1092D02*
X1240Y1027D01*
Y809D02*
Y1027D01*
Y809D02*
X1344Y705D01*
X810Y600D02*
Y615D01*
X780Y645D02*
X810Y615D01*
X670Y645D02*
X780D01*
X810Y600D02*
X844Y566D01*
X633Y608D02*
X670Y645D01*
X633Y560D02*
Y608D01*
X1670Y810D02*
Y950D01*
X1565Y705D02*
X1670Y810D01*
X1344Y705D02*
X1565D01*
X1607Y600D02*
X1750D01*
X1175Y862D02*
Y938D01*
X1112Y1400D02*
X1113D01*
Y1300D02*
Y1400D01*
X1365Y1350D02*
X1415Y1400D01*
X1113Y1350D02*
X1365D01*
X200Y1072D02*
X368D01*
X367Y1502D02*
Y1550D01*
X165Y1107D02*
X200Y1072D01*
X368D02*
X420Y1020D01*
X496D01*
X626Y553D02*
X633Y560D01*
X342Y553D02*
X626D01*
X884Y516D02*
X980D01*
X775Y515D02*
X889D01*
X707Y560D02*
X770D01*
X265Y595D02*
X300D01*
X1679Y1050D02*
X1800D01*
X1670Y1041D02*
X1679Y1050D01*
X1670Y850D02*
X1800D01*
X1650Y1041D02*
X1670D01*
X1620Y1130D02*
X1650Y1100D01*
Y1041D02*
Y1100D01*
X1112Y1400D02*
X1113Y1400D01*
Y1395D02*
Y1400D01*
X1107Y1400D02*
X1112D01*
X496Y937D02*
Y1020D01*
X243Y427D02*
X446D01*
X1730Y1725D02*
X1794D01*
X1730Y1675D02*
X1794D01*
X1730Y1625D02*
X1794D01*
X1730Y1325D02*
X1794D01*
X1730Y1375D02*
X1794D01*
X1730Y1725D02*
Y1789D01*
X1750Y600D02*
X1800D01*
X1257Y326D02*
X1404D01*
X250Y1500D02*
X496D01*
X555D01*
X620Y1435D01*
X850D01*
X865Y1450D01*
X1052D01*
X1107Y1395D01*
X165Y1107D02*
Y1315D01*
X235Y1385D01*
Y1485D01*
X250Y1500D01*
D27*
X1200Y710D02*
X1300D01*
X1010Y900D02*
X1200Y710D01*
X1010Y900D02*
Y1145D01*
X1204Y666D02*
X1262D01*
X965Y905D02*
X1204Y666D01*
X965Y905D02*
Y1080D01*
X1180Y530D02*
Y655D01*
X940Y895D02*
X1180Y655D01*
X940Y895D02*
Y1045D01*
X1150Y455D02*
Y650D01*
X780Y1020D02*
X1150Y650D01*
X684Y1020D02*
X780D01*
X1125Y410D02*
Y640D01*
X785Y980D02*
X1125Y640D01*
X635Y980D02*
X785D01*
X1100Y355D02*
Y630D01*
X780Y950D02*
X1100Y630D01*
X620Y950D02*
X780D01*
X1070Y388D02*
Y630D01*
X780Y920D02*
X1070Y630D01*
X605Y920D02*
X780D01*
X825Y640D02*
X849Y616D01*
X825Y640D02*
Y720D01*
X849Y616D02*
X884D01*
X1040Y410D02*
Y610D01*
X770Y880D02*
X1040Y610D01*
X889Y671D02*
X895Y665D01*
X875Y670D02*
Y720D01*
X1187Y1200D02*
X1312Y1325D01*
X1600Y670D02*
X1680Y750D01*
X1422Y670D02*
X1600D01*
X1415Y677D02*
X1422Y670D01*
X1680Y750D02*
X1730D01*
X1645Y645D02*
X1700Y700D01*
X1480Y645D02*
X1645D01*
X1510Y466D02*
Y529D01*
X1262Y466D02*
X1510D01*
X1460Y625D02*
X1480Y645D01*
X1460Y545D02*
Y625D01*
X1832Y553D02*
X1850Y535D01*
X1758Y553D02*
X1832D01*
X1723Y518D02*
X1758Y553D01*
X1685Y518D02*
X1723D01*
X1510Y466D02*
X1726D01*
X1745Y485D01*
X1370Y445D02*
X1830D01*
X1850Y465D01*
X1505Y596D02*
X1584Y518D01*
X961Y216D02*
X1100Y355D01*
X1367Y583D02*
X1400D01*
X1331Y619D02*
X1367Y583D01*
X1331Y619D02*
Y679D01*
X1300Y710D02*
X1331Y679D01*
X1335Y410D02*
X1370Y445D01*
X1335Y375D02*
Y410D01*
X1326Y366D02*
X1335Y375D01*
X1431Y516D02*
X1460Y545D01*
X1262Y516D02*
X1431D01*
X1167Y1252D02*
X1201Y1286D01*
X684Y1170D02*
X760D01*
X195Y1217D02*
X250Y1272D01*
Y1270D02*
Y1272D01*
X195Y1143D02*
Y1217D01*
Y1143D02*
X218Y1120D01*
X496D01*
X250Y1172D02*
X398Y1320D01*
X496D01*
X555Y480D02*
X633D01*
X514Y521D02*
X555Y480D01*
X358Y521D02*
X514D01*
X707Y470D02*
X865D01*
X707Y192D02*
Y300D01*
X1365Y1450D02*
X1415Y1500D01*
X1281Y1450D02*
X1365D01*
X1231Y1500D02*
X1281Y1450D01*
X1187Y1500D02*
X1231D01*
X684Y1170D02*
Y1220D01*
Y1500D02*
Y1550D01*
X765Y1600D02*
X770Y1595D01*
X496Y1650D02*
X575D01*
X605Y1620D01*
Y1575D02*
Y1620D01*
Y1575D02*
X630Y1550D01*
X684D01*
X1312Y1325D02*
X1680D01*
X1262Y216D02*
X1341D01*
X496Y1550D02*
Y1600D01*
Y1070D02*
Y1120D01*
X1187Y1400D02*
Y1500D01*
X585Y390D02*
X633D01*
X485Y490D02*
X585Y390D01*
X358Y490D02*
X485D01*
X637Y1320D02*
X684D01*
X496Y1750D02*
X684D01*
X496Y1700D02*
Y1750D01*
X1262Y616D02*
X1331D01*
X496Y1170D02*
X550D01*
X560Y1160D01*
Y965D02*
Y1160D01*
Y965D02*
X605Y920D01*
X949Y266D02*
X1070Y388D01*
X884Y266D02*
X949D01*
X1150Y455D02*
X1189Y416D01*
X1262D01*
X637Y1270D02*
X684D01*
X620Y1253D02*
X637Y1270D01*
X620Y995D02*
Y1253D01*
Y995D02*
X635Y980D01*
X1125Y410D02*
X1169Y366D01*
X1262D01*
X496Y1270D02*
X560D01*
X590Y1240D01*
Y980D02*
Y1240D01*
Y980D02*
X620Y950D01*
X884Y216D02*
X961D01*
X946Y316D02*
X1040Y410D01*
X884Y316D02*
X946D01*
X1262Y566D02*
Y616D01*
X684Y1600D02*
X765D01*
X684Y1500D02*
X745D01*
X950D02*
X1113D01*
X1194Y516D02*
X1262D01*
X1180Y530D02*
X1194Y516D01*
X1745Y485D02*
X1795D01*
X1730Y750D02*
X1750Y730D01*
Y600D02*
Y730D01*
X1505Y596D02*
X1516D01*
X1584Y518D02*
X1595D01*
X1383Y294D02*
X1485D01*
X1262Y266D02*
X1366D01*
X1370Y203D02*
X1402Y171D01*
X1490D01*
Y325D02*
X1588D01*
X1490Y155D02*
X1588D01*
X1262Y366D02*
X1326D01*
X1850Y465D02*
Y535D01*
X710Y390D02*
X770D01*
X745Y300D02*
X811Y366D01*
X707Y300D02*
X745D01*
X811Y366D02*
X875D01*
X826D02*
X875D01*
X884D01*
X770Y390D02*
X796Y416D01*
X884D01*
X1415Y1400D02*
X1460D01*
X496Y1320D02*
X530D01*
X590Y1380D01*
X895Y1750D02*
X1015Y1630D01*
X684Y1750D02*
X895D01*
X1270Y1500D02*
X1315D01*
X1187Y1635D02*
X1280D01*
X1315Y1600D01*
X293Y1387D02*
Y1440D01*
Y1387D02*
X321Y1359D01*
X529D01*
X780Y1490D02*
X840D01*
X684Y1120D02*
X750D01*
X684Y1070D02*
X840D01*
X760Y1170D02*
X842Y1252D01*
X1167D01*
X750Y1120D02*
X830Y1200D01*
X1113D01*
X840Y1145D02*
X940Y1045D01*
X900Y1145D02*
X965Y1080D01*
X745Y1500D02*
X775Y1530D01*
X920D01*
X950Y1500D01*
X684Y1700D02*
X795D01*
X900Y1595D01*
X684Y1650D02*
X795D01*
X835Y1610D01*
Y1570D02*
Y1610D01*
X965Y1341D02*
X977D01*
X529Y1359D02*
X575Y1405D01*
X930D01*
X1015Y1630D02*
X1095D01*
Y1653D01*
X1120D01*
X1125Y1648D01*
X1187Y1735D02*
X1435D01*
X1113D02*
X1129Y1719D01*
Y1698D02*
Y1719D01*
Y1698D02*
X1143Y1684D01*
X1157D01*
X1187Y1653D01*
Y1635D02*
Y1653D01*
X1460Y1400D02*
X1500Y1440D01*
Y1670D01*
X1435Y1735D02*
X1500Y1670D01*
X1315Y1400D02*
X1345D01*
X1395Y1450D01*
X1455D01*
X1470Y1465D01*
Y1528D01*
X1450Y1548D02*
X1470Y1528D01*
X1276Y1548D02*
X1450D01*
X1234Y1590D02*
X1276Y1548D01*
X1220Y1550D02*
X1270Y1500D01*
X965Y1550D02*
X1220D01*
X965Y1615D02*
X990Y1590D01*
X1234D01*
X590Y1380D02*
X821D01*
X853Y1348D01*
X965D01*
X496Y1550D02*
X555D01*
X640Y1465D01*
X755D01*
X780Y1490D01*
X250Y1272D02*
Y1345D01*
X293Y1387D01*
X496Y1800D02*
X570D01*
D28*
X260Y375D02*
X310D01*
D29*
X222Y490D02*
D03*
D30*
X1415Y1600D02*
D03*
X1315Y1500D02*
D03*
Y1400D02*
D03*
X1800Y950D02*
D03*
Y1050D02*
D03*
D31*
X1415Y1500D02*
D03*
Y1400D02*
D03*
D32*
X1315Y1600D02*
D03*
X1800Y850D02*
D03*
D33*
X1730Y1275D02*
D03*
D34*
X1680D02*
D03*
X1730Y1325D02*
D03*
X1680D02*
D03*
X1730Y1375D02*
D03*
X1680D02*
D03*
Y1425D02*
D03*
X1730Y1475D02*
D03*
X1680D02*
D03*
X1730Y1625D02*
D03*
X1680D02*
D03*
X1730Y1675D02*
D03*
X1680D02*
D03*
X1730Y1725D02*
D03*
X1680D02*
D03*
X767Y595D02*
D03*
X875Y720D02*
D03*
X980Y495D02*
D03*
X770Y880D02*
D03*
X795Y275D02*
D03*
X1585Y240D02*
D03*
X1600Y1590D02*
D03*
X1345Y1265D02*
D03*
X950Y1290D02*
D03*
X840Y1145D02*
D03*
X1010D02*
D03*
X555Y553D02*
D03*
X770Y1595D02*
D03*
X840Y1490D02*
D03*
X1820Y240D02*
D03*
X420Y1220D02*
D03*
X441Y1440D02*
D03*
X1070Y1830D02*
D03*
X825Y720D02*
D03*
X1320Y1030D02*
D03*
Y870D02*
D03*
X1510Y1030D02*
D03*
Y870D02*
D03*
X600Y1315D02*
D03*
X330Y945D02*
D03*
X840Y1070D02*
D03*
X900Y1145D02*
D03*
Y1595D02*
D03*
X965Y1348D02*
D03*
X835Y1570D02*
D03*
X965Y1550D02*
D03*
Y1615D02*
D03*
X930Y1405D02*
D03*
X1055Y1350D02*
D03*
X350Y1640D02*
D03*
X685Y825D02*
D03*
X1140Y295D02*
D03*
X457Y385D02*
D03*
X775Y1800D02*
D03*
X361Y1780D02*
D03*
X1320Y950D02*
D03*
X1510D02*
D03*
X570Y1800D02*
D03*
X785Y510D02*
D03*
X980Y600D02*
D03*
D35*
X1700Y700D02*
D03*
X250Y1270D02*
D03*
Y1170D02*
D03*
Y1070D02*
D03*
X1800Y600D02*
D03*
Y500D02*
D03*
X230Y577D02*
D03*
Y403D02*
D03*
D36*
X1800Y700D02*
D03*
D37*
X250Y970D02*
D03*
X1800Y700D02*
D03*
D38*
X1175Y862D02*
D03*
M02*
