M48
;Layer_Color=9474304
;FILE_FORMAT=2:4
INCH
;TYPE=PLATED
T1F00S00C0.0130
T2F00S00C0.0197
T3F00S00C0.0236
T4F00S00C0.0354
%
T01
X011767Y005750
T02
X006317Y001850
Y004450
X006467Y006250
X007067
X006267Y007550
X005417Y007050
X007067Y009200
Y010000
X007567Y010650
X008517
X011568Y009650
X011567Y008850
X011568Y008050
X012400Y007700
X013467Y008050
Y008850
Y009650
X012467Y010300
X015317Y007250
X016443Y001600
X014093
X009167Y001850
X008167Y003700
Y005250
X004817Y005300
X004167Y002600
X004217Y010700
X004467Y011550
X003817Y012900
X003167
X002517Y014850
X002467Y016300
X004267Y016500
X006317
X006267Y014500
X006917Y015000
X007567Y015150
X008217Y015100
X007867Y014750
X007067Y013900
X008217Y013250
X007867Y012750
Y012150
X008917Y012700
X012000Y011900
X013117
X014567Y015100
X009967Y017200
T03
X015367Y011950
X015867
Y012450
X015367
Y012950
X015867
X015367Y013450
Y013950
X015867
Y015450
X015367
Y015950
X015867
Y016450
X015367
T04
X016217Y004200
Y005200
Y006200
X015217
X016217Y007849
Y008849
Y009849
X002017Y010200
Y009200
Y008200
Y011200
X002093Y004966
Y003234
X002017Y000950
X011717Y013200
X012717
Y014200
Y015200
X011717
Y014200
X013767Y016750
M30
