G04 Layer_Color=8388736*
%FSLAX23Y23*%
%MOIN*%
G70*
G01*
G75*
%ADD42R,0.059X0.067*%
%ADD43R,0.067X0.059*%
%ADD44O,0.106X0.036*%
%ADD45R,0.071X0.079*%
%ADD46R,0.095X0.032*%
%ADD47R,0.095X0.032*%
%ADD48R,0.091X0.041*%
%ADD49R,0.091X0.130*%
%ADD50R,0.142X0.083*%
%ADD51R,0.118X0.028*%
%ADD52R,0.106X0.087*%
%ADD53R,0.102X0.091*%
%ADD54R,0.047X0.047*%
%ADD55C,0.047*%
%ADD56C,0.067*%
%ADD57R,0.067X0.067*%
%ADD58R,0.067X0.067*%
%ADD59C,0.063*%
%ADD60C,0.039*%
%ADD61C,0.070*%
%ADD62O,0.070X0.063*%
%ADD63R,0.070X0.070*%
D42*
X1432Y230D02*
D03*
X1507D02*
D03*
Y90D02*
D03*
X1432D02*
D03*
X1044Y1220D02*
D03*
X969D02*
D03*
X294Y765D02*
D03*
X369D02*
D03*
X247Y1400D02*
D03*
X172D02*
D03*
X969Y1655D02*
D03*
X1044D02*
D03*
Y1320D02*
D03*
X969D02*
D03*
Y1555D02*
D03*
X1044D02*
D03*
Y1420D02*
D03*
X969D02*
D03*
X499Y475D02*
D03*
X574D02*
D03*
Y390D02*
D03*
X499D02*
D03*
Y305D02*
D03*
X574D02*
D03*
Y220D02*
D03*
X499D02*
D03*
X1044Y1120D02*
D03*
X969D02*
D03*
X172Y1290D02*
D03*
X247D02*
D03*
X1329Y685D02*
D03*
X1404D02*
D03*
D43*
X1507Y448D02*
D03*
Y522D02*
D03*
X1327Y448D02*
D03*
Y522D02*
D03*
X1212Y522D02*
D03*
Y448D02*
D03*
X1192Y202D02*
D03*
Y128D02*
D03*
X1417Y448D02*
D03*
Y522D02*
D03*
D44*
X543Y870D02*
D03*
Y920D02*
D03*
Y970D02*
D03*
Y1020D02*
D03*
Y1070D02*
D03*
Y1120D02*
D03*
Y1170D02*
D03*
X350Y870D02*
D03*
Y920D02*
D03*
Y970D02*
D03*
Y1020D02*
D03*
Y1070D02*
D03*
Y1120D02*
D03*
Y1170D02*
D03*
X543Y1350D02*
D03*
Y1400D02*
D03*
Y1450D02*
D03*
Y1500D02*
D03*
Y1550D02*
D03*
Y1600D02*
D03*
Y1650D02*
D03*
X350Y1350D02*
D03*
Y1400D02*
D03*
Y1450D02*
D03*
Y1500D02*
D03*
Y1550D02*
D03*
Y1600D02*
D03*
Y1650D02*
D03*
D45*
X572Y115D02*
D03*
X462D02*
D03*
X572Y605D02*
D03*
X462D02*
D03*
X1427Y1100D02*
D03*
X1317D02*
D03*
D46*
X706Y586D02*
D03*
X1084D02*
D03*
Y536D02*
D03*
Y486D02*
D03*
Y436D02*
D03*
Y386D02*
D03*
Y336D02*
D03*
Y286D02*
D03*
Y236D02*
D03*
Y186D02*
D03*
Y136D02*
D03*
D47*
X706Y536D02*
D03*
Y486D02*
D03*
Y436D02*
D03*
Y386D02*
D03*
Y336D02*
D03*
Y286D02*
D03*
Y236D02*
D03*
Y186D02*
D03*
Y136D02*
D03*
D48*
X1479Y794D02*
D03*
Y885D02*
D03*
Y976D02*
D03*
D49*
X1254Y885D02*
D03*
D50*
X1007Y1017D02*
D03*
Y863D02*
D03*
D51*
X321Y410D02*
D03*
Y441D02*
D03*
Y347D02*
D03*
Y379D02*
D03*
Y473D02*
D03*
D52*
X308Y604D02*
D03*
X91D02*
D03*
Y216D02*
D03*
X308D02*
D03*
D53*
X1307Y85D02*
D03*
Y255D02*
D03*
D54*
X1587Y1195D02*
D03*
D55*
X1537D02*
D03*
X1587Y1245D02*
D03*
X1537D02*
D03*
X1587Y1295D02*
D03*
X1537D02*
D03*
Y1345D02*
D03*
X1587Y1395D02*
D03*
X1537D02*
D03*
X1587Y1545D02*
D03*
X1537D02*
D03*
X1587Y1595D02*
D03*
X1537D02*
D03*
X1587Y1645D02*
D03*
X1537D02*
D03*
D56*
X1622Y420D02*
D03*
Y520D02*
D03*
X1522Y620D02*
D03*
X202Y920D02*
D03*
Y1020D02*
D03*
Y1120D02*
D03*
X1622Y985D02*
D03*
Y885D02*
D03*
D57*
Y620D02*
D03*
X202Y820D02*
D03*
X1622Y785D02*
D03*
D58*
Y620D02*
D03*
D59*
X202Y95D02*
D03*
X1377Y1675D02*
D03*
D60*
X209Y323D02*
D03*
Y497D02*
D03*
D61*
X1272Y1520D02*
D03*
X1172Y1420D02*
D03*
Y1320D02*
D03*
D62*
X1272Y1420D02*
D03*
Y1320D02*
D03*
D63*
X1172Y1520D02*
D03*
M02*
