G04 Layer_Color=8421504*
%FSLAX23Y23*%
%MOIN*%
G70*
G01*
G75*
%ADD10R,0.051X0.059*%
%ADD11R,0.059X0.051*%
%ADD12O,0.098X0.028*%
%ADD13R,0.063X0.071*%
%ADD14R,0.087X0.024*%
%ADD15R,0.087X0.024*%
%ADD16R,0.083X0.033*%
%ADD17R,0.083X0.122*%
%ADD18R,0.134X0.075*%
%ADD19R,0.110X0.020*%
%ADD20R,0.098X0.079*%
%ADD21R,0.094X0.083*%
D10*
X1432Y230D02*
D03*
X1507D02*
D03*
Y90D02*
D03*
X1432D02*
D03*
X1044Y1220D02*
D03*
X969D02*
D03*
X294Y765D02*
D03*
X369D02*
D03*
X247Y1400D02*
D03*
X172D02*
D03*
X969Y1655D02*
D03*
X1044D02*
D03*
Y1320D02*
D03*
X969D02*
D03*
Y1555D02*
D03*
X1044D02*
D03*
Y1420D02*
D03*
X969D02*
D03*
X499Y475D02*
D03*
X574D02*
D03*
Y390D02*
D03*
X499D02*
D03*
Y305D02*
D03*
X574D02*
D03*
Y220D02*
D03*
X499D02*
D03*
X1044Y1120D02*
D03*
X969D02*
D03*
X172Y1290D02*
D03*
X247D02*
D03*
X1329Y685D02*
D03*
X1404D02*
D03*
D11*
X1507Y448D02*
D03*
Y522D02*
D03*
X1327Y448D02*
D03*
Y522D02*
D03*
X1212Y522D02*
D03*
Y448D02*
D03*
X1192Y202D02*
D03*
Y128D02*
D03*
X1417Y448D02*
D03*
Y522D02*
D03*
D12*
X543Y870D02*
D03*
Y920D02*
D03*
Y970D02*
D03*
Y1020D02*
D03*
Y1070D02*
D03*
Y1120D02*
D03*
Y1170D02*
D03*
X350Y870D02*
D03*
Y920D02*
D03*
Y970D02*
D03*
Y1020D02*
D03*
Y1070D02*
D03*
Y1120D02*
D03*
Y1170D02*
D03*
X543Y1350D02*
D03*
Y1400D02*
D03*
Y1450D02*
D03*
Y1500D02*
D03*
Y1550D02*
D03*
Y1600D02*
D03*
Y1650D02*
D03*
X350Y1350D02*
D03*
Y1400D02*
D03*
Y1450D02*
D03*
Y1500D02*
D03*
Y1550D02*
D03*
Y1600D02*
D03*
Y1650D02*
D03*
D13*
X572Y115D02*
D03*
X462D02*
D03*
X572Y605D02*
D03*
X462D02*
D03*
X1427Y1100D02*
D03*
X1317D02*
D03*
D14*
X706Y586D02*
D03*
X1084D02*
D03*
Y536D02*
D03*
Y486D02*
D03*
Y436D02*
D03*
Y386D02*
D03*
Y336D02*
D03*
Y286D02*
D03*
Y236D02*
D03*
Y186D02*
D03*
Y136D02*
D03*
D15*
X706Y536D02*
D03*
Y486D02*
D03*
Y436D02*
D03*
Y386D02*
D03*
Y336D02*
D03*
Y286D02*
D03*
Y236D02*
D03*
Y186D02*
D03*
Y136D02*
D03*
D16*
X1479Y794D02*
D03*
Y885D02*
D03*
Y976D02*
D03*
D17*
X1254Y885D02*
D03*
D18*
X1007Y1017D02*
D03*
Y863D02*
D03*
D19*
X321Y410D02*
D03*
Y441D02*
D03*
Y347D02*
D03*
Y379D02*
D03*
Y473D02*
D03*
D20*
X308Y604D02*
D03*
X91D02*
D03*
Y216D02*
D03*
X308D02*
D03*
D21*
X1307Y85D02*
D03*
Y255D02*
D03*
M02*
