G04 Layer_Physical_Order=2*
G04 Layer_Color=16711680*
%FSLAX23Y23*%
%MOIN*%
G70*
G01*
G75*
%ADD23C,0.010*%
%ADD24C,0.020*%
%ADD26C,0.059*%
%ADD27R,0.059X0.059*%
%ADD28R,0.059X0.059*%
%ADD29C,0.062*%
%ADD30O,0.062X0.055*%
%ADD31R,0.062X0.062*%
%ADD32R,0.039X0.039*%
%ADD33C,0.039*%
%ADD34C,0.055*%
%ADD35C,0.031*%
%ADD36C,0.027*%
G36*
X1756Y15D02*
X165D01*
Y1756D01*
X1756D01*
Y15D01*
D02*
G37*
%LPC*%
G36*
X1190Y644D02*
X1181Y642D01*
X1173Y637D01*
X1168Y629D01*
X1167Y626D01*
X1088Y547D01*
X631D01*
X625Y551D01*
X615Y553D01*
X605Y551D01*
X596Y545D01*
X591Y537D01*
X589Y527D01*
X591Y517D01*
X596Y508D01*
X605Y502D01*
X615Y500D01*
X625Y502D01*
X631Y506D01*
X1097D01*
X1104Y508D01*
X1111Y512D01*
X1196Y597D01*
X1199Y598D01*
X1202Y600D01*
X1302D01*
X1396Y506D01*
X1396Y506D01*
X1402Y501D01*
X1410Y500D01*
X1410Y500D01*
X1587D01*
X1593Y492D01*
X1602Y485D01*
X1611Y481D01*
X1622Y480D01*
X1632Y481D01*
X1642Y485D01*
X1650Y492D01*
X1656Y500D01*
X1660Y510D01*
X1662Y520D01*
X1660Y530D01*
X1656Y540D01*
X1650Y548D01*
X1642Y555D01*
X1632Y559D01*
X1622Y560D01*
X1611Y559D01*
X1602Y555D01*
X1593Y548D01*
X1587Y540D01*
X1418D01*
X1324Y634D01*
X1318Y639D01*
X1310Y640D01*
X1202D01*
X1199Y642D01*
X1190Y644D01*
D02*
G37*
G36*
X1622Y460D02*
X1611Y459D01*
X1602Y455D01*
X1593Y448D01*
X1587Y440D01*
X1583Y430D01*
X1582Y420D01*
X1583Y410D01*
X1587Y400D01*
X1593Y392D01*
X1602Y385D01*
X1611Y381D01*
X1622Y380D01*
X1632Y381D01*
X1642Y385D01*
X1650Y392D01*
X1656Y400D01*
X1660Y410D01*
X1662Y420D01*
X1660Y430D01*
X1656Y440D01*
X1650Y448D01*
X1642Y455D01*
X1632Y459D01*
X1622Y460D01*
D02*
G37*
G36*
X1665Y187D02*
Y160D01*
X1692D01*
X1688Y169D01*
X1682Y177D01*
X1674Y183D01*
X1665Y187D01*
D02*
G37*
G36*
X1522Y660D02*
X1511Y659D01*
X1502Y655D01*
X1493Y648D01*
X1487Y640D01*
X1483Y630D01*
X1482Y620D01*
X1483Y610D01*
X1487Y600D01*
X1493Y592D01*
X1502Y585D01*
X1511Y581D01*
X1522Y580D01*
X1532Y581D01*
X1542Y585D01*
X1550Y592D01*
X1556Y600D01*
X1560Y610D01*
X1562Y620D01*
X1560Y630D01*
X1556Y640D01*
X1550Y648D01*
X1542Y655D01*
X1532Y659D01*
X1522Y660D01*
D02*
G37*
G36*
X1612Y660D02*
X1582D01*
Y630D01*
X1612D01*
Y660D01*
D02*
G37*
G36*
X1661Y610D02*
X1632D01*
Y580D01*
X1661D01*
Y610D01*
D02*
G37*
G36*
X1612D02*
X1582D01*
Y580D01*
X1612D01*
Y610D01*
D02*
G37*
G36*
X1645Y140D02*
X1618D01*
X1622Y131D01*
X1628Y123D01*
X1636Y117D01*
X1645Y113D01*
Y140D01*
D02*
G37*
G36*
X307D02*
X280D01*
Y113D01*
X289Y117D01*
X297Y123D01*
X303Y131D01*
X307Y140D01*
D02*
G37*
G36*
X260D02*
X233D01*
X237Y131D01*
X243Y123D01*
X251Y117D01*
X260Y113D01*
Y140D01*
D02*
G37*
G36*
X1692D02*
X1665D01*
Y113D01*
X1674Y117D01*
X1682Y123D01*
X1688Y131D01*
X1692Y140D01*
D02*
G37*
G36*
X1645Y187D02*
X1636Y183D01*
X1628Y177D01*
X1622Y169D01*
X1618Y160D01*
X1645D01*
Y187D01*
D02*
G37*
G36*
X280D02*
Y160D01*
X307D01*
X303Y169D01*
X297Y177D01*
X289Y183D01*
X280Y187D01*
D02*
G37*
G36*
X260D02*
X251Y183D01*
X243Y177D01*
X237Y169D01*
X233Y160D01*
X260D01*
Y187D01*
D02*
G37*
G36*
X1661Y660D02*
X1632D01*
Y630D01*
X1661D01*
Y660D01*
D02*
G37*
G36*
X1537Y1675D02*
X1529Y1674D01*
X1522Y1671D01*
X1515Y1666D01*
X1511Y1660D01*
X1508Y1653D01*
X1507Y1645D01*
X1508Y1637D01*
X1511Y1630D01*
X1515Y1624D01*
Y1616D01*
X1511Y1610D01*
X1508Y1603D01*
X1507Y1595D01*
X1508Y1587D01*
X1511Y1580D01*
X1515Y1574D01*
Y1566D01*
X1511Y1560D01*
X1508Y1553D01*
X1507Y1545D01*
X1508Y1537D01*
X1511Y1530D01*
X1515Y1524D01*
X1522Y1519D01*
X1529Y1516D01*
X1537Y1515D01*
X1544Y1516D01*
X1552Y1519D01*
X1558Y1524D01*
X1565D01*
X1572Y1519D01*
X1577Y1517D01*
Y1545D01*
X1587D01*
Y1555D01*
X1615D01*
X1613Y1560D01*
X1608Y1566D01*
Y1574D01*
X1613Y1580D01*
X1615Y1585D01*
X1587D01*
Y1605D01*
X1615D01*
X1613Y1610D01*
X1608Y1616D01*
Y1624D01*
X1613Y1630D01*
X1615Y1635D01*
X1587D01*
Y1645D01*
X1577D01*
Y1673D01*
X1572Y1671D01*
X1565Y1666D01*
X1558D01*
X1552Y1671D01*
X1544Y1674D01*
X1537Y1675D01*
D02*
G37*
G36*
X580Y1676D02*
X570Y1674D01*
X561Y1669D01*
X556Y1660D01*
X554Y1650D01*
X556Y1640D01*
X561Y1631D01*
X570Y1626D01*
X580Y1624D01*
X584Y1625D01*
X629Y1579D01*
X634Y1576D01*
X640Y1575D01*
X874D01*
X912Y1536D01*
X911Y1531D01*
X908Y1526D01*
X900Y1524D01*
X891Y1519D01*
X886Y1510D01*
X884Y1500D01*
X884Y1500D01*
X875Y1491D01*
X875Y1491D01*
X869Y1490D01*
X861Y1497D01*
X861Y1498D01*
X861Y1500D01*
X859Y1510D01*
X854Y1519D01*
X845Y1524D01*
X835Y1526D01*
X825Y1524D01*
X816Y1519D01*
X809D01*
X800Y1524D01*
X790Y1526D01*
X780Y1524D01*
X771Y1519D01*
X766Y1510D01*
X764Y1500D01*
X765Y1496D01*
X739Y1471D01*
X736Y1466D01*
X735Y1460D01*
Y735D01*
X651Y650D01*
X647Y651D01*
X637Y649D01*
X628Y644D01*
X622Y635D01*
X620Y625D01*
X622Y615D01*
X628Y606D01*
X637Y601D01*
X647Y599D01*
X657Y601D01*
X665Y606D01*
X671Y615D01*
X672Y618D01*
X682D01*
X682Y615D01*
X688Y606D01*
X697Y601D01*
X707Y599D01*
X717Y601D01*
X725Y606D01*
X731Y615D01*
X733Y625D01*
X732Y629D01*
X831Y728D01*
X834Y732D01*
X835Y738D01*
Y899D01*
X839Y901D01*
X844Y910D01*
X846Y920D01*
X844Y930D01*
X839Y939D01*
X830Y944D01*
X820Y946D01*
X810Y944D01*
X806Y942D01*
X796Y947D01*
Y1018D01*
X806Y1022D01*
X825Y1004D01*
X824Y1000D01*
X826Y990D01*
X831Y981D01*
X840Y976D01*
X850Y974D01*
X860Y976D01*
X869Y981D01*
X874Y990D01*
X876Y1000D01*
X874Y1010D01*
X869Y1019D01*
X864Y1022D01*
X863Y1022D01*
Y1033D01*
X864Y1033D01*
X869Y1036D01*
X874Y1045D01*
X876Y1055D01*
X874Y1065D01*
X869Y1074D01*
X865Y1076D01*
Y1231D01*
X875Y1239D01*
X875Y1239D01*
X885Y1241D01*
X894Y1246D01*
X899Y1255D01*
X901Y1265D01*
X901Y1265D01*
X910Y1274D01*
X910Y1274D01*
X920Y1276D01*
X920Y1276D01*
X930Y1270D01*
Y1136D01*
X909Y1115D01*
X905Y1116D01*
X895Y1114D01*
X886Y1109D01*
X881Y1100D01*
X879Y1090D01*
X881Y1080D01*
X886Y1071D01*
X895Y1066D01*
X905Y1064D01*
X915Y1066D01*
X924Y1071D01*
X929Y1080D01*
X931Y1090D01*
X930Y1094D01*
X956Y1119D01*
X959Y1124D01*
X960Y1130D01*
Y1525D01*
X959Y1531D01*
X956Y1536D01*
X891Y1601D01*
X886Y1604D01*
X880Y1605D01*
X646D01*
X605Y1646D01*
X606Y1650D01*
X604Y1660D01*
X599Y1669D01*
X590Y1674D01*
X580Y1676D01*
D02*
G37*
G36*
X355Y1160D02*
X345Y1159D01*
X335Y1155D01*
X327Y1148D01*
X320Y1140D01*
X316Y1130D01*
X315Y1120D01*
X316Y1110D01*
X320Y1100D01*
X327Y1092D01*
X335Y1085D01*
X345Y1081D01*
X355Y1080D01*
X365Y1081D01*
X375Y1085D01*
X383Y1092D01*
X390Y1100D01*
X394Y1110D01*
X395Y1120D01*
X394Y1130D01*
X390Y1140D01*
X383Y1148D01*
X375Y1155D01*
X365Y1159D01*
X355Y1160D01*
D02*
G37*
G36*
X1615Y1535D02*
X1597D01*
Y1517D01*
X1602Y1519D01*
X1608Y1524D01*
X1613Y1530D01*
X1615Y1535D01*
D02*
G37*
G36*
X1597Y1673D02*
Y1655D01*
X1615D01*
X1613Y1660D01*
X1608Y1666D01*
X1602Y1671D01*
X1597Y1673D01*
D02*
G37*
G36*
X1282Y1560D02*
Y1530D01*
X1312D01*
X1312Y1531D01*
X1307Y1541D01*
X1301Y1549D01*
X1292Y1556D01*
X1282Y1560D01*
X1282Y1560D01*
D02*
G37*
G36*
X1262D02*
X1261Y1560D01*
X1251Y1556D01*
X1242Y1549D01*
X1236Y1541D01*
X1232Y1531D01*
X1232Y1530D01*
X1262D01*
Y1560D01*
D02*
G37*
G36*
X355Y1060D02*
X345Y1059D01*
X335Y1055D01*
X327Y1048D01*
X320Y1040D01*
X316Y1030D01*
X315Y1020D01*
X316Y1010D01*
X320Y1000D01*
X327Y992D01*
X335Y985D01*
X345Y981D01*
X355Y980D01*
X365Y981D01*
X375Y985D01*
X383Y992D01*
X390Y1000D01*
X394Y1010D01*
X395Y1020D01*
X394Y1030D01*
X390Y1040D01*
X383Y1048D01*
X375Y1055D01*
X365Y1059D01*
X355Y1060D01*
D02*
G37*
G36*
X395Y810D02*
X365D01*
Y780D01*
X395D01*
Y810D01*
D02*
G37*
G36*
X345D02*
X315D01*
Y780D01*
X345D01*
Y810D01*
D02*
G37*
G36*
X1661Y824D02*
X1582D01*
Y745D01*
X1661D01*
Y824D01*
D02*
G37*
G36*
X345Y860D02*
X315D01*
Y830D01*
X345D01*
Y860D01*
D02*
G37*
G36*
X1213Y1561D02*
X1131D01*
Y1501D01*
X1111Y1481D01*
X1108Y1476D01*
X1106Y1470D01*
Y1300D01*
X1108Y1294D01*
X1111Y1289D01*
X1136Y1264D01*
X1141Y1261D01*
X1147Y1260D01*
X1203D01*
X1209Y1261D01*
X1214Y1264D01*
X1232Y1283D01*
X1235Y1286D01*
X1242Y1289D01*
X1246Y1289D01*
X1249Y1287D01*
X1258Y1283D01*
X1268Y1282D01*
X1275D01*
X1280Y1283D01*
X1427Y1136D01*
X1434Y1131D01*
X1442Y1130D01*
X1566D01*
Y1083D01*
X1556Y1073D01*
X1551Y1066D01*
X1550Y1058D01*
Y937D01*
X1551Y929D01*
X1556Y922D01*
X1583Y895D01*
X1582Y885D01*
X1583Y875D01*
X1587Y865D01*
X1593Y857D01*
X1602Y850D01*
X1611Y846D01*
X1622Y845D01*
X1632Y846D01*
X1642Y850D01*
X1650Y857D01*
X1656Y865D01*
X1660Y875D01*
X1662Y885D01*
X1660Y895D01*
X1656Y905D01*
X1650Y913D01*
X1642Y919D01*
X1632Y923D01*
X1622Y925D01*
X1612Y923D01*
X1597Y938D01*
X1597Y942D01*
X1609Y948D01*
X1611Y946D01*
X1622Y945D01*
X1632Y946D01*
X1642Y950D01*
X1650Y957D01*
X1656Y965D01*
X1660Y975D01*
X1662Y985D01*
X1660Y995D01*
X1656Y1005D01*
X1650Y1013D01*
X1642Y1019D01*
X1632Y1023D01*
X1622Y1025D01*
X1611Y1023D01*
X1602Y1019D01*
X1600Y1018D01*
X1590Y1023D01*
Y1050D01*
X1601Y1061D01*
X1605Y1067D01*
X1607Y1075D01*
Y1150D01*
Y1165D01*
X1616D01*
Y1225D01*
X1616Y1225D01*
X1616D01*
X1615Y1235D01*
X1616Y1237D01*
X1617Y1245D01*
X1616Y1253D01*
X1613Y1260D01*
X1608Y1266D01*
Y1274D01*
X1613Y1280D01*
X1615Y1285D01*
X1587D01*
Y1305D01*
X1615D01*
X1613Y1310D01*
X1608Y1316D01*
X1603Y1320D01*
X1604Y1326D01*
X1606Y1330D01*
X1607D01*
X1613Y1331D01*
X1617Y1334D01*
X1637Y1354D01*
X1641Y1359D01*
X1642Y1365D01*
Y1405D01*
X1641Y1411D01*
X1637Y1416D01*
X1597Y1456D01*
X1593Y1459D01*
X1587Y1460D01*
X1388D01*
X1369Y1479D01*
X1365Y1482D01*
X1359Y1483D01*
X1307D01*
X1306Y1485D01*
X1303Y1493D01*
X1307Y1499D01*
X1312Y1509D01*
X1312Y1510D01*
X1232D01*
X1232Y1509D01*
X1236Y1499D01*
X1240Y1493D01*
X1237Y1485D01*
X1236Y1483D01*
X1220D01*
X1213Y1492D01*
Y1561D01*
D02*
G37*
G36*
X355Y960D02*
X345Y959D01*
X335Y955D01*
X327Y948D01*
X320Y940D01*
X316Y930D01*
X315Y920D01*
X316Y910D01*
X320Y900D01*
X327Y892D01*
X335Y885D01*
X345Y881D01*
X355Y880D01*
X365Y881D01*
X375Y885D01*
X383Y892D01*
X390Y900D01*
X394Y910D01*
X395Y920D01*
X394Y930D01*
X390Y940D01*
X383Y948D01*
X375Y955D01*
X365Y959D01*
X355Y960D01*
D02*
G37*
G36*
X395Y860D02*
X365D01*
Y830D01*
X395D01*
Y860D01*
D02*
G37*
%LPD*%
D23*
X1382Y1445D02*
X1587D01*
X1359Y1468D02*
X1382Y1445D01*
X1220Y1468D02*
X1359D01*
X1387Y1395D02*
X1537D01*
X1362Y1420D02*
X1387Y1395D01*
X1272Y1420D02*
X1362D01*
X1432Y1295D02*
X1537D01*
X1348Y1379D02*
X1432Y1295D01*
X1230Y1379D02*
X1348D01*
X1587Y1445D02*
X1627Y1405D01*
X1172Y1320D02*
X1230Y1379D01*
X1301Y1361D02*
X1467Y1195D01*
X1247Y1361D02*
X1301D01*
X1222Y1335D02*
X1247Y1361D01*
X1537Y1345D02*
X1607D01*
X1467Y1195D02*
X1537D01*
X1607Y1345D02*
X1627Y1365D01*
Y1405D01*
X1172Y1420D02*
X1220Y1468D01*
X1122Y1300D02*
Y1470D01*
X1172Y1520D01*
X1122Y1300D02*
X1147Y1275D01*
X1203D01*
X1222Y1294D01*
Y1335D01*
X905Y1090D02*
X945Y1130D01*
Y1525D01*
X880Y1590D02*
X945Y1525D01*
X640Y1590D02*
X880D01*
X580Y1650D02*
X640Y1590D01*
X875Y1265D02*
Y1465D01*
X910Y1300D02*
Y1500D01*
X810Y1040D02*
X850Y1000D01*
X810Y1040D02*
Y1345D01*
X707Y625D02*
X820Y738D01*
Y920D01*
X849Y1056D02*
X850Y1055D01*
X849Y1056D02*
Y1381D01*
X647Y625D02*
X750Y728D01*
Y1460D01*
X790Y1500D01*
X835Y1395D02*
Y1500D01*
Y1395D02*
X849Y1381D01*
X781Y1426D02*
X805Y1450D01*
X781Y765D02*
Y1426D01*
D24*
X1587Y1075D02*
Y1150D01*
Y1195D01*
X1442Y1150D02*
X1587D01*
X1272Y1320D02*
X1442Y1150D01*
X1587Y1645D02*
X1661D01*
X1587D02*
Y1719D01*
Y1595D02*
X1661D01*
X1587Y1545D02*
X1661D01*
X1587Y1245D02*
X1661D01*
X1587Y1295D02*
X1661D01*
X1570Y937D02*
X1622Y885D01*
X1570Y937D02*
Y1058D01*
X1587Y1075D01*
X1410Y520D02*
X1622D01*
X1310Y620D02*
X1410Y520D01*
X615Y527D02*
X1097D01*
X1190Y620D01*
X1310D01*
D26*
X1622Y985D02*
D03*
Y885D02*
D03*
X1522Y620D02*
D03*
X355Y920D02*
D03*
Y1020D02*
D03*
Y1120D02*
D03*
X1622Y420D02*
D03*
Y520D02*
D03*
D27*
Y785D02*
D03*
X355Y820D02*
D03*
X1622Y620D02*
D03*
D28*
D03*
D29*
X1272Y1520D02*
D03*
X1172Y1420D02*
D03*
Y1320D02*
D03*
D30*
X1272Y1420D02*
D03*
Y1320D02*
D03*
D31*
X1172Y1520D02*
D03*
D32*
X1587Y1195D02*
D03*
D33*
X1537D02*
D03*
X1587Y1245D02*
D03*
X1537D02*
D03*
X1587Y1295D02*
D03*
X1537D02*
D03*
Y1345D02*
D03*
X1587Y1395D02*
D03*
X1537D02*
D03*
X1587Y1545D02*
D03*
X1537D02*
D03*
X1587Y1595D02*
D03*
X1537D02*
D03*
X1587Y1645D02*
D03*
X1537D02*
D03*
D34*
X1655Y150D02*
D03*
X270D02*
D03*
D35*
X707Y625D02*
D03*
X535Y1290D02*
D03*
X1240Y770D02*
D03*
X1247Y1030D02*
D03*
X1312Y1190D02*
D03*
X1532Y725D02*
D03*
X632Y445D02*
D03*
X817Y370D02*
D03*
X632Y185D02*
D03*
X1409Y175D02*
D03*
X1457Y1510D02*
D03*
X1200Y1190D02*
D03*
X575Y1070D02*
D03*
X470Y1290D02*
D03*
X1165Y1700D02*
D03*
X1157Y965D02*
D03*
Y805D02*
D03*
X1347Y965D02*
D03*
Y805D02*
D03*
X1035Y1200D02*
D03*
X405Y1485D02*
D03*
X710Y765D02*
D03*
X955Y195D02*
D03*
X425Y275D02*
D03*
X810Y1660D02*
D03*
X400Y1630D02*
D03*
X1157Y885D02*
D03*
X1347D02*
D03*
X580Y1650D02*
D03*
X815Y480D02*
D03*
X910Y1500D02*
D03*
X875Y1465D02*
D03*
X905Y1090D02*
D03*
X790Y1500D02*
D03*
X815Y605D02*
D03*
X850Y1000D02*
D03*
X805Y1450D02*
D03*
X820Y920D02*
D03*
X890Y1200D02*
D03*
X605Y1160D02*
D03*
X647Y625D02*
D03*
X875Y1265D02*
D03*
X910Y1300D02*
D03*
X810Y1345D02*
D03*
X780Y765D02*
D03*
X850Y1055D02*
D03*
X835Y1500D02*
D03*
X960Y605D02*
D03*
Y480D02*
D03*
Y365D02*
D03*
X615Y527D02*
D03*
D36*
X1190Y620D02*
D03*
M02*
