M48
;Layer_Color=9474304
;FILE_FORMAT=2:4
INCH
;TYPE=PLATED
T1F00S00C0.0130
T2F00S00C0.0197
T3F00S00C0.0236
T4F00S00C0.0354
%
T01
X011750Y008620
T02
X007950Y002750
X007850Y005100
X007666Y005946
X008250Y007200
X008750
X009800Y006000
Y004950
X011400Y002950
X015876Y002400
X018226
X015100Y008700
Y009500
Y010300
X013202
X013200Y009500
X013202Y008700
X007700Y008800
X006850Y008250
X008400Y010700
Y011450
X009000
X010100
X004200Y012200
X003300Y009450
X005550Y005530
X004570Y003850
X004410Y014400
X006000Y013150
X005700Y018000
X003610Y017800
X003500Y016400
X007700Y015950
X008350Y015700
X008400Y014900
X009000Y015950
X009650Y016150
Y015500
X009300Y014050
X009650Y013480
X009500Y012900
X010550Y013500
X013450Y012650
X016000Y015900
X010700Y018300
X007750Y018000
T03
X016800Y012750
X017300
Y013250
X016800
Y013750
X017300
X016800Y014250
Y014750
X017300
Y016250
X016800
Y016750
X017300
Y017250
X016800
T04
X018000Y005000
Y006000
Y007000
X017000
X018000Y008500
Y009500
Y010500
X002500Y010700
Y009700
Y011700
X002299Y005766
Y004034
X002500Y012700
X003000Y018600
X015400
X014150Y016000
Y015000
Y014000
X013150
Y015000
Y016000
M30
