G04 Layer_Color=32896*
%FSLAX23Y23*%
%MOIN*%
G70*
G01*
G75*
%ADD35C,0.008*%
%ADD62R,0.640X0.238*%
D35*
X70Y1630D02*
X120D01*
X130Y1620D01*
Y1600D01*
X120Y1590D01*
X70D01*
X80Y1530D02*
X70Y1540D01*
Y1560D01*
X80Y1570D01*
X90D01*
X100Y1560D01*
Y1540D01*
X110Y1530D01*
X120D01*
X130Y1540D01*
Y1560D01*
X120Y1570D01*
X70Y1510D02*
X130D01*
Y1480D01*
X120Y1470D01*
X110D01*
X100Y1480D01*
Y1510D01*
Y1480D01*
X90Y1470D01*
X80D01*
X70Y1480D01*
Y1510D01*
Y1450D02*
X130D01*
Y1420D01*
X120Y1410D01*
X80D01*
X70Y1420D01*
Y1450D01*
X130Y1390D02*
X70D01*
X90Y1370D01*
X70Y1350D01*
X130D01*
X140Y1330D02*
Y1290D01*
X80Y1230D02*
X70Y1240D01*
Y1260D01*
X80Y1270D01*
X90D01*
X100Y1260D01*
Y1240D01*
X110Y1230D01*
X120D01*
X130Y1240D01*
Y1260D01*
X120Y1270D01*
X70Y1210D02*
X130D01*
X110Y1190D01*
X130Y1170D01*
X70D01*
Y1150D02*
X130D01*
Y1120D01*
X120Y1110D01*
X80D01*
X70Y1120D01*
Y1150D01*
X140Y1090D02*
Y1050D01*
X80Y990D02*
X70Y1000D01*
Y1020D01*
X80Y1030D01*
X90D01*
X100Y1020D01*
Y1000D01*
X110Y990D01*
X120D01*
X130Y1000D01*
Y1020D01*
X120Y1030D01*
X70Y930D02*
Y970D01*
X130D01*
Y930D01*
X100Y970D02*
Y950D01*
X130Y910D02*
X70D01*
Y880D01*
X80Y870D01*
X100D01*
X110Y880D01*
Y910D01*
Y890D02*
X130Y870D01*
X140Y850D02*
Y810D01*
X70Y750D02*
Y770D01*
Y760D01*
X120D01*
X130Y770D01*
Y780D01*
X120Y790D01*
X80Y690D02*
X70Y700D01*
Y720D01*
X80Y730D01*
X90D01*
X100Y720D01*
Y700D01*
X110Y690D01*
X120D01*
X130Y700D01*
Y720D01*
X120Y730D01*
X130Y670D02*
Y650D01*
Y660D01*
X70D01*
X80Y670D01*
X70Y580D02*
X80Y600D01*
X100Y620D01*
X120D01*
X130Y610D01*
Y590D01*
X120Y580D01*
X110D01*
X100Y590D01*
Y620D01*
X80Y520D02*
X70Y530D01*
Y550D01*
X80Y560D01*
X120D01*
X130Y550D01*
Y530D01*
X120Y520D01*
X70Y500D02*
X130D01*
X110Y480D01*
X130Y460D01*
X70D01*
Y400D02*
Y420D01*
Y410D01*
X120D01*
X130Y420D01*
Y430D01*
X120Y440D01*
X90Y320D02*
X130Y300D01*
X90Y280D01*
X80Y260D02*
X70Y250D01*
Y230D01*
X80Y220D01*
X90D01*
X100Y230D01*
Y240D01*
Y230D01*
X110Y220D01*
X120D01*
X130Y230D01*
Y250D01*
X120Y260D01*
X130Y200D02*
X120D01*
Y190D01*
X130D01*
Y200D01*
Y120D02*
X70D01*
X100Y150D01*
Y110D01*
X1123Y1535D02*
Y1505D01*
X1108D01*
X1103Y1510D01*
Y1515D01*
X1108Y1520D01*
X1123D01*
X1108D01*
X1103Y1525D01*
Y1530D01*
X1108Y1535D01*
X1123D01*
X1093D02*
Y1505D01*
Y1515D01*
X1073Y1535D01*
X1088Y1520D01*
X1073Y1505D01*
X1043Y1530D02*
X1048Y1535D01*
X1058D01*
X1063Y1530D01*
Y1510D01*
X1058Y1505D01*
X1048D01*
X1043Y1510D01*
Y1520D01*
X1053D01*
X1033Y1535D02*
Y1505D01*
X1018D01*
X1013Y1510D01*
Y1530D01*
X1018Y1535D01*
X1033D01*
X1123Y1408D02*
Y1438D01*
X1108D01*
X1103Y1433D01*
Y1423D01*
X1108Y1418D01*
X1123D01*
X1113D02*
X1103Y1408D01*
X1093Y1428D02*
X1073Y1408D01*
X1083Y1418D01*
X1073Y1428D01*
X1093Y1408D01*
X1123Y1337D02*
X1103D01*
X1113D01*
Y1307D01*
X1093Y1327D02*
X1073Y1307D01*
X1083Y1317D01*
X1073Y1327D01*
X1093Y1307D01*
X1377Y1532D02*
X1382Y1537D01*
X1392D01*
X1397Y1532D01*
Y1512D01*
X1392Y1507D01*
X1382D01*
X1377Y1512D01*
Y1522D01*
X1387D01*
X1367Y1507D02*
Y1527D01*
X1352D01*
X1347Y1522D01*
Y1507D01*
X1317Y1537D02*
Y1507D01*
X1332D01*
X1337Y1512D01*
Y1522D01*
X1332Y1527D01*
X1317D01*
X1383Y1406D02*
Y1436D01*
X1368D01*
X1363Y1431D01*
Y1421D01*
X1368Y1416D01*
X1383D01*
X1373D02*
X1363Y1406D01*
X1353D02*
X1338D01*
X1333Y1411D01*
X1338Y1416D01*
X1348D01*
X1353Y1421D01*
X1348Y1426D01*
X1333D01*
X1318Y1431D02*
Y1426D01*
X1323D01*
X1313D01*
X1318D01*
Y1411D01*
X1313Y1406D01*
X1400Y1333D02*
Y1313D01*
X1390Y1303D01*
X1380Y1313D01*
Y1333D01*
X1350D02*
Y1303D01*
X1365D01*
X1370Y1308D01*
Y1318D01*
X1365Y1323D01*
X1350D01*
X1320Y1333D02*
Y1303D01*
X1335D01*
X1340Y1308D01*
Y1318D01*
X1335Y1323D01*
X1320D01*
X1707Y1210D02*
Y1190D01*
X1697Y1180D01*
X1687Y1190D01*
Y1210D01*
X1657D02*
Y1180D01*
X1672D01*
X1677Y1185D01*
Y1195D01*
X1672Y1200D01*
X1657D01*
X1627Y1210D02*
Y1180D01*
X1642D01*
X1647Y1185D01*
Y1195D01*
X1642Y1200D01*
X1627D01*
X1481Y1207D02*
X1486Y1212D01*
X1496D01*
X1501Y1207D01*
Y1202D01*
X1496Y1197D01*
X1486D01*
X1481Y1192D01*
Y1187D01*
X1486Y1182D01*
X1496D01*
X1501Y1187D01*
X1471Y1212D02*
Y1182D01*
X1461Y1192D01*
X1451Y1182D01*
Y1212D01*
X1441D02*
Y1182D01*
X1426D01*
X1421Y1187D01*
Y1207D01*
X1426Y1212D01*
X1441D01*
X1481Y1255D02*
X1486Y1260D01*
X1496D01*
X1501Y1255D01*
Y1250D01*
X1496Y1245D01*
X1486D01*
X1481Y1240D01*
Y1235D01*
X1486Y1230D01*
X1496D01*
X1501Y1235D01*
X1471Y1260D02*
Y1230D01*
X1461Y1240D01*
X1451Y1230D01*
Y1260D01*
X1421Y1255D02*
X1426Y1260D01*
X1436D01*
X1441Y1255D01*
Y1235D01*
X1436Y1230D01*
X1426D01*
X1421Y1235D01*
X1411Y1260D02*
Y1230D01*
X1391D01*
X1381Y1260D02*
Y1230D01*
Y1240D01*
X1361Y1260D01*
X1376Y1245D01*
X1361Y1230D01*
X1498Y1310D02*
X1478D01*
X1488D01*
Y1280D01*
X1468Y1300D02*
X1448Y1280D01*
X1458Y1290D01*
X1448Y1300D01*
X1468Y1280D01*
X1496Y1329D02*
Y1359D01*
X1481D01*
X1476Y1354D01*
Y1344D01*
X1481Y1339D01*
X1496D01*
X1486D02*
X1476Y1329D01*
X1466Y1349D02*
X1446Y1329D01*
X1456Y1339D01*
X1446Y1349D01*
X1466Y1329D01*
X1497Y1378D02*
Y1408D01*
X1482D01*
X1477Y1403D01*
Y1393D01*
X1482Y1388D01*
X1497D01*
X1487D02*
X1477Y1378D01*
X1467D02*
X1452D01*
X1447Y1383D01*
X1452Y1388D01*
X1462D01*
X1467Y1393D01*
X1462Y1398D01*
X1447D01*
X1432Y1403D02*
Y1398D01*
X1437D01*
X1427D01*
X1432D01*
Y1383D01*
X1427Y1378D01*
X1623Y1622D02*
X1618Y1627D01*
Y1637D01*
X1623Y1642D01*
X1643D01*
X1648Y1637D01*
Y1627D01*
X1643Y1622D01*
X1633D01*
Y1632D01*
X1648Y1612D02*
X1628D01*
Y1597D01*
X1633Y1592D01*
X1648D01*
X1618Y1562D02*
X1648D01*
Y1577D01*
X1643Y1582D01*
X1633D01*
X1628Y1577D01*
Y1562D01*
X1624Y1292D02*
X1619Y1297D01*
Y1307D01*
X1624Y1312D01*
X1644D01*
X1649Y1307D01*
Y1297D01*
X1644Y1292D01*
X1634D01*
Y1302D01*
X1649Y1282D02*
X1629D01*
Y1267D01*
X1634Y1262D01*
X1649D01*
X1619Y1232D02*
X1649D01*
Y1247D01*
X1644Y1252D01*
X1634D01*
X1629Y1247D01*
Y1232D01*
X368Y995D02*
Y1035D01*
X348D01*
X341Y1028D01*
Y1015D01*
X348Y1008D01*
X368D01*
X355D02*
X341Y995D01*
X328Y1021D02*
X301Y995D01*
X315Y1008D01*
X301Y1021D01*
X328Y995D01*
X288Y1035D02*
Y995D01*
X268D01*
X261Y1001D01*
Y1028D01*
X268Y1035D01*
X288D01*
X368Y1135D02*
X341D01*
X355D01*
Y1095D01*
X328Y1121D02*
X301Y1095D01*
X315Y1108D01*
X301Y1121D01*
X328Y1095D01*
X288Y1135D02*
Y1095D01*
X268D01*
X261Y1101D01*
Y1128D01*
X268Y1135D01*
X288D01*
X341Y828D02*
X348Y835D01*
X361D01*
X368Y828D01*
Y801D01*
X361Y795D01*
X348D01*
X341Y801D01*
Y815D01*
X355D01*
X328Y795D02*
Y821D01*
X308D01*
X301Y815D01*
Y795D01*
X261Y835D02*
Y795D01*
X281D01*
X288Y801D01*
Y815D01*
X281Y821D01*
X261D01*
X368Y935D02*
Y908D01*
X355Y895D01*
X341Y908D01*
Y935D01*
X301D02*
Y895D01*
X321D01*
X328Y901D01*
Y915D01*
X321Y921D01*
X301D01*
X261Y935D02*
Y895D01*
X281D01*
X288Y901D01*
Y915D01*
X281Y921D01*
X261D01*
D62*
X1217Y364D02*
D03*
M02*
