G04 Layer_Physical_Order=1*
G04 Layer_Color=255*
%FSLAX23Y23*%
%MOIN*%
G70*
G01*
G75*
%ADD10R,0.094X0.083*%
%ADD11R,0.134X0.075*%
%ADD12R,0.083X0.033*%
%ADD13R,0.083X0.122*%
%ADD14R,0.051X0.059*%
%ADD15R,0.087X0.024*%
%ADD16R,0.087X0.024*%
%ADD17R,0.059X0.051*%
%ADD18O,0.098X0.028*%
%ADD19R,0.083X0.058*%
%ADD20R,0.054X0.018*%
%ADD21R,0.075X0.046*%
%ADD22R,0.075X0.094*%
%ADD23C,0.010*%
%ADD24C,0.020*%
%ADD25C,0.018*%
%ADD26C,0.059*%
%ADD27R,0.059X0.059*%
%ADD28R,0.059X0.059*%
%ADD29C,0.062*%
%ADD30O,0.062X0.055*%
%ADD31R,0.062X0.062*%
%ADD32R,0.039X0.039*%
%ADD33C,0.039*%
%ADD34C,0.055*%
%ADD35C,0.031*%
%ADD36C,0.027*%
G36*
X1756Y15D02*
X165D01*
Y244D01*
X198D01*
Y300D01*
X218D01*
Y244D01*
X255D01*
Y279D01*
X288D01*
Y318D01*
X298D01*
Y328D01*
X350D01*
Y354D01*
X312D01*
Y371D01*
X350D01*
Y400D01*
X380D01*
X462Y318D01*
Y292D01*
X462Y275D01*
X462Y258D01*
Y245D01*
X498D01*
Y225D01*
X462D01*
Y212D01*
X462Y195D01*
X462Y178D01*
Y165D01*
X498D01*
Y155D01*
X508D01*
Y115D01*
X519D01*
X533Y115D01*
X551Y115D01*
X608D01*
Y195D01*
X608D01*
Y195D01*
X608D01*
Y231D01*
X635Y259D01*
X653Y251D01*
X653Y247D01*
Y215D01*
X653D01*
Y208D01*
X653D01*
Y165D01*
X653D01*
Y158D01*
X653D01*
Y115D01*
X759D01*
Y121D01*
X785D01*
X791Y122D01*
X796Y126D01*
X931Y261D01*
X934Y266D01*
X935Y272D01*
Y670D01*
X952Y677D01*
X985Y644D01*
Y386D01*
X986Y381D01*
X989Y376D01*
X1031Y334D01*
X1031Y315D01*
X1031Y297D01*
X1031Y265D01*
X1031Y247D01*
Y246D01*
X1084D01*
Y226D01*
X1031D01*
Y215D01*
X1031Y197D01*
X1031Y165D01*
X1031Y147D01*
Y115D01*
X1137D01*
X1152Y108D01*
Y92D01*
X1231D01*
Y110D01*
X1249D01*
Y49D01*
X1364D01*
Y75D01*
X1396D01*
Y65D01*
X1453D01*
X1467Y65D01*
X1485Y65D01*
X1497D01*
Y105D01*
Y145D01*
X1485D01*
X1471Y145D01*
X1453Y145D01*
X1396D01*
Y106D01*
X1364D01*
Y152D01*
X1249D01*
Y152D01*
X1232Y152D01*
X1231Y153D01*
Y163D01*
X1231Y181D01*
Y219D01*
X1249D01*
Y218D01*
X1364D01*
Y244D01*
X1396D01*
Y205D01*
X1453D01*
X1467Y205D01*
X1485Y205D01*
X1497D01*
Y245D01*
Y285D01*
X1485D01*
X1471Y285D01*
X1453Y285D01*
X1396D01*
Y275D01*
X1364D01*
Y321D01*
X1249D01*
Y249D01*
X1223D01*
X1217Y248D01*
X1212Y245D01*
X1206Y238D01*
X1155D01*
X1152Y238D01*
X1137Y245D01*
X1137Y258D01*
X1137Y276D01*
X1137Y308D01*
X1137Y326D01*
Y348D01*
X1140Y360D01*
X1152Y365D01*
X1275D01*
X1281Y366D01*
X1286Y369D01*
X1298Y381D01*
X1535D01*
X1541Y382D01*
X1546Y386D01*
X1565Y405D01*
X1585D01*
X1587Y400D01*
X1593Y392D01*
X1602Y385D01*
X1611Y381D01*
X1622Y380D01*
X1632Y381D01*
X1642Y385D01*
X1650Y392D01*
X1656Y400D01*
X1660Y410D01*
X1662Y420D01*
X1660Y430D01*
X1656Y440D01*
X1650Y448D01*
X1642Y455D01*
X1632Y459D01*
X1622Y460D01*
X1611Y459D01*
X1602Y455D01*
X1593Y448D01*
X1587Y440D01*
X1585Y435D01*
X1559D01*
X1553Y434D01*
X1548Y431D01*
X1529Y412D01*
X1474D01*
X1456Y412D01*
Y483D01*
X1456Y483D01*
X1459Y500D01*
X1587D01*
X1593Y492D01*
X1602Y485D01*
X1611Y481D01*
X1622Y480D01*
X1632Y481D01*
X1642Y485D01*
X1650Y492D01*
X1656Y500D01*
X1660Y510D01*
X1662Y520D01*
X1660Y530D01*
X1656Y540D01*
X1650Y548D01*
X1642Y555D01*
X1632Y559D01*
X1622Y560D01*
X1611Y559D01*
X1606Y556D01*
X1591Y566D01*
X1595Y580D01*
X1612D01*
Y620D01*
Y660D01*
X1583D01*
X1582Y661D01*
X1562Y681D01*
X1558Y684D01*
X1552Y685D01*
X1507D01*
X1501Y684D01*
X1496Y681D01*
X1455Y640D01*
X1440Y650D01*
Y688D01*
X1493Y742D01*
X1498Y748D01*
X1499Y756D01*
Y768D01*
X1530D01*
X1530Y768D01*
X1547Y766D01*
X1552Y765D01*
X1582D01*
Y745D01*
X1661D01*
Y824D01*
X1582D01*
Y805D01*
X1560D01*
X1557Y809D01*
X1550Y813D01*
X1542Y815D01*
X1530D01*
Y821D01*
X1499D01*
Y858D01*
X1530D01*
Y912D01*
X1428D01*
Y858D01*
X1458D01*
Y821D01*
X1428D01*
Y768D01*
X1437D01*
X1444Y750D01*
X1419Y725D01*
X1368D01*
Y725D01*
X1365D01*
Y725D01*
X1339D01*
Y685D01*
X1329D01*
Y675D01*
X1294D01*
Y650D01*
X1235D01*
X1122Y763D01*
Y973D01*
X1120Y981D01*
X1116Y988D01*
X1082Y1022D01*
Y1079D01*
X1082Y1084D01*
X1078Y1100D01*
Y1132D01*
X1175Y1230D01*
X1504D01*
X1508Y1225D01*
X1513Y1213D01*
X1511Y1210D01*
X1508Y1203D01*
X1507Y1195D01*
X1508Y1187D01*
X1511Y1180D01*
X1515Y1174D01*
X1522Y1169D01*
X1529Y1166D01*
X1537Y1165D01*
X1539Y1165D01*
X1557Y1165D01*
X1557Y1165D01*
X1557Y1165D01*
X1616D01*
Y1225D01*
X1616Y1225D01*
X1616Y1242D01*
X1617Y1245D01*
X1616Y1253D01*
X1613Y1260D01*
X1608Y1266D01*
Y1274D01*
X1613Y1280D01*
X1615Y1285D01*
X1587D01*
Y1295D01*
X1577D01*
Y1326D01*
X1566Y1337D01*
X1567Y1345D01*
X1566Y1353D01*
X1579Y1366D01*
X1587Y1365D01*
X1594Y1366D01*
X1602Y1369D01*
X1608Y1374D01*
X1613Y1380D01*
X1616Y1387D01*
X1617Y1395D01*
X1616Y1403D01*
X1613Y1410D01*
X1608Y1416D01*
X1602Y1421D01*
X1594Y1424D01*
X1587Y1425D01*
X1579Y1424D01*
X1572Y1421D01*
X1565Y1416D01*
X1558D01*
X1552Y1421D01*
X1544Y1424D01*
X1537Y1425D01*
X1529Y1424D01*
X1522Y1421D01*
X1515Y1416D01*
X1511Y1410D01*
X1508Y1403D01*
X1507Y1395D01*
X1508Y1387D01*
X1511Y1380D01*
X1515Y1374D01*
Y1366D01*
X1511Y1360D01*
X1508Y1353D01*
X1507Y1345D01*
X1508Y1337D01*
X1511Y1330D01*
X1515Y1324D01*
Y1316D01*
X1511Y1310D01*
X1508Y1303D01*
X1507Y1295D01*
X1508Y1287D01*
X1511Y1280D01*
X1513Y1277D01*
X1508Y1265D01*
X1504Y1260D01*
X1279D01*
X1278Y1261D01*
X1270Y1278D01*
X1274Y1282D01*
X1275D01*
X1285Y1283D01*
X1294Y1287D01*
X1302Y1293D01*
X1308Y1301D01*
X1309Y1305D01*
X1317D01*
X1323Y1306D01*
X1327Y1309D01*
X1367Y1349D01*
X1371Y1354D01*
X1372Y1360D01*
Y1590D01*
X1371Y1596D01*
X1367Y1601D01*
X1302Y1666D01*
X1298Y1669D01*
X1292Y1670D01*
X1078D01*
Y1695D01*
X1007D01*
X1007Y1695D01*
X1003D01*
Y1695D01*
X989Y1695D01*
X932D01*
Y1615D01*
X962D01*
X964Y1612D01*
X955Y1595D01*
X932D01*
Y1565D01*
X836D01*
X791Y1611D01*
X786Y1614D01*
X780Y1615D01*
X755D01*
X749Y1628D01*
X749Y1633D01*
X754Y1640D01*
X639D01*
X644Y1633D01*
X644Y1628D01*
X638Y1615D01*
X606D01*
X601Y1625D01*
X600Y1633D01*
X604Y1640D01*
X606Y1650D01*
X604Y1660D01*
X599Y1669D01*
X590Y1674D01*
X580Y1676D01*
X570Y1674D01*
X556Y1667D01*
X548Y1672D01*
X539Y1674D01*
X468D01*
X459Y1672D01*
X451Y1667D01*
X446Y1659D01*
X444Y1650D01*
X446Y1641D01*
X451Y1633D01*
Y1617D01*
X446Y1609D01*
X444Y1600D01*
X446Y1591D01*
X451Y1583D01*
Y1567D01*
X446Y1559D01*
X444Y1550D01*
X446Y1541D01*
X451Y1533D01*
Y1517D01*
X446Y1509D01*
X444Y1500D01*
X446Y1491D01*
X451Y1483D01*
Y1467D01*
X446Y1459D01*
X445Y1454D01*
X441Y1448D01*
X428Y1440D01*
X364D01*
Y1440D01*
X361D01*
Y1440D01*
X335D01*
Y1400D01*
X325D01*
Y1390D01*
X290D01*
Y1369D01*
X287Y1369D01*
X281Y1364D01*
X246Y1329D01*
X241Y1323D01*
X240Y1315D01*
Y952D01*
X241Y945D01*
X246Y938D01*
X276Y908D01*
X282Y903D01*
X290Y902D01*
X320D01*
X320Y900D01*
X327Y892D01*
X335Y885D01*
X345Y881D01*
X355Y880D01*
X365Y881D01*
X375Y885D01*
X383Y892D01*
X394Y892D01*
X431Y856D01*
X437Y851D01*
X445Y850D01*
X456D01*
X459Y848D01*
X468Y846D01*
X505D01*
Y817D01*
X492Y805D01*
X469Y805D01*
X458D01*
Y765D01*
Y725D01*
X469D01*
X483Y725D01*
X501Y725D01*
X558D01*
Y805D01*
X545D01*
Y842D01*
X558Y851D01*
X575Y845D01*
Y840D01*
X576Y834D01*
X579Y829D01*
X609Y799D01*
X614Y796D01*
X620Y795D01*
X749D01*
X757Y777D01*
X756Y775D01*
X754Y765D01*
X756Y755D01*
X761Y746D01*
X770Y741D01*
X780Y739D01*
X784Y740D01*
X855Y669D01*
Y310D01*
X797Y252D01*
X771D01*
X759Y265D01*
X759Y276D01*
Y308D01*
X759Y308D01*
Y315D01*
X759Y315D01*
Y347D01*
X759Y358D01*
X759Y376D01*
X759Y408D01*
X759Y426D01*
Y426D01*
X706D01*
Y446D01*
X759D01*
Y458D01*
X759Y476D01*
Y497D01*
X759Y508D01*
X759D01*
Y515D01*
X759Y515D01*
Y547D01*
X759Y558D01*
X759D01*
X759Y565D01*
X759Y565D01*
Y608D01*
X746D01*
X733Y625D01*
X731Y635D01*
X725Y644D01*
X717Y649D01*
X707Y651D01*
X697Y649D01*
X688Y644D01*
X686Y641D01*
X686Y641D01*
X667D01*
X667Y641D01*
X665Y644D01*
X657Y649D01*
X647Y651D01*
X637Y649D01*
X628Y644D01*
X622Y635D01*
X621Y630D01*
X611Y622D01*
X603Y620D01*
X537D01*
Y620D01*
X533D01*
Y620D01*
X508D01*
Y580D01*
X498D01*
Y570D01*
X462D01*
Y540D01*
X485D01*
X493Y523D01*
X487Y515D01*
X464D01*
Y485D01*
X350D01*
Y502D01*
X298D01*
Y512D01*
X288D01*
Y551D01*
X255D01*
Y586D01*
X218D01*
Y530D01*
X198D01*
Y586D01*
X165D01*
Y1756D01*
X1756D01*
Y15D01*
D02*
G37*
G36*
X1341Y1584D02*
Y1480D01*
X1324Y1473D01*
X1317Y1479D01*
X1315Y1480D01*
X1310Y1490D01*
X1308Y1498D01*
X1308Y1499D01*
X1308Y1500D01*
X1312Y1509D01*
X1312Y1510D01*
X1232D01*
X1232Y1509D01*
X1232Y1509D01*
X1219Y1494D01*
X1213Y1496D01*
Y1561D01*
X1152D01*
X1147Y1566D01*
X1143Y1569D01*
X1137Y1570D01*
X1078D01*
Y1595D01*
X1051D01*
X1049Y1598D01*
X1059Y1615D01*
X1078D01*
Y1640D01*
X1285D01*
X1341Y1584D01*
D02*
G37*
G36*
X952Y1286D02*
X955Y1281D01*
X986Y1251D01*
X992Y1246D01*
X1000Y1245D01*
X1122D01*
X1129Y1227D01*
X1077Y1175D01*
X1021D01*
X1007Y1175D01*
X989Y1175D01*
X932D01*
Y1135D01*
X835D01*
X829Y1134D01*
X824Y1131D01*
X794Y1101D01*
X791Y1096D01*
X790Y1090D01*
Y991D01*
X784Y985D01*
X755D01*
X749Y998D01*
X749Y1003D01*
X754Y1010D01*
X696D01*
Y1030D01*
X754D01*
X749Y1037D01*
Y1053D01*
X754Y1060D01*
X696D01*
Y1080D01*
X754D01*
X749Y1087D01*
Y1103D01*
X754Y1111D01*
X756Y1120D01*
X754Y1129D01*
X749Y1137D01*
Y1153D01*
X754Y1160D01*
X639D01*
X644Y1153D01*
Y1137D01*
X639Y1129D01*
X637Y1120D01*
X639Y1111D01*
X642Y1106D01*
X642Y1105D01*
X640Y1100D01*
X626Y1091D01*
X626Y1091D01*
X625Y1091D01*
X586Y1131D01*
X581Y1134D01*
X575Y1135D01*
X567D01*
X556Y1151D01*
Y1153D01*
X561Y1161D01*
X563Y1170D01*
X563Y1171D01*
X616Y1225D01*
X850D01*
X856Y1226D01*
X861Y1229D01*
X871Y1240D01*
X875Y1239D01*
X885Y1241D01*
X894Y1246D01*
X899Y1255D01*
X901Y1265D01*
X910Y1274D01*
X920Y1276D01*
X929Y1281D01*
X932Y1287D01*
X945Y1288D01*
X952Y1286D01*
D02*
G37*
G36*
X598Y1292D02*
X594Y1282D01*
X589Y1275D01*
X584Y1274D01*
X579Y1271D01*
X529Y1220D01*
X360D01*
X347Y1233D01*
X355Y1250D01*
X361D01*
X379Y1250D01*
X390D01*
Y1290D01*
X400D01*
Y1300D01*
X436D01*
Y1312D01*
X436Y1330D01*
X453Y1330D01*
X456D01*
X459Y1328D01*
X468Y1326D01*
X539D01*
X548Y1328D01*
X551Y1330D01*
X560D01*
X598Y1292D01*
D02*
G37*
%LPC*%
G36*
X350Y308D02*
X308D01*
Y279D01*
X350D01*
Y308D01*
D02*
G37*
G36*
X395Y810D02*
X365D01*
Y780D01*
X394D01*
X395Y780D01*
X412Y780D01*
Y775D01*
X438D01*
Y805D01*
X412D01*
X412Y805D01*
X395Y805D01*
Y810D01*
D02*
G37*
G36*
X1517Y285D02*
Y255D01*
X1542D01*
Y285D01*
X1517D01*
D02*
G37*
G36*
X1542Y235D02*
X1517D01*
Y205D01*
X1542D01*
Y235D01*
D02*
G37*
G36*
X345Y810D02*
X315D01*
Y780D01*
X345D01*
Y810D01*
D02*
G37*
G36*
X438Y755D02*
X412D01*
Y725D01*
X438D01*
Y755D01*
D02*
G37*
G36*
X488Y620D02*
X462D01*
Y590D01*
X488D01*
Y620D01*
D02*
G37*
G36*
X1661Y660D02*
X1632D01*
Y630D01*
X1661D01*
Y660D01*
D02*
G37*
G36*
Y610D02*
X1632D01*
Y580D01*
X1661D01*
Y610D01*
D02*
G37*
G36*
X350Y551D02*
X308D01*
Y522D01*
X350D01*
Y551D01*
D02*
G37*
G36*
X1319Y725D02*
X1294D01*
Y695D01*
X1319D01*
Y725D01*
D02*
G37*
G36*
X1645Y140D02*
X1618D01*
X1622Y131D01*
X1628Y123D01*
X1636Y117D01*
X1645Y113D01*
Y140D01*
D02*
G37*
G36*
X1692D02*
X1665D01*
Y113D01*
X1674Y117D01*
X1682Y123D01*
X1688Y131D01*
X1692Y140D01*
D02*
G37*
G36*
X307D02*
X280D01*
Y113D01*
X289Y117D01*
X297Y123D01*
X303Y131D01*
X307Y140D01*
D02*
G37*
G36*
X1542Y95D02*
X1517D01*
Y65D01*
X1542D01*
Y95D01*
D02*
G37*
G36*
X260Y140D02*
X233D01*
X237Y131D01*
X243Y123D01*
X251Y117D01*
X260Y113D01*
Y140D01*
D02*
G37*
G36*
X1517Y145D02*
Y115D01*
X1542D01*
Y145D01*
X1517D01*
D02*
G37*
G36*
X1645Y187D02*
X1636Y183D01*
X1628Y177D01*
X1622Y169D01*
X1618Y160D01*
X1645D01*
Y187D01*
D02*
G37*
G36*
X1665D02*
Y160D01*
X1692D01*
X1688Y169D01*
X1682Y177D01*
X1674Y183D01*
X1665Y187D01*
D02*
G37*
G36*
X280D02*
Y160D01*
X307D01*
X303Y169D01*
X297Y177D01*
X289Y183D01*
X280Y187D01*
D02*
G37*
G36*
X488Y145D02*
X462D01*
Y115D01*
X488D01*
Y145D01*
D02*
G37*
G36*
X260Y187D02*
X251Y183D01*
X243Y177D01*
X237Y169D01*
X233Y160D01*
X260D01*
Y187D01*
D02*
G37*
G36*
X315Y1440D02*
X290D01*
Y1410D01*
X315D01*
Y1440D01*
D02*
G37*
G36*
X1537Y1675D02*
X1529Y1674D01*
X1522Y1671D01*
X1515Y1666D01*
X1511Y1660D01*
X1508Y1653D01*
X1507Y1645D01*
X1508Y1637D01*
X1511Y1630D01*
X1515Y1624D01*
Y1616D01*
X1511Y1610D01*
X1508Y1603D01*
X1507Y1595D01*
X1508Y1587D01*
X1511Y1580D01*
X1515Y1574D01*
Y1566D01*
X1511Y1560D01*
X1508Y1553D01*
X1507Y1545D01*
X1508Y1537D01*
X1511Y1530D01*
X1515Y1524D01*
X1522Y1519D01*
X1529Y1516D01*
X1537Y1515D01*
X1544Y1516D01*
X1552Y1519D01*
X1558Y1524D01*
X1565D01*
X1572Y1519D01*
X1577Y1517D01*
Y1545D01*
X1587D01*
Y1555D01*
X1615D01*
X1613Y1560D01*
X1608Y1566D01*
Y1574D01*
X1613Y1580D01*
X1615Y1585D01*
X1587D01*
Y1605D01*
X1615D01*
X1613Y1610D01*
X1608Y1616D01*
Y1624D01*
X1613Y1630D01*
X1615Y1635D01*
X1587D01*
Y1645D01*
X1577D01*
Y1673D01*
X1572Y1671D01*
X1565Y1666D01*
X1558D01*
X1552Y1671D01*
X1544Y1674D01*
X1537Y1675D01*
D02*
G37*
G36*
X1597Y1323D02*
Y1305D01*
X1615D01*
X1613Y1310D01*
X1608Y1316D01*
X1602Y1321D01*
X1597Y1323D01*
D02*
G37*
G36*
X732Y1194D02*
X706D01*
Y1180D01*
X754D01*
X749Y1187D01*
X741Y1192D01*
X732Y1194D01*
D02*
G37*
G36*
X436Y1280D02*
X410D01*
Y1250D01*
X436D01*
Y1280D01*
D02*
G37*
G36*
X1615Y1535D02*
X1597D01*
Y1517D01*
X1602Y1519D01*
X1608Y1524D01*
X1613Y1530D01*
X1615Y1535D01*
D02*
G37*
G36*
X686Y1674D02*
X661D01*
X652Y1672D01*
X644Y1667D01*
X639Y1660D01*
X686D01*
Y1674D01*
D02*
G37*
G36*
X732D02*
X706D01*
Y1660D01*
X754D01*
X749Y1667D01*
X741Y1672D01*
X732Y1674D01*
D02*
G37*
G36*
X1597Y1673D02*
Y1655D01*
X1615D01*
X1613Y1660D01*
X1608Y1666D01*
X1602Y1671D01*
X1597Y1673D01*
D02*
G37*
G36*
X1262Y1560D02*
X1261Y1560D01*
X1251Y1556D01*
X1242Y1549D01*
X1236Y1541D01*
X1232Y1531D01*
X1232Y1530D01*
X1262D01*
Y1560D01*
D02*
G37*
G36*
X1282D02*
Y1530D01*
X1312D01*
X1312Y1531D01*
X1307Y1541D01*
X1301Y1549D01*
X1292Y1556D01*
X1282Y1560D01*
X1282Y1560D01*
D02*
G37*
G36*
X395Y860D02*
X365D01*
Y830D01*
X395D01*
Y860D01*
D02*
G37*
G36*
X1622Y925D02*
X1611Y923D01*
X1602Y919D01*
X1593Y913D01*
X1587Y905D01*
X1583Y895D01*
X1582Y885D01*
X1583Y875D01*
X1587Y865D01*
X1593Y857D01*
X1602Y850D01*
X1611Y846D01*
X1622Y845D01*
X1632Y846D01*
X1642Y850D01*
X1650Y857D01*
X1656Y865D01*
X1660Y875D01*
X1662Y885D01*
X1660Y895D01*
X1656Y905D01*
X1650Y913D01*
X1642Y919D01*
X1632Y923D01*
X1622Y925D01*
D02*
G37*
G36*
X345Y860D02*
X315D01*
Y830D01*
X345D01*
Y860D01*
D02*
G37*
G36*
X1244Y875D02*
X1203D01*
Y814D01*
X1244D01*
Y875D01*
D02*
G37*
G36*
X1306D02*
X1264D01*
Y814D01*
X1306D01*
Y875D01*
D02*
G37*
G36*
X1244Y956D02*
X1203D01*
Y895D01*
X1244D01*
Y956D01*
D02*
G37*
G36*
X1324Y1140D02*
X1299D01*
Y1110D01*
X1324D01*
Y1140D01*
D02*
G37*
G36*
X686Y1194D02*
X661D01*
X652Y1192D01*
X644Y1187D01*
X639Y1180D01*
X686D01*
Y1194D01*
D02*
G37*
G36*
X1324Y1090D02*
X1299D01*
Y1060D01*
X1324D01*
Y1090D01*
D02*
G37*
G36*
X1306Y956D02*
X1264D01*
Y895D01*
X1306D01*
Y956D01*
D02*
G37*
G36*
X1373Y1140D02*
X1356Y1140D01*
X1344D01*
Y1100D01*
Y1060D01*
X1356D01*
X1370Y1060D01*
X1388Y1060D01*
X1437D01*
X1458Y1039D01*
Y1002D01*
X1428D01*
Y949D01*
X1530D01*
Y955D01*
X1552D01*
X1560Y957D01*
X1567Y961D01*
X1570Y965D01*
X1588Y964D01*
X1593Y957D01*
X1602Y950D01*
X1611Y946D01*
X1622Y945D01*
X1632Y946D01*
X1642Y950D01*
X1650Y957D01*
X1656Y965D01*
X1660Y975D01*
X1662Y985D01*
X1660Y995D01*
X1656Y1005D01*
X1650Y1013D01*
X1642Y1019D01*
X1632Y1023D01*
X1622Y1025D01*
X1611Y1023D01*
X1602Y1019D01*
X1593Y1013D01*
X1589Y1007D01*
X1562D01*
X1554Y1005D01*
X1547Y1001D01*
X1530Y1002D01*
Y1002D01*
X1499D01*
Y1048D01*
X1498Y1056D01*
X1493Y1062D01*
X1456Y1099D01*
X1449Y1104D01*
X1445Y1105D01*
Y1140D01*
X1388D01*
X1373Y1140D01*
D02*
G37*
%LPD*%
D10*
X1307Y100D02*
D03*
Y270D02*
D03*
D11*
X1005Y1037D02*
D03*
Y883D02*
D03*
D12*
X1479Y794D02*
D03*
Y885D02*
D03*
Y976D02*
D03*
D13*
X1254Y885D02*
D03*
D14*
X1409Y1100D02*
D03*
X1334D02*
D03*
X1329Y685D02*
D03*
X1404D02*
D03*
X325Y1290D02*
D03*
X400D02*
D03*
X1042Y1135D02*
D03*
X968D02*
D03*
X572Y580D02*
D03*
X498D02*
D03*
X572Y155D02*
D03*
X498D02*
D03*
X572Y235D02*
D03*
X498D02*
D03*
X498Y315D02*
D03*
X572D02*
D03*
Y395D02*
D03*
X498D02*
D03*
X574Y475D02*
D03*
X499D02*
D03*
X400Y1400D02*
D03*
X325D02*
D03*
X448Y765D02*
D03*
X522D02*
D03*
X1507Y105D02*
D03*
X1432D02*
D03*
Y245D02*
D03*
X1507D02*
D03*
X1042Y1420D02*
D03*
X968D02*
D03*
Y1555D02*
D03*
X1042D02*
D03*
Y1340D02*
D03*
X968D02*
D03*
Y1655D02*
D03*
X1042D02*
D03*
D15*
X706Y586D02*
D03*
X1084D02*
D03*
Y536D02*
D03*
Y486D02*
D03*
Y436D02*
D03*
Y386D02*
D03*
Y336D02*
D03*
Y286D02*
D03*
Y236D02*
D03*
Y186D02*
D03*
Y136D02*
D03*
D16*
X706Y536D02*
D03*
Y486D02*
D03*
Y436D02*
D03*
Y386D02*
D03*
Y336D02*
D03*
Y286D02*
D03*
Y236D02*
D03*
Y186D02*
D03*
Y136D02*
D03*
D17*
X1417Y448D02*
D03*
Y522D02*
D03*
X1192Y202D02*
D03*
Y128D02*
D03*
X1212Y522D02*
D03*
Y448D02*
D03*
X1327D02*
D03*
Y522D02*
D03*
D18*
X696Y1350D02*
D03*
Y1400D02*
D03*
Y1450D02*
D03*
Y1500D02*
D03*
Y1550D02*
D03*
Y1600D02*
D03*
Y1650D02*
D03*
X504Y1350D02*
D03*
Y1400D02*
D03*
Y1450D02*
D03*
Y1500D02*
D03*
Y1550D02*
D03*
Y1600D02*
D03*
Y1650D02*
D03*
X696Y870D02*
D03*
Y920D02*
D03*
Y970D02*
D03*
Y1020D02*
D03*
Y1070D02*
D03*
Y1120D02*
D03*
Y1170D02*
D03*
X504Y870D02*
D03*
Y920D02*
D03*
Y970D02*
D03*
Y1020D02*
D03*
Y1070D02*
D03*
Y1120D02*
D03*
Y1170D02*
D03*
D19*
X298Y512D02*
D03*
Y318D02*
D03*
D20*
X312Y441D02*
D03*
Y466D02*
D03*
Y364D02*
D03*
Y389D02*
D03*
Y415D02*
D03*
D21*
X208Y448D02*
D03*
Y382D02*
D03*
D22*
Y300D02*
D03*
Y530D02*
D03*
D23*
X325Y1233D02*
X355Y1203D01*
Y1122D02*
Y1203D01*
X353Y1205D02*
X535D01*
X325Y1233D02*
Y1290D01*
X535Y1205D02*
X590Y1260D01*
X415Y1080D02*
Y1140D01*
X355Y1020D02*
X415Y1080D01*
X506Y1400D02*
X558D01*
X647Y560D02*
Y625D01*
X707Y587D02*
Y625D01*
X540Y1170D02*
X610Y1240D01*
X706Y236D02*
X803D01*
X706Y186D02*
X793D01*
X706Y136D02*
X785D01*
X1147Y536D02*
Y610D01*
X920Y837D02*
X1147Y610D01*
X1047Y585D02*
X1052Y590D01*
X1147Y536D02*
X1198D01*
X1084D02*
X1147D01*
X323Y970D02*
X504D01*
X300Y993D02*
X323Y970D01*
X445Y1170D02*
X504D01*
X415Y1140D02*
X445Y1170D01*
X504Y1070D02*
X575D01*
X487Y300D02*
Y315D01*
X387Y415D02*
X487Y315D01*
X1084Y436D02*
X1135D01*
X1477Y575D02*
X1522Y620D01*
X1302Y575D02*
X1477D01*
X1437Y600D02*
X1507Y670D01*
X1287Y600D02*
X1437D01*
X1293Y125D02*
X1312Y106D01*
X1204Y125D02*
X1293D01*
X694Y970D02*
X696D01*
X694Y870D02*
X696D01*
X1262Y1420D02*
X1272D01*
X1212Y1370D02*
X1262Y1420D01*
X1138Y1370D02*
X1212D01*
X1101Y1500D02*
X1133Y1468D01*
X1507Y670D02*
X1552D01*
X653Y336D02*
X673D01*
X572Y155D02*
Y208D01*
X574Y390D02*
X722D01*
X447D02*
X499D01*
X506Y920D02*
Y970D01*
X504D02*
X506D01*
X647Y560D02*
X670Y536D01*
X706D01*
X711Y591D02*
X717Y585D01*
X1044Y1120D02*
X1169Y1245D01*
X1332Y396D02*
Y459D01*
X1327Y526D02*
X1405Y448D01*
X300Y1067D02*
X355Y1122D01*
Y1120D02*
Y1122D01*
X300Y993D02*
Y1067D01*
X1088Y1420D02*
X1138Y1370D01*
X1044Y1420D02*
X1088D01*
X585Y1500D02*
X615Y1470D01*
Y1425D02*
Y1470D01*
X640Y1400D02*
X694D01*
X1169Y1245D02*
X1537D01*
X1084Y136D02*
X1163D01*
X506Y1400D02*
Y1450D01*
X1044Y1320D02*
Y1420D01*
X647Y1170D02*
X694D01*
X506Y1550D02*
Y1600D01*
Y1020D02*
X560D01*
X1084Y486D02*
Y536D01*
X1552Y670D02*
X1572Y650D01*
Y520D02*
Y650D01*
X1327Y526D02*
X1338D01*
X1405Y448D02*
X1417D01*
X1084Y186D02*
X1188D01*
X1314Y260D02*
X1412D01*
X1314Y90D02*
X1412D01*
X1272Y1320D02*
X1317D01*
X504Y1170D02*
X540D01*
X1127Y1420D02*
X1172D01*
X1044Y1555D02*
X1137D01*
X1172Y1520D01*
X951Y1550D02*
Y1573D01*
X977D01*
X982Y1568D01*
X1044Y1655D02*
X1292D01*
X969D02*
X986Y1639D01*
X1317Y1320D02*
X1357Y1360D01*
Y1590D01*
X1292Y1655D02*
X1357Y1590D01*
X1172Y1320D02*
X1202D01*
X1252Y1370D01*
X1312D01*
X1327Y1385D01*
Y1448D01*
X1307Y1468D02*
X1327Y1448D01*
X1133Y1468D02*
X1307D01*
X506Y1650D02*
X580D01*
X986Y1626D02*
Y1639D01*
Y1626D02*
X1044Y1568D01*
Y1555D02*
Y1568D01*
X1292Y396D02*
X1332D01*
X1212Y448D02*
X1239D01*
X1084Y386D02*
X1135D01*
X1282Y425D02*
Y555D01*
X1302Y575D01*
X1239Y448D02*
X1262Y470D01*
Y575D01*
X1287Y600D01*
X312Y415D02*
X387D01*
X312Y441D02*
X396D01*
X447Y390D01*
X208Y300D02*
Y382D01*
Y448D01*
Y530D01*
X910Y1500D02*
X1101D01*
X1082Y1465D02*
X1127Y1420D01*
X875Y1465D02*
X1082D01*
X905Y1055D02*
Y1090D01*
Y1055D02*
X920Y1040D01*
X696Y1450D02*
X701Y1445D01*
X969Y1419D02*
X969Y1420D01*
X696Y1500D02*
X790D01*
X696Y1450D02*
X805D01*
X615Y1425D02*
X640Y1400D01*
X504Y1500D02*
X585D01*
X696Y920D02*
X820D01*
X805Y1090D02*
X835Y1120D01*
X805Y985D02*
Y1090D01*
X790Y970D02*
X805Y985D01*
X696Y970D02*
X790D01*
X835Y1120D02*
X969D01*
X558Y1400D02*
X643Y1315D01*
X694Y1350D02*
Y1400D01*
X610Y1240D02*
X850D01*
X875Y1265D01*
X506Y1120D02*
X575D01*
X615Y1080D01*
X560Y1020D02*
X590Y990D01*
X574Y300D02*
X617D01*
X653Y336D01*
X574Y210D02*
Y219D01*
X641Y286D01*
X706D01*
X590Y1260D02*
X825D01*
X865Y1300D01*
X910D01*
X780Y1315D02*
X810Y1345D01*
X643Y1315D02*
X780D01*
X1559Y420D02*
X1622D01*
X1535Y396D02*
X1559Y420D01*
X1332Y396D02*
X1535D01*
X920Y837D02*
Y1040D01*
X895Y825D02*
Y1000D01*
Y825D02*
X1052Y668D01*
Y590D02*
Y668D01*
X850Y835D02*
Y1000D01*
X696Y870D02*
X780D01*
X615Y855D02*
Y1080D01*
Y855D02*
X635Y835D01*
X590Y840D02*
Y990D01*
Y840D02*
X620Y810D01*
X780D01*
X635Y835D02*
X785D01*
X850Y1045D02*
X895Y1000D01*
X850Y1045D02*
Y1055D01*
X696Y1550D02*
X785D01*
X835Y1500D01*
X506Y1600D02*
X780D01*
X830Y1550D01*
X951D01*
X696Y1400D02*
X830D01*
X849Y1419D01*
X969D01*
X1135Y436D02*
X1167Y405D01*
X1262D01*
X1282Y425D01*
X1135Y386D02*
X1142Y380D01*
X1275D01*
X1292Y396D01*
X1192Y202D02*
X1223Y234D01*
X1307D01*
X803Y236D02*
X870Y303D01*
Y675D01*
X780Y765D02*
X870Y675D01*
X793Y186D02*
X895Y288D01*
Y695D01*
X780Y810D02*
X895Y695D01*
X785Y136D02*
X920Y272D01*
Y700D01*
X785Y835D02*
X920Y700D01*
X850Y835D02*
X1020Y665D01*
Y466D02*
Y665D01*
Y466D02*
X1050Y436D01*
X1084D01*
X780Y870D02*
X1000Y650D01*
Y386D02*
Y650D01*
Y386D02*
X1050Y336D01*
X1084D01*
D24*
X568Y1350D02*
X633Y1285D01*
X504Y1350D02*
X568D01*
X295D02*
X504D01*
X260Y1315D02*
X295Y1350D01*
X260Y952D02*
Y1315D01*
X525Y768D02*
Y870D01*
X504D02*
X525D01*
X1227Y630D02*
X1382D01*
X1102Y755D02*
X1227Y630D01*
X260Y952D02*
X290Y922D01*
X445Y870D02*
X504D01*
X290Y922D02*
X355D01*
Y920D02*
X395D01*
X445Y870D01*
X1382Y630D02*
X1404Y652D01*
X1137Y236D02*
X1166Y265D01*
X1479Y756D02*
Y794D01*
X1418Y695D02*
X1479Y756D01*
X1404Y695D02*
X1418D01*
X1479Y976D02*
Y1048D01*
X1442Y1085D02*
X1479Y1048D01*
X1427Y1085D02*
X1442D01*
X1404Y652D02*
Y695D01*
X1552Y785D02*
X1606D01*
X1542Y794D02*
X1552Y785D01*
X1479Y794D02*
X1542D01*
X1562Y986D02*
X1622D01*
X1479Y976D02*
X1552D01*
X1562Y985D01*
X1479Y794D02*
Y885D01*
X640Y436D02*
X706D01*
X632Y445D02*
X640Y436D01*
X602Y475D02*
X632Y445D01*
X574Y475D02*
X602D01*
X655Y486D02*
X706D01*
X1429Y520D02*
X1572D01*
X1222Y1270D02*
X1272Y1320D01*
X400Y1352D02*
Y1400D01*
X706Y436D02*
X802D01*
X1572Y520D02*
X1622D01*
X1084Y236D02*
X1137D01*
X490Y466D02*
X499Y475D01*
X1145Y1270D02*
X1222D01*
X633Y1285D02*
X805D01*
X865Y1345D01*
X1140Y1265D02*
X1145Y1270D01*
X963Y1345D02*
X968Y1340D01*
X865Y1345D02*
X963D01*
X969Y1296D02*
Y1320D01*
Y1296D02*
X1000Y1265D01*
X1140D01*
X1032Y1012D02*
X1063D01*
X1102Y973D01*
Y755D02*
Y973D01*
X615Y527D02*
X655Y486D01*
X572Y533D02*
Y590D01*
X499Y494D02*
X532Y527D01*
X615D01*
X499Y475D02*
Y494D01*
X1047Y763D02*
Y880D01*
Y763D02*
X1190Y620D01*
D25*
X312Y466D02*
X490D01*
D26*
X1622Y985D02*
D03*
Y885D02*
D03*
X1522Y620D02*
D03*
X355Y920D02*
D03*
Y1020D02*
D03*
Y1120D02*
D03*
X1622Y420D02*
D03*
Y520D02*
D03*
D27*
Y785D02*
D03*
X355Y820D02*
D03*
X1622Y620D02*
D03*
D28*
D03*
D29*
X1272Y1520D02*
D03*
X1172Y1420D02*
D03*
Y1320D02*
D03*
D30*
X1272Y1420D02*
D03*
Y1320D02*
D03*
D31*
X1172Y1520D02*
D03*
D32*
X1587Y1195D02*
D03*
D33*
X1537D02*
D03*
X1587Y1245D02*
D03*
X1537D02*
D03*
X1587Y1295D02*
D03*
X1537D02*
D03*
Y1345D02*
D03*
X1587Y1395D02*
D03*
X1537D02*
D03*
X1587Y1545D02*
D03*
X1537D02*
D03*
X1587Y1595D02*
D03*
X1537D02*
D03*
X1587Y1645D02*
D03*
X1537D02*
D03*
D34*
X1655Y150D02*
D03*
X270D02*
D03*
D35*
X707Y625D02*
D03*
X535Y1290D02*
D03*
X1240Y770D02*
D03*
X1247Y1030D02*
D03*
X1312Y1190D02*
D03*
X1532Y725D02*
D03*
X632Y445D02*
D03*
X817Y370D02*
D03*
X632Y185D02*
D03*
X1409Y175D02*
D03*
X1457Y1510D02*
D03*
X1200Y1190D02*
D03*
X575Y1070D02*
D03*
X470Y1290D02*
D03*
X1165Y1700D02*
D03*
X1157Y965D02*
D03*
Y805D02*
D03*
X1347Y965D02*
D03*
Y805D02*
D03*
X1035Y1200D02*
D03*
X405Y1485D02*
D03*
X710Y765D02*
D03*
X955Y195D02*
D03*
X425Y275D02*
D03*
X810Y1660D02*
D03*
X400Y1630D02*
D03*
X1157Y885D02*
D03*
X1347D02*
D03*
X580Y1650D02*
D03*
X815Y480D02*
D03*
X910Y1500D02*
D03*
X875Y1465D02*
D03*
X905Y1090D02*
D03*
X790Y1500D02*
D03*
X815Y605D02*
D03*
X850Y1000D02*
D03*
X805Y1450D02*
D03*
X820Y920D02*
D03*
X890Y1200D02*
D03*
X605Y1160D02*
D03*
X647Y625D02*
D03*
X875Y1265D02*
D03*
X910Y1300D02*
D03*
X810Y1345D02*
D03*
X780Y765D02*
D03*
X850Y1055D02*
D03*
X835Y1500D02*
D03*
X960Y605D02*
D03*
Y480D02*
D03*
Y365D02*
D03*
X615Y527D02*
D03*
D36*
X1190Y620D02*
D03*
M02*
