G04 Layer_Color=8421504*
%FSLAX23Y23*%
%MOIN*%
G70*
G01*
G75*
%ADD10R,0.051X0.059*%
%ADD11R,0.094X0.083*%
%ADD12R,0.102X0.031*%
%ADD13R,0.110X0.020*%
%ADD14R,0.098X0.079*%
%ADD15R,0.047X0.047*%
%ADD16R,0.059X0.051*%
%ADD17R,0.079X0.087*%
%ADD18O,0.087X0.024*%
%ADD19R,0.087X0.024*%
%ADD20R,0.087X0.024*%
%ADD24R,0.085X0.071*%
%ADD49R,0.065X0.134*%
%ADD50R,0.065X0.039*%
%ADD51R,0.065X0.039*%
%ADD52R,0.130X0.071*%
D10*
X1610Y310D02*
D03*
X1685D02*
D03*
X1610Y170D02*
D03*
X1685D02*
D03*
X707Y560D02*
D03*
X633D02*
D03*
X707Y470D02*
D03*
X633D02*
D03*
X707Y380D02*
D03*
X633D02*
D03*
Y290D02*
D03*
X707D02*
D03*
X1113Y1500D02*
D03*
X1187D02*
D03*
X1113Y1635D02*
D03*
X1187D02*
D03*
Y1400D02*
D03*
X1113D02*
D03*
X1113Y1735D02*
D03*
X1187D02*
D03*
X293Y1550D02*
D03*
X367D02*
D03*
X1503Y755D02*
D03*
X1577D02*
D03*
X1187Y1200D02*
D03*
X1113D02*
D03*
Y1300D02*
D03*
X1187D02*
D03*
X293Y1440D02*
D03*
X367D02*
D03*
X487Y910D02*
D03*
X413D02*
D03*
D11*
X1493Y325D02*
D03*
Y155D02*
D03*
D12*
Y299D02*
D03*
Y240D02*
D03*
Y181D02*
D03*
D13*
X342Y490D02*
D03*
Y521D02*
D03*
Y427D02*
D03*
Y459D02*
D03*
Y553D02*
D03*
D14*
X328Y684D02*
D03*
X112D02*
D03*
Y296D02*
D03*
X328D02*
D03*
D15*
X1505Y596D02*
D03*
Y514D02*
D03*
D16*
X1400Y657D02*
D03*
Y583D02*
D03*
X1370Y203D02*
D03*
Y277D02*
D03*
X1595Y518D02*
D03*
Y592D02*
D03*
X1685Y518D02*
D03*
Y592D02*
D03*
D17*
X601Y185D02*
D03*
X719D02*
D03*
X689Y675D02*
D03*
X571D02*
D03*
D18*
X684Y1020D02*
D03*
Y1070D02*
D03*
Y1120D02*
D03*
Y1170D02*
D03*
Y1220D02*
D03*
Y1270D02*
D03*
Y1320D02*
D03*
X496Y1020D02*
D03*
Y1070D02*
D03*
Y1120D02*
D03*
Y1170D02*
D03*
Y1220D02*
D03*
Y1270D02*
D03*
Y1320D02*
D03*
Y1800D02*
D03*
Y1750D02*
D03*
Y1700D02*
D03*
Y1650D02*
D03*
Y1600D02*
D03*
Y1550D02*
D03*
Y1500D02*
D03*
X684Y1800D02*
D03*
Y1750D02*
D03*
Y1700D02*
D03*
Y1650D02*
D03*
Y1600D02*
D03*
Y1550D02*
D03*
Y1500D02*
D03*
D19*
X884Y266D02*
D03*
Y216D02*
D03*
Y316D02*
D03*
Y466D02*
D03*
Y516D02*
D03*
Y566D02*
D03*
Y616D02*
D03*
Y366D02*
D03*
Y416D02*
D03*
D20*
X1262Y216D02*
D03*
Y266D02*
D03*
Y316D02*
D03*
Y366D02*
D03*
Y416D02*
D03*
Y466D02*
D03*
Y516D02*
D03*
Y566D02*
D03*
Y616D02*
D03*
Y666D02*
D03*
X884D02*
D03*
D24*
X1466Y1150D02*
D03*
X1604D02*
D03*
D49*
X1410Y950D02*
D03*
D50*
X1670D02*
D03*
Y1041D02*
D03*
D51*
X1670Y859D02*
D03*
D52*
X1150Y1077D02*
D03*
Y923D02*
D03*
M02*
