G04 Layer_Color=8421504*
%FSLAX23Y23*%
%MOIN*%
G70*
G01*
G75*
%ADD10R,0.059X0.051*%
%ADD11R,0.063X0.071*%
%ADD12R,0.051X0.059*%
%ADD13R,0.087X0.024*%
%ADD14R,0.087X0.024*%
%ADD15R,0.098X0.079*%
%ADD16R,0.110X0.020*%
%ADD17O,0.098X0.028*%
%ADD18R,0.134X0.075*%
%ADD19R,0.083X0.122*%
%ADD20R,0.083X0.033*%
%ADD21R,0.094X0.083*%
D10*
X1505Y592D02*
D03*
Y518D02*
D03*
X1595Y592D02*
D03*
Y518D02*
D03*
X1370Y203D02*
D03*
Y277D02*
D03*
X1400Y657D02*
D03*
Y583D02*
D03*
X1685Y592D02*
D03*
Y518D02*
D03*
D11*
X1480Y1150D02*
D03*
X1590D02*
D03*
X685Y675D02*
D03*
X575D02*
D03*
Y185D02*
D03*
X685D02*
D03*
D12*
X1577Y755D02*
D03*
X1503D02*
D03*
X633Y290D02*
D03*
X707D02*
D03*
Y560D02*
D03*
X633D02*
D03*
X293Y1550D02*
D03*
X367D02*
D03*
X487Y910D02*
D03*
X413D02*
D03*
X1610Y170D02*
D03*
X1685D02*
D03*
Y310D02*
D03*
X1610D02*
D03*
X367Y1440D02*
D03*
X293D02*
D03*
X1113Y1200D02*
D03*
X1187D02*
D03*
X707Y380D02*
D03*
X633D02*
D03*
Y470D02*
D03*
X707D02*
D03*
X1113Y1500D02*
D03*
X1187D02*
D03*
Y1635D02*
D03*
X1113D02*
D03*
Y1400D02*
D03*
X1187D02*
D03*
Y1735D02*
D03*
X1113D02*
D03*
Y1300D02*
D03*
X1187D02*
D03*
D13*
X1262Y216D02*
D03*
Y266D02*
D03*
Y316D02*
D03*
Y366D02*
D03*
Y416D02*
D03*
Y466D02*
D03*
Y516D02*
D03*
Y566D02*
D03*
Y616D02*
D03*
Y666D02*
D03*
X884D02*
D03*
D14*
Y216D02*
D03*
Y266D02*
D03*
Y316D02*
D03*
Y366D02*
D03*
Y416D02*
D03*
Y466D02*
D03*
Y516D02*
D03*
Y566D02*
D03*
Y616D02*
D03*
D15*
X328Y296D02*
D03*
X112D02*
D03*
Y684D02*
D03*
X328D02*
D03*
D16*
X342Y553D02*
D03*
Y459D02*
D03*
Y427D02*
D03*
Y521D02*
D03*
Y490D02*
D03*
D17*
X494Y1800D02*
D03*
Y1750D02*
D03*
Y1700D02*
D03*
Y1650D02*
D03*
Y1600D02*
D03*
Y1550D02*
D03*
Y1500D02*
D03*
X686Y1800D02*
D03*
Y1750D02*
D03*
Y1700D02*
D03*
Y1650D02*
D03*
Y1600D02*
D03*
Y1550D02*
D03*
Y1500D02*
D03*
X494Y1320D02*
D03*
Y1270D02*
D03*
Y1220D02*
D03*
Y1170D02*
D03*
Y1120D02*
D03*
Y1070D02*
D03*
Y1020D02*
D03*
X686Y1320D02*
D03*
Y1270D02*
D03*
Y1220D02*
D03*
Y1170D02*
D03*
Y1120D02*
D03*
Y1070D02*
D03*
Y1020D02*
D03*
D18*
X1150Y923D02*
D03*
Y1077D02*
D03*
D19*
X1418Y950D02*
D03*
D20*
X1642Y1041D02*
D03*
Y950D02*
D03*
Y859D02*
D03*
D21*
X1485Y325D02*
D03*
Y155D02*
D03*
M02*
