G04 Layer_Color=65535*
%FSLAX23Y23*%
%MOIN*%
G70*
G01*
G75*
%ADD23C,0.010*%
%ADD38C,0.010*%
%ADD39C,0.008*%
%ADD40C,0.008*%
%ADD41C,0.004*%
%ADD42C,0.012*%
%ADD43C,0.005*%
%ADD44C,0.007*%
%ADD45R,0.090X0.085*%
G36*
X173Y1854D02*
X173Y1854D01*
Y1853D01*
Y1853D01*
X177Y1833D01*
Y1833D01*
X177Y1833D01*
X178Y1832D01*
X178D01*
X191Y1827D01*
X193D01*
X209Y1838D01*
X210D01*
X210Y1838D01*
X225Y1824D01*
Y1824D01*
Y1823D01*
Y1823D01*
Y1823D01*
X213Y1806D01*
Y1806D01*
Y1806D01*
Y1806D01*
Y1805D01*
Y1805D01*
X219Y1791D01*
X219Y1791D01*
X220Y1790D01*
X220D01*
X239Y1787D01*
X240D01*
X240Y1787D01*
Y1786D01*
Y1786D01*
Y1766D01*
X240Y1766D01*
X239Y1765D01*
X239D01*
X221Y1761D01*
X220D01*
X220Y1761D01*
Y1761D01*
Y1761D01*
X214Y1746D01*
Y1745D01*
Y1745D01*
Y1745D01*
Y1745D01*
X225Y1729D01*
Y1729D01*
Y1728D01*
Y1728D01*
X210Y1714D01*
X210Y1714D01*
X209D01*
X209Y1714D01*
X194Y1724D01*
X193D01*
X186Y1720D01*
X185Y1721D01*
X184Y1721D01*
X171Y1755D01*
X171Y1756D01*
X171Y1756D01*
X173Y1757D01*
X173Y1757D01*
X174D01*
X174Y1758D01*
X174Y1758D01*
X178Y1760D01*
X180Y1763D01*
X181Y1766D01*
X183Y1769D01*
X183Y1771D01*
X184Y1774D01*
X184Y1775D01*
Y1776D01*
X184Y1779D01*
X183Y1782D01*
X182Y1784D01*
X181Y1787D01*
X179Y1789D01*
X179Y1790D01*
X178Y1791D01*
X178Y1791D01*
X175Y1793D01*
X173Y1795D01*
X170Y1796D01*
X168Y1797D01*
X165Y1798D01*
X164Y1798D01*
X162D01*
X159Y1798D01*
X156Y1797D01*
X153Y1796D01*
X151Y1794D01*
X149Y1793D01*
X148Y1792D01*
X147Y1791D01*
X147Y1791D01*
X145Y1789D01*
X143Y1786D01*
X142Y1783D01*
X141Y1781D01*
X141Y1779D01*
X141Y1777D01*
Y1776D01*
Y1776D01*
X141Y1771D01*
X142Y1768D01*
X144Y1765D01*
X146Y1762D01*
X148Y1760D01*
X149Y1759D01*
X150Y1758D01*
X151Y1758D01*
X151Y1757D01*
X151Y1757D01*
X151Y1757D01*
X153Y1756D01*
X154Y1755D01*
Y1755D01*
Y1755D01*
X140Y1721D01*
X139Y1721D01*
X139Y1720D01*
X139D01*
X132Y1724D01*
X131D01*
X116Y1714D01*
X115Y1714D01*
X114D01*
X114Y1714D01*
X100Y1728D01*
Y1728D01*
Y1728D01*
Y1729D01*
X111Y1745D01*
Y1745D01*
Y1745D01*
Y1746D01*
Y1746D01*
X105Y1761D01*
X104Y1761D01*
X104Y1761D01*
X104D01*
X85Y1765D01*
X85Y1766D01*
X84Y1766D01*
Y1766D01*
Y1786D01*
Y1787D01*
X85Y1787D01*
X85D01*
X104Y1790D01*
X105Y1791D01*
X105Y1791D01*
Y1791D01*
X111Y1805D01*
Y1805D01*
Y1806D01*
Y1806D01*
Y1806D01*
X100Y1823D01*
Y1823D01*
Y1823D01*
Y1824D01*
Y1824D01*
X114Y1838D01*
X114Y1838D01*
X116D01*
X132Y1827D01*
X133D01*
X147Y1832D01*
X147Y1833D01*
X148Y1833D01*
Y1833D01*
Y1833D01*
X151Y1853D01*
Y1854D01*
X152Y1854D01*
X172D01*
X173Y1854D01*
D02*
G37*
G36*
X1754Y1173D02*
X1689D01*
X1724Y1227D01*
X1754Y1173D01*
D02*
G37*
G36*
X1316Y1669D02*
X1286Y1724D01*
X1350D01*
X1316Y1669D01*
D02*
G37*
D23*
X1548Y122D02*
Y358D01*
X1422Y122D02*
Y358D01*
X1572Y705D02*
X1558D01*
X1565D01*
Y672D01*
X1558Y665D01*
X1552D01*
X1545Y672D01*
X1585Y665D02*
Y705D01*
X1605D01*
X1612Y698D01*
Y685D01*
X1605Y678D01*
X1585D01*
X1625Y665D02*
X1638D01*
X1632D01*
Y705D01*
X1625Y698D01*
X1700Y907D02*
Y893D01*
Y900D01*
X1733D01*
X1740Y893D01*
Y887D01*
X1733Y880D01*
X1740Y920D02*
X1700D01*
Y940D01*
X1707Y947D01*
X1720D01*
X1727Y940D01*
Y920D01*
X1740Y987D02*
Y960D01*
X1713Y987D01*
X1707D01*
X1700Y980D01*
Y967D01*
X1707Y960D01*
X1022Y1020D02*
X995D01*
Y1000D01*
X1008D01*
X995D01*
Y980D01*
X1035D02*
X1048D01*
X1042D01*
Y1020D01*
X1035Y1013D01*
X1380Y1075D02*
Y1042D01*
X1387Y1035D01*
X1400D01*
X1407Y1042D01*
Y1075D01*
X1447Y1035D02*
X1420D01*
X1447Y1062D01*
Y1068D01*
X1440Y1075D01*
X1427D01*
X1420Y1068D01*
X1362Y1163D02*
X1355Y1170D01*
X1342D01*
X1335Y1163D01*
Y1137D01*
X1342Y1130D01*
X1355D01*
X1362Y1137D01*
X1375D02*
X1382Y1130D01*
X1395D01*
X1402Y1137D01*
Y1163D01*
X1395Y1170D01*
X1382D01*
X1375Y1163D01*
Y1157D01*
X1382Y1150D01*
X1402D01*
X1397Y788D02*
X1390Y795D01*
X1377D01*
X1370Y788D01*
Y762D01*
X1377Y755D01*
X1390D01*
X1397Y762D01*
X1410Y788D02*
X1417Y795D01*
X1430D01*
X1437Y788D01*
Y782D01*
X1430Y775D01*
X1437Y768D01*
Y762D01*
X1430Y755D01*
X1417D01*
X1410Y762D01*
Y768D01*
X1417Y775D01*
X1410Y782D01*
Y788D01*
X1417Y775D02*
X1430D01*
X145Y1420D02*
Y1460D01*
X165D01*
X172Y1453D01*
Y1440D01*
X165Y1433D01*
X145D01*
X158D02*
X172Y1420D01*
X185D02*
X198D01*
X192D01*
Y1460D01*
X185Y1453D01*
X218D02*
X225Y1460D01*
X238D01*
X245Y1453D01*
Y1447D01*
X238Y1440D01*
X232D01*
X238D01*
X245Y1433D01*
Y1427D01*
X238Y1420D01*
X225D01*
X218Y1427D01*
X950Y1185D02*
Y1225D01*
X970D01*
X977Y1218D01*
Y1205D01*
X970Y1198D01*
X950D01*
X963D02*
X977Y1185D01*
X990D02*
X1003D01*
X997D01*
Y1225D01*
X990Y1218D01*
X1050Y1185D02*
X1023D01*
X1050Y1212D01*
Y1218D01*
X1043Y1225D01*
X1030D01*
X1023Y1218D01*
X225Y863D02*
Y903D01*
X245D01*
X252Y896D01*
Y883D01*
X245Y876D01*
X225D01*
X285Y863D02*
Y903D01*
X265Y883D01*
X292D01*
X1409Y1690D02*
Y1730D01*
X1429D01*
X1436Y1723D01*
Y1710D01*
X1429Y1703D01*
X1409D01*
X1449Y1690D02*
X1462D01*
X1456D01*
Y1730D01*
X1449Y1723D01*
X1050Y765D02*
Y732D01*
X1057Y725D01*
X1070D01*
X1077Y732D01*
Y765D01*
X1090Y725D02*
X1103D01*
X1097D01*
Y765D01*
X1090Y758D01*
X1765Y380D02*
Y420D01*
X1785D01*
X1792Y413D01*
Y400D01*
X1785Y393D01*
X1765D01*
X1832Y380D02*
X1805D01*
X1832Y407D01*
Y413D01*
X1825Y420D01*
X1812D01*
X1805Y413D01*
X1630Y400D02*
X1590D01*
Y420D01*
X1597Y427D01*
X1610D01*
X1617Y420D01*
Y400D01*
Y413D02*
X1630Y427D01*
X1590Y440D02*
Y467D01*
X1597D01*
X1623Y440D01*
X1630D01*
X457Y683D02*
X450Y690D01*
X437D01*
X430Y683D01*
Y657D01*
X437Y650D01*
X450D01*
X457Y657D01*
X497Y690D02*
X483Y683D01*
X470Y670D01*
Y657D01*
X477Y650D01*
X490D01*
X497Y657D01*
Y663D01*
X490Y670D01*
X470D01*
X462Y193D02*
X455Y200D01*
X442D01*
X435Y193D01*
Y167D01*
X442Y160D01*
X455D01*
X462Y167D01*
X502Y200D02*
X475D01*
Y180D01*
X488Y187D01*
X495D01*
X502Y180D01*
Y167D01*
X495Y160D01*
X482D01*
X475Y167D01*
X1340Y100D02*
Y140D01*
X1360D01*
X1367Y133D01*
Y120D01*
X1360Y113D01*
X1340D01*
X1353D02*
X1367Y100D01*
X1407D02*
X1380D01*
X1407Y127D01*
Y133D01*
X1400Y140D01*
X1387D01*
X1380Y133D01*
X527Y303D02*
X520Y310D01*
X507D01*
X500Y303D01*
Y277D01*
X507Y270D01*
X520D01*
X527Y277D01*
X540Y303D02*
X547Y310D01*
X560D01*
X567Y303D01*
Y297D01*
X560Y290D01*
X553D01*
X560D01*
X567Y283D01*
Y277D01*
X560Y270D01*
X547D01*
X540Y277D01*
X485Y360D02*
Y400D01*
X505D01*
X512Y393D01*
Y380D01*
X505Y373D01*
X485D01*
X498D02*
X512Y360D01*
X525D02*
X538D01*
X532D01*
Y400D01*
X525Y393D01*
X558Y360D02*
X572D01*
X565D01*
Y400D01*
X558Y393D01*
X505Y450D02*
Y490D01*
X525D01*
X532Y483D01*
Y470D01*
X525Y463D01*
X505D01*
X518D02*
X532Y450D01*
X545Y483D02*
X552Y490D01*
X565D01*
X572Y483D01*
Y477D01*
X565Y470D01*
X572Y463D01*
Y457D01*
X565Y450D01*
X552D01*
X545Y457D01*
Y463D01*
X552Y470D01*
X545Y477D01*
Y483D01*
X552Y470D02*
X565D01*
X1375Y481D02*
Y521D01*
X1395D01*
X1402Y515D01*
Y501D01*
X1395Y495D01*
X1375D01*
X1388D02*
X1402Y481D01*
X1415D02*
X1428D01*
X1422D01*
Y521D01*
X1415Y515D01*
X542Y573D02*
X535Y580D01*
X522D01*
X515Y573D01*
Y547D01*
X522Y540D01*
X535D01*
X542Y547D01*
X575Y540D02*
Y580D01*
X555Y560D01*
X582D01*
X985Y1480D02*
Y1520D01*
X1005D01*
X1012Y1513D01*
Y1500D01*
X1005Y1493D01*
X985D01*
X998D02*
X1012Y1480D01*
X1052Y1520D02*
X1038Y1513D01*
X1025Y1500D01*
Y1487D01*
X1032Y1480D01*
X1045D01*
X1052Y1487D01*
Y1493D01*
X1045Y1500D01*
X1025D01*
X985Y1610D02*
Y1650D01*
X1005D01*
X1012Y1643D01*
Y1630D01*
X1005Y1623D01*
X985D01*
X998D02*
X1012Y1610D01*
X1045D02*
Y1650D01*
X1025Y1630D01*
X1052D01*
X985Y1380D02*
Y1420D01*
X1005D01*
X1012Y1413D01*
Y1400D01*
X1005Y1393D01*
X985D01*
X998D02*
X1012Y1380D01*
X1052Y1420D02*
X1025D01*
Y1400D01*
X1038Y1407D01*
X1045D01*
X1052Y1400D01*
Y1387D01*
X1045Y1380D01*
X1032D01*
X1025Y1387D01*
X995Y1715D02*
Y1755D01*
X1015D01*
X1022Y1748D01*
Y1735D01*
X1015Y1728D01*
X995D01*
X1008D02*
X1022Y1715D01*
X1035Y1748D02*
X1042Y1755D01*
X1055D01*
X1062Y1748D01*
Y1742D01*
X1055Y1735D01*
X1048D01*
X1055D01*
X1062Y1728D01*
Y1722D01*
X1055Y1715D01*
X1042D01*
X1035Y1722D01*
X555Y1460D02*
Y1427D01*
X562Y1420D01*
X575D01*
X582Y1427D01*
Y1460D01*
X595Y1453D02*
X602Y1460D01*
X615D01*
X622Y1453D01*
Y1447D01*
X615Y1440D01*
X608D01*
X615D01*
X622Y1433D01*
Y1427D01*
X615Y1420D01*
X602D01*
X595Y1427D01*
X204Y1563D02*
X197Y1570D01*
X184D01*
X177Y1563D01*
Y1537D01*
X184Y1530D01*
X197D01*
X204Y1537D01*
X217Y1530D02*
X230D01*
X224D01*
Y1570D01*
X217Y1563D01*
X555Y975D02*
Y942D01*
X562Y935D01*
X575D01*
X582Y942D01*
Y975D01*
X615Y935D02*
Y975D01*
X595Y955D01*
X622D01*
X1670Y1788D02*
Y1828D01*
X1690D01*
X1697Y1821D01*
Y1808D01*
X1690Y1801D01*
X1670D01*
X1710Y1821D02*
X1717Y1828D01*
X1730D01*
X1737Y1821D01*
Y1815D01*
X1730Y1808D01*
X1723D01*
X1730D01*
X1737Y1801D01*
Y1795D01*
X1730Y1788D01*
X1717D01*
X1710Y1795D01*
X442Y833D02*
X435Y840D01*
X422D01*
X415Y833D01*
Y807D01*
X422Y800D01*
X435D01*
X442Y807D01*
X455Y800D02*
X468D01*
X462D01*
Y840D01*
X455Y833D01*
X488D02*
X495Y840D01*
X508D01*
X515Y833D01*
Y807D01*
X508Y800D01*
X495D01*
X488Y807D01*
Y833D01*
X197Y210D02*
X183D01*
X190D01*
Y177D01*
X183Y170D01*
X177D01*
X170Y177D01*
X210Y170D02*
X223D01*
X217D01*
Y210D01*
X210Y203D01*
X985Y1280D02*
Y1320D01*
X1005D01*
X1012Y1313D01*
Y1300D01*
X1005Y1293D01*
X985D01*
X998D02*
X1012Y1280D01*
X1025Y1287D02*
X1032Y1280D01*
X1045D01*
X1052Y1287D01*
Y1313D01*
X1045Y1320D01*
X1032D01*
X1025Y1313D01*
Y1307D01*
X1032Y1300D01*
X1052D01*
X1705Y375D02*
X1665D01*
Y395D01*
X1672Y402D01*
X1685D01*
X1692Y395D01*
Y375D01*
Y388D02*
X1705Y402D01*
Y415D02*
Y428D01*
Y422D01*
X1665D01*
X1672Y415D01*
Y448D02*
X1665Y455D01*
Y468D01*
X1672Y475D01*
X1698D01*
X1705Y468D01*
Y455D01*
X1698Y448D01*
X1672D01*
X1772Y183D02*
X1765Y190D01*
X1752D01*
X1745Y183D01*
Y157D01*
X1752Y150D01*
X1765D01*
X1772Y157D01*
X1812Y150D02*
X1785D01*
X1812Y177D01*
Y183D01*
X1805Y190D01*
X1792D01*
X1785Y183D01*
X1767Y323D02*
X1760Y330D01*
X1747D01*
X1740Y323D01*
Y297D01*
X1747Y290D01*
X1760D01*
X1767Y297D01*
X1780Y330D02*
X1807D01*
Y323D01*
X1780Y297D01*
Y290D01*
X1818Y1478D02*
X1810Y1470D01*
Y1453D01*
X1818Y1445D01*
X1827D01*
X1835Y1453D01*
Y1470D01*
X1843Y1478D01*
X1852D01*
X1860Y1470D01*
Y1453D01*
X1852Y1445D01*
X1810Y1495D02*
X1860D01*
X1843Y1512D01*
X1860Y1528D01*
X1810D01*
Y1545D02*
X1860D01*
Y1570D01*
X1852Y1578D01*
X1818D01*
X1810Y1570D01*
Y1545D01*
X1420Y455D02*
Y413D01*
X1428Y405D01*
X1445D01*
X1453Y413D01*
Y455D01*
X1503Y447D02*
X1495Y455D01*
X1478D01*
X1470Y447D01*
Y438D01*
X1478Y430D01*
X1495D01*
X1503Y422D01*
Y413D01*
X1495Y405D01*
X1478D01*
X1470Y413D01*
X1520Y455D02*
Y405D01*
X1545D01*
X1553Y413D01*
Y422D01*
X1545Y430D01*
X1520D01*
X1545D01*
X1553Y438D01*
Y447D01*
X1545Y455D01*
X1520D01*
X1520Y1450D02*
X1570D01*
Y1475D01*
X1562Y1483D01*
X1553D01*
X1545Y1475D01*
Y1450D01*
Y1475D01*
X1537Y1483D01*
X1528D01*
X1520Y1475D01*
Y1450D01*
Y1500D02*
X1570D01*
Y1525D01*
X1562Y1533D01*
X1528D01*
X1520Y1525D01*
Y1500D01*
X1570Y1550D02*
X1520D01*
X1537Y1567D01*
X1520Y1583D01*
X1570D01*
D38*
X1650Y816D02*
G03*
X1650Y816I-5J0D01*
G01*
X691Y985D02*
G03*
X691Y985I-5J0D01*
G01*
Y1465D02*
G03*
X691Y1465I-5J0D01*
G01*
X1271Y183D02*
G03*
X1271Y183I-5J0D01*
G01*
D39*
X1581Y1860D02*
G03*
X1581Y1860I-41J0D01*
G01*
X341D02*
G03*
X341Y1860I-41J0D01*
G01*
X1870Y843D02*
Y810D01*
X1895D01*
X1887Y827D01*
Y835D01*
X1895Y843D01*
X1912D01*
X1920Y835D01*
Y818D01*
X1912Y810D01*
X1870Y860D02*
X1903D01*
X1920Y877D01*
X1903Y893D01*
X1870D01*
X1878Y1005D02*
X1870Y1013D01*
Y1030D01*
X1878Y1038D01*
X1887D01*
X1895Y1030D01*
Y1022D01*
Y1030D01*
X1903Y1038D01*
X1912D01*
X1920Y1030D01*
Y1013D01*
X1912Y1005D01*
X1870Y1055D02*
X1903D01*
X1920Y1072D01*
X1903Y1088D01*
X1870D01*
X70Y1095D02*
Y1068D01*
X83Y1055D01*
X97Y1068D01*
Y1095D01*
X137D02*
Y1055D01*
X117D01*
X110Y1062D01*
Y1075D01*
X117Y1082D01*
X137D01*
X177Y1095D02*
Y1055D01*
X157D01*
X150Y1062D01*
Y1075D01*
X157Y1082D01*
X177D01*
X97Y988D02*
X90Y995D01*
X77D01*
X70Y988D01*
Y962D01*
X77Y955D01*
X90D01*
X97Y962D01*
Y975D01*
X83D01*
X110Y955D02*
Y982D01*
X130D01*
X137Y975D01*
Y955D01*
X177Y995D02*
Y955D01*
X157D01*
X150Y962D01*
Y975D01*
X157Y982D01*
X177D01*
X70Y1295D02*
X97D01*
X83D01*
Y1255D01*
X110Y1282D02*
X137Y1255D01*
X123Y1268D01*
X137Y1282D01*
X110Y1255D01*
X150Y1295D02*
Y1255D01*
X170D01*
X177Y1262D01*
Y1288D01*
X170Y1295D01*
X150D01*
X70Y1155D02*
Y1195D01*
X90D01*
X97Y1188D01*
Y1175D01*
X90Y1168D01*
X70D01*
X83D02*
X97Y1155D01*
X110Y1182D02*
X137Y1155D01*
X123Y1168D01*
X137Y1182D01*
X110Y1155D01*
X150Y1195D02*
Y1155D01*
X170D01*
X177Y1162D01*
Y1188D01*
X170Y1195D01*
X150D01*
X1880Y620D02*
Y587D01*
X1897Y570D01*
X1913Y587D01*
Y620D01*
Y717D02*
X1905Y725D01*
X1888D01*
X1880Y717D01*
Y683D01*
X1888Y675D01*
X1905D01*
X1913Y683D01*
Y700D01*
X1897D01*
X1880Y525D02*
Y475D01*
X1905D01*
X1913Y483D01*
Y492D01*
X1905Y500D01*
X1880D01*
X1905D01*
X1913Y508D01*
Y517D01*
X1905Y525D01*
X1880D01*
D40*
X1098Y179D02*
G03*
X1048Y179I-25J0D01*
G01*
X1589Y818D02*
Y1082D01*
X1471Y818D02*
Y1082D01*
Y818D02*
X1589D01*
X1471Y1082D02*
X1589D01*
X1233Y1043D02*
Y1130D01*
X1067Y1043D02*
Y1130D01*
X1233D01*
X1067Y870D02*
X1233D01*
Y957D01*
X1067Y870D02*
Y957D01*
X621Y997D02*
Y1343D01*
X559Y997D02*
Y1343D01*
Y997D02*
X621D01*
X559Y1343D02*
X621D01*
Y1477D02*
Y1823D01*
X559Y1477D02*
Y1823D01*
Y1477D02*
X621D01*
X559Y1823D02*
X621D01*
X920Y179D02*
X1048D01*
X1098D02*
X1227D01*
X920Y704D02*
X1227D01*
X732Y134D02*
Y236D01*
X528Y134D02*
Y236D01*
X658Y134D02*
X732D01*
X528D02*
X602D01*
X658Y236D02*
X732D01*
X528D02*
X602D01*
X528Y726D02*
X602D01*
X658D02*
X732D01*
X528Y624D02*
X602D01*
X658D02*
X732D01*
X528D02*
Y726D01*
X732Y624D02*
Y726D01*
X1637Y1099D02*
Y1201D01*
X1433Y1099D02*
Y1201D01*
X1563Y1099D02*
X1637D01*
X1433D02*
X1507D01*
X1563Y1201D02*
X1637D01*
X1433D02*
X1507D01*
D41*
X1650Y650D02*
X1850D01*
Y750D01*
X1650D02*
X1850D01*
X1650Y650D02*
Y750D01*
X1638Y1247D02*
Y1752D01*
X1772D01*
Y1247D02*
Y1752D01*
X1638Y1247D02*
X1772D01*
X300Y920D02*
Y1320D01*
X200D02*
X300D01*
X200Y920D02*
Y1320D01*
Y920D02*
X300D01*
X1750Y800D02*
Y1100D01*
Y800D02*
X1850D01*
Y1100D01*
X1750D02*
X1850D01*
X1850Y450D02*
Y750D01*
X1750D02*
X1850D01*
X1750Y450D02*
Y750D01*
Y450D02*
X1850D01*
X17Y333D02*
Y647D01*
X175D02*
X253D01*
X175Y333D02*
X253D01*
X379Y577D02*
Y632D01*
Y348D02*
Y403D01*
X1655Y555D02*
X1715D01*
X1150Y1270D02*
Y1330D01*
Y1705D02*
Y1765D01*
Y1370D02*
Y1430D01*
Y1605D02*
Y1665D01*
Y1470D02*
Y1530D01*
X1370Y620D02*
X1430D01*
X670Y440D02*
Y500D01*
Y350D02*
Y410D01*
X1340Y240D02*
X1400D01*
X1565Y555D02*
X1625D01*
X1150Y1170D02*
Y1230D01*
X330Y1410D02*
Y1470D01*
X1648Y280D02*
Y340D01*
Y140D02*
Y200D01*
X450Y880D02*
Y940D01*
X330Y1520D02*
Y1580D01*
X670Y530D02*
Y590D01*
Y260D02*
Y320D01*
X1540Y725D02*
Y785D01*
X1475Y481D02*
X1535D01*
X1475Y555D02*
X1535D01*
D42*
X1465Y1350D02*
Y1650D01*
X1265D02*
X1465D01*
X1265Y1350D02*
Y1650D01*
Y1350D02*
X1465D01*
D43*
X1450Y85D02*
Y79D01*
X1462Y67D01*
X1473Y79D01*
Y85D01*
X1462Y67D02*
Y50D01*
X1485D02*
X1497D01*
X1491D01*
Y85D01*
X1485Y79D01*
X1520Y73D02*
X1532D01*
X1537Y67D01*
Y50D01*
X1520D01*
X1514Y56D01*
X1520Y62D01*
X1537D01*
D44*
X119Y1702D02*
X109D01*
X104Y1697D01*
Y1677D01*
X109Y1672D01*
X119D01*
X124Y1677D01*
Y1697D01*
X119Y1702D01*
X154Y1697D02*
X149Y1702D01*
X139D01*
X134Y1697D01*
Y1692D01*
X139Y1687D01*
X149D01*
X154Y1682D01*
Y1677D01*
X149Y1672D01*
X139D01*
X134Y1677D01*
X164Y1702D02*
Y1672D01*
Y1687D01*
X184D01*
Y1702D01*
Y1672D01*
X194Y1702D02*
Y1672D01*
X204Y1682D01*
X214Y1672D01*
Y1702D01*
D45*
X1315Y1712D02*
D03*
X1730Y1188D02*
D03*
M02*
