G04 Layer_Color=8421504*
%FSLAX23Y23*%
%MOIN*%
G70*
G01*
G75*
%ADD10R,0.083X0.063*%
%ADD11R,0.051X0.059*%
%ADD12R,0.075X0.094*%
%ADD13R,0.075X0.046*%
%ADD14R,0.054X0.018*%
%ADD15R,0.083X0.058*%
%ADD16O,0.098X0.028*%
%ADD17R,0.059X0.051*%
%ADD18R,0.087X0.024*%
%ADD19R,0.087X0.024*%
%ADD20R,0.083X0.122*%
%ADD21R,0.083X0.033*%
%ADD22R,0.134X0.075*%
%ADD23R,0.094X0.083*%
D10*
X854Y1130D02*
D03*
X1216D02*
D03*
D11*
X1042Y1655D02*
D03*
X968D02*
D03*
Y1330D02*
D03*
X1042D02*
D03*
Y1555D02*
D03*
X968D02*
D03*
Y1420D02*
D03*
X1042D02*
D03*
X1507Y245D02*
D03*
X1432D02*
D03*
Y105D02*
D03*
X1507D02*
D03*
X522Y765D02*
D03*
X448D02*
D03*
X325Y1400D02*
D03*
X400D02*
D03*
X499Y475D02*
D03*
X574D02*
D03*
X498Y395D02*
D03*
X572D02*
D03*
Y315D02*
D03*
X498D02*
D03*
X498Y235D02*
D03*
X572D02*
D03*
X498Y155D02*
D03*
X572D02*
D03*
X498Y580D02*
D03*
X572D02*
D03*
X1333Y1240D02*
D03*
X1407D02*
D03*
X400Y1290D02*
D03*
X325D02*
D03*
X1404Y685D02*
D03*
X1329D02*
D03*
X1333Y1090D02*
D03*
X1407D02*
D03*
D12*
X208Y530D02*
D03*
Y300D02*
D03*
D13*
Y382D02*
D03*
Y448D02*
D03*
D14*
X312Y415D02*
D03*
Y389D02*
D03*
Y364D02*
D03*
Y466D02*
D03*
Y441D02*
D03*
D15*
X298Y318D02*
D03*
Y512D02*
D03*
D16*
X504Y1170D02*
D03*
Y1120D02*
D03*
Y1070D02*
D03*
Y1020D02*
D03*
Y970D02*
D03*
Y920D02*
D03*
Y870D02*
D03*
X696Y1170D02*
D03*
Y1120D02*
D03*
Y1070D02*
D03*
Y1020D02*
D03*
Y970D02*
D03*
Y920D02*
D03*
Y870D02*
D03*
X504Y1650D02*
D03*
Y1600D02*
D03*
Y1550D02*
D03*
Y1500D02*
D03*
Y1450D02*
D03*
Y1400D02*
D03*
Y1350D02*
D03*
X696Y1650D02*
D03*
Y1600D02*
D03*
Y1550D02*
D03*
Y1500D02*
D03*
Y1450D02*
D03*
Y1400D02*
D03*
Y1350D02*
D03*
D17*
X1327Y522D02*
D03*
Y448D02*
D03*
X1212D02*
D03*
Y522D02*
D03*
X1192Y128D02*
D03*
Y202D02*
D03*
X1417Y522D02*
D03*
Y448D02*
D03*
D18*
X1084Y136D02*
D03*
Y186D02*
D03*
Y236D02*
D03*
Y286D02*
D03*
Y336D02*
D03*
Y386D02*
D03*
Y436D02*
D03*
Y486D02*
D03*
Y536D02*
D03*
Y586D02*
D03*
X706D02*
D03*
D19*
Y136D02*
D03*
Y186D02*
D03*
Y236D02*
D03*
Y286D02*
D03*
Y336D02*
D03*
Y386D02*
D03*
Y436D02*
D03*
Y486D02*
D03*
Y536D02*
D03*
D20*
X1254Y885D02*
D03*
D21*
X1479Y976D02*
D03*
Y885D02*
D03*
Y794D02*
D03*
D22*
X1020Y783D02*
D03*
Y937D02*
D03*
D23*
X1307Y270D02*
D03*
Y100D02*
D03*
M02*
