G04 Layer_Color=8388736*
%FSLAX24Y24*%
%MOIN*%
G70*
G01*
G75*
%ADD43R,0.0907X0.0663*%
%ADD44R,0.0623X0.0257*%
%ADD45R,0.0828X0.0545*%
%ADD46R,0.0828X0.1017*%
%ADD47R,0.1025X0.0907*%
%ADD48R,0.0671X0.0592*%
%ADD49R,0.0592X0.0671*%
%ADD50R,0.0316X0.0946*%
%ADD51R,0.0316X0.0946*%
%ADD52R,0.0907X0.0415*%
%ADD53R,0.0907X0.1300*%
%ADD54C,0.0552*%
%ADD55R,0.0552X0.0552*%
%ADD56C,0.0671*%
%ADD57R,0.0671X0.0671*%
%ADD58R,0.0474X0.0474*%
%ADD59C,0.0474*%
%ADD60C,0.0700*%
%ADD61R,0.0700X0.0700*%
%ADD62C,0.0631*%
D43*
X-12118Y969D02*
D03*
Y-969D02*
D03*
D44*
X-11976Y256D02*
D03*
Y512D02*
D03*
Y-512D02*
D03*
Y-256D02*
D03*
Y0D02*
D03*
D45*
X-13024Y330D02*
D03*
Y-330D02*
D03*
D46*
Y-1146D02*
D03*
Y1146D02*
D03*
D47*
X-2650Y304D02*
D03*
Y1996D02*
D03*
D48*
X-1500Y176D02*
D03*
Y924D02*
D03*
X-3800Y-374D02*
D03*
Y374D02*
D03*
Y-1974D02*
D03*
Y-1226D02*
D03*
Y1226D02*
D03*
Y1974D02*
D03*
X-10250Y24D02*
D03*
Y-724D02*
D03*
D49*
X-10924Y2350D02*
D03*
X-10176D02*
D03*
X-4126Y-3100D02*
D03*
X-4874D02*
D03*
X-5827Y-3150D02*
D03*
X-6575D02*
D03*
X-10126Y-2950D02*
D03*
X-10874D02*
D03*
Y-2150D02*
D03*
X-10126D02*
D03*
X-10924Y1450D02*
D03*
X-10176D02*
D03*
X-9176Y3200D02*
D03*
X-9924D02*
D03*
X-12774Y2400D02*
D03*
X-12026D02*
D03*
D50*
X-4750Y1890D02*
D03*
X-5250D02*
D03*
X-5750D02*
D03*
X-6250D02*
D03*
X-6750D02*
D03*
X-7250D02*
D03*
X-7750D02*
D03*
X-8250D02*
D03*
X-8750D02*
D03*
X-9250D02*
D03*
Y-1890D02*
D03*
D51*
X-4750D02*
D03*
X-5250D02*
D03*
X-5750D02*
D03*
X-6250D02*
D03*
X-6750D02*
D03*
X-7250D02*
D03*
X-7750D02*
D03*
X-8250D02*
D03*
X-8750D02*
D03*
D52*
X122Y-3056D02*
D03*
Y-2150D02*
D03*
Y-1244D02*
D03*
D53*
X-2122Y-2150D02*
D03*
D54*
X1300Y-2300D02*
D03*
Y-1513D02*
D03*
D55*
Y-3087D02*
D03*
D56*
X-7750Y3100D02*
D03*
D57*
X-6750D02*
D03*
D58*
X3406Y-2250D02*
D03*
D59*
X2906D02*
D03*
X3406Y-1750D02*
D03*
X2906D02*
D03*
X3406Y-1250D02*
D03*
X2906D02*
D03*
Y-750D02*
D03*
X3406Y-250D02*
D03*
X2906D02*
D03*
X3406Y1250D02*
D03*
X2906D02*
D03*
X3406Y1750D02*
D03*
X2906D02*
D03*
X3406Y2250D02*
D03*
X2906D02*
D03*
D60*
X-450Y350D02*
D03*
Y1350D02*
D03*
X550Y350D02*
D03*
Y1350D02*
D03*
Y2350D02*
D03*
D61*
X-450D02*
D03*
D62*
X-2600Y3200D02*
D03*
X-12750Y-3050D02*
D03*
M02*
