G04 Layer_Physical_Order=1*
G04 Layer_Color=255*
%FSLAX24Y24*%
%MOIN*%
G70*
G01*
G75*
%ADD10R,0.0591X0.0512*%
%ADD11R,0.0689X0.0433*%
%ADD12R,0.0689X0.0433*%
%ADD13R,0.0689X0.1378*%
%ADD14R,0.0945X0.0827*%
%ADD15R,0.0984X0.0787*%
%ADD16R,0.1102X0.0197*%
%ADD17R,0.0630X0.0709*%
%ADD18R,0.0472X0.0472*%
%ADD19R,0.0512X0.0591*%
%ADD20R,0.0236X0.0866*%
%ADD21R,0.0236X0.0866*%
%ADD22C,0.0250*%
%ADD23C,0.0100*%
%ADD24C,0.0236*%
%ADD25C,0.0150*%
%ADD26C,0.0197*%
%ADD27C,0.0200*%
%ADD28R,0.0830X0.2670*%
%ADD29C,0.0315*%
%ADD30C,0.0394*%
%ADD31R,0.0394X0.0394*%
%ADD32R,0.0591X0.0630*%
%ADD33O,0.0591X0.0630*%
%ADD34R,0.0591X0.0591*%
%ADD35C,0.0591*%
%ADD36C,0.0472*%
%ADD37R,0.0472X0.0472*%
G36*
X4198Y-3804D02*
X-15222D01*
Y-2493D01*
X-15147Y-2433D01*
X-15122Y-2433D01*
X-14655D01*
Y-1939D01*
Y-1445D01*
X-15122D01*
X-15147Y-1445D01*
X-15222Y-1385D01*
Y1385D01*
X-15147Y1445D01*
X-15122Y1445D01*
X-14655D01*
Y1939D01*
Y2433D01*
X-15122D01*
X-15147Y2433D01*
X-15222Y2493D01*
Y3804D01*
X-8094D01*
X-8065Y3751D01*
X-8058Y3704D01*
X-8430Y3333D01*
X-8820D01*
Y3516D01*
X-9453D01*
Y2884D01*
X-8820D01*
Y3067D01*
X-8375D01*
X-8324Y3078D01*
X-8281Y3106D01*
X-8221Y3167D01*
X-8126Y3120D01*
X-8129Y3100D01*
X-8116Y3002D01*
X-8078Y2911D01*
X-8018Y2832D01*
X-7939Y2772D01*
X-7883Y2749D01*
Y2403D01*
X-7948D01*
Y1377D01*
X-7835D01*
X-7826Y1360D01*
X-7809Y1277D01*
X-7847Y1247D01*
X-7892Y1190D01*
X-7906Y1156D01*
X-8012D01*
X-8026Y1190D01*
X-8070Y1247D01*
X-8108Y1277D01*
X-8108Y1377D01*
X-8052D01*
Y2403D01*
X-8448D01*
Y2022D01*
X-8552D01*
Y2403D01*
X-8948D01*
Y1377D01*
X-8552D01*
Y1757D01*
X-8448D01*
Y1377D01*
X-8448D01*
X-8429Y1285D01*
X-8427Y1277D01*
X-8465Y1247D01*
X-8510Y1190D01*
X-8537Y1122D01*
X-8547Y1050D01*
X-8538Y980D01*
X-8786Y733D01*
X-9047D01*
X-9081Y833D01*
X-9055Y853D01*
X-9010Y910D01*
X-8982Y978D01*
X-8973Y1050D01*
X-8982Y1122D01*
X-9010Y1190D01*
X-9055Y1247D01*
X-9093Y1277D01*
X-9076Y1360D01*
X-9067Y1377D01*
X-9052D01*
Y2403D01*
X-9448D01*
Y1377D01*
X-9437D01*
X-9428Y1360D01*
X-9411Y1277D01*
X-9449Y1247D01*
X-9494Y1190D01*
X-9522Y1122D01*
X-9531Y1050D01*
X-9522Y978D01*
X-9494Y910D01*
X-9449Y853D01*
X-9423Y833D01*
X-9457Y733D01*
X-9645D01*
X-9887Y975D01*
X-9846Y1075D01*
X-9840D01*
Y1825D01*
X-10488D01*
X-10512Y1825D01*
X-10588D01*
X-10612Y1825D01*
X-10671D01*
X-10701Y1925D01*
X-10651Y1975D01*
X-10512Y1975D01*
X-10488Y1975D01*
X-9840D01*
Y2725D01*
X-9943D01*
Y2884D01*
X-9647D01*
Y3516D01*
X-10280D01*
Y2884D01*
X-10238D01*
X-10221Y2784D01*
X-10279Y2725D01*
X-10488D01*
X-10512Y2725D01*
X-10588D01*
X-10612Y2725D01*
X-10914D01*
X-11073Y2884D01*
X-11071Y2900D01*
X-11080Y2972D01*
X-11108Y3040D01*
X-11153Y3097D01*
X-11210Y3142D01*
X-11278Y3170D01*
X-11350Y3179D01*
X-11366Y3177D01*
X-11554Y3365D01*
Y3584D01*
X-12344D01*
Y2715D01*
X-11557D01*
X-11547Y2703D01*
X-11490Y2658D01*
X-11422Y2630D01*
X-11385Y2625D01*
X-11260Y2500D01*
Y1975D01*
X-11126D01*
Y1825D01*
X-11260D01*
Y1075D01*
X-11126D01*
Y812D01*
X-12252D01*
X-12269Y808D01*
X-12883D01*
Y452D01*
Y137D01*
Y-178D01*
Y-432D01*
X-12903D01*
Y-530D01*
X-12252D01*
Y-630D01*
X-12152D01*
Y-828D01*
X-11600D01*
Y-828D01*
X-11508Y-847D01*
Y-2924D01*
X-11496Y-2984D01*
X-11462Y-3036D01*
X-11336Y-3162D01*
X-11284Y-3196D01*
X-11224Y-3208D01*
X-11210D01*
Y-3425D01*
X-10562D01*
X-10538Y-3425D01*
X-10462D01*
X-10438Y-3425D01*
X-9790D01*
Y-3033D01*
X-7250D01*
X-7199Y-3022D01*
X-7156Y-2994D01*
X-7023Y-2861D01*
X-6931Y-2899D01*
Y-3050D01*
X-6675D01*
Y-2754D01*
X-6786D01*
X-6824Y-2662D01*
X-6656Y-2494D01*
X-6628Y-2451D01*
X-6618Y-2403D01*
X-6552D01*
Y-1377D01*
X-6948D01*
Y-2315D01*
X-6952Y-2318D01*
X-7052Y-2261D01*
Y-1377D01*
X-7440Y-1377D01*
X-7532Y-1357D01*
X-7540Y-1357D01*
X-7650D01*
Y-1890D01*
X-7850D01*
Y-1357D01*
X-7948D01*
X-7968Y-1357D01*
X-8048Y-1308D01*
Y-850D01*
X-8063Y-773D01*
X-8107Y-707D01*
X-8407Y-407D01*
X-8473Y-363D01*
X-8550Y-348D01*
X-9761D01*
X-9855Y-332D01*
Y-76D01*
X-10250D01*
Y24D01*
X-10350D01*
Y380D01*
X-10548D01*
Y482D01*
X-10563Y559D01*
X-10607Y625D01*
X-10722Y740D01*
Y1004D01*
X-10651Y1075D01*
X-10512Y1075D01*
X-10488Y1075D01*
X-10209D01*
Y976D01*
X-10198Y925D01*
X-10170Y882D01*
X-9794Y506D01*
X-9751Y478D01*
X-9700Y467D01*
X-8731D01*
X-8680Y478D01*
X-8637Y506D01*
X-8356Y787D01*
X-8340Y780D01*
X-8268Y771D01*
X-8195Y780D01*
X-8128Y808D01*
X-8070Y853D01*
X-8026Y910D01*
X-8012Y944D01*
X-7906D01*
X-7892Y910D01*
X-7847Y853D01*
X-7790Y808D01*
X-7722Y780D01*
X-7650Y771D01*
X-7578Y780D01*
X-7510Y808D01*
X-7453Y853D01*
X-7408Y910D01*
X-7405Y917D01*
X-7021D01*
X-6970Y928D01*
X-6927Y956D01*
X-6656Y1227D01*
X-6628Y1270D01*
X-6617Y1321D01*
Y1377D01*
X-6552D01*
Y2403D01*
X-6948D01*
Y1377D01*
X-6948Y1377D01*
X-6948D01*
X-6948Y1377D01*
X-6972Y1287D01*
X-7076Y1183D01*
X-7405D01*
X-7408Y1190D01*
X-7453Y1247D01*
X-7510Y1292D01*
X-7513Y1293D01*
X-7552Y1377D01*
X-7552Y1411D01*
Y2403D01*
X-7617D01*
Y2749D01*
X-7561Y2772D01*
X-7482Y2832D01*
X-7383Y2798D01*
Y2403D01*
X-7448D01*
Y1377D01*
X-7052D01*
Y2403D01*
X-7117D01*
Y2705D01*
X-6850D01*
Y3100D01*
Y3495D01*
X-7145D01*
X-7224Y3547D01*
X-7381Y3704D01*
X-7374Y3751D01*
X-7345Y3804D01*
X4198D01*
Y-3804D01*
D02*
G37*
%LPC*%
G36*
X-14455Y-1445D02*
Y-1839D01*
X-13963D01*
Y-1445D01*
X-14455D01*
D02*
G37*
G36*
X-12489D02*
X-12981D01*
Y-1839D01*
X-12489D01*
Y-1445D01*
D02*
G37*
G36*
X-11797D02*
X-12289D01*
Y-1839D01*
X-11797D01*
Y-1445D01*
D02*
G37*
G36*
X-1855Y-1511D02*
X-2199D01*
Y-2200D01*
X-1855D01*
Y-1511D01*
D02*
G37*
G36*
X-3900Y-2074D02*
X-4195D01*
Y-2330D01*
X-3900D01*
Y-2074D01*
D02*
G37*
G36*
X-3405D02*
X-3700D01*
Y-2330D01*
X-3405D01*
Y-2074D01*
D02*
G37*
G36*
X-2399Y-1511D02*
X-2744D01*
Y-2200D01*
X-2399D01*
Y-1511D01*
D02*
G37*
G36*
X-12352Y-730D02*
X-12903D01*
Y-828D01*
X-12352D01*
Y-730D01*
D02*
G37*
G36*
X-13474Y-608D02*
X-13513Y-624D01*
X-13571Y-668D01*
X-13616Y-726D01*
X-13632Y-766D01*
X-13474D01*
Y-608D01*
D02*
G37*
G36*
X-13274D02*
Y-766D01*
X-13115D01*
X-13132Y-726D01*
X-13176Y-668D01*
X-13234Y-624D01*
X-13274Y-608D01*
D02*
G37*
G36*
X-13115Y-966D02*
X-13274D01*
Y-1125D01*
X-13234Y-1108D01*
X-13176Y-1064D01*
X-13132Y-1006D01*
X-13115Y-966D01*
D02*
G37*
G36*
X724Y-1098D02*
X-125D01*
Y-1691D01*
X724D01*
Y-1645D01*
X1013D01*
X1024Y-1672D01*
X1074Y-1738D01*
X1141Y-1789D01*
X1217Y-1821D01*
X1300Y-1832D01*
X1383Y-1821D01*
X1459Y-1789D01*
X1526Y-1738D01*
X1576Y-1672D01*
X1608Y-1595D01*
X1619Y-1513D01*
X1608Y-1430D01*
X1576Y-1353D01*
X1526Y-1287D01*
X1459Y-1236D01*
X1383Y-1205D01*
X1300Y-1194D01*
X1217Y-1205D01*
X1141Y-1236D01*
X1074Y-1287D01*
X1024Y-1353D01*
X1013Y-1380D01*
X724D01*
Y-1098D01*
D02*
G37*
G36*
X3506Y-970D02*
Y-1150D01*
X3686D01*
X3666Y-1100D01*
X3618Y-1038D01*
X3556Y-991D01*
X3506Y-970D01*
D02*
G37*
G36*
X-13474Y-966D02*
X-13632D01*
X-13616Y-1006D01*
X-13571Y-1064D01*
X-13513Y-1108D01*
X-13474Y-1125D01*
Y-966D01*
D02*
G37*
G36*
X-4552Y-1377D02*
X-4948D01*
Y-2403D01*
X-4552D01*
Y-1377D01*
D02*
G37*
G36*
X724Y-2003D02*
X-125D01*
Y-2597D01*
X97D01*
Y-2909D01*
X-125D01*
Y-3502D01*
X724D01*
Y-3289D01*
X984D01*
Y-3404D01*
X1616D01*
Y-2771D01*
X984D01*
Y-2885D01*
X501D01*
Y-2597D01*
X724D01*
Y-2003D01*
D02*
G37*
G36*
X-2399Y-2400D02*
X-2744D01*
Y-3089D01*
X-2399D01*
Y-2400D01*
D02*
G37*
G36*
X-1855D02*
X-2199D01*
Y-3089D01*
X-1855D01*
Y-2400D01*
D02*
G37*
G36*
X-6052Y-1377D02*
X-6448D01*
Y-2403D01*
X-6434D01*
Y-2550D01*
X-6420Y-2620D01*
X-6397Y-2654D01*
X-6434Y-2754D01*
X-6475D01*
Y-3150D01*
Y-3545D01*
X-6219D01*
X-6219Y-3545D01*
X-6219Y-3545D01*
X-6127Y-3525D01*
X-5491D01*
Y-3333D01*
X-5346D01*
Y-3534D01*
X-4556D01*
Y-2666D01*
X-5346D01*
Y-2966D01*
X-5491D01*
Y-2774D01*
X-5766D01*
X-6042Y-2499D01*
X-6052Y-2403D01*
X-6052Y-2403D01*
X-6052Y-2403D01*
Y-1377D01*
D02*
G37*
G36*
X-3949Y-3200D02*
X-4264D01*
Y-3554D01*
X-3949D01*
Y-3200D01*
D02*
G37*
G36*
X-3434D02*
X-3749D01*
Y-3554D01*
X-3434D01*
Y-3200D01*
D02*
G37*
G36*
X-6675Y-3250D02*
X-6931D01*
Y-3545D01*
X-6675D01*
Y-3250D01*
D02*
G37*
G36*
X-11797Y-2039D02*
X-12289D01*
Y-2433D01*
X-11797D01*
Y-2039D01*
D02*
G37*
G36*
X-5552Y-1377D02*
X-5948D01*
Y-2403D01*
X-5552D01*
Y-1377D01*
D02*
G37*
G36*
X-5052D02*
X-5448D01*
Y-2403D01*
X-5052D01*
Y-1377D01*
D02*
G37*
G36*
X-12489Y-2039D02*
X-12981D01*
Y-2433D01*
X-12489D01*
Y-2039D01*
D02*
G37*
G36*
X-3949Y-2646D02*
X-4264D01*
Y-3000D01*
X-3949D01*
Y-2646D01*
D02*
G37*
G36*
X-3434D02*
X-3749D01*
Y-3000D01*
X-3434D01*
Y-2646D01*
D02*
G37*
G36*
X-13963Y-2039D02*
X-14455D01*
Y-2433D01*
X-13963D01*
Y-2039D01*
D02*
G37*
G36*
X400Y2505D02*
X397Y2505D01*
X301Y2465D01*
X218Y2402D01*
X155Y2319D01*
X115Y2223D01*
X112Y2200D01*
X400D01*
Y2505D01*
D02*
G37*
G36*
X600D02*
Y2200D01*
X888D01*
X885Y2223D01*
X845Y2319D01*
X782Y2402D01*
X699Y2465D01*
X603Y2505D01*
X600Y2505D01*
D02*
G37*
G36*
X3506Y2530D02*
Y2350D01*
X3686D01*
X3666Y2400D01*
X3618Y2462D01*
X3556Y2509D01*
X3506Y2530D01*
D02*
G37*
G36*
X-3405Y2330D02*
X-3700D01*
Y2074D01*
X-3405D01*
Y2330D01*
D02*
G37*
G36*
X-12489Y2433D02*
X-12981D01*
Y2039D01*
X-12489D01*
Y2433D01*
D02*
G37*
G36*
X-11797D02*
X-12289D01*
Y2039D01*
X-11797D01*
Y2433D01*
D02*
G37*
G36*
X-3900Y2330D02*
X-4195D01*
Y2074D01*
X-3900D01*
Y2330D01*
D02*
G37*
G36*
X-6650Y3495D02*
Y3200D01*
X-6355D01*
Y3495D01*
X-6650D01*
D02*
G37*
G36*
X-13151Y3604D02*
X-13466D01*
Y3250D01*
X-13151D01*
Y3604D01*
D02*
G37*
G36*
X-12636D02*
X-12951D01*
Y3250D01*
X-12636D01*
Y3604D01*
D02*
G37*
G36*
X-6355Y3000D02*
X-6650D01*
Y2705D01*
X-6355D01*
Y3000D01*
D02*
G37*
G36*
X3306Y2530D02*
X3257Y2509D01*
X3210Y2473D01*
X3104Y2447D01*
X3046Y2492D01*
X2979Y2520D01*
X2906Y2529D01*
X2834Y2520D01*
X2767Y2492D01*
X2709Y2447D01*
X2664Y2390D01*
X2637Y2322D01*
X2627Y2250D01*
X2637Y2178D01*
X2664Y2110D01*
X2709Y2053D01*
Y1947D01*
X2664Y1890D01*
X2637Y1822D01*
X2627Y1750D01*
X2637Y1678D01*
X2664Y1610D01*
X2709Y1553D01*
Y1447D01*
X2664Y1390D01*
X2637Y1322D01*
X2627Y1250D01*
X2637Y1178D01*
X2664Y1110D01*
X2709Y1053D01*
X2767Y1008D01*
X2834Y980D01*
X2906Y971D01*
X2979Y980D01*
X3046Y1008D01*
X3104Y1053D01*
X3210Y1027D01*
X3257Y991D01*
X3306Y970D01*
Y1250D01*
X3406D01*
Y1350D01*
X3686D01*
X3666Y1400D01*
X3618Y1462D01*
Y1538D01*
X3666Y1600D01*
X3686Y1650D01*
X3406D01*
Y1850D01*
X3686D01*
X3666Y1900D01*
X3618Y1962D01*
Y2038D01*
X3666Y2100D01*
X3686Y2150D01*
X3406D01*
Y2250D01*
X3306D01*
Y2530D01*
D02*
G37*
G36*
X-13151Y3050D02*
X-13466D01*
Y2695D01*
X-13151D01*
Y3050D01*
D02*
G37*
G36*
X-12636D02*
X-12951D01*
Y2695D01*
X-12636D01*
Y3050D01*
D02*
G37*
G36*
X-14455Y2433D02*
Y2039D01*
X-13963D01*
Y2433D01*
X-14455D01*
D02*
G37*
G36*
X-13474Y1125D02*
X-13513Y1108D01*
X-13571Y1064D01*
X-13616Y1006D01*
X-13632Y966D01*
X-13474D01*
Y1125D01*
D02*
G37*
G36*
X-13274D02*
Y966D01*
X-13115D01*
X-13132Y1006D01*
X-13176Y1064D01*
X-13234Y1108D01*
X-13274Y1125D01*
D02*
G37*
G36*
X3686Y1150D02*
X3506D01*
Y970D01*
X3556Y991D01*
X3618Y1038D01*
X3666Y1100D01*
X3686Y1150D01*
D02*
G37*
G36*
X-13115Y766D02*
X-13274D01*
Y608D01*
X-13234Y624D01*
X-13176Y668D01*
X-13132Y726D01*
X-13115Y766D01*
D02*
G37*
G36*
X-125Y2495D02*
X-875D01*
Y1912D01*
X-1594Y1194D01*
X-1622Y1151D01*
X-1633Y1100D01*
Y810D01*
X-1875D01*
Y138D01*
X-1875D01*
Y62D01*
X-1875D01*
Y-610D01*
X-1125D01*
Y-610D01*
X-1025Y-571D01*
X-948Y-648D01*
X-948Y-648D01*
X-880Y-693D01*
X-800Y-709D01*
X-800Y-709D01*
X-100D01*
X-100Y-709D01*
X-20Y-693D01*
X48Y-648D01*
X409Y-286D01*
X500Y-298D01*
X598Y-285D01*
X689Y-247D01*
X768Y-187D01*
X828Y-109D01*
X1013D01*
X1941Y-1037D01*
Y-2091D01*
X1538D01*
X1526Y-2074D01*
X1459Y-2024D01*
X1383Y-1992D01*
X1300Y-1981D01*
X1217Y-1992D01*
X1141Y-2024D01*
X1074Y-2074D01*
X1024Y-2141D01*
X992Y-2217D01*
X981Y-2300D01*
X992Y-2383D01*
X1024Y-2459D01*
X1074Y-2526D01*
X1141Y-2576D01*
X1217Y-2608D01*
X1300Y-2619D01*
X1383Y-2608D01*
X1459Y-2576D01*
X1526Y-2526D01*
X1538Y-2509D01*
X2063D01*
X2402Y-2848D01*
X2402Y-2848D01*
X2470Y-2893D01*
X2550Y-2909D01*
X3250D01*
X3250Y-2909D01*
X3330Y-2893D01*
X3398Y-2848D01*
X3554Y-2691D01*
X3554Y-2691D01*
X3599Y-2624D01*
X3615Y-2544D01*
X3683Y-2527D01*
Y-1973D01*
X3683Y-1973D01*
X3677Y-1873D01*
X3686Y-1850D01*
X3406D01*
Y-1650D01*
X3686D01*
X3666Y-1600D01*
X3618Y-1538D01*
Y-1462D01*
X3666Y-1400D01*
X3686Y-1350D01*
X3406D01*
Y-1250D01*
X3306D01*
Y-970D01*
X3257Y-991D01*
X3210Y-1027D01*
X3204Y-1028D01*
X3104Y-950D01*
Y-947D01*
X3148Y-890D01*
X3176Y-822D01*
X3186Y-750D01*
X3176Y-678D01*
X3148Y-610D01*
X3104Y-553D01*
Y-447D01*
X3209D01*
X3267Y-492D01*
X3334Y-520D01*
X3406Y-529D01*
X3479Y-520D01*
X3546Y-492D01*
X3604Y-447D01*
X3648Y-390D01*
X3676Y-322D01*
X3686Y-250D01*
X3676Y-178D01*
X3648Y-110D01*
X3604Y-53D01*
X3546Y-8D01*
X3479Y20D01*
X3406Y29D01*
X3334Y20D01*
X3267Y-8D01*
X3209Y-53D01*
X3104D01*
X3046Y-8D01*
X2979Y20D01*
X2906Y29D01*
X2834Y20D01*
X2767Y-8D01*
X2709Y-53D01*
X2664Y-110D01*
X2662Y-117D01*
X2261D01*
X950Y1194D01*
X907Y1222D01*
X860Y1232D01*
X828Y1309D01*
X768Y1387D01*
X689Y1447D01*
X598Y1485D01*
X500Y1498D01*
X402Y1485D01*
X311Y1447D01*
X232Y1387D01*
X133Y1422D01*
Y1600D01*
X122Y1651D01*
X94Y1694D01*
X-125Y1912D01*
Y2495D01*
D02*
G37*
G36*
X-9855Y380D02*
X-10150D01*
Y124D01*
X-9855D01*
Y380D01*
D02*
G37*
G36*
X-13474Y766D02*
X-13632D01*
X-13616Y726D01*
X-13571Y668D01*
X-13513Y624D01*
X-13474Y608D01*
Y766D01*
D02*
G37*
G36*
X-11797Y1839D02*
X-12289D01*
Y1445D01*
X-11797D01*
Y1839D01*
D02*
G37*
G36*
X400Y2000D02*
X112D01*
X115Y1977D01*
X155Y1881D01*
X218Y1798D01*
X301Y1735D01*
X397Y1695D01*
X400Y1695D01*
Y2000D01*
D02*
G37*
G36*
X888D02*
X600D01*
Y1695D01*
X603Y1695D01*
X699Y1735D01*
X782Y1798D01*
X845Y1881D01*
X885Y1977D01*
X888Y2000D01*
D02*
G37*
G36*
X-12489Y1839D02*
X-12981D01*
Y1445D01*
X-12489D01*
Y1839D01*
D02*
G37*
G36*
X-5968Y2423D02*
X-6060Y2403D01*
X-6068Y2403D01*
X-6448D01*
Y1377D01*
X-6383D01*
Y640D01*
X-6372Y589D01*
X-6344Y546D01*
X-5975Y178D01*
X-5978Y171D01*
X-5988Y98D01*
X-5978Y26D01*
X-5950Y-41D01*
X-5906Y-99D01*
X-5848Y-143D01*
X-5781Y-171D01*
X-5709Y-181D01*
X-5636Y-171D01*
X-5569Y-143D01*
X-5511Y-99D01*
X-5467Y-41D01*
X-5439Y26D01*
X-5429Y98D01*
X-5439Y171D01*
X-5467Y238D01*
X-5511Y296D01*
X-5569Y340D01*
X-5636Y368D01*
X-5709Y378D01*
X-5781Y368D01*
X-5788Y365D01*
X-6117Y695D01*
Y1304D01*
X-6017Y1367D01*
X-5968Y1357D01*
X-5960Y1357D01*
X-5850D01*
Y1890D01*
Y2423D01*
X-5960D01*
X-5968Y2423D01*
D02*
G37*
G36*
X-2048Y2540D02*
X-3152D01*
Y1553D01*
X-3065D01*
X-3027Y1461D01*
X-3129Y1359D01*
X-3354D01*
X-3425Y1429D01*
Y1526D01*
X-3405Y1618D01*
X-3405Y1654D01*
Y1874D01*
X-4195D01*
Y1654D01*
X-4195Y1618D01*
X-4175Y1526D01*
Y890D01*
X-3933D01*
Y710D01*
X-4175D01*
Y604D01*
X-4275Y563D01*
X-4617Y905D01*
Y1377D01*
X-4552D01*
Y2403D01*
X-4948D01*
Y1377D01*
X-4883D01*
Y850D01*
X-4872Y799D01*
X-4844Y756D01*
X-4368Y280D01*
X-4325Y252D01*
X-4274Y241D01*
X-4246D01*
X-4175Y171D01*
Y62D01*
X-4175Y38D01*
Y-38D01*
X-4175Y-62D01*
Y-107D01*
X-4268Y-145D01*
X-5117Y705D01*
Y1377D01*
X-5052D01*
Y2403D01*
X-5440Y2403D01*
X-5532Y2423D01*
X-5540Y2423D01*
X-5650D01*
Y1890D01*
Y1357D01*
X-5540D01*
X-5532Y1357D01*
X-5483Y1367D01*
X-5392Y1310D01*
X-5383Y1297D01*
Y650D01*
X-5372Y599D01*
X-5344Y556D01*
X-4320Y-468D01*
X-4277Y-496D01*
X-4226Y-507D01*
X-4175D01*
Y-710D01*
X-3933D01*
Y-890D01*
X-4175D01*
Y-1526D01*
X-4195Y-1618D01*
X-4195Y-1654D01*
Y-1874D01*
X-3405D01*
Y-1654D01*
X-3405Y-1618D01*
X-3425Y-1526D01*
Y-890D01*
X-3667D01*
Y-710D01*
X-3425D01*
Y-507D01*
X-2974D01*
X-2923Y-496D01*
X-2880Y-468D01*
X-2552Y-140D01*
X-2048D01*
Y847D01*
X-3152D01*
Y-140D01*
X-3152D01*
X-3123Y-240D01*
X-3124Y-241D01*
X-3354D01*
X-3425Y-171D01*
Y-62D01*
X-3425Y-38D01*
Y38D01*
X-3425Y62D01*
Y710D01*
X-3667D01*
Y890D01*
X-3425D01*
Y1093D01*
X-3074D01*
X-3023Y1104D01*
X-2980Y1132D01*
X-2559Y1553D01*
X-2048D01*
Y2540D01*
D02*
G37*
G36*
X-13963Y1839D02*
X-14455D01*
Y1445D01*
X-13963D01*
Y1839D01*
D02*
G37*
%LPD*%
D10*
X-1500Y474D02*
D03*
Y-274D02*
D03*
X-10250Y24D02*
D03*
Y-724D02*
D03*
X-3800Y1974D02*
D03*
Y1226D02*
D03*
Y-1974D02*
D03*
Y-1226D02*
D03*
Y374D02*
D03*
Y-374D02*
D03*
D11*
X299Y-1394D02*
D03*
Y-2300D02*
D03*
D12*
X299Y-3206D02*
D03*
D13*
X-2299Y-2300D02*
D03*
D14*
X-2600Y354D02*
D03*
Y2046D02*
D03*
D15*
X-12389Y-1939D02*
D03*
X-14555D02*
D03*
Y1939D02*
D03*
X-12389D02*
D03*
D16*
X-12252Y630D02*
D03*
Y-315D02*
D03*
Y-630D02*
D03*
Y315D02*
D03*
Y0D02*
D03*
D17*
X-3849Y-3100D02*
D03*
X-4951D02*
D03*
X-11949Y3150D02*
D03*
X-13051D02*
D03*
D18*
X-9963Y3200D02*
D03*
X-9137D02*
D03*
D19*
X-10924Y1450D02*
D03*
X-10176D02*
D03*
X-10126Y-2150D02*
D03*
X-10874D02*
D03*
X-10126Y-3050D02*
D03*
X-10874D02*
D03*
X-6575Y-3150D02*
D03*
X-5827D02*
D03*
X-10176Y2350D02*
D03*
X-10924D02*
D03*
D20*
X-5250Y-1890D02*
D03*
X-4750D02*
D03*
X-5750D02*
D03*
X-7250D02*
D03*
X-7750D02*
D03*
X-8250D02*
D03*
X-8750D02*
D03*
X-6250D02*
D03*
X-6750D02*
D03*
D21*
X-4750Y1890D02*
D03*
X-5250D02*
D03*
X-5750D02*
D03*
X-6250D02*
D03*
X-6750D02*
D03*
X-7250D02*
D03*
X-7750D02*
D03*
X-8250D02*
D03*
X-8750D02*
D03*
X-9250D02*
D03*
Y-1890D02*
D03*
D22*
X1300Y-2300D02*
X2150D01*
X500Y100D02*
X1100D01*
X-100Y-500D02*
X500Y100D01*
X-1500Y-274D02*
X-1026D01*
X-800Y-500D01*
X-100D01*
X1100Y100D02*
X2150Y-950D01*
Y-2300D02*
Y-950D01*
X3406Y-2544D02*
Y-2250D01*
X2150Y-2300D02*
X2550Y-2700D01*
X3250D01*
X3406Y-2544D01*
D23*
X0Y800D02*
Y1600D01*
X200Y600D02*
X1000D01*
X0Y800D02*
X200Y600D01*
X617Y-1513D02*
X1300D01*
X-500Y2100D02*
X0Y1600D01*
X856Y1100D02*
X2206Y-250D01*
X500Y1100D02*
X856D01*
X-2600Y0D02*
Y354D01*
X-2974Y-374D02*
X-2600Y0D01*
X-3800Y-374D02*
X-2974D01*
X-2600Y1700D02*
Y2046D01*
X-3074Y1226D02*
X-2600Y1700D01*
X-3800Y1226D02*
X-3074D01*
X2206Y-250D02*
X2906D01*
X2606Y-2250D02*
X2906D01*
X-9700Y600D02*
X-8731D01*
X-10076Y976D02*
X-9700Y600D01*
X-10076Y976D02*
Y1500D01*
X-7250Y-2900D02*
X-6750Y-2400D01*
X-9250Y-1890D02*
Y-1300D01*
X-9400Y-1150D02*
X-9250Y-1300D01*
X-9400Y-1150D02*
Y-1000D01*
X-4226Y-374D02*
X-3800D01*
X-5250Y650D02*
X-4226Y-374D01*
X-5250Y650D02*
Y1890D01*
X-7650Y1050D02*
X-7021D01*
X-4274Y374D02*
X-3974D01*
X-4750Y850D02*
X-4274Y374D01*
X-4750Y850D02*
Y1890D01*
X-3800Y-1226D02*
Y-374D01*
X-8731Y600D02*
X-8250Y1081D01*
X-10076Y2400D02*
Y3087D01*
X-9650Y-2600D02*
X-7400D01*
X-10100Y-2150D02*
X-9650Y-2600D01*
X-7400D02*
X-7250Y-2450D01*
Y-1890D01*
X-6750Y-2400D02*
Y-1890D01*
X-8750D02*
Y-1055D01*
X-9137Y3200D02*
X-8375D01*
X-7250Y1890D02*
Y3386D01*
X-7486Y3622D02*
X-7250Y3386D01*
X-7953Y3622D02*
X-7486D01*
X-8375Y3200D02*
X-7953Y3622D01*
X-8250Y1081D02*
Y1890D01*
X-7021Y1050D02*
X-6750Y1321D01*
Y1890D01*
X-9252Y1102D02*
Y1888D01*
X-7750Y1890D02*
Y2850D01*
X-7500Y3100D01*
X-8750Y1890D02*
X-8250D01*
X-3800Y374D02*
X-3700D01*
X-3800D02*
Y1226D01*
X-6250Y640D02*
X-5709Y98D01*
X-6250Y640D02*
Y1890D01*
X-1500Y474D02*
Y1100D01*
X-500Y2100D01*
X1000Y600D02*
X2450Y-850D01*
Y-2094D02*
X2606Y-2250D01*
X2450Y-2094D02*
Y-850D01*
X-10150Y-2900D02*
X-7250D01*
D24*
X299Y-3206D02*
Y-2300D01*
X350Y-3087D02*
X1300D01*
X-11774Y3300D02*
X-10824Y2350D01*
X-10898Y630D02*
X-10750Y482D01*
X-10924Y656D02*
X-10898Y630D01*
X-10750Y-374D02*
Y482D01*
X-10924Y656D02*
Y2250D01*
X-10574Y-550D02*
X-8550D01*
X-10750Y-374D02*
X-10574Y-550D01*
X-8550D02*
X-8250Y-850D01*
X-12109Y3300D02*
X-11774D01*
X-8250Y-1890D02*
Y-850D01*
D25*
X-11350Y-2924D02*
X-11224Y-3050D01*
X-11350Y-2924D02*
Y-200D01*
X-11550Y0D02*
X-11350Y-200D01*
X-12652Y0D02*
X-11550D01*
X-11415Y315D02*
X-11050Y-50D01*
Y-1200D02*
Y-50D01*
Y-1200D02*
X-10874Y-1376D01*
X-12652Y315D02*
X-11415D01*
X-11224Y-3050D02*
X-10874D01*
Y-2150D02*
Y-1376D01*
D26*
X-12252Y630D02*
X-10898D01*
D27*
X-6250Y-2550D02*
Y-1890D01*
Y-2550D02*
X-5650Y-3150D01*
X-5000D01*
D28*
X-13485Y35D02*
D03*
D29*
X-13374Y866D02*
D03*
Y-866D02*
D03*
D30*
X2906Y2250D02*
D03*
X3406D02*
D03*
X2906Y1750D02*
D03*
X3406D02*
D03*
X2906Y1250D02*
D03*
X3406D02*
D03*
X2906Y-250D02*
D03*
X3406D02*
D03*
X2906Y-750D02*
D03*
Y-1250D02*
D03*
X3406D02*
D03*
X2906Y-1750D02*
D03*
X3406D02*
D03*
X2906Y-2250D02*
D03*
X-9450Y-3250D02*
D03*
X-900Y-1600D02*
D03*
X-1400Y-3250D02*
D03*
X-2300D02*
D03*
X-3100D02*
D03*
Y-2200D02*
D03*
Y-900D02*
D03*
X-11350Y2900D02*
D03*
X-10350Y700D02*
D03*
X-10630Y3445D02*
D03*
X-4750Y3000D02*
D03*
X-8750Y-1000D02*
D03*
X-9400D02*
D03*
X-7650Y1050D02*
D03*
X-9252D02*
D03*
X2800Y-3350D02*
D03*
X3100Y3300D02*
D03*
X-8268Y1050D02*
D03*
X-5709Y98D02*
D03*
Y-984D02*
D03*
X-7800Y-200D02*
D03*
X-8300Y-3250D02*
D03*
D31*
X3406Y-2250D02*
D03*
D32*
X-500Y2100D02*
D03*
D33*
X500D02*
D03*
X-500Y1100D02*
D03*
X500D02*
D03*
X-500Y100D02*
D03*
X500Y100D02*
D03*
D34*
X-6750Y3100D02*
D03*
D35*
X-7750D02*
D03*
D36*
X1300Y-2300D02*
D03*
Y-1513D02*
D03*
D37*
Y-3087D02*
D03*
M02*
