M48
;Layer_Color=9474304
;FILE_FORMAT=2:4
INCH,LZ
;TYPE=PLATED
T1F00S00C0.0197
T2F00S00C0.0236
T3F00S00C0.0315
T4F00S00C0.0354
%
T01
X-00945Y-00325
X-0083
X-00875Y-001
X-0094
X-009252Y00105
X-008268
X-00765
X-0078Y-0002
X-005709Y000098
Y-000984
X-0031Y-0009
Y-0022
Y-00325
X-0023
X-0014
X-0009Y-0016
X0028Y-00335
X0031Y0033
X-00475Y003
X-01063Y003445
X-01135Y0029
X-01035Y0007
T02
X002906Y-00225
Y-00175
Y-00125
Y-00075
Y-00025
X003406
Y-00125
Y-00175
Y-00225
Y00125
Y00175
Y00225
X002906
Y00175
Y00125
T03
X0013Y-003087
Y-0023
Y-001513
T04
X-00775Y0031
X-00675
X-0005Y0021
X0005
Y0011
X-0005
Y0001
X0005Y0001
X-013374Y000866
Y-000866
M30
