G04 Layer_Color=32896*
%FSLAX24Y24*%
%MOIN*%
G70*
G01*
G75*
%ADD37C,0.0098*%
%ADD38C,0.0079*%
%ADD40C,0.0039*%
%ADD41C,0.0050*%
%ADD42C,0.0060*%
%ADD65C,0.0070*%
%ADD66R,0.6650X0.1450*%
G36*
X-11304Y-1714D02*
Y-1719D01*
X-11265Y-1916D01*
Y-1919D01*
Y-1922D01*
X-11262Y-1925D01*
X-11257Y-1927D01*
X-11124Y-1983D01*
X-11110D01*
X-10946Y-1866D01*
X-10935D01*
X-10932Y-1869D01*
X-10790Y-2008D01*
Y-2011D01*
Y-2016D01*
Y-2019D01*
Y-2022D01*
X-10904Y-2186D01*
Y-2188D01*
Y-2194D01*
Y-2197D01*
Y-2202D01*
X-10840Y-2338D01*
Y-2341D01*
X-10838Y-2344D01*
X-10832Y-2347D01*
X-10643Y-2380D01*
X-10638D01*
X-10635Y-2383D01*
Y-2388D01*
Y-2588D01*
Y-2591D01*
X-10638Y-2594D01*
X-10643Y-2597D01*
X-10826Y-2636D01*
X-10832D01*
X-10835Y-2638D01*
X-10838Y-2644D01*
X-10899Y-2791D01*
Y-2794D01*
Y-2799D01*
Y-2802D01*
Y-2805D01*
X-10790Y-2960D01*
Y-2966D01*
Y-2969D01*
Y-2972D01*
X-10932Y-3110D01*
X-10935Y-3113D01*
X-10940D01*
X-10946Y-3110D01*
X-11096Y-3008D01*
X-11110D01*
X-11176Y-3047D01*
X-11182D01*
X-11185Y-3044D01*
X-11187Y-3041D01*
X-11326Y-2705D01*
Y-2702D01*
Y-2699D01*
X-11324Y-2691D01*
X-11304Y-2683D01*
X-11301Y-2680D01*
X-11299Y-2677D01*
X-11296Y-2672D01*
X-11290Y-2669D01*
X-11279Y-2661D01*
X-11265Y-2647D01*
X-11246Y-2627D01*
X-11226Y-2602D01*
X-11213Y-2572D01*
X-11201Y-2536D01*
X-11196Y-2494D01*
Y-2491D01*
Y-2477D01*
X-11199Y-2461D01*
X-11204Y-2441D01*
X-11213Y-2416D01*
X-11224Y-2388D01*
X-11237Y-2363D01*
X-11260Y-2338D01*
X-11262Y-2336D01*
X-11271Y-2327D01*
X-11285Y-2316D01*
X-11301Y-2305D01*
X-11324Y-2294D01*
X-11349Y-2283D01*
X-11379Y-2275D01*
X-11412Y-2272D01*
X-11426D01*
X-11443Y-2275D01*
X-11465Y-2280D01*
X-11487Y-2288D01*
X-11515Y-2300D01*
X-11540Y-2316D01*
X-11565Y-2338D01*
X-11568Y-2341D01*
X-11576Y-2350D01*
X-11585Y-2363D01*
X-11596Y-2383D01*
X-11610Y-2405D01*
X-11618Y-2430D01*
X-11626Y-2461D01*
X-11629Y-2494D01*
Y-2499D01*
X-11626Y-2513D01*
X-11623Y-2536D01*
X-11618Y-2561D01*
X-11604Y-2588D01*
X-11587Y-2619D01*
X-11565Y-2647D01*
X-11532Y-2672D01*
X-11529Y-2674D01*
X-11526Y-2680D01*
X-11524D01*
X-11521Y-2683D01*
X-11504Y-2691D01*
X-11501Y-2694D01*
X-11499Y-2705D01*
X-11635Y-3041D01*
X-11637Y-3044D01*
X-11648Y-3047D01*
X-11715Y-3008D01*
X-11729D01*
X-11879Y-3110D01*
X-11885Y-3113D01*
X-11887D01*
X-11893Y-3110D01*
X-12037Y-2972D01*
Y-2966D01*
Y-2963D01*
Y-2960D01*
X-11926Y-2805D01*
Y-2802D01*
Y-2799D01*
Y-2797D01*
Y-2791D01*
X-11990Y-2644D01*
Y-2641D01*
Y-2638D01*
X-11993Y-2636D01*
X-11998D01*
X-12182Y-2597D01*
X-12184D01*
X-12187Y-2594D01*
X-12190Y-2588D01*
Y-2388D01*
Y-2386D01*
Y-2383D01*
X-12187Y-2380D01*
X-12182D01*
X-11993Y-2347D01*
X-11990D01*
X-11984Y-2344D01*
X-11979Y-2338D01*
X-11923Y-2202D01*
Y-2200D01*
Y-2194D01*
Y-2191D01*
Y-2188D01*
Y-2186D01*
X-12037Y-2022D01*
Y-2019D01*
Y-2016D01*
Y-2013D01*
Y-2008D01*
X-11893Y-1869D01*
X-11890Y-1866D01*
X-11879D01*
X-11715Y-1983D01*
X-11701D01*
X-11568Y-1927D01*
X-11565D01*
X-11562Y-1925D01*
X-11560Y-1922D01*
Y-1916D01*
X-11521Y-1719D01*
Y-1716D01*
Y-1714D01*
X-11518Y-1711D01*
X-11512Y-1708D01*
X-11307D01*
X-11304Y-1714D01*
D02*
G37*
D37*
X-6576Y-2085D02*
G03*
X-6576Y-2085I-49J0D01*
G01*
D38*
X-6094Y1482D02*
X-5306D01*
X-6094Y-1982D02*
X-5306D01*
Y1482D01*
X-6094Y-1982D02*
Y1482D01*
X-10873Y-249D02*
Y617D01*
X-12527Y-249D02*
Y617D01*
Y-249D02*
X-10873D01*
X-12527Y2349D02*
X-10873D01*
Y1483D02*
Y2349D01*
X-12527Y1483D02*
Y2349D01*
D40*
X100Y-1845D02*
Y-1255D01*
X50Y-3345D02*
Y-2755D01*
X-1900Y-895D02*
Y-305D01*
Y5D02*
Y595D01*
Y1805D02*
Y2395D01*
Y-1795D02*
Y-1205D01*
X1800Y155D02*
Y745D01*
X-1900Y905D02*
Y1495D01*
X-11726Y-1071D02*
Y-480D01*
D41*
X-12900Y1200D02*
X-12700D01*
Y1050D01*
X-12800D01*
X-12700D01*
Y900D01*
X-13000D02*
X-13100D01*
X-13050D01*
Y1200D01*
X-13000Y1150D01*
X-12800Y-650D02*
X-12750Y-600D01*
X-12650D01*
X-12600Y-650D01*
Y-850D01*
X-12650Y-900D01*
X-12750D01*
X-12800Y-850D01*
X-12900D02*
X-12950Y-900D01*
X-13050D01*
X-13100Y-850D01*
Y-650D01*
X-13050Y-600D01*
X-12950D01*
X-12900Y-650D01*
Y-700D01*
X-12950Y-750D01*
X-13100D01*
X-2900Y1000D02*
Y1300D01*
X-3050D01*
X-3100Y1250D01*
Y1150D01*
X-3050Y1100D01*
X-2900D01*
X-3000D02*
X-3100Y1000D01*
X-3200Y1050D02*
X-3250Y1000D01*
X-3350D01*
X-3400Y1050D01*
Y1250D01*
X-3350Y1300D01*
X-3250D01*
X-3200Y1250D01*
Y1200D01*
X-3250Y1150D01*
X-3400D01*
X2040Y988D02*
Y1288D01*
X1890D01*
X1840Y1238D01*
Y1138D01*
X1890Y1088D01*
X2040D01*
X1940D02*
X1840Y988D01*
X1740Y1238D02*
X1690Y1288D01*
X1590D01*
X1540Y1238D01*
Y1188D01*
X1590Y1138D01*
X1540Y1088D01*
Y1038D01*
X1590Y988D01*
X1690D01*
X1740Y1038D01*
Y1088D01*
X1690Y1138D01*
X1740Y1188D01*
Y1238D01*
X1690Y1138D02*
X1590D01*
X-3100Y-1350D02*
X-3050Y-1300D01*
X-2950D01*
X-2900Y-1350D01*
Y-1550D01*
X-2950Y-1600D01*
X-3050D01*
X-3100Y-1550D01*
X-3400Y-1300D02*
X-3300Y-1350D01*
X-3200Y-1450D01*
Y-1550D01*
X-3250Y-1600D01*
X-3350D01*
X-3400Y-1550D01*
Y-1500D01*
X-3350Y-1450D01*
X-3200D01*
X-2870Y1890D02*
Y2190D01*
X-3020D01*
X-3070Y2140D01*
Y2040D01*
X-3020Y1990D01*
X-2870D01*
X-2970D02*
X-3070Y1890D01*
X-3320D02*
Y2190D01*
X-3170Y2040D01*
X-3370D01*
X-2870Y100D02*
Y400D01*
X-3020D01*
X-3070Y350D01*
Y250D01*
X-3020Y200D01*
X-2870D01*
X-2970D02*
X-3070Y100D01*
X-3170Y400D02*
X-3370D01*
Y350D01*
X-3170Y150D01*
Y100D01*
X-5450Y1950D02*
Y1700D01*
X-5500Y1650D01*
X-5600D01*
X-5650Y1700D01*
Y1950D01*
X-5750Y1650D02*
X-5850D01*
X-5800D01*
Y1950D01*
X-5750Y1900D01*
X-2850Y-710D02*
Y-410D01*
X-3000D01*
X-3050Y-460D01*
Y-560D01*
X-3000Y-610D01*
X-2850D01*
X-2950D02*
X-3050Y-710D01*
X-3350Y-410D02*
X-3250Y-460D01*
X-3150Y-560D01*
Y-660D01*
X-3200Y-710D01*
X-3300D01*
X-3350Y-660D01*
Y-610D01*
X-3300Y-560D01*
X-3150D01*
X150Y-2300D02*
X200Y-2250D01*
X300D01*
X350Y-2300D01*
Y-2500D01*
X300Y-2550D01*
X200D01*
X150Y-2500D01*
X50Y-2300D02*
X0Y-2250D01*
X-100D01*
X-150Y-2300D01*
Y-2350D01*
X-100Y-2400D01*
X-150Y-2450D01*
Y-2500D01*
X-100Y-2550D01*
X0D01*
X50Y-2500D01*
Y-2450D01*
X0Y-2400D01*
X50Y-2350D01*
Y-2300D01*
X0Y-2400D02*
X-100D01*
X200Y-800D02*
X250Y-750D01*
X350D01*
X400Y-800D01*
Y-1000D01*
X350Y-1050D01*
X250D01*
X200Y-1000D01*
X100Y-1050D02*
X0D01*
X50D01*
Y-750D01*
X100Y-800D01*
X-150D02*
X-200Y-750D01*
X-300D01*
X-350Y-800D01*
Y-1000D01*
X-300Y-1050D01*
X-200D01*
X-150Y-1000D01*
Y-800D01*
D42*
X-3800Y2550D02*
Y2300D01*
X-3850Y2250D01*
X-3950D01*
X-4000Y2300D01*
Y2550D01*
X-4300Y2500D02*
X-4250Y2550D01*
X-4150D01*
X-4100Y2500D01*
Y2450D01*
X-4150Y2400D01*
X-4250D01*
X-4300Y2350D01*
Y2300D01*
X-4250Y2250D01*
X-4150D01*
X-4100Y2300D01*
X-4400Y2550D02*
Y2250D01*
X-4550D01*
X-4600Y2300D01*
Y2350D01*
X-4550Y2400D01*
X-4400D01*
X-4550D01*
X-4600Y2450D01*
Y2500D01*
X-4550Y2550D01*
X-4400D01*
X-4700D02*
Y2250D01*
X-4850D01*
X-4900Y2300D01*
Y2500D01*
X-4850Y2550D01*
X-4700D01*
X-5000Y2250D02*
Y2550D01*
X-5100Y2450D01*
X-5200Y2550D01*
Y2250D01*
X-5300Y2200D02*
X-5499D01*
X-5799Y2500D02*
X-5749Y2550D01*
X-5649D01*
X-5599Y2500D01*
Y2450D01*
X-5649Y2400D01*
X-5749D01*
X-5799Y2350D01*
Y2300D01*
X-5749Y2250D01*
X-5649D01*
X-5599Y2300D01*
X-5899Y2550D02*
Y2250D01*
X-5999Y2350D01*
X-6099Y2250D01*
Y2550D01*
X-6199D02*
Y2250D01*
X-6349D01*
X-6399Y2300D01*
Y2500D01*
X-6349Y2550D01*
X-6199D01*
X-6499Y2200D02*
X-6699D01*
X-6999Y2550D02*
X-6899D01*
X-6949D01*
Y2300D01*
X-6899Y2250D01*
X-6849D01*
X-6799Y2300D01*
X-7299Y2500D02*
X-7249Y2550D01*
X-7149D01*
X-7099Y2500D01*
Y2450D01*
X-7149Y2400D01*
X-7249D01*
X-7299Y2350D01*
Y2300D01*
X-7249Y2250D01*
X-7149D01*
X-7099Y2300D01*
X-7399Y2250D02*
X-7499D01*
X-7449D01*
Y2550D01*
X-7399Y2500D01*
X-7849Y2550D02*
X-7749Y2500D01*
X-7649Y2400D01*
Y2300D01*
X-7699Y2250D01*
X-7799D01*
X-7849Y2300D01*
Y2350D01*
X-7799Y2400D01*
X-7649D01*
X-8149Y2500D02*
X-8099Y2550D01*
X-7999D01*
X-7949Y2500D01*
Y2300D01*
X-7999Y2250D01*
X-8099D01*
X-8149Y2300D01*
X-8249Y2550D02*
Y2250D01*
X-8349Y2350D01*
X-8449Y2250D01*
Y2550D01*
X-8748D02*
X-8648D01*
X-8698D01*
Y2300D01*
X-8648Y2250D01*
X-8598D01*
X-8548Y2300D01*
X-9148Y2550D02*
Y2350D01*
X-9248Y2250D01*
X-9348Y2350D01*
Y2550D01*
X-9648Y2250D02*
X-9448D01*
X-9648Y2450D01*
Y2500D01*
X-9598Y2550D01*
X-9498D01*
X-9448Y2500D01*
X-9748Y2250D02*
Y2300D01*
X-9798D01*
Y2250D01*
X-9748D01*
X-9998Y2500D02*
X-10048Y2550D01*
X-10148D01*
X-10198Y2500D01*
Y2450D01*
X-10148Y2400D01*
X-10098D01*
X-10148D01*
X-10198Y2350D01*
Y2300D01*
X-10148Y2250D01*
X-10048D01*
X-9998Y2300D01*
D65*
X-10980Y-3230D02*
X-10880D01*
X-10830Y-3280D01*
Y-3480D01*
X-10880Y-3530D01*
X-10980D01*
X-11030Y-3480D01*
Y-3280D01*
X-10980Y-3230D01*
X-11330Y-3280D02*
X-11280Y-3230D01*
X-11180D01*
X-11130Y-3280D01*
Y-3330D01*
X-11180Y-3380D01*
X-11280D01*
X-11330Y-3430D01*
Y-3480D01*
X-11280Y-3530D01*
X-11180D01*
X-11130Y-3480D01*
X-11430Y-3230D02*
Y-3530D01*
Y-3380D01*
X-11630D01*
Y-3230D01*
Y-3530D01*
X-11730Y-3230D02*
Y-3530D01*
X-11830Y-3430D01*
X-11930Y-3530D01*
Y-3230D01*
D66*
X-7025Y-3025D02*
D03*
M02*
