G04 Layer_Color=16711935*
%FSLAX24Y24*%
%MOIN*%
G70*
G01*
G75*
%ADD56R,0.0592X0.0671*%
%ADD61C,0.0631*%
%ADD62C,0.0395*%
%ADD63R,0.0671X0.0710*%
%ADD64O,0.0671X0.0710*%
%ADD65C,0.0552*%
%ADD66R,0.0552X0.0552*%
%ADD67R,0.0671X0.0671*%
%ADD68C,0.0671*%
%ADD69C,0.0474*%
%ADD70R,0.0474X0.0474*%
%ADD71O,0.0828X0.0316*%
%ADD72R,0.1419X0.0828*%
D56*
X-2274Y1200D02*
D03*
X-1526D02*
D03*
X1426Y450D02*
D03*
X2174D02*
D03*
X-1526Y-1500D02*
D03*
X-2274D02*
D03*
Y2100D02*
D03*
X-1526D02*
D03*
Y300D02*
D03*
X-2274D02*
D03*
X-1526Y-600D02*
D03*
X-2274D02*
D03*
X474Y-1550D02*
D03*
X-274D02*
D03*
X424Y-3050D02*
D03*
X-324D02*
D03*
X-11352Y-775D02*
D03*
X-12100D02*
D03*
D61*
X-13450Y-3100D02*
D03*
X-2600Y3200D02*
D03*
D62*
X-13374Y866D02*
D03*
Y-866D02*
D03*
D63*
X-450Y2350D02*
D03*
D64*
X550D02*
D03*
X-450Y1350D02*
D03*
X550D02*
D03*
X-450Y350D02*
D03*
X550Y350D02*
D03*
D65*
X1300Y-2300D02*
D03*
Y-1513D02*
D03*
D66*
Y-3087D02*
D03*
D67*
X-6750Y3100D02*
D03*
D68*
X-7750D02*
D03*
D69*
X2906Y2250D02*
D03*
X3406D02*
D03*
X2906Y1750D02*
D03*
X3406D02*
D03*
X2906Y1250D02*
D03*
X3406D02*
D03*
X2906Y-250D02*
D03*
X3406D02*
D03*
X2906Y-750D02*
D03*
Y-1250D02*
D03*
X3406D02*
D03*
X2906Y-1750D02*
D03*
X3406D02*
D03*
X2906Y-2250D02*
D03*
D70*
X3406D02*
D03*
D71*
X-6625Y-1750D02*
D03*
Y-1250D02*
D03*
Y-750D02*
D03*
Y-250D02*
D03*
Y250D02*
D03*
Y750D02*
D03*
Y1250D02*
D03*
X-4775Y-1750D02*
D03*
Y-1250D02*
D03*
Y-750D02*
D03*
Y-250D02*
D03*
Y250D02*
D03*
Y750D02*
D03*
Y1250D02*
D03*
D72*
X-11700Y2118D02*
D03*
Y582D02*
D03*
M02*
