G04 Layer_Color=8421504*
%FSLAX24Y24*%
%MOIN*%
G70*
G01*
G75*
%ADD10R,0.0827X0.0583*%
%ADD11R,0.0543X0.0177*%
%ADD12R,0.0748X0.0465*%
%ADD13R,0.0748X0.0937*%
%ADD14R,0.0945X0.0827*%
%ADD15R,0.0591X0.0512*%
%ADD16R,0.0512X0.0591*%
%ADD17R,0.0236X0.0866*%
%ADD18R,0.0236X0.0866*%
%ADD19R,0.0827X0.0335*%
%ADD20R,0.0827X0.1220*%
D10*
X-12118Y969D02*
D03*
Y-969D02*
D03*
D11*
X-11976Y256D02*
D03*
Y512D02*
D03*
Y-512D02*
D03*
Y-256D02*
D03*
Y0D02*
D03*
D12*
X-13024Y330D02*
D03*
Y-330D02*
D03*
D13*
Y-1146D02*
D03*
Y1146D02*
D03*
D14*
X-2650Y304D02*
D03*
Y1996D02*
D03*
D15*
X-1500Y176D02*
D03*
Y924D02*
D03*
X-3800Y-374D02*
D03*
Y374D02*
D03*
Y-1974D02*
D03*
Y-1226D02*
D03*
Y1226D02*
D03*
Y1974D02*
D03*
X-10250Y24D02*
D03*
Y-724D02*
D03*
D16*
X-10924Y2350D02*
D03*
X-10176D02*
D03*
X-4126Y-3100D02*
D03*
X-4874D02*
D03*
X-5827Y-3150D02*
D03*
X-6575D02*
D03*
X-10126Y-2950D02*
D03*
X-10874D02*
D03*
Y-2150D02*
D03*
X-10126D02*
D03*
X-10924Y1450D02*
D03*
X-10176D02*
D03*
X-9176Y3200D02*
D03*
X-9924D02*
D03*
X-12774Y2400D02*
D03*
X-12026D02*
D03*
D17*
X-4750Y1890D02*
D03*
X-5250D02*
D03*
X-5750D02*
D03*
X-6250D02*
D03*
X-6750D02*
D03*
X-7250D02*
D03*
X-7750D02*
D03*
X-8250D02*
D03*
X-8750D02*
D03*
X-9250D02*
D03*
Y-1890D02*
D03*
D18*
X-4750D02*
D03*
X-5250D02*
D03*
X-5750D02*
D03*
X-6250D02*
D03*
X-6750D02*
D03*
X-7250D02*
D03*
X-7750D02*
D03*
X-8250D02*
D03*
X-8750D02*
D03*
D19*
X122Y-3056D02*
D03*
Y-2150D02*
D03*
Y-1244D02*
D03*
D20*
X-2122Y-2150D02*
D03*
M02*
