G04 Layer_Physical_Order=2*
G04 Layer_Color=16711680*
%FSLAX24Y24*%
%MOIN*%
G70*
G01*
G75*
%ADD19R,0.0512X0.0591*%
%ADD22C,0.0250*%
%ADD23C,0.0100*%
%ADD24C,0.0236*%
%ADD28R,0.0830X0.2670*%
%ADD29C,0.0315*%
%ADD30C,0.0394*%
%ADD31R,0.0394X0.0394*%
%ADD32R,0.0591X0.0630*%
%ADD33O,0.0591X0.0630*%
%ADD34R,0.0591X0.0591*%
%ADD35C,0.0591*%
%ADD36C,0.0472*%
%ADD37R,0.0472X0.0472*%
%ADD38R,0.1339X0.0748*%
%ADD39O,0.0748X0.0236*%
G36*
X4198Y-3804D02*
X312D01*
X274Y-3712D01*
X560Y-3425D01*
X760D01*
Y-3289D01*
X984D01*
Y-3404D01*
X1616D01*
Y-2771D01*
X984D01*
Y-2885D01*
X760D01*
Y-2675D01*
X124D01*
X32Y-2655D01*
X32Y-2655D01*
X32Y-2655D01*
X-224D01*
Y-3050D01*
X-324D01*
Y-3150D01*
X-680D01*
Y-3445D01*
X-763Y-3487D01*
X-10377D01*
X-11099Y-2766D01*
Y-1151D01*
X-11016D01*
Y-400D01*
X-11099D01*
Y-106D01*
X-11098Y-101D01*
X-11098Y128D01*
X-10951D01*
Y1036D01*
X-12449D01*
Y128D01*
X-11572D01*
X-11502Y58D01*
X-11502Y-96D01*
X-11503Y-101D01*
Y-329D01*
X-11573Y-400D01*
X-11653D01*
X-11745Y-380D01*
X-11780Y-380D01*
X-12000D01*
Y-775D01*
Y-1171D01*
X-11780D01*
X-11745Y-1171D01*
X-11653Y-1151D01*
X-11573D01*
X-11503Y-1221D01*
Y-2849D01*
X-11487Y-2927D01*
X-11444Y-2992D01*
X-10724Y-3712D01*
X-10762Y-3804D01*
X-15222D01*
Y3804D01*
X4198D01*
Y-3804D01*
D02*
G37*
%LPC*%
G36*
X-13474Y-608D02*
X-13513Y-624D01*
X-13571Y-668D01*
X-13616Y-726D01*
X-13632Y-766D01*
X-13474D01*
Y-608D01*
D02*
G37*
G36*
X-13115Y-966D02*
X-13274D01*
Y-1125D01*
X-13234Y-1108D01*
X-13176Y-1064D01*
X-13132Y-1006D01*
X-13115Y-966D01*
D02*
G37*
G36*
X-13474D02*
X-13632D01*
X-13616Y-1006D01*
X-13571Y-1064D01*
X-13513Y-1108D01*
X-13474Y-1125D01*
Y-966D01*
D02*
G37*
G36*
X-13274Y-608D02*
Y-766D01*
X-13115D01*
X-13132Y-726D01*
X-13176Y-668D01*
X-13234Y-624D01*
X-13274Y-608D01*
D02*
G37*
G36*
X-13115Y766D02*
X-13274D01*
Y608D01*
X-13234Y624D01*
X-13176Y668D01*
X-13132Y726D01*
X-13115Y766D01*
D02*
G37*
G36*
X-13474D02*
X-13632D01*
X-13616Y726D01*
X-13571Y668D01*
X-13513Y624D01*
X-13474Y608D01*
Y766D01*
D02*
G37*
G36*
X-12200Y-380D02*
X-12456D01*
Y-675D01*
X-12200D01*
Y-380D01*
D02*
G37*
G36*
X3506Y-970D02*
Y-1150D01*
X3686D01*
X3666Y-1100D01*
X3618Y-1038D01*
X3556Y-991D01*
X3506Y-970D01*
D02*
G37*
G36*
X-1170Y-1600D02*
X-1426D01*
Y-1895D01*
X-1170D01*
Y-1600D01*
D02*
G37*
G36*
X-374Y-1650D02*
X-630D01*
Y-1945D01*
X-374D01*
Y-1650D01*
D02*
G37*
G36*
X-424Y-2655D02*
X-680D01*
Y-2950D01*
X-424D01*
Y-2655D01*
D02*
G37*
G36*
X82Y-1155D02*
X46Y-1155D01*
X-174D01*
Y-1550D01*
Y-1945D01*
X46D01*
X82Y-1945D01*
X174Y-1925D01*
X810D01*
Y-1645D01*
X1013D01*
X1024Y-1672D01*
X1074Y-1738D01*
X1141Y-1789D01*
X1217Y-1821D01*
X1300Y-1832D01*
X1383Y-1821D01*
X1459Y-1789D01*
X1526Y-1738D01*
X1576Y-1672D01*
X1608Y-1595D01*
X1619Y-1513D01*
X1608Y-1430D01*
X1576Y-1353D01*
X1526Y-1287D01*
X1459Y-1236D01*
X1383Y-1205D01*
X1300Y-1194D01*
X1217Y-1205D01*
X1141Y-1236D01*
X1074Y-1287D01*
X1024Y-1353D01*
X1013Y-1380D01*
X810D01*
Y-1175D01*
X174D01*
X82Y-1155D01*
D02*
G37*
G36*
X-12200Y-875D02*
X-12456D01*
Y-1171D01*
X-12200D01*
Y-875D01*
D02*
G37*
G36*
X-1426Y-1105D02*
Y-1400D01*
X-1170D01*
Y-1105D01*
X-1426D01*
D02*
G37*
G36*
X-374Y-1155D02*
X-630D01*
Y-1450D01*
X-374D01*
Y-1155D01*
D02*
G37*
G36*
X3506Y2530D02*
Y2350D01*
X3686D01*
X3666Y2400D01*
X3618Y2462D01*
X3556Y2509D01*
X3506Y2530D01*
D02*
G37*
G36*
X3306D02*
X3257Y2509D01*
X3210Y2473D01*
X3104Y2447D01*
X3046Y2492D01*
X2979Y2520D01*
X2906Y2529D01*
X2834Y2520D01*
X2767Y2492D01*
X2709Y2447D01*
X2664Y2390D01*
X2637Y2322D01*
X2627Y2250D01*
X2637Y2178D01*
X2664Y2110D01*
X2709Y2053D01*
Y1947D01*
X2664Y1890D01*
X2637Y1822D01*
X2627Y1750D01*
X2637Y1678D01*
X2664Y1610D01*
X2709Y1553D01*
Y1447D01*
X2664Y1390D01*
X2637Y1322D01*
X2627Y1250D01*
X2637Y1178D01*
X2664Y1110D01*
X2709Y1053D01*
X2767Y1008D01*
X2834Y980D01*
X2906Y971D01*
X2979Y980D01*
X3046Y1008D01*
X3104Y1053D01*
X3210Y1027D01*
X3257Y991D01*
X3306Y970D01*
Y1250D01*
X3406D01*
Y1350D01*
X3686D01*
X3666Y1400D01*
X3618Y1462D01*
Y1538D01*
X3666Y1600D01*
X3686Y1650D01*
X3406D01*
Y1850D01*
X3686D01*
X3666Y1900D01*
X3618Y1962D01*
Y2038D01*
X3666Y2100D01*
X3686Y2150D01*
X3406D01*
Y2250D01*
X3306D01*
Y2530D01*
D02*
G37*
G36*
X600Y2505D02*
Y2200D01*
X888D01*
X885Y2223D01*
X845Y2319D01*
X782Y2402D01*
X699Y2465D01*
X603Y2505D01*
X600Y2505D01*
D02*
G37*
G36*
X-125Y2495D02*
X-875D01*
Y2233D01*
X-1190D01*
Y2475D01*
X-1838D01*
X-1862Y2475D01*
X-1938D01*
X-1962Y2475D01*
X-2610D01*
Y2233D01*
X-2687D01*
X-2738Y2222D01*
X-2781Y2194D01*
X-4092Y883D01*
X-4369D01*
X-4376Y893D01*
X-4442Y937D01*
X-4519Y952D01*
Y1048D01*
X-4442Y1063D01*
X-4376Y1107D01*
X-4332Y1173D01*
X-4317Y1250D01*
X-4332Y1327D01*
X-4376Y1393D01*
X-4442Y1437D01*
X-4519Y1452D01*
X-5031D01*
X-5108Y1437D01*
X-5174Y1393D01*
X-5180Y1383D01*
X-5270D01*
X-5321Y1372D01*
X-5364Y1344D01*
X-5575Y1133D01*
X-6074D01*
X-6088Y1150D01*
X-7109D01*
X-7151Y1122D01*
X-7194Y1094D01*
X-7275Y1013D01*
X-7350Y1042D01*
X-7372Y1057D01*
X-7380Y1122D01*
X-7408Y1190D01*
X-7453Y1247D01*
X-7510Y1292D01*
X-7530Y1300D01*
X-7724Y1494D01*
X-7767Y1522D01*
X-7817Y1533D01*
X-9650D01*
X-9701Y1522D01*
X-9744Y1494D01*
X-9894Y1344D01*
X-9922Y1301D01*
X-9933Y1250D01*
Y-1100D01*
X-9922Y-1151D01*
X-9894Y-1194D01*
X-9244Y-1844D01*
X-9201Y-1872D01*
X-9150Y-1883D01*
X-7031D01*
X-7024Y-1893D01*
X-6958Y-1937D01*
X-6881Y-1952D01*
X-6369D01*
X-6292Y-1937D01*
X-6226Y-1893D01*
X-6183Y-1827D01*
X-6167Y-1750D01*
X-6183Y-1673D01*
X-6226Y-1607D01*
X-6292Y-1563D01*
X-6369Y-1548D01*
Y-1452D01*
X-6292Y-1437D01*
X-6226Y-1393D01*
X-6183Y-1327D01*
X-6167Y-1250D01*
X-6183Y-1173D01*
X-6226Y-1107D01*
X-6292Y-1063D01*
X-6369Y-1048D01*
Y-952D01*
X-6292Y-937D01*
X-6226Y-893D01*
X-6220Y-883D01*
X-6163D01*
X-6113Y-872D01*
X-6070Y-844D01*
X-5942Y-716D01*
X-5913Y-673D01*
X-5903Y-622D01*
Y-384D01*
X-5803Y-353D01*
X-5802Y-354D01*
X-5313Y-844D01*
X-5270Y-872D01*
X-5219Y-883D01*
X-5180D01*
X-5174Y-893D01*
X-5108Y-937D01*
X-5031Y-952D01*
Y-1048D01*
X-5108Y-1063D01*
X-5174Y-1107D01*
X-5217Y-1173D01*
X-5233Y-1250D01*
X-5217Y-1327D01*
X-5174Y-1393D01*
X-5108Y-1437D01*
X-5031Y-1452D01*
Y-1548D01*
X-5108Y-1563D01*
X-5174Y-1607D01*
X-5217Y-1673D01*
X-5233Y-1750D01*
X-5217Y-1827D01*
X-5174Y-1893D01*
X-5108Y-1937D01*
X-5031Y-1952D01*
X-4519D01*
X-4515Y-1951D01*
X-4475Y-1959D01*
X-4250D01*
X-4250Y-1959D01*
X-4170Y-1943D01*
X-4102Y-1898D01*
X-3913Y-1709D01*
X-2610D01*
Y-1875D01*
X-2433D01*
Y-2026D01*
X-2433Y-2026D01*
X-2417Y-2106D01*
X-2372Y-2174D01*
X-2098Y-2448D01*
X-2030Y-2493D01*
X-1950Y-2509D01*
X1062D01*
X1074Y-2526D01*
X1141Y-2576D01*
X1217Y-2608D01*
X1300Y-2619D01*
X1383Y-2608D01*
X1459Y-2576D01*
X1526Y-2526D01*
X1576Y-2459D01*
X1608Y-2383D01*
X1619Y-2300D01*
X1608Y-2217D01*
X1576Y-2141D01*
X1526Y-2074D01*
X1459Y-2024D01*
X1383Y-1992D01*
X1300Y-1981D01*
X1217Y-1992D01*
X1141Y-2024D01*
X1074Y-2074D01*
X1062Y-2091D01*
X-1863D01*
X-1979Y-1975D01*
X-1941Y-1882D01*
X-1882Y-1895D01*
X-1846Y-1895D01*
X-1626D01*
Y-1500D01*
Y-1105D01*
X-1846D01*
X-1882Y-1105D01*
X-1965Y-1123D01*
X-1999Y-1119D01*
X-2000Y-1117D01*
X-2000Y-981D01*
X-1994Y-975D01*
X-1862Y-975D01*
X-1838Y-975D01*
X-1190D01*
Y-225D01*
X-1343D01*
Y-75D01*
X-1190D01*
Y422D01*
X-1145Y467D01*
X-828D01*
X-804Y436D01*
X-783Y367D01*
X-828Y309D01*
X-866Y218D01*
X-879Y120D01*
Y80D01*
X-866Y-18D01*
X-828Y-109D01*
X-768Y-187D01*
X-689Y-247D01*
X-598Y-285D01*
X-500Y-298D01*
X-402Y-285D01*
X-311Y-247D01*
X-232Y-187D01*
X-172Y-109D01*
X-134Y-18D01*
X-121Y80D01*
Y120D01*
X-134Y218D01*
X-172Y309D01*
X-217Y367D01*
X-196Y436D01*
X-172Y467D01*
X0D01*
X51Y478D01*
X94Y506D01*
X331Y744D01*
X402Y715D01*
X500Y702D01*
X598Y715D01*
X689Y753D01*
X768Y813D01*
X828Y891D01*
X866Y982D01*
X879Y1080D01*
Y1120D01*
X866Y1218D01*
X828Y1309D01*
X783Y1367D01*
X804Y1436D01*
X828Y1467D01*
X1645D01*
X2067Y1045D01*
Y596D01*
X1997Y525D01*
X1862D01*
X1838Y525D01*
X1762D01*
X1738Y525D01*
X1090D01*
Y309D01*
X828D01*
X768Y387D01*
X689Y447D01*
X598Y485D01*
X500Y498D01*
X402Y485D01*
X311Y447D01*
X232Y387D01*
X172Y309D01*
X134Y218D01*
X121Y120D01*
Y80D01*
X134Y-18D01*
X172Y-109D01*
X232Y-187D01*
X311Y-247D01*
X402Y-285D01*
X500Y-298D01*
X598Y-285D01*
X689Y-247D01*
X768Y-187D01*
X828Y-109D01*
X1090D01*
Y-225D01*
X1738D01*
X1762Y-225D01*
X1838D01*
X1862Y-225D01*
X2352D01*
X2367Y-241D01*
Y-1650D01*
X2378Y-1701D01*
X2406Y-1744D01*
X2506Y-1844D01*
X2549Y-1872D01*
X2600Y-1883D01*
X2662D01*
X2664Y-1890D01*
X2709Y-1947D01*
Y-2053D01*
X2664Y-2110D01*
X2637Y-2178D01*
X2627Y-2250D01*
X2637Y-2322D01*
X2664Y-2390D01*
X2709Y-2447D01*
X2767Y-2492D01*
X2834Y-2520D01*
X2906Y-2529D01*
X2979Y-2520D01*
X3029Y-2499D01*
X3129Y-2527D01*
Y-2527D01*
X3129Y-2527D01*
X3683D01*
Y-1973D01*
X3683Y-1973D01*
X3677Y-1873D01*
X3686Y-1850D01*
X3406D01*
Y-1650D01*
X3686D01*
X3666Y-1600D01*
X3618Y-1538D01*
Y-1462D01*
X3666Y-1400D01*
X3686Y-1350D01*
X3406D01*
Y-1250D01*
X3306D01*
Y-970D01*
X3257Y-991D01*
X3210Y-1027D01*
X3204Y-1028D01*
X3104Y-950D01*
Y-947D01*
X3148Y-890D01*
X3176Y-822D01*
X3186Y-750D01*
X3176Y-678D01*
X3148Y-610D01*
X3104Y-553D01*
Y-447D01*
X3209D01*
X3267Y-492D01*
X3334Y-520D01*
X3406Y-529D01*
X3479Y-520D01*
X3546Y-492D01*
X3604Y-447D01*
X3648Y-390D01*
X3676Y-322D01*
X3686Y-250D01*
X3676Y-178D01*
X3648Y-110D01*
X3604Y-53D01*
X3546Y-8D01*
X3479Y20D01*
X3406Y29D01*
X3334Y20D01*
X3267Y-8D01*
X3209Y-53D01*
X3104D01*
X3046Y-8D01*
X2979Y20D01*
X2906Y29D01*
X2834Y20D01*
X2767Y-8D01*
X2709Y-53D01*
X2698Y-67D01*
X2652Y-78D01*
X2585Y-76D01*
X2573Y-71D01*
X2510Y-8D01*
Y525D01*
X2333D01*
Y1100D01*
X2322Y1151D01*
X2294Y1194D01*
X1794Y1694D01*
X1751Y1722D01*
X1700Y1733D01*
X853D01*
X808Y1833D01*
X845Y1881D01*
X885Y1977D01*
X888Y2000D01*
X112D01*
X115Y1977D01*
X155Y1881D01*
X192Y1833D01*
X147Y1733D01*
X-125D01*
Y2495D01*
D02*
G37*
G36*
X-6850Y3000D02*
X-7145D01*
Y2705D01*
X-6850D01*
Y3000D01*
D02*
G37*
G36*
Y3495D02*
X-7145D01*
Y3200D01*
X-6850D01*
Y3495D01*
D02*
G37*
G36*
X-6355D02*
X-6650D01*
Y3200D01*
X-6355D01*
Y3495D01*
D02*
G37*
G36*
Y3000D02*
X-6650D01*
Y2705D01*
X-6355D01*
Y3000D01*
D02*
G37*
G36*
X-7750Y3479D02*
X-7848Y3466D01*
X-7939Y3428D01*
X-8018Y3368D01*
X-8078Y3289D01*
X-8116Y3198D01*
X-8129Y3100D01*
X-8116Y3002D01*
X-8078Y2911D01*
X-8018Y2832D01*
X-7939Y2772D01*
X-7848Y2734D01*
X-7750Y2721D01*
X-7652Y2734D01*
X-7561Y2772D01*
X-7482Y2832D01*
X-7422Y2911D01*
X-7384Y3002D01*
X-7371Y3100D01*
X-7384Y3198D01*
X-7422Y3289D01*
X-7482Y3368D01*
X-7561Y3428D01*
X-7652Y3466D01*
X-7750Y3479D01*
D02*
G37*
G36*
X3686Y1150D02*
X3506D01*
Y970D01*
X3556Y991D01*
X3618Y1038D01*
X3666Y1100D01*
X3686Y1150D01*
D02*
G37*
G36*
X-6725Y1472D02*
X-6881D01*
X-6966Y1455D01*
X-7038Y1407D01*
X-7077Y1350D01*
X-6725D01*
Y1472D01*
D02*
G37*
G36*
X-13474Y1125D02*
X-13513Y1108D01*
X-13571Y1064D01*
X-13616Y1006D01*
X-13632Y966D01*
X-13474D01*
Y1125D01*
D02*
G37*
G36*
X-13274D02*
Y966D01*
X-13115D01*
X-13132Y1006D01*
X-13176Y1064D01*
X-13234Y1108D01*
X-13274Y1125D01*
D02*
G37*
G36*
X-11350Y3179D02*
X-11422Y3170D01*
X-11490Y3142D01*
X-11547Y3097D01*
X-11592Y3040D01*
X-11620Y2972D01*
X-11629Y2900D01*
X-11620Y2828D01*
X-11592Y2760D01*
X-11552Y2708D01*
Y2572D01*
X-12449D01*
Y1664D01*
X-10951D01*
Y2572D01*
X-11148D01*
Y2708D01*
X-11108Y2760D01*
X-11080Y2828D01*
X-11071Y2900D01*
X-11080Y2972D01*
X-11108Y3040D01*
X-11153Y3097D01*
X-11210Y3142D01*
X-11278Y3170D01*
X-11350Y3179D01*
D02*
G37*
G36*
X400Y2505D02*
X397Y2505D01*
X301Y2465D01*
X218Y2402D01*
X155Y2319D01*
X115Y2223D01*
X112Y2200D01*
X400D01*
Y2505D01*
D02*
G37*
G36*
X-6369Y1472D02*
X-6525D01*
Y1350D01*
X-6174D01*
X-6212Y1407D01*
X-6284Y1455D01*
X-6369Y1472D01*
D02*
G37*
%LPD*%
G36*
X-9577Y1224D02*
X-9522Y1122D01*
X-9531Y1050D01*
X-9522Y978D01*
X-9494Y910D01*
X-9449Y853D01*
X-9392Y808D01*
X-9324Y780D01*
X-9252Y771D01*
X-9180Y780D01*
X-9173Y783D01*
X-8546Y156D01*
X-8503Y128D01*
X-8452Y117D01*
X-7031D01*
X-7024Y107D01*
X-6958Y63D01*
X-6881Y48D01*
Y-48D01*
X-6958Y-63D01*
X-7024Y-107D01*
X-7031Y-117D01*
X-7087D01*
X-7137Y-128D01*
X-7180Y-156D01*
X-7925Y-901D01*
X-8491D01*
X-8508Y-860D01*
X-8553Y-803D01*
X-8610Y-758D01*
X-8678Y-730D01*
X-8750Y-721D01*
X-8822Y-730D01*
X-8890Y-758D01*
X-8947Y-803D01*
X-8992Y-860D01*
X-9020Y-928D01*
X-9025Y-965D01*
X-9125D01*
X-9130Y-928D01*
X-9158Y-860D01*
X-9203Y-803D01*
X-9260Y-758D01*
X-9328Y-730D01*
X-9400Y-721D01*
X-9472Y-730D01*
X-9540Y-758D01*
X-9567Y-780D01*
X-9662Y-741D01*
X-9667Y-736D01*
Y1171D01*
X-9580Y1224D01*
X-9577Y1224D01*
D02*
G37*
G36*
X-2610Y-75D02*
X-1962D01*
X-1938Y-75D01*
X-1862D01*
X-1838Y-75D01*
X-1660D01*
X-1630Y-175D01*
X-1679Y-225D01*
X-1838D01*
X-1862Y-225D01*
X-1938D01*
X-1962Y-225D01*
X-2610D01*
Y-975D01*
X-2483D01*
Y-1125D01*
X-2610D01*
Y-1291D01*
X-4000D01*
X-4080Y-1307D01*
X-4148Y-1352D01*
X-4148Y-1352D01*
X-4337Y-1541D01*
X-4454D01*
X-4464Y-1441D01*
X-4442Y-1437D01*
X-4376Y-1393D01*
X-4332Y-1327D01*
X-4317Y-1250D01*
X-4332Y-1173D01*
X-4376Y-1107D01*
X-4442Y-1063D01*
X-4519Y-1048D01*
Y-952D01*
X-4442Y-937D01*
X-4376Y-893D01*
X-4332Y-827D01*
X-4317Y-750D01*
X-4332Y-673D01*
X-4376Y-607D01*
X-4442Y-563D01*
X-4519Y-548D01*
Y-452D01*
X-4442Y-437D01*
X-4376Y-393D01*
X-4369Y-383D01*
X-4050D01*
X-3999Y-372D01*
X-3956Y-344D01*
X-3445Y167D01*
X-2610D01*
Y-75D01*
D02*
G37*
D19*
X-2274Y1200D02*
D03*
X-1526D02*
D03*
X1426Y150D02*
D03*
X2174D02*
D03*
X-1526Y-1500D02*
D03*
X-2274D02*
D03*
Y2100D02*
D03*
X-1526D02*
D03*
Y300D02*
D03*
X-2274D02*
D03*
X-1526Y-600D02*
D03*
X-2274D02*
D03*
X424Y-3050D02*
D03*
X-324D02*
D03*
X474Y-1550D02*
D03*
X-274D02*
D03*
X-11352Y-775D02*
D03*
X-12100D02*
D03*
D22*
X-2224Y-2026D02*
X-1950Y-2300D01*
X-4000Y-1500D02*
X-2274D01*
X-4250Y-1750D02*
X-4000Y-1500D01*
X-4475Y-1750D02*
X-4250D01*
X-2274Y-1500D02*
X-2224D01*
Y-2026D02*
Y-1500D01*
X-2274D02*
Y-600D01*
X500Y100D02*
X1426D01*
X-1950Y-2300D02*
X1300D01*
D23*
X2200Y114D02*
X2500Y-186D01*
Y-1650D02*
Y-186D01*
Y-1650D02*
X2600Y-1750D01*
X2200Y114D02*
Y1100D01*
X-3500Y300D02*
X-2274D01*
X-4050Y-250D02*
X-3500Y300D01*
X-4475Y-250D02*
X-4050D01*
X1700Y1600D02*
X2200Y1100D01*
X-800Y1600D02*
X1700D01*
X-6625Y250D02*
X-6325D01*
X-8452D02*
X-6625D01*
X-9252Y1102D02*
X-9226Y1076D01*
X-9252Y1050D02*
X-8452Y250D01*
X-7400Y700D02*
X-7100Y1000D01*
X-7905Y700D02*
X-7400D01*
X-8268Y1063D02*
X-7905Y700D01*
X-9800Y1250D02*
X-9650Y1400D01*
X-9800Y-1100D02*
Y1250D01*
Y-1100D02*
X-9150Y-1750D01*
X-7817Y1400D02*
X-7520Y1102D01*
X-9650Y1400D02*
X-7817D01*
X-9150Y-1750D02*
X-6625D01*
X-9022Y-1378D02*
X-7978D01*
X-9400Y-1000D02*
X-9022Y-1378D01*
X-1200Y1200D02*
X-800Y1600D01*
X-1526Y1200D02*
X-1200D01*
X-3000D02*
X-2274D01*
X-4200Y0D02*
X-3000Y1200D01*
X-1476Y-580D02*
Y324D01*
X-1200Y600D01*
X0D01*
X500Y1100D01*
X-5148Y0D02*
X-4200D01*
X-4775Y750D02*
X-4037D01*
X-2687Y2100D01*
X-2274D01*
X-1300D02*
X-500D01*
X-4825Y700D02*
X-4775D01*
X2600Y-1750D02*
X2906D01*
X-6625D02*
X-6325D01*
X-7100Y1000D02*
X-5520D01*
X-7330Y1250D02*
X-6625D01*
X-5760D01*
X-6625D02*
Y1835D01*
X-5270Y1250D02*
X-4775D01*
X-5520Y1000D02*
X-5270Y1250D01*
X-5219Y-750D02*
X-4775D01*
X-6675Y200D02*
X-6625D01*
Y750D02*
X-4825D01*
X-4775Y300D02*
Y700D01*
Y-1250D02*
Y-750D01*
X-5709Y-261D02*
Y98D01*
X-6036Y234D02*
X-5844Y425D01*
X-5573D01*
X-5148Y0D01*
X-5709Y-261D02*
X-5219Y-750D01*
X-7850Y-1250D02*
X-6625D01*
X-7870Y-1033D02*
X-7087Y-250D01*
X-8750Y-1033D02*
X-7870D01*
X-7087Y-250D02*
X-6625D01*
X-6325D01*
X-7978Y-1378D02*
X-7850Y-1250D01*
X-6625Y-750D02*
X-6163D01*
X-6036Y-622D01*
Y234D01*
X511Y-1513D02*
X1300D01*
D24*
X-11300Y-101D02*
X-11299Y582D01*
X-11299Y600D01*
X-11350Y2150D02*
Y2900D01*
X11Y-3689D02*
X613Y-3087D01*
X1300D01*
X-11301Y-2849D02*
Y-101D01*
Y-2849D02*
X-10461Y-3689D01*
X11D01*
D28*
X-13415Y35D02*
D03*
D29*
X-13374Y866D02*
D03*
Y-866D02*
D03*
D30*
X2906Y2250D02*
D03*
X3406D02*
D03*
X2906Y1750D02*
D03*
X3406D02*
D03*
X2906Y1250D02*
D03*
X3406D02*
D03*
X2906Y-250D02*
D03*
X3406D02*
D03*
X2906Y-750D02*
D03*
Y-1250D02*
D03*
X3406D02*
D03*
X2906Y-1750D02*
D03*
X3406D02*
D03*
X2906Y-2250D02*
D03*
X-9450Y-3250D02*
D03*
X-900Y-1600D02*
D03*
X-1400Y-3250D02*
D03*
X-2300D02*
D03*
X-3100D02*
D03*
Y-2200D02*
D03*
Y-900D02*
D03*
X-11350Y2900D02*
D03*
X-10350Y700D02*
D03*
X-10630Y3445D02*
D03*
X-4750Y3000D02*
D03*
X-8750Y-1000D02*
D03*
X-9400D02*
D03*
X-7650Y1050D02*
D03*
X-9252D02*
D03*
X2800Y-3350D02*
D03*
X3100Y3300D02*
D03*
X-8268Y1050D02*
D03*
X-5709Y98D02*
D03*
Y-984D02*
D03*
X-7800Y-200D02*
D03*
X-8300Y-3250D02*
D03*
D31*
X3406Y-2250D02*
D03*
D32*
X-500Y2100D02*
D03*
D33*
X500D02*
D03*
X-500Y1100D02*
D03*
X500D02*
D03*
X-500Y100D02*
D03*
X500Y100D02*
D03*
D34*
X-6750Y3100D02*
D03*
D35*
X-7750D02*
D03*
D36*
X1300Y-2300D02*
D03*
Y-1513D02*
D03*
D37*
Y-3087D02*
D03*
D38*
X-11700Y2118D02*
D03*
Y582D02*
D03*
D39*
X-6625Y-1750D02*
D03*
Y-1250D02*
D03*
Y-750D02*
D03*
Y-250D02*
D03*
Y250D02*
D03*
Y750D02*
D03*
Y1250D02*
D03*
X-4775Y-1750D02*
D03*
Y-1250D02*
D03*
Y-750D02*
D03*
Y-250D02*
D03*
Y250D02*
D03*
Y750D02*
D03*
Y1250D02*
D03*
M02*
