G04 Layer_Color=65535*
%FSLAX24Y24*%
%MOIN*%
G70*
G01*
G75*
%ADD23C,0.0100*%
%ADD39C,0.0079*%
%ADD40C,0.0098*%
%ADD41C,0.0080*%
%ADD42C,0.0039*%
%ADD43C,0.0050*%
%ADD44C,0.0060*%
G36*
X3650Y-3275D02*
X3000D01*
X3350Y-2725D01*
X3650Y-3275D01*
D02*
G37*
G36*
X-445Y3045D02*
X-745Y3595D01*
X-95D01*
X-445Y3045D01*
D02*
G37*
D23*
X-3280Y-31D02*
Y2331D01*
X-2020Y-31D02*
Y2331D01*
D39*
X-4378Y250D02*
G03*
X-4378Y-250I0J-250D01*
G01*
X-13327Y2638D02*
X-11476D01*
X-13327Y3661D02*
X-11476D01*
Y2638D02*
Y3661D01*
X-5424Y-3612D02*
Y-2588D01*
Y-3612D02*
X-3573D01*
X-5424Y-2588D02*
X-3573D01*
X-4378Y-1535D02*
Y-250D01*
Y250D02*
Y1535D01*
X-9622Y-1535D02*
Y1535D01*
X-1591Y-831D02*
X-409D01*
X-1591Y-3469D02*
X-409D01*
X-1591Y-831D02*
X-1591Y-3469D01*
X-409D02*
X-409Y-831D01*
X906Y-3481D02*
X1694D01*
X906D02*
Y-1119D01*
X1694Y-3481D02*
Y-1119D01*
X906D02*
X1694D01*
D40*
X-4366Y1929D02*
G03*
X-4366Y1929I-49J0D01*
G01*
X201Y-3489D02*
G03*
X201Y-3489I-49J0D01*
G01*
D41*
X-2187Y3200D02*
G03*
X-2187Y3200I-413J0D01*
G01*
X-13037Y-3100D02*
G03*
X-13037Y-3100I-413J0D01*
G01*
X-1650Y1700D02*
X-1150D01*
Y1950D01*
X-1233Y2033D01*
X-1317D01*
X-1400Y1950D01*
Y1700D01*
Y1950D01*
X-1483Y2033D01*
X-1567D01*
X-1650Y1950D01*
Y1700D01*
Y2200D02*
X-1150D01*
Y2450D01*
X-1233Y2533D01*
X-1567D01*
X-1650Y2450D01*
Y2200D01*
X-1150Y2700D02*
X-1650D01*
X-1483Y2866D01*
X-1650Y3033D01*
X-1150D01*
X1933Y1583D02*
X1850Y1500D01*
Y1333D01*
X1933Y1250D01*
X2017D01*
X2100Y1333D01*
Y1500D01*
X2183Y1583D01*
X2267D01*
X2350Y1500D01*
Y1333D01*
X2267Y1250D01*
X1850Y1750D02*
X2350D01*
X2183Y1916D01*
X2350Y2083D01*
X1850D01*
Y2250D02*
X2350D01*
Y2500D01*
X2267Y2583D01*
X1933D01*
X1850Y2500D01*
Y2250D01*
D42*
X-9550Y2905D02*
Y3495D01*
X-8812Y2905D02*
Y3495D01*
X-8250Y2600D02*
Y3600D01*
X-6250D01*
Y2600D02*
Y3600D01*
X-8250Y2600D02*
X-6250D01*
X-10545Y-350D02*
X-9955D01*
X-4095Y1600D02*
X-3505D01*
X-4095Y-1600D02*
X-3505D01*
X-6201Y-3445D02*
Y-2854D01*
X-10550Y1155D02*
Y1745D01*
X-10500Y-2445D02*
Y-1855D01*
Y-3345D02*
Y-2755D01*
X-4095Y0D02*
X-3505D01*
X-10550Y2055D02*
Y2645D01*
X-1795Y550D02*
X-1205D01*
X-15500Y-1575D02*
Y1575D01*
X-13925D02*
X-13137D01*
X-13925Y-1575D02*
X-13137D01*
X-11878Y866D02*
Y1417D01*
Y-1417D02*
Y-866D01*
X2487Y2520D02*
X2619D01*
X3694D02*
X3826D01*
X3694Y-2520D02*
X3826D01*
X2487D02*
X2619D01*
X3826D02*
Y2520D01*
X2487Y-2520D02*
Y2520D01*
X1050Y-150D02*
Y2850D01*
X-950D02*
X1050D01*
X-950Y-150D02*
Y2850D01*
Y-150D02*
X1050D01*
D43*
X-2900Y-300D02*
Y-358D01*
X-2783Y-475D01*
X-2667Y-358D01*
Y-300D01*
X-2783Y-475D02*
Y-650D01*
X-2550D02*
X-2433D01*
X-2492D01*
Y-300D01*
X-2550Y-358D01*
D44*
X1100Y-700D02*
X1000D01*
X1050D01*
Y-950D01*
X1000Y-1000D01*
X950D01*
X900Y-950D01*
X1200Y-1000D02*
Y-700D01*
X1350D01*
X1400Y-750D01*
Y-850D01*
X1350Y-900D01*
X1200D01*
X1700Y-1000D02*
X1500D01*
X1700Y-800D01*
Y-750D01*
X1650Y-700D01*
X1550D01*
X1500Y-750D01*
X-1700Y-700D02*
Y-400D01*
X-1550D01*
X-1500Y-450D01*
Y-550D01*
X-1550Y-600D01*
X-1700D01*
X-1600D02*
X-1500Y-700D01*
X-1400Y-450D02*
X-1350Y-400D01*
X-1250D01*
X-1200Y-450D01*
Y-500D01*
X-1250Y-550D01*
X-1300D01*
X-1250D01*
X-1200Y-600D01*
Y-650D01*
X-1250Y-700D01*
X-1350D01*
X-1400Y-650D01*
X-11000Y2950D02*
Y3250D01*
X-10850D01*
X-10800Y3200D01*
Y3100D01*
X-10850Y3050D01*
X-11000D01*
X-10900D02*
X-10800Y2950D01*
X-10500Y3250D02*
X-10700D01*
Y3100D01*
X-10600Y3150D01*
X-10550D01*
X-10500Y3100D01*
Y3000D01*
X-10550Y2950D01*
X-10650D01*
X-10700Y3000D01*
X-3150Y-2700D02*
X-3200Y-2650D01*
X-3300D01*
X-3350Y-2700D01*
Y-2900D01*
X-3300Y-2950D01*
X-3200D01*
X-3150Y-2900D01*
X-3050Y-2700D02*
X-3000Y-2650D01*
X-2900D01*
X-2850Y-2700D01*
Y-2750D01*
X-2900Y-2800D01*
X-2950D01*
X-2900D01*
X-2850Y-2850D01*
Y-2900D01*
X-2900Y-2950D01*
X-3000D01*
X-3050Y-2900D01*
X-4050Y2550D02*
Y2850D01*
X-3900D01*
X-3850Y2800D01*
Y2700D01*
X-3900Y2650D01*
X-4050D01*
X-3950D02*
X-3850Y2550D01*
X-3550D02*
X-3750D01*
X-3550Y2750D01*
Y2800D01*
X-3600Y2850D01*
X-3700D01*
X-3750Y2800D01*
X-7551Y-3150D02*
X-7601Y-3100D01*
X-7701D01*
X-7751Y-3150D01*
Y-3350D01*
X-7701Y-3400D01*
X-7601D01*
X-7551Y-3350D01*
X-7451Y-3400D02*
X-7351D01*
X-7401D01*
Y-3100D01*
X-7451Y-3150D01*
X-8900Y250D02*
Y-0D01*
X-8850Y-50D01*
X-8750D01*
X-8700Y-0D01*
Y250D01*
X-8400Y-50D02*
X-8600D01*
X-8400Y150D01*
Y200D01*
X-8450Y250D01*
X-8550D01*
X-8600Y200D01*
X-3100Y-1550D02*
X-3150Y-1500D01*
X-3250D01*
X-3300Y-1550D01*
Y-1750D01*
X-3250Y-1800D01*
X-3150D01*
X-3100Y-1750D01*
X-3000Y-1500D02*
X-2800D01*
Y-1550D01*
X-3000Y-1750D01*
Y-1800D01*
X-3900Y3300D02*
X-3950Y3350D01*
X-4050D01*
X-4100Y3300D01*
Y3100D01*
X-4050Y3050D01*
X-3950D01*
X-3900Y3100D01*
X-3600Y3350D02*
X-3800D01*
Y3200D01*
X-3700Y3250D01*
X-3650D01*
X-3600Y3200D01*
Y3100D01*
X-3650Y3050D01*
X-3750D01*
X-3800Y3100D01*
X-12350Y-3450D02*
Y-3150D01*
X-12200D01*
X-12150Y-3200D01*
Y-3300D01*
X-12200Y-3350D01*
X-12350D01*
X-12250D02*
X-12150Y-3450D01*
X-12050D02*
X-11950D01*
X-12000D01*
Y-3150D01*
X-12050Y-3200D01*
X-11800Y-3450D02*
X-11700D01*
X-11750D01*
Y-3150D01*
X-11800Y-3200D01*
X-12350Y-2950D02*
Y-2650D01*
X-12200D01*
X-12150Y-2700D01*
Y-2800D01*
X-12200Y-2850D01*
X-12350D01*
X-12250D02*
X-12150Y-2950D01*
X-12050D02*
X-11950D01*
X-12000D01*
Y-2650D01*
X-12050Y-2700D01*
X-11800D02*
X-11750Y-2650D01*
X-11650D01*
X-11600Y-2700D01*
Y-2900D01*
X-11650Y-2950D01*
X-11750D01*
X-11800Y-2900D01*
Y-2700D01*
X-11250Y580D02*
Y880D01*
X-11100D01*
X-11050Y830D01*
Y730D01*
X-11100Y680D01*
X-11250D01*
X-11150D02*
X-11050Y580D01*
X-10950D02*
X-10850D01*
X-10900D01*
Y880D01*
X-10950Y830D01*
X-10350Y-1300D02*
X-10400Y-1250D01*
X-10500D01*
X-10550Y-1300D01*
Y-1500D01*
X-10500Y-1550D01*
X-10400D01*
X-10350Y-1500D01*
X-10050Y-1550D02*
X-10250D01*
X-10050Y-1350D01*
Y-1300D01*
X-10100Y-1250D01*
X-10200D01*
X-10250Y-1300D01*
X3300Y2800D02*
Y3100D01*
X3450D01*
X3500Y3050D01*
Y2950D01*
X3450Y2900D01*
X3300D01*
X3600Y2800D02*
X3700D01*
X3650D01*
Y3100D01*
X3600Y3050D01*
X550Y2950D02*
Y3250D01*
X700D01*
X750Y3200D01*
Y3100D01*
X700Y3050D01*
X550D01*
X1050Y2950D02*
X850D01*
X1050Y3150D01*
Y3200D01*
X1000Y3250D01*
X900D01*
X850Y3200D01*
X-13650Y2150D02*
X-13750D01*
X-13700D01*
Y1900D01*
X-13750Y1850D01*
X-13800D01*
X-13850Y1900D01*
X-13550Y1850D02*
X-13450D01*
X-13500D01*
Y2150D01*
X-13550Y2100D01*
X-14250Y3250D02*
X-14300Y3300D01*
X-14400D01*
X-14450Y3250D01*
Y3050D01*
X-14400Y3000D01*
X-14300D01*
X-14250Y3050D01*
X-14000Y3000D02*
Y3300D01*
X-14150Y3150D01*
X-13950D01*
X-2400Y-900D02*
Y-1150D01*
X-2350Y-1200D01*
X-2250D01*
X-2200Y-1150D01*
Y-900D01*
X-2100Y-950D02*
X-2050Y-900D01*
X-1950D01*
X-1900Y-950D01*
Y-1000D01*
X-1950Y-1050D01*
X-2000D01*
X-1950D01*
X-1900Y-1100D01*
Y-1150D01*
X-1950Y-1200D01*
X-2050D01*
X-2100Y-1150D01*
X1900Y-3167D02*
Y-3500D01*
X2150D01*
X2067Y-3333D01*
Y-3250D01*
X2150Y-3167D01*
X2317D01*
X2400Y-3250D01*
Y-3417D01*
X2317Y-3500D01*
X1900Y-3000D02*
X2233D01*
X2400Y-2834D01*
X2233Y-2667D01*
X1900D01*
X1983Y-1900D02*
X1900Y-1817D01*
Y-1650D01*
X1983Y-1567D01*
X2067D01*
X2150Y-1650D01*
Y-1733D01*
Y-1650D01*
X2233Y-1567D01*
X2317D01*
X2400Y-1650D01*
Y-1817D01*
X2317Y-1900D01*
X1900Y-1400D02*
X2233D01*
X2400Y-1234D01*
X2233Y-1067D01*
X1900D01*
M02*
