G04 Layer_Color=8388736*
%FSLAX24Y24*%
%MOIN*%
G70*
G01*
G75*
%ADD49R,0.1064X0.0867*%
%ADD50R,0.1182X0.0277*%
%ADD51R,0.1025X0.0907*%
%ADD52R,0.0769X0.0513*%
%ADD53R,0.0769X0.0513*%
%ADD54R,0.0769X0.1458*%
%ADD55R,0.0671X0.0592*%
%ADD56R,0.0592X0.0671*%
%ADD57R,0.0710X0.0789*%
%ADD58R,0.0316X0.0946*%
%ADD59R,0.0316X0.0946*%
%ADD60R,0.0552X0.0552*%
%ADD61C,0.0631*%
%ADD62C,0.0395*%
%ADD63R,0.0671X0.0710*%
%ADD64O,0.0671X0.0710*%
%ADD65C,0.0552*%
%ADD66R,0.0552X0.0552*%
%ADD67R,0.0671X0.0671*%
%ADD68C,0.0671*%
%ADD69C,0.0474*%
%ADD70R,0.0474X0.0474*%
D49*
X-12389Y-1939D02*
D03*
X-14555D02*
D03*
Y1939D02*
D03*
X-12389D02*
D03*
D50*
X-12252Y630D02*
D03*
Y-315D02*
D03*
Y-630D02*
D03*
Y315D02*
D03*
Y0D02*
D03*
D51*
X-2600Y354D02*
D03*
Y2046D02*
D03*
D52*
X299Y-1394D02*
D03*
Y-2300D02*
D03*
D53*
X299Y-3206D02*
D03*
D54*
X-2299Y-2300D02*
D03*
D55*
X-1500Y474D02*
D03*
Y-274D02*
D03*
X-3800Y374D02*
D03*
Y-374D02*
D03*
Y-1974D02*
D03*
Y-1226D02*
D03*
Y1974D02*
D03*
Y1226D02*
D03*
X-10250Y24D02*
D03*
Y-724D02*
D03*
D56*
X-10176Y2350D02*
D03*
X-10924D02*
D03*
X-6575Y-3150D02*
D03*
X-5827D02*
D03*
X-10126Y-3050D02*
D03*
X-10874D02*
D03*
X-10126Y-2150D02*
D03*
X-10874D02*
D03*
X-10924Y1450D02*
D03*
X-10176D02*
D03*
D57*
X-3849Y-3100D02*
D03*
X-4951D02*
D03*
X-11949Y3150D02*
D03*
X-13051D02*
D03*
D58*
X-5250Y-1890D02*
D03*
X-4750D02*
D03*
X-5750D02*
D03*
X-7250D02*
D03*
X-7750D02*
D03*
X-8250D02*
D03*
X-8750D02*
D03*
X-6250D02*
D03*
X-6750D02*
D03*
D59*
X-4750Y1890D02*
D03*
X-5250D02*
D03*
X-5750D02*
D03*
X-6250D02*
D03*
X-6750D02*
D03*
X-7250D02*
D03*
X-7750D02*
D03*
X-8250D02*
D03*
X-8750D02*
D03*
X-9250D02*
D03*
Y-1890D02*
D03*
D60*
X-9963Y3200D02*
D03*
X-9137D02*
D03*
D61*
X-13450Y-3100D02*
D03*
X-2600Y3200D02*
D03*
D62*
X-13374Y866D02*
D03*
Y-866D02*
D03*
D63*
X-450Y2350D02*
D03*
D64*
X550D02*
D03*
X-450Y1350D02*
D03*
X550D02*
D03*
X-450Y350D02*
D03*
X550Y350D02*
D03*
D65*
X1300Y-2300D02*
D03*
Y-1513D02*
D03*
D66*
Y-3087D02*
D03*
D67*
X-6750Y3100D02*
D03*
D68*
X-7750D02*
D03*
D69*
X2906Y2250D02*
D03*
X3406D02*
D03*
X2906Y1750D02*
D03*
X3406D02*
D03*
X2906Y1250D02*
D03*
X3406D02*
D03*
X2906Y-250D02*
D03*
X3406D02*
D03*
X2906Y-750D02*
D03*
Y-1250D02*
D03*
X3406D02*
D03*
X2906Y-1750D02*
D03*
X3406D02*
D03*
X2906Y-2250D02*
D03*
D70*
X3406D02*
D03*
M02*
