M48
;Layer_Color=9474304
;FILE_FORMAT=2:4
INCH,LZ
;TYPE=PLATED
T1F00S00C0.0197
T2F00S00C0.0236
T3F00S00C0.0315
T4F00S00C0.0354
%
T01
X-00945Y-00325
X-0083
X-00875Y-001
X-0094
X-009252Y00105
X-008268
X-00765
X-0078Y-0002
X-005709Y000098
Y-000984
X-0031Y-0009
Y-0022
Y-0033
X-00215
X-00095Y-00305
Y-0016
X0028Y-00335
X0031Y0033
X-00475Y003
X-01065Y00355
X-0115Y0024
X-01035Y0007
T02
X002906Y-00225
X003406
Y-00175
X002906
Y-00125
X003406
X002906Y-00075
Y-00025
X003406
Y00125
X002906
Y00175
X003406
Y00225
X002906
T03
X0013Y-003087
Y-0023
Y-001513
T04
X-00775Y0031
X-00675
X-0026Y0032
X-00045Y00235
Y00135
Y00035
X00055
Y00135
Y00235
X-01275Y-00305
M30
