G04 Layer_Color=16711935*
%FSLAX24Y24*%
%MOIN*%
G70*
G01*
G75*
%ADD49R,0.0592X0.0671*%
%ADD54C,0.0552*%
%ADD55R,0.0552X0.0552*%
%ADD56C,0.0671*%
%ADD57R,0.0671X0.0671*%
%ADD58R,0.0474X0.0474*%
%ADD59C,0.0474*%
%ADD60C,0.0700*%
%ADD61R,0.0700X0.0700*%
%ADD62C,0.0631*%
%ADD63O,0.0828X0.0316*%
%ADD64R,0.1419X0.0828*%
D49*
X-274Y-1550D02*
D03*
X474D02*
D03*
X424Y-3050D02*
D03*
X-324D02*
D03*
X-1526Y-600D02*
D03*
X-2274D02*
D03*
X-1526Y300D02*
D03*
X-2274D02*
D03*
Y2100D02*
D03*
X-1526D02*
D03*
Y-1500D02*
D03*
X-2274D02*
D03*
X2174Y450D02*
D03*
X1426D02*
D03*
X-2274Y1200D02*
D03*
X-1526D02*
D03*
X-11352Y-775D02*
D03*
X-12100D02*
D03*
D54*
X1300Y-2300D02*
D03*
Y-1513D02*
D03*
D55*
Y-3087D02*
D03*
D56*
X-7750Y3100D02*
D03*
D57*
X-6750D02*
D03*
D58*
X3406Y-2250D02*
D03*
D59*
X2906D02*
D03*
X3406Y-1750D02*
D03*
X2906D02*
D03*
X3406Y-1250D02*
D03*
X2906D02*
D03*
Y-750D02*
D03*
X3406Y-250D02*
D03*
X2906D02*
D03*
X3406Y1250D02*
D03*
X2906D02*
D03*
X3406Y1750D02*
D03*
X2906D02*
D03*
X3406Y2250D02*
D03*
X2906D02*
D03*
D60*
X-450Y350D02*
D03*
Y1350D02*
D03*
X550Y350D02*
D03*
Y1350D02*
D03*
Y2350D02*
D03*
D61*
X-450D02*
D03*
D62*
X-2600Y3200D02*
D03*
X-12750Y-3050D02*
D03*
D63*
X-4775Y1250D02*
D03*
Y750D02*
D03*
Y250D02*
D03*
Y-250D02*
D03*
Y-750D02*
D03*
Y-1250D02*
D03*
Y-1750D02*
D03*
X-6625Y1250D02*
D03*
Y750D02*
D03*
Y250D02*
D03*
Y-250D02*
D03*
Y-750D02*
D03*
Y-1250D02*
D03*
Y-1750D02*
D03*
D64*
X-11700Y282D02*
D03*
Y1818D02*
D03*
M02*
