G04 Layer_Color=65535*
%FSLAX24Y24*%
%MOIN*%
G70*
G01*
G75*
%ADD22C,0.0100*%
%ADD41C,0.0080*%
%ADD42C,0.0098*%
%ADD43C,0.0079*%
%ADD44C,0.0039*%
%ADD45C,0.0060*%
G36*
X3725Y-3350D02*
X3075D01*
X3425Y-2800D01*
X3725Y-3350D01*
D02*
G37*
G36*
X-375Y3000D02*
X-675Y3550D01*
X-25D01*
X-375Y3000D01*
D02*
G37*
D22*
X-1970Y19D02*
Y2381D01*
X-3230Y19D02*
Y2381D01*
D41*
X-13037Y-3100D02*
G03*
X-13037Y-3100I-413J0D01*
G01*
X-2187Y3200D02*
G03*
X-2187Y3200I-413J0D01*
G01*
X-10288Y2875D02*
Y3525D01*
Y2875D02*
X-8723D01*
Y3525D01*
X-10288Y3525D02*
X-8723Y3525D01*
X-8812Y2885D02*
Y3515D01*
X1933Y1583D02*
X1850Y1500D01*
Y1333D01*
X1933Y1250D01*
X2017D01*
X2100Y1333D01*
Y1500D01*
X2183Y1583D01*
X2267D01*
X2350Y1500D01*
Y1333D01*
X2267Y1250D01*
X1850Y1750D02*
X2350D01*
X2183Y1916D01*
X2350Y2083D01*
X1850D01*
Y2250D02*
X2350D01*
Y2500D01*
X2267Y2583D01*
X1933D01*
X1850Y2500D01*
Y2250D01*
X-1700Y1550D02*
X-1200D01*
Y1800D01*
X-1283Y1883D01*
X-1367D01*
X-1450Y1800D01*
Y1550D01*
Y1800D01*
X-1533Y1883D01*
X-1617D01*
X-1700Y1800D01*
Y1550D01*
Y2050D02*
X-1200D01*
Y2300D01*
X-1283Y2383D01*
X-1617D01*
X-1700Y2300D01*
Y2050D01*
X-1200Y2550D02*
X-1700D01*
X-1533Y2716D01*
X-1700Y2883D01*
X-1200D01*
D42*
X950Y-3200D02*
G03*
X950Y-3200I-49J0D01*
G01*
X-4366Y1929D02*
G03*
X-4366Y1929I-49J0D01*
G01*
D43*
X-4378Y250D02*
G03*
X-4378Y-250I0J-250D01*
G01*
X-950Y-150D02*
X1050D01*
X-950Y2850D02*
X1050D01*
Y-150D02*
Y2850D01*
X-950D02*
X-950Y-150D01*
X-950Y1767D02*
X-950Y-150D01*
X906Y-1119D02*
X1694D01*
Y-3481D02*
Y-1119D01*
X906Y-3481D02*
Y-1119D01*
Y-3481D02*
X1694D01*
X-272Y-981D02*
X-272Y-3619D01*
X-1728Y-981D02*
X-272D01*
X-1728D02*
X-1728Y-3619D01*
X-272Y-3619D01*
X-1953Y887D02*
X-1047D01*
X-1953Y-687D02*
X-1047D01*
Y257D02*
Y887D01*
Y-687D02*
Y-57D01*
X-1953Y257D02*
Y887D01*
Y-687D02*
Y-57D01*
X-8250Y2600D02*
Y3600D01*
X-6250D01*
Y2600D02*
Y3600D01*
X-8250Y2600D02*
X-6250D01*
X-10393Y1897D02*
X-9763D01*
X-11337D02*
X-10707D01*
X-10393Y2803D02*
X-9763D01*
X-11337D02*
X-10707D01*
X-9763Y1897D02*
Y2803D01*
X-11337Y1897D02*
Y2803D01*
X-5424Y-3612D02*
Y-2588D01*
Y-3612D02*
X-3573D01*
X-5424Y-2588D02*
X-3573D01*
X-4253Y-787D02*
Y-157D01*
Y157D02*
Y787D01*
X-3347Y-787D02*
Y-157D01*
Y157D02*
Y787D01*
X-4253Y-787D02*
X-3347D01*
X-4253Y787D02*
X-3347D01*
X-5413Y-3602D02*
Y-2697D01*
X-6988Y-3602D02*
Y-2697D01*
X-6043Y-3602D02*
X-5413D01*
X-6988D02*
X-6358D01*
X-6043Y-2697D02*
X-5413D01*
X-6988D02*
X-6358D01*
X-9622Y-1535D02*
Y1535D01*
X-4378Y250D02*
Y1535D01*
Y-1535D02*
Y-250D01*
X-4253Y-813D02*
X-3347D01*
X-4253Y-2387D02*
X-3347D01*
Y-1443D02*
Y-813D01*
Y-2387D02*
Y-1757D01*
X-4253Y-1443D02*
Y-813D01*
Y-2387D02*
Y-1757D01*
Y813D02*
X-3347D01*
X-4253Y2387D02*
X-3347D01*
X-4253Y813D02*
Y1443D01*
Y1757D02*
Y2387D01*
X-3347Y813D02*
Y1443D01*
Y1757D02*
Y2387D01*
X-9713Y-3503D02*
Y-2597D01*
X-11287Y-3503D02*
Y-2597D01*
X-10343Y-3503D02*
X-9713D01*
X-11287D02*
X-10657D01*
X-10343Y-2597D02*
X-9713D01*
X-11287D02*
X-10657D01*
X-9713Y-2603D02*
Y-1697D01*
X-11287Y-2603D02*
Y-1697D01*
X-10343Y-2603D02*
X-9713D01*
X-11287D02*
X-10657D01*
X-10343Y-1697D02*
X-9713D01*
X-11287D02*
X-10657D01*
X-10393Y997D02*
X-9763D01*
X-11337D02*
X-10707D01*
X-10393Y1903D02*
X-9763D01*
X-11337D02*
X-10707D01*
X-9763Y997D02*
Y1903D01*
X-11337Y997D02*
Y1903D01*
X-9797Y-193D02*
Y437D01*
Y-1137D02*
Y-507D01*
X-10703Y-193D02*
Y437D01*
Y-1137D02*
Y-507D01*
Y437D02*
X-9797D01*
X-10703Y-1137D02*
X-9797D01*
X2552Y-2604D02*
X3761D01*
Y2644D01*
X2552D02*
X3761D01*
X2552Y-2604D02*
Y2644D01*
X-13327Y2638D02*
X-11476D01*
X-13327Y3661D02*
X-11476D01*
Y2638D02*
Y3661D01*
D44*
X-11878Y-1417D02*
Y-866D01*
Y866D02*
Y1417D01*
X-13925Y-1575D02*
X-13137D01*
X-13925Y1575D02*
X-13137D01*
X-15500Y-1575D02*
Y1575D01*
D45*
X-770Y-2650D02*
X-520D01*
X-470Y-2600D01*
Y-2500D01*
X-520Y-2450D01*
X-770D01*
X-720Y-2350D02*
X-770Y-2300D01*
Y-2200D01*
X-720Y-2150D01*
X-670D01*
X-620Y-2200D01*
Y-2250D01*
Y-2200D01*
X-570Y-2150D01*
X-520D01*
X-470Y-2200D01*
Y-2300D01*
X-520Y-2350D01*
X-14250Y3250D02*
X-14300Y3300D01*
X-14400D01*
X-14450Y3250D01*
Y3050D01*
X-14400Y3000D01*
X-14300D01*
X-14250Y3050D01*
X-14000Y3000D02*
Y3300D01*
X-14150Y3150D01*
X-13950D01*
X-13650Y2150D02*
X-13750D01*
X-13700D01*
Y1900D01*
X-13750Y1850D01*
X-13800D01*
X-13850Y1900D01*
X-13550Y1850D02*
X-13450D01*
X-13500D01*
Y2150D01*
X-13550Y2100D01*
X550Y2950D02*
Y3250D01*
X700D01*
X750Y3200D01*
Y3100D01*
X700Y3050D01*
X550D01*
X1050Y2950D02*
X850D01*
X1050Y3150D01*
Y3200D01*
X1000Y3250D01*
X900D01*
X850Y3200D01*
X3300Y2800D02*
Y3100D01*
X3450D01*
X3500Y3050D01*
Y2950D01*
X3450Y2900D01*
X3300D01*
X3600Y2800D02*
X3700D01*
X3650D01*
Y3100D01*
X3600Y3050D01*
X-10350Y-1300D02*
X-10400Y-1250D01*
X-10500D01*
X-10550Y-1300D01*
Y-1500D01*
X-10500Y-1550D01*
X-10400D01*
X-10350Y-1500D01*
X-10050Y-1550D02*
X-10250D01*
X-10050Y-1350D01*
Y-1300D01*
X-10100Y-1250D01*
X-10200D01*
X-10250Y-1300D01*
X-11250Y580D02*
Y880D01*
X-11100D01*
X-11050Y830D01*
Y730D01*
X-11100Y680D01*
X-11250D01*
X-11150D02*
X-11050Y580D01*
X-10950D02*
X-10850D01*
X-10900D01*
Y880D01*
X-10950Y830D01*
X-12350Y-2950D02*
Y-2650D01*
X-12200D01*
X-12150Y-2700D01*
Y-2800D01*
X-12200Y-2850D01*
X-12350D01*
X-12250D02*
X-12150Y-2950D01*
X-12050D02*
X-11950D01*
X-12000D01*
Y-2650D01*
X-12050Y-2700D01*
X-11800D02*
X-11750Y-2650D01*
X-11650D01*
X-11600Y-2700D01*
Y-2900D01*
X-11650Y-2950D01*
X-11750D01*
X-11800Y-2900D01*
Y-2700D01*
X-12350Y-3450D02*
Y-3150D01*
X-12200D01*
X-12150Y-3200D01*
Y-3300D01*
X-12200Y-3350D01*
X-12350D01*
X-12250D02*
X-12150Y-3450D01*
X-12050D02*
X-11950D01*
X-12000D01*
Y-3150D01*
X-12050Y-3200D01*
X-11800Y-3450D02*
X-11700D01*
X-11750D01*
Y-3150D01*
X-11800Y-3200D01*
X-3850Y3650D02*
X-3900Y3700D01*
X-4000D01*
X-4050Y3650D01*
Y3450D01*
X-4000Y3400D01*
X-3900D01*
X-3850Y3450D01*
X-3550Y3700D02*
X-3750D01*
Y3550D01*
X-3650Y3600D01*
X-3600D01*
X-3550Y3550D01*
Y3450D01*
X-3600Y3400D01*
X-3700D01*
X-3750Y3450D01*
X-3850Y2800D02*
X-3900Y2850D01*
X-4000D01*
X-4050Y2800D01*
Y2600D01*
X-4000Y2550D01*
X-3900D01*
X-3850Y2600D01*
X-3750Y2850D02*
X-3550D01*
Y2800D01*
X-3750Y2600D01*
Y2550D01*
X-8900Y250D02*
Y-0D01*
X-8850Y-50D01*
X-8750D01*
X-8700Y-0D01*
Y250D01*
X-8400Y-50D02*
X-8600D01*
X-8400Y150D01*
Y200D01*
X-8450Y250D01*
X-8550D01*
X-8600Y200D01*
X-7551Y-3150D02*
X-7601Y-3100D01*
X-7701D01*
X-7751Y-3150D01*
Y-3350D01*
X-7701Y-3400D01*
X-7601D01*
X-7551Y-3350D01*
X-7451Y-3400D02*
X-7351D01*
X-7401D01*
Y-3100D01*
X-7451Y-3150D01*
X-4050Y3000D02*
Y3300D01*
X-3900D01*
X-3850Y3250D01*
Y3150D01*
X-3900Y3100D01*
X-4050D01*
X-3950D02*
X-3850Y3000D01*
X-3550D02*
X-3750D01*
X-3550Y3200D01*
Y3250D01*
X-3600Y3300D01*
X-3700D01*
X-3750Y3250D01*
X-3150Y-2700D02*
X-3200Y-2650D01*
X-3300D01*
X-3350Y-2700D01*
Y-2900D01*
X-3300Y-2950D01*
X-3200D01*
X-3150Y-2900D01*
X-3050Y-2700D02*
X-3000Y-2650D01*
X-2900D01*
X-2850Y-2700D01*
Y-2750D01*
X-2900Y-2800D01*
X-2950D01*
X-2900D01*
X-2850Y-2850D01*
Y-2900D01*
X-2900Y-2950D01*
X-3000D01*
X-3050Y-2900D01*
X-2950Y1350D02*
Y1300D01*
X-2850Y1200D01*
X-2750Y1300D01*
Y1350D01*
X-2850Y1200D02*
Y1050D01*
X-2650D02*
X-2550D01*
X-2600D01*
Y1350D01*
X-2650Y1300D01*
X-11000Y2950D02*
Y3250D01*
X-10850D01*
X-10800Y3200D01*
Y3100D01*
X-10850Y3050D01*
X-11000D01*
X-10900D02*
X-10800Y2950D01*
X-10500Y3250D02*
X-10700D01*
Y3100D01*
X-10600Y3150D01*
X-10550D01*
X-10500Y3100D01*
Y3000D01*
X-10550Y2950D01*
X-10650D01*
X-10700Y3000D01*
X-5850Y3200D02*
X-5950D01*
X-5900D01*
Y2950D01*
X-5950Y2900D01*
X-6000D01*
X-6050Y2950D01*
X-5750Y2900D02*
Y3200D01*
X-5600D01*
X-5550Y3150D01*
Y3050D01*
X-5600Y3000D01*
X-5750D01*
X-5450Y2900D02*
X-5350D01*
X-5400D01*
Y3200D01*
X-5450Y3150D01*
X-2550Y-650D02*
Y-350D01*
X-2400D01*
X-2350Y-400D01*
Y-500D01*
X-2400Y-550D01*
X-2550D01*
X-2450D02*
X-2350Y-650D01*
X-2250Y-400D02*
X-2200Y-350D01*
X-2100D01*
X-2050Y-400D01*
Y-450D01*
X-2100Y-500D01*
X-2150D01*
X-2100D01*
X-2050Y-550D01*
Y-600D01*
X-2100Y-650D01*
X-2200D01*
X-2250Y-600D01*
X1100Y-700D02*
X1000D01*
X1050D01*
Y-950D01*
X1000Y-1000D01*
X950D01*
X900Y-950D01*
X1200Y-1000D02*
Y-700D01*
X1350D01*
X1400Y-750D01*
Y-850D01*
X1350Y-900D01*
X1200D01*
X1700Y-1000D02*
X1500D01*
X1700Y-800D01*
Y-750D01*
X1650Y-700D01*
X1550D01*
X1500Y-750D01*
X1983Y-1900D02*
X1900Y-1817D01*
Y-1650D01*
X1983Y-1567D01*
X2067D01*
X2150Y-1650D01*
Y-1733D01*
Y-1650D01*
X2233Y-1567D01*
X2317D01*
X2400Y-1650D01*
Y-1817D01*
X2317Y-1900D01*
X1900Y-1400D02*
X2233D01*
X2400Y-1234D01*
X2233Y-1067D01*
X1900D01*
Y-3167D02*
Y-3500D01*
X2150D01*
X2067Y-3333D01*
Y-3250D01*
X2150Y-3167D01*
X2317D01*
X2400Y-3250D01*
Y-3417D01*
X2317Y-3500D01*
X1900Y-3000D02*
X2233D01*
X2400Y-2834D01*
X2233Y-2667D01*
X1900D01*
M02*
